<svg width="370" height="275" viewBox="0 0 370 275" fill="none" xmlns="http://www.w3.org/2000/svg">
<g opacity="0.3">
<path d="M369.028 241.639H0V241.824H369.028V241.639Z" fill="#EDFFF6"/>
<path d="M332.051 253.515H307.607V253.699H332.051V253.515Z" fill="#EDFFF6"/>
<path d="M244.459 255.522H238.045V255.707H244.459V255.522Z" fill="#EDFFF6"/>
<path d="M306.869 246.666H292.706V246.85H306.869V246.666Z" fill="#EDFFF6"/>
<path d="M70.5951 247.906H38.7185V248.09H70.5951V247.906Z" fill="#EDFFF6"/>
<path d="M81.843 247.906H77.1711V248.09H81.843V247.906Z" fill="#EDFFF6"/>
<path d="M166.173 251.02H97.0322V251.205H166.173V251.02Z" fill="#EDFFF6"/>
<path d="M174.919 208.722H32.4081C31.2917 208.72 30.2216 208.275 29.4329 207.485C28.6442 206.695 28.2012 205.624 28.2012 204.508V4.17739C28.2109 3.06738 28.6582 2.00602 29.4459 1.22386C30.2336 0.441695 31.298 0.00190152 32.4081 0H174.919C176.037 0 177.109 0.444005 177.899 1.23434C178.69 2.02467 179.134 3.0966 179.134 4.2143V204.508C179.134 205.626 178.69 206.697 177.899 207.488C177.109 208.278 176.037 208.722 174.919 208.722ZM32.4081 0.147612C31.3406 0.149567 30.3175 0.574993 29.5634 1.33051C28.8092 2.08603 28.3857 3.10991 28.3857 4.17739V204.508C28.3857 205.575 28.8092 206.599 29.5634 207.355C30.3175 208.11 31.3406 208.536 32.4081 208.538H174.919C175.987 208.536 177.011 208.11 177.767 207.355C178.522 206.6 178.947 205.576 178.949 204.508V4.17739C178.947 3.10923 178.522 2.08537 177.767 1.33006C177.011 0.574754 175.987 0.149563 174.919 0.147612H32.4081Z" fill="#EDFFF6"/>
<path d="M334.568 208.722H192.049C190.932 208.72 189.862 208.276 189.072 207.486C188.282 206.696 187.837 205.625 187.835 204.508V4.17739C187.847 3.0667 188.296 2.00535 189.085 1.2234C189.874 0.441437 190.939 0.00188078 192.049 0H334.568C335.677 0.00384121 336.739 0.444493 337.525 1.22645C338.312 2.0084 338.758 3.06865 338.768 4.17739V204.508C338.768 205.623 338.326 206.693 337.538 207.483C336.751 208.272 335.683 208.718 334.568 208.722ZM192.049 0.147612C190.981 0.149563 189.957 0.574754 189.202 1.33006C188.447 2.08537 188.022 3.10923 188.02 4.17739V204.508C188.022 205.576 188.447 206.6 189.202 207.355C189.957 208.11 190.981 208.536 192.049 208.538H334.568C335.636 208.536 336.66 208.11 337.415 207.355C338.171 206.6 338.596 205.576 338.598 204.508V4.17739C338.596 3.10923 338.171 2.08537 337.415 1.33006C336.66 0.574754 335.636 0.149563 334.568 0.147612H192.049Z" fill="#EDFFF6"/>
<path d="M324.899 241.639H251.677L245.182 80.9499H318.405L324.899 241.639Z" fill="#D6EBE1"/>
<path d="M327.143 241.639H253.921L247.418 80.9499H320.641L327.143 241.639Z" fill="#A6BEB3"/>
<path d="M258.305 237.071L252.179 85.5185H316.257L322.383 237.071H258.305Z" fill="#7A9186"/>
<path d="M216.236 21.9055H48.5051V139.994H216.236V21.9055Z" fill="#D6EBE1"/>
<path d="M219.933 21.9055H49.9736V139.994H219.933V21.9055Z" fill="#90A79C"/>
<path d="M222.664 139.994H48.5051V143.973H222.664V139.994Z" fill="#D6EBE1"/>
<path d="M226.679 139.994H58.1736V143.973H226.679V139.994Z" fill="#90A79C"/>
<path d="M213.298 132.835V29.0573L56.6089 29.0573V132.835H213.298Z" fill="#647A70"/>
<path d="M138.651 132.835V29.0573H131.256V132.835H138.651Z" fill="#90A79C"/>
<path d="M213.305 132.843V29.0646H210.508V132.843H213.305Z" fill="#EDFFF6"/>
<path d="M131.263 132.835V29.0573H128.466V132.835H131.263Z" fill="#EDFFF6"/>
<path d="M102.988 55.4575C102.965 58.4276 101.999 61.3135 100.229 63.6992C98.46 66.085 95.9789 67.8473 93.1435 68.7322C90.3082 69.6171 87.2652 69.5789 84.453 68.6231C81.6408 67.6672 79.2047 65.8431 77.4958 63.4137C79.5617 64.5594 81.8868 65.1565 84.2491 65.1482C86.7979 65.1401 89.2963 64.4375 91.4757 63.116C93.6552 61.7944 95.4332 59.9038 96.6187 57.6474C97.8042 55.3911 98.3523 52.8543 98.204 50.3098C98.0558 47.7652 97.2169 45.3092 95.7775 43.2058C97.9658 44.4158 99.7893 46.1909 101.058 48.3459C102.326 50.501 102.993 52.9569 102.988 55.4575Z" fill="#EDFFF6"/>
<path d="M169.428 50.3944C169.901 50.3944 170.284 50.0111 170.284 49.5383C170.284 49.0655 169.901 48.6821 169.428 48.6821C168.955 48.6821 168.572 49.0655 168.572 49.5383C168.572 50.0111 168.955 50.3944 169.428 50.3944Z" fill="#EDFFF6"/>
<path d="M157.464 68.6023C157.937 68.6023 158.32 68.219 158.32 67.7461C158.32 67.2733 157.937 66.89 157.464 66.89C156.991 66.89 156.608 67.2733 156.608 67.7461C156.608 68.219 156.991 68.6023 157.464 68.6023Z" fill="#EDFFF6"/>
<path d="M72.728 40.9473C73.2008 40.9473 73.5841 40.564 73.5841 40.0912C73.5841 39.6183 73.2008 39.235 72.728 39.235C72.2551 39.235 71.8718 39.6183 71.8718 40.0912C71.8718 40.564 72.2551 40.9473 72.728 40.9473Z" fill="#EDFFF6"/>
<path d="M195.858 66.2036C196.331 66.2036 196.714 65.8203 196.714 65.3474C196.714 64.8746 196.331 64.4913 195.858 64.4913C195.385 64.4913 195.002 64.8746 195.002 65.3474C195.002 65.8203 195.385 66.2036 195.858 66.2036Z" fill="#EDFFF6"/>
<path d="M153.493 40.9473C153.966 40.9473 154.35 40.564 154.35 40.0912C154.35 39.6183 153.966 39.235 153.493 39.235C153.021 39.235 152.637 39.6183 152.637 40.0912C152.637 40.564 153.021 40.9473 153.493 40.9473Z" fill="#EDFFF6"/>
<path d="M168.572 88.2788C169.045 88.2788 169.428 87.8955 169.428 87.4227C169.428 86.9498 169.045 86.5665 168.572 86.5665C168.099 86.5665 167.716 86.9498 167.716 87.4227C167.716 87.8955 168.099 88.2788 168.572 88.2788Z" fill="#EDFFF6"/>
<path d="M195.002 44.9181C195.474 44.9181 195.858 44.5348 195.858 44.0619C195.858 43.5891 195.474 43.2058 195.002 43.2058C194.529 43.2058 194.146 43.5891 194.146 44.0619C194.146 44.5348 194.529 44.9181 195.002 44.9181Z" fill="#EDFFF6"/>
<path d="M69.6134 120.259C69.6134 120.428 69.5632 120.594 69.4691 120.734C69.3751 120.875 69.2413 120.985 69.0849 121.05C68.9285 121.115 68.7563 121.132 68.5902 121.098C68.4242 121.065 68.2716 120.984 68.1519 120.864C68.0322 120.744 67.9506 120.592 67.9176 120.426C67.8845 120.26 67.9015 120.088 67.9663 119.931C68.0311 119.775 68.1408 119.641 68.2816 119.547C68.4224 119.453 68.5879 119.403 68.7573 119.403C68.9843 119.403 69.2021 119.493 69.3627 119.653C69.5232 119.814 69.6134 120.032 69.6134 120.259Z" fill="#EDFFF6"/>
<path d="M153.936 103.165C153.936 103.335 153.886 103.5 153.792 103.641C153.698 103.782 153.564 103.892 153.408 103.956C153.251 104.021 153.079 104.038 152.913 104.005C152.747 103.972 152.594 103.891 152.475 103.771C152.355 103.651 152.273 103.499 152.24 103.332C152.207 103.166 152.224 102.994 152.289 102.838C152.354 102.681 152.464 102.548 152.604 102.454C152.745 102.359 152.911 102.309 153.08 102.309C153.307 102.309 153.525 102.399 153.685 102.56C153.846 102.721 153.936 102.938 153.936 103.165Z" fill="#EDFFF6"/>
<path d="M191.474 101.623C191.947 101.623 192.33 101.24 192.33 100.767C192.33 100.294 191.947 99.9106 191.474 99.9106C191.001 99.9106 190.618 100.294 190.618 100.767C190.618 101.24 191.001 101.623 191.474 101.623Z" fill="#EDFFF6"/>
<path d="M112.354 96.5746C112.827 96.5746 113.21 96.1913 113.21 95.7184C113.21 95.2456 112.827 94.8623 112.354 94.8623C111.881 94.8623 111.498 95.2456 111.498 95.7184C111.498 96.1913 111.881 96.5746 112.354 96.5746Z" fill="#EDFFF6"/>
<path d="M165.044 122.842C165.044 123.011 164.994 123.177 164.9 123.318C164.806 123.458 164.672 123.568 164.516 123.633C164.359 123.698 164.187 123.715 164.021 123.682C163.855 123.649 163.702 123.567 163.583 123.447C163.463 123.328 163.381 123.175 163.348 123.009C163.315 122.843 163.332 122.671 163.397 122.514C163.462 122.358 163.571 122.224 163.712 122.13C163.853 122.036 164.019 121.986 164.188 121.986C164.415 121.986 164.633 122.076 164.793 122.237C164.954 122.397 165.044 122.615 165.044 122.842Z" fill="#EDFFF6"/>
<path d="M115.417 72.0268C115.89 72.0268 116.273 71.6435 116.273 71.1707C116.273 70.6979 115.89 70.3146 115.417 70.3146C114.944 70.3146 114.561 70.6979 114.561 71.1707C114.561 71.6435 114.944 72.0268 115.417 72.0268Z" fill="#EDFFF6"/>
<path d="M77.9387 82.6622C78.4115 82.6622 78.7948 82.2789 78.7948 81.8061C78.7948 81.3332 78.4115 80.9499 77.9387 80.9499C77.4658 80.9499 77.0825 81.3332 77.0825 81.8061C77.0825 82.2789 77.4658 82.6622 77.9387 82.6622Z" fill="#EDFFF6"/>
<path d="M89.5629 104.693C90.0358 104.693 90.4191 104.31 90.4191 103.837C90.4191 103.364 90.0358 102.981 89.5629 102.981C89.0901 102.981 88.7068 103.364 88.7068 103.837C88.7068 104.31 89.0901 104.693 89.5629 104.693Z" fill="#EDFFF6"/>
<path d="M224.885 175H211.519V241.639H224.885V175Z" fill="#D6EBE1"/>
<path d="M220.878 241.639H224.886V233.609H216.678L220.878 241.639Z" fill="#A6BEB3"/>
<path d="M71.6135 175H58.2473V241.639H71.6135V175Z" fill="#D6EBE1"/>
<path d="M224.893 175H68.1226V238.968H224.893V175Z" fill="#A6BEB3"/>
<path d="M72.1228 241.639H68.1226V233.609H76.3297L72.1228 241.639Z" fill="#A6BEB3"/>
<path d="M221.778 179.503H71.2297V205.098H221.778V179.503Z" fill="#D6EBE1"/>
<path d="M197.799 187.466H97.9253C94.0136 187.466 90.2791 184.307 87.5925 178.735H208.132C205.416 184.292 201.681 187.466 197.799 187.466Z" fill="#A6BEB3"/>
<path d="M221.778 209.231H71.2297V234.827H221.778V209.231Z" fill="#D6EBE1"/>
<path d="M197.799 217.188H97.9253C94.0136 217.188 90.2791 214.029 87.5925 208.456H208.132C205.416 214.036 201.681 217.188 197.799 217.188Z" fill="#A6BEB3"/>
<path d="M122.613 175H89.3047C88.5757 174.952 87.8855 174.655 87.3489 174.159C86.2659 173.248 85.4923 172.023 85.1347 170.653L83.1936 163.538H128.717L126.776 170.653C126.421 172.024 125.647 173.25 124.562 174.159C124.028 174.655 123.34 174.952 122.613 175Z" fill="#D6EBE1"/>
<path d="M128.252 166.616H83.6955C82.6253 166.616 81.7323 166.291 81.6068 165.878L80.699 162.623C80.5588 162.129 81.533 161.686 82.7803 161.686H129.16C130.414 161.686 131.374 162.129 131.248 162.623L130.333 165.878C130.215 166.291 129.322 166.616 128.252 166.616Z" fill="#7A9186"/>
<path d="M184.514 274.97C263.547 274.97 327.616 271.229 327.616 266.615C327.616 262.001 263.547 258.26 184.514 258.26C105.481 258.26 41.4124 262.001 41.4124 266.615C41.4124 271.229 105.481 274.97 184.514 274.97Z" fill="#90A79C"/>
<path d="M146.135 179.074H68.2776C63.3862 179.074 59.4209 183.04 59.4209 187.931V224.841C59.4209 229.733 63.3862 233.698 68.2776 233.698H146.135C151.026 233.698 154.992 229.733 154.992 224.841V187.931C154.992 183.04 151.026 179.074 146.135 179.074Z" fill="#2AD482"/>
<path opacity="0.7" d="M146.135 179.074H68.2776C63.3862 179.074 59.4209 183.04 59.4209 187.931V224.841C59.4209 229.733 63.3862 233.698 68.2776 233.698H146.135C151.026 233.698 154.992 229.733 154.992 224.841V187.931C154.992 183.04 151.026 179.074 146.135 179.074Z" fill="#FDFFFE"/>
<path opacity="0.2" d="M59.4209 187.924V224.827C59.4209 227.175 60.354 229.428 62.015 231.089C63.6759 232.75 65.9286 233.683 68.2776 233.683V185.769C68.277 184.844 67.9687 183.946 67.4012 183.216C66.8337 182.486 66.0393 181.966 65.1433 181.737C64.2474 181.509 63.3009 181.585 62.4532 181.954C61.6054 182.324 60.9047 182.964 60.4616 183.776C59.7779 185.052 59.4204 186.476 59.4209 187.924Z" fill="#2AD482"/>
<path d="M300.743 218.885H68.2776C63.3862 218.885 59.4209 222.85 59.4209 227.742V235.3C59.4209 240.191 63.3862 244.156 68.2776 244.156H300.743C305.634 244.156 309.6 240.191 309.6 235.3V227.742C309.6 222.85 305.634 218.885 300.743 218.885Z" fill="#2AD482"/>
<path opacity="0.7" d="M300.743 218.885H68.2776C63.3862 218.885 59.4209 222.85 59.4209 227.742V235.3C59.4209 240.191 63.3862 244.156 68.2776 244.156H300.743C305.634 244.156 309.6 240.191 309.6 235.3V227.742C309.6 222.85 305.634 218.885 300.743 218.885Z" fill="#FDFFFE"/>
<path opacity="0.2" d="M212.619 218.885H68.2776C63.3862 218.885 59.4209 222.85 59.4209 227.742V235.3C59.4209 240.191 63.3862 244.156 68.2776 244.156H212.619C217.51 244.156 221.476 240.191 221.476 235.3V227.742C221.476 222.85 217.51 218.885 212.619 218.885Z" fill="#2AD482"/>
<path d="M201.548 266.615H204.191L209.423 244.156H201.548V266.615Z" fill="#2AD482"/>
<path opacity="0.7" d="M201.548 266.615H204.191L209.423 244.156H201.548V266.615Z" fill="#FDFFFE"/>
<path d="M199.401 266.615H202.043L207.268 244.156H199.401V266.615Z" fill="#2AD482"/>
<path opacity="0.4" d="M199.401 266.615H202.043L207.268 244.156H199.401V266.615Z" fill="#FDFFFE"/>
<path d="M288.764 266.615H291.407L296.639 244.156H288.764V266.615Z" fill="#2AD482"/>
<path opacity="0.7" d="M288.764 266.615H291.407L296.639 244.156H288.764V266.615Z" fill="#FDFFFE"/>
<path d="M286.616 266.615H289.259L294.484 244.156H286.616V266.615Z" fill="#2AD482"/>
<path opacity="0.4" d="M286.616 266.615H289.259L294.484 244.156H286.616V266.615Z" fill="#FDFFFE"/>
<path d="M72.7502 266.615H75.3925L80.6253 244.156H72.7502V266.615Z" fill="#2AD482"/>
<path opacity="0.7" d="M72.7502 266.615H75.3925L80.6253 244.156H72.7502V266.615Z" fill="#FDFFFE"/>
<path d="M70.595 266.615H73.2372L78.47 244.156H70.595V266.615Z" fill="#2AD482"/>
<path opacity="0.4" d="M70.595 266.615H73.2372L78.47 244.156H70.595V266.615Z" fill="#FDFFFE"/>
<path d="M159.966 266.615H162.609L167.841 244.156H159.966V266.615Z" fill="#2AD482"/>
<path opacity="0.7" d="M159.966 266.615H162.609L167.841 244.156H159.966V266.615Z" fill="#FDFFFE"/>
<path d="M157.811 266.615H160.453L165.686 244.156H157.811V266.615Z" fill="#2AD482"/>
<path opacity="0.4" d="M157.811 266.615H160.453L165.686 244.156H157.811V266.615Z" fill="#FDFFFE"/>
<path d="M95.8217 218.885C79.9166 218.885 76.3297 191.105 75.8278 178.654C75.3259 166.203 116.325 179.458 123.543 178.654C130.761 177.849 150.667 169.613 156.948 180.056C163.228 190.5 160.446 197.349 166.542 203.571C172.639 209.792 178.026 213.903 172.941 218.885H95.8217Z" fill="#2AD482"/>
<path opacity="0.4" d="M95.8217 218.885C79.9166 218.885 76.3297 191.105 75.8278 178.654C75.3259 166.203 116.325 179.458 123.543 178.654C130.761 177.849 150.667 169.613 156.948 180.056C163.228 190.5 160.446 197.349 166.542 203.571C172.639 209.792 178.026 213.903 172.941 218.885H95.8217Z" fill="#FDFFFE"/>
<path opacity="0.4" d="M95.8219 218.885C79.9168 218.885 76.3299 191.105 75.828 178.654C75.6361 173.982 81.2822 172.926 88.803 173.391C97.6597 175.502 85.2308 190.226 93.3642 199.12C100.671 207.106 102.088 218.287 95.8219 218.885Z" fill="#2AD482"/>
<path d="M223.203 218.885C223.203 218.885 213.829 215.852 206.81 215.158C206.049 215.06 205.282 215.015 204.515 215.025H204.257H203.903C200.976 215.156 198.078 215.652 195.275 216.501C191.164 217.763 185.739 216.162 181.17 215.645C176.602 215.128 162.276 217.084 159.029 216.095C155.781 215.106 139.736 216.582 137.02 217.173C134.304 217.763 126.178 217.741 122.547 216.605C118.915 215.468 102.656 215.866 102.752 219.446C102.996 228.192 98.8108 250.223 105.49 257.441C106.863 258.917 119.727 257.22 128.289 256.46C136.85 255.699 153.014 257.471 160.173 256.629C167.332 255.788 178.137 256.378 183.222 256.378C188.307 256.378 208.043 260.334 208.316 256.799C208.545 253.795 211.593 227.757 210.53 218.878L223.203 218.885Z" fill="#2AD482"/>
<path opacity="0.2" d="M223.203 218.885C223.203 218.885 213.829 215.852 206.81 215.158C206.049 215.06 205.282 215.015 204.515 215.025H204.257H203.903C200.976 215.156 198.078 215.652 195.275 216.501C191.164 217.763 185.739 216.162 181.17 215.645C176.602 215.128 162.276 217.084 159.029 216.095C155.781 215.106 139.736 216.582 137.02 217.173C134.304 217.763 126.178 217.741 122.547 216.605C118.915 215.468 102.656 215.866 102.752 219.446C102.996 228.192 98.8108 250.223 105.49 257.441C106.863 258.917 119.727 257.22 128.289 256.46C136.85 255.699 153.014 257.471 160.173 256.629C167.332 255.788 178.137 256.378 183.222 256.378C188.307 256.378 208.043 260.334 208.316 256.799C208.545 253.795 211.593 227.757 210.53 218.878L223.203 218.885Z" fill="#FDFFFE"/>
<path opacity="0.5" d="M126.621 254.445C126.768 250.016 127.145 237.632 127.159 225.52C127.159 223.69 128.842 223.424 129.078 225.225C130.555 236.923 131.846 249.529 132.282 253.95C132.37 254.836 131.949 255.64 131.381 255.699L127.639 256.046C127.071 256.105 126.591 255.367 126.621 254.445Z" fill="#2AD482"/>
<path opacity="0.5" d="M175.384 254.408C175.687 250.297 176.676 236.48 177.259 223.409C177.318 222.074 178.565 222.044 178.646 223.409C179.384 236.148 179.901 250.422 180.034 254.504C180.034 255.131 179.739 255.648 179.34 255.648H176.078C175.657 255.633 175.34 255.065 175.384 254.408Z" fill="#2AD482"/>
</g>
</svg>
