<svg width="739" height="545" viewBox="0 0 739 545" fill="none" xmlns="http://www.w3.org/2000/svg">
<g opacity="0.4">
<path d="M664.652 507.449H615.723V507.819H664.652V507.449Z" fill="#BED5CA"/>
<path d="M489.322 511.468H476.484V511.837H489.322V511.468Z" fill="#BED5CA"/>
<path d="M614.246 493.74H585.896V494.109H614.246V493.74Z" fill="#BED5CA"/>
<path d="M141.307 496.222H77.501V496.591H141.307V496.222Z" fill="#BED5CA"/>
<path d="M163.821 496.222H154.47V496.591H163.821V496.222Z" fill="#BED5CA"/>
<path d="M332.622 502.456H194.225V502.825H332.622V502.456Z" fill="#BED5CA"/>
<path d="M350.128 417.79H64.8843C62.647 417.79 60.5014 416.901 58.9195 415.319C57.3375 413.737 56.4487 411.592 56.4487 409.354V8.36171C56.4682 6.13728 57.3655 4.01059 58.9454 2.44455C60.5253 0.878515 62.6598 -8.52805e-05 64.8843 6.20856e-09H350.128C352.365 6.20859e-09 354.511 0.888746 356.093 2.47072C357.675 4.0527 358.563 6.19832 358.563 8.43557V409.354C358.563 411.592 357.675 413.737 356.093 415.319C354.511 416.901 352.365 417.79 350.128 417.79ZM64.8843 0.295468C62.7462 0.299373 60.6968 1.15046 59.1849 2.66233C57.6731 4.17419 56.822 6.22361 56.8181 8.36171V409.354C56.822 411.492 57.6731 413.542 59.1849 415.054C60.6968 416.566 62.7462 417.417 64.8843 417.421H350.128C352.266 417.417 354.315 416.566 355.827 415.054C357.339 413.542 358.19 411.492 358.194 409.354V8.36171C358.19 6.22361 357.339 4.17419 355.827 2.66233C354.315 1.15046 352.266 0.299373 350.128 0.295468H64.8843Z" fill="#BED5CA"/>
<path d="M669.69 417.79H384.417C382.181 417.786 380.038 416.896 378.457 415.315C376.875 413.734 375.985 411.59 375.981 409.354V8.36171C376.005 6.13849 376.903 4.01403 378.482 2.44882C380.061 0.883606 382.194 0.00376467 384.417 0H669.69C671.909 0.00768878 674.036 0.889723 675.61 2.45493C677.183 4.02013 678.077 6.14239 678.096 8.36171V409.354C678.096 411.586 677.211 413.728 675.636 415.309C674.06 416.89 671.922 417.782 669.69 417.79ZM384.417 0.295468C382.279 0.299373 380.229 1.15046 378.718 2.66233C377.206 4.17419 376.355 6.22361 376.351 8.36171V409.354C376.355 411.492 377.206 413.542 378.718 415.054C380.229 416.566 382.279 417.417 384.417 417.421H669.69C671.828 417.417 673.878 416.566 675.389 415.054C676.901 413.542 677.752 411.492 677.756 409.354V8.36171C677.752 6.22361 676.901 4.17419 675.389 2.66233C673.878 1.15046 671.828 0.299373 669.69 0.295468H384.417Z" fill="#BED5CA"/>
<path d="M738.667 483.679H0V484.048H738.667V483.679Z" fill="#BED5CA"/>
<path d="M619.682 314.672C619.683 313.637 619.397 312.622 618.858 311.738C618.318 310.854 617.545 310.137 616.624 309.664C617.302 309.654 617.948 309.375 618.421 308.889C618.893 308.403 619.153 307.749 619.143 307.071C619.133 306.393 618.855 305.747 618.368 305.275C617.882 304.802 617.228 304.543 616.55 304.552C616.903 304.579 617.258 304.533 617.592 304.416C617.927 304.299 618.233 304.115 618.493 303.874C618.752 303.634 618.959 303.342 619.101 303.018C619.243 302.693 619.316 302.343 619.316 301.989C619.316 301.635 619.243 301.285 619.101 300.961C618.959 300.636 618.752 300.345 618.493 300.104C618.233 299.863 617.927 299.679 617.592 299.562C617.258 299.446 616.903 299.399 616.55 299.426C617.228 299.426 617.878 299.157 618.358 298.677C618.837 298.198 619.106 297.548 619.106 296.87C619.106 296.192 618.837 295.542 618.358 295.063C617.878 294.584 617.228 294.314 616.55 294.314H616.358C619.136 287.09 621.071 269.052 621.234 261.813C621.647 243.819 617.998 190.148 613.995 190.148C609.991 190.148 606.342 243.819 606.756 261.813C606.918 268.978 608.854 287.016 611.631 294.314H611.439C610.761 294.314 610.111 294.584 609.632 295.063C609.152 295.542 608.883 296.192 608.883 296.87C608.883 297.548 609.152 298.198 609.632 298.677C610.111 299.157 610.761 299.426 611.439 299.426C610.793 299.475 610.189 299.766 609.748 300.242C609.308 300.717 609.063 301.341 609.063 301.989C609.063 302.637 609.308 303.261 609.748 303.737C610.189 304.212 610.793 304.503 611.439 304.552C610.761 304.543 610.107 304.802 609.621 305.275C609.135 305.747 608.856 306.393 608.846 307.071C608.836 307.749 609.096 308.403 609.569 308.889C610.041 309.375 610.687 309.654 611.365 309.664C610.444 310.137 609.671 310.854 609.132 311.738C608.592 312.622 608.307 313.637 608.307 314.672C608.307 315.419 608.454 316.159 608.74 316.849C609.026 317.539 609.445 318.166 609.973 318.694C610.501 319.222 611.128 319.641 611.818 319.927C612.508 320.213 613.248 320.36 613.995 320.36C614.742 320.36 615.481 320.213 616.171 319.927C616.861 319.641 617.488 319.222 618.017 318.694C618.545 318.166 618.964 317.539 619.249 316.849C619.535 316.159 619.682 315.419 619.682 314.672Z" fill="#BED5CA"/>
<path d="M619.682 457.072C619.682 456.037 619.397 455.022 618.858 454.138C618.318 453.255 617.545 452.537 616.624 452.064C616.272 451.398 616.058 450.668 615.993 449.918C615.928 449.167 616.015 448.411 616.248 447.695C616.481 446.979 616.855 446.316 617.349 445.747C617.842 445.178 618.445 444.714 619.121 444.382C618.443 444.382 617.793 444.113 617.314 443.633C616.834 443.154 616.565 442.504 616.565 441.826C616.565 441.148 616.834 440.498 617.314 440.019C617.793 439.54 618.443 439.27 619.121 439.27C619.121 438.933 619.054 438.6 618.925 438.289C618.796 437.978 618.606 437.695 618.367 437.458C618.128 437.22 617.845 437.032 617.533 436.905C617.221 436.777 616.887 436.713 616.55 436.715H615.826C619.032 424.408 621.588 383.826 621.234 368.624C621.071 361.238 619.047 342.549 616.151 335.695H616.55C617.228 335.695 617.878 335.425 618.358 334.946C618.837 334.467 619.106 333.817 619.106 333.139C619.106 332.461 618.837 331.811 618.358 331.331C617.878 330.852 617.228 330.583 616.55 330.583C616.903 330.61 617.258 330.563 617.592 330.447C617.926 330.33 618.233 330.146 618.493 329.905C618.752 329.664 618.959 329.373 619.101 329.048C619.243 328.724 619.316 328.374 619.316 328.02C619.316 327.666 619.243 327.316 619.101 326.991C618.959 326.667 618.752 326.375 618.493 326.135C618.233 325.894 617.926 325.709 617.592 325.593C617.258 325.476 616.903 325.43 616.55 325.457C617.228 325.457 617.878 325.187 618.358 324.708C618.837 324.229 619.106 323.579 619.106 322.901C619.106 322.223 618.837 321.573 618.358 321.094C617.878 320.614 617.228 320.345 616.55 320.345H611.439C610.761 320.345 610.111 320.614 609.632 321.094C609.152 321.573 608.883 322.223 608.883 322.901C608.883 323.579 609.152 324.229 609.632 324.708C610.111 325.187 610.761 325.457 611.439 325.457C610.793 325.506 610.189 325.797 609.748 326.272C609.308 326.748 609.063 327.372 609.063 328.02C609.063 328.668 609.308 329.292 609.748 329.767C610.189 330.242 610.793 330.534 611.439 330.583C610.761 330.583 610.111 330.852 609.632 331.331C609.152 331.811 608.883 332.461 608.883 333.139C608.883 333.817 609.152 334.467 609.632 334.946C610.111 335.425 610.761 335.695 611.439 335.695H611.838C608.883 342.549 606.933 361.297 606.756 368.624C606.416 383.826 608.957 424.408 612.163 436.715H611.439C612.116 438.07 612.227 439.64 611.748 441.077C611.269 442.515 610.238 443.704 608.883 444.382C609.529 444.431 610.133 444.722 610.574 445.198C611.014 445.673 611.259 446.297 611.259 446.945C611.259 447.593 611.014 448.217 610.574 448.693C610.133 449.168 609.529 449.459 608.883 449.508C608.883 450.173 609.142 450.813 609.605 451.29C610.069 451.767 610.7 452.045 611.365 452.064C610.444 452.537 609.671 453.255 609.132 454.138C608.592 455.022 608.307 456.037 608.307 457.072C608.307 457.819 608.454 458.559 608.74 459.249C609.026 459.939 609.445 460.566 609.973 461.094C610.501 461.622 611.128 462.041 611.818 462.327C612.508 462.613 613.248 462.76 613.995 462.76C614.741 462.76 615.481 462.613 616.171 462.327C616.861 462.041 617.488 461.622 618.016 461.094C618.545 460.566 618.964 459.939 619.249 459.249C619.535 458.559 619.682 457.819 619.682 457.072Z" fill="#BED5CA"/>
<path d="M636.494 478.109H616.55C616.214 477.438 616.013 476.706 615.96 475.956C615.907 475.207 616.003 474.454 616.241 473.741C616.48 473.029 616.858 472.37 617.352 471.804C617.846 471.238 618.447 470.775 619.121 470.442C618.768 470.469 618.413 470.423 618.079 470.306C617.745 470.189 617.438 470.005 617.179 469.764C616.919 469.524 616.712 469.232 616.57 468.907C616.429 468.583 616.356 468.233 616.356 467.879C616.356 467.525 616.429 467.175 616.57 466.85C616.712 466.526 616.919 466.234 617.179 465.994C617.438 465.753 617.745 465.569 618.079 465.452C618.413 465.335 618.768 465.289 619.121 465.316C619.121 464.979 619.054 464.645 618.925 464.334C618.796 464.023 618.606 463.741 618.367 463.503C618.128 463.266 617.845 463.078 617.533 462.95C617.221 462.823 616.887 462.758 616.55 462.76H611.439C612.113 464.119 612.222 465.688 611.743 467.127C611.265 468.566 610.236 469.758 608.883 470.442C609.561 470.442 610.211 470.711 610.69 471.191C611.17 471.67 611.439 472.32 611.439 472.998C611.439 473.676 611.17 474.326 610.69 474.805C610.211 475.284 609.561 475.554 608.883 475.554C608.881 475.89 608.946 476.223 609.074 476.534C609.201 476.845 609.389 477.128 609.627 477.365C609.865 477.603 610.147 477.791 610.458 477.919C610.769 478.047 611.103 478.111 611.439 478.109H590.83C589.118 478.109 587.476 478.79 586.265 480C585.054 481.211 584.374 482.853 584.374 484.565H642.95C642.95 482.853 642.27 481.211 641.059 480C639.849 478.79 638.207 478.109 636.494 478.109Z" fill="#BED5CA"/>
<path d="M627.822 141.676H599.517V199.647H627.822V141.676Z" fill="#EDFFF6"/>
<path d="M620.702 205.689H606.608C605.235 205.688 603.894 205.279 602.755 204.514C601.616 203.748 600.73 202.661 600.211 201.39L599.517 199.647H627.867L627.157 201.39C626.636 202.671 625.742 203.766 624.591 204.533C623.44 205.299 622.085 205.702 620.702 205.689Z" fill="#D6EBE1"/>
<path d="M592.411 205.689H578.317C576.944 205.688 575.603 205.279 574.464 204.514C573.325 203.748 572.439 202.661 571.92 201.39L571.211 199.647H599.517L598.808 201.39C598.288 202.661 597.403 203.748 596.264 204.514C595.125 205.279 593.783 205.688 592.411 205.689Z" fill="#EDFFF6"/>
<path d="M649.007 205.689H634.914C633.541 205.688 632.2 205.279 631.061 204.514C629.921 203.748 629.036 202.661 628.517 201.39L627.808 199.647H656.113L655.404 201.39C654.885 202.661 654 203.748 652.86 204.514C651.721 205.279 650.38 205.688 649.007 205.689Z" fill="#EDFFF6"/>
<path d="M599.517 199.647H571.211L584.743 141.676H599.517V199.647Z" fill="#D6EBE1"/>
<path d="M627.808 199.647H656.113L642.581 141.676H627.808V199.647Z" fill="#D6EBE1"/>
<path d="M361.149 124.126V42.237L254.751 42.237V124.126H361.149Z" fill="#A6BEB3"/>
<path d="M352.964 117.832V48.5452L262.936 48.5452V117.832H352.964Z" fill="#BED5CA"/>
<path d="M347.336 113.489V52.8738L268.579 52.8738V113.489H347.336Z" fill="#90A79C"/>
<path d="M287.651 88.9355C291.829 88.9355 295.215 85.549 295.215 81.3715C295.215 77.1941 291.829 73.8076 287.651 73.8076C283.474 73.8076 280.087 77.1941 280.087 81.3715C280.087 85.549 283.474 88.9355 287.651 88.9355Z" fill="#D6EBE1"/>
<path d="M309.324 104.507C312.016 104.507 314.199 102.324 314.199 99.6314C314.199 96.9389 312.016 94.7562 309.324 94.7562C306.631 94.7562 304.449 96.9389 304.449 99.6314C304.449 102.324 306.631 104.507 309.324 104.507Z" fill="#E6E6E6"/>
<path d="M322.265 92.8209C331.281 92.8209 338.59 85.5121 338.59 76.4963C338.59 67.4805 331.281 60.1718 322.265 60.1718C313.25 60.1718 305.941 67.4805 305.941 76.4963C305.941 85.5121 313.25 92.8209 322.265 92.8209Z" fill="#EDFFF6"/>
<path d="M424.497 63.806H380.605V120.831H424.497V63.806Z" fill="#A6BEB3"/>
<path d="M421.128 68.1937H383.988V116.443H421.128V68.1937Z" fill="#BED5CA"/>
<path d="M414.554 76.7327H390.562V107.904H414.554V76.7327Z" fill="#90A79C"/>
<path d="M219.399 121.038C230.454 121.038 239.417 107.909 239.417 91.7129C239.417 75.5171 230.454 62.3878 219.399 62.3878C208.343 62.3878 199.381 75.5171 199.381 91.7129C199.381 107.909 208.343 121.038 219.399 121.038Z" fill="#A6BEB3"/>
<path d="M233.862 91.7276C233.862 103.413 227.391 112.898 219.399 112.898C211.406 112.898 204.936 103.413 204.936 91.7276C204.936 80.0419 211.421 70.5427 219.399 70.5427C227.376 70.5427 233.862 80.0272 233.862 91.7276Z" fill="#BED5CA"/>
<path d="M219.399 106.693C225.045 106.693 229.622 99.9862 229.622 91.7129C229.622 83.4396 225.045 76.7327 219.399 76.7327C213.753 76.7327 209.176 83.4396 209.176 91.7129C209.176 99.9862 213.753 106.693 219.399 106.693Z" fill="#90A79C"/>
<path d="M362.213 544.708C520.409 544.708 648.653 537.22 648.653 527.984C648.653 518.748 520.409 511.261 362.213 511.261C204.016 511.261 75.7725 518.748 75.7725 527.984C75.7725 537.22 204.016 544.708 362.213 544.708Z" fill="#A6BEB3"/>
<path d="M158.991 315.558H158.252C157.743 315.558 157.254 315.356 156.894 314.996C156.534 314.636 156.332 314.147 156.332 313.638L156.332 143.878C156.332 143.368 156.534 142.88 156.894 142.52C157.254 142.159 157.743 141.957 158.252 141.957H158.991L158.991 315.558Z" fill="#50635A"/>
<path d="M449.774 141.942H158.991V315.544H449.774V141.942Z" fill="#50635A"/>
<path opacity="0.5" d="M449.774 141.942H158.991V315.544H449.774V141.942Z" fill="#FDFFFE"/>
<path d="M163.777 310.772L444.987 310.772V146.744L163.777 146.744V310.772Z" fill="#2AD482"/>
<path opacity="0.8" d="M163.777 310.772L444.987 310.772V146.744L163.777 146.744V310.772Z" fill="#FDFFFE"/>
<path opacity="0.2" d="M303.045 229.149V193.989C298.424 193.987 293.847 194.9 289.58 196.675C285.313 198.449 281.439 201.051 278.182 204.33L303.045 229.149Z" fill="#3C4D45"/>
<path d="M427.717 227.82H338.841C338.497 218.781 334.749 210.206 328.349 203.815C321.949 197.423 313.37 193.686 304.33 193.353V154.81H301.671V193.353C292.64 193.697 284.072 197.438 277.681 203.829C271.29 210.22 267.549 218.788 267.205 227.82H178.373V230.464H267.249C267.593 239.497 271.334 248.067 277.724 254.46C284.114 260.853 292.683 264.598 301.716 264.945V303.474H304.33V264.96C313.373 264.623 321.955 260.881 328.355 254.484C334.755 248.087 338.501 239.507 338.841 230.464H427.717V227.82ZM337.511 227.82H334.483C334.138 219.939 330.849 212.475 325.266 206.902C319.683 201.33 312.212 198.055 304.33 197.726V194.683C313.017 195.015 321.259 198.611 327.41 204.754C333.561 210.896 337.168 219.133 337.511 227.82ZM301.716 227.82H272.937C273.283 220.3 276.427 213.181 281.751 207.859C287.075 202.538 294.196 199.398 301.716 199.056V227.82ZM301.716 230.479V259.257C294.191 258.915 287.066 255.771 281.741 250.443C276.416 245.115 273.276 237.989 272.937 230.464L301.716 230.479ZM304.375 230.479H333.153C332.81 238.008 329.662 245.137 324.328 250.463C318.994 255.788 311.861 258.926 304.33 259.257L304.375 230.479ZM304.375 227.82V199.056C311.895 199.398 319.015 202.538 324.34 207.859C329.664 213.181 332.807 220.3 333.153 227.82H304.375ZM301.716 194.683V197.726C293.842 198.066 286.382 201.346 280.808 206.917C275.234 212.488 271.951 219.946 271.608 227.82H268.653C268.994 219.153 272.585 210.932 278.711 204.793C284.837 198.653 293.05 195.044 301.716 194.683ZM268.579 230.464H271.534C271.877 238.339 275.16 245.799 280.733 251.373C286.307 256.946 293.767 260.229 301.642 260.572V263.615C292.975 263.251 284.762 259.639 278.636 253.497C272.51 247.354 268.92 239.132 268.579 230.464ZM304.33 263.63V260.587C312.216 260.254 319.689 256.974 325.272 251.396C330.855 245.819 334.142 238.349 334.483 230.464H337.511C337.172 239.154 333.567 247.397 327.416 253.545C321.265 259.693 313.021 263.295 304.33 263.63Z" fill="#FDFFFE"/>
<path d="M315.81 238.944V244.957H291.729V240.17L304.02 228.573C305.069 227.648 305.962 226.561 306.665 225.352C307.103 224.534 307.337 223.622 307.344 222.693C307.379 222.133 307.28 221.572 307.054 221.058C306.827 220.544 306.481 220.091 306.044 219.739C304.928 218.984 303.592 218.625 302.248 218.719C300.943 218.7 299.651 218.973 298.466 219.517C297.335 220.059 296.363 220.883 295.644 221.91L290.281 218.439C291.57 216.551 293.347 215.05 295.422 214.095C297.774 213.013 300.339 212.478 302.927 212.529C305.058 212.482 307.175 212.875 309.147 213.682C310.804 214.368 312.237 215.504 313.283 216.961C314.287 218.43 314.804 220.176 314.761 221.955C314.774 223.636 314.405 225.297 313.682 226.815C312.589 228.786 311.153 230.547 309.442 232.015L302.056 238.929L315.81 238.944Z" fill="#50635A"/>
<g opacity="0.3">
<path d="M315.81 238.944V244.957H291.729V240.17L304.02 228.573C305.069 227.648 305.962 226.561 306.665 225.352C307.103 224.534 307.337 223.622 307.344 222.693C307.379 222.133 307.28 221.572 307.054 221.058C306.827 220.544 306.481 220.091 306.044 219.739C304.928 218.984 303.592 218.625 302.248 218.719C300.943 218.7 299.651 218.973 298.466 219.517C297.335 220.059 296.363 220.883 295.644 221.91L290.281 218.439C291.57 216.551 293.347 215.05 295.422 214.095C297.774 213.013 300.339 212.478 302.927 212.529C305.058 212.482 307.175 212.875 309.147 213.682C310.804 214.368 312.237 215.504 313.283 216.961C314.287 218.43 314.804 220.176 314.761 221.955C314.774 223.636 314.405 225.297 313.682 226.815C312.589 228.786 311.153 230.547 309.442 232.015L302.056 238.929L315.81 238.944Z" fill="#FDFFFE"/>
</g>
<path d="M275.33 394.847H346.612V392.203H275.33V394.847Z" fill="#50635A"/>
<path d="M286.071 392.971H275.345C274.393 392.971 273.48 392.592 272.807 391.919C272.134 391.246 271.755 390.333 271.755 389.381V372.805C271.755 371.853 272.134 370.94 272.807 370.267C273.48 369.593 274.393 369.215 275.345 369.215H286.071V392.971Z" fill="#50635A"/>
<path opacity="0.1" d="M286.071 392.971H275.345C274.393 392.971 273.48 392.592 272.807 391.919C272.134 391.246 271.755 390.333 271.755 389.381V372.805C271.755 371.853 272.134 370.94 272.807 370.267C273.48 369.593 274.393 369.215 275.345 369.215H286.071V392.971Z" fill="#FDFFFE"/>
<path d="M284.623 392.971H345.43C347.413 392.971 349.02 391.363 349.02 389.381V372.79C349.02 370.808 347.413 369.2 345.43 369.2H284.623C282.64 369.2 281.033 370.808 281.033 372.79V389.381C281.033 391.363 282.64 392.971 284.623 392.971Z" fill="#50635A"/>
<path opacity="0.3" d="M284.623 392.971H345.43C347.413 392.971 349.02 391.363 349.02 389.381V372.79C349.02 370.808 347.413 369.2 345.43 369.2H284.623C282.64 369.2 281.033 370.808 281.033 372.79V389.381C281.033 391.363 282.64 392.971 284.623 392.971Z" fill="#FDFFFE"/>
<path opacity="0.2" d="M315.026 389.469C319.653 389.469 323.403 385.719 323.403 381.093C323.403 376.467 319.653 372.716 315.026 372.716C310.4 372.716 306.65 376.467 306.65 381.093C306.65 385.719 310.4 389.469 315.026 389.469Z" fill="#3C4D45"/>
<path opacity="0.4" d="M310.314 381.152C310.311 382.088 310.586 383.004 311.105 383.784C311.623 384.564 312.361 385.172 313.225 385.532C314.09 385.891 315.042 385.986 315.96 385.804C316.879 385.622 317.722 385.172 318.384 384.51C319.046 383.848 319.497 383.004 319.679 382.085C319.861 381.167 319.766 380.215 319.406 379.351C319.047 378.486 318.438 377.748 317.659 377.23C316.879 376.712 315.963 376.436 315.027 376.439C313.777 376.439 312.578 376.936 311.694 377.82C310.81 378.703 310.314 379.902 310.314 381.152Z" fill="#3C4D45"/>
<path opacity="0.2" d="M336.507 389.469C341.133 389.469 344.883 385.719 344.883 381.093C344.883 376.467 341.133 372.716 336.507 372.716C331.881 372.716 328.13 376.467 328.13 381.093C328.13 385.719 331.881 389.469 336.507 389.469Z" fill="#3C4D45"/>
<path opacity="0.4" d="M331.779 381.152C331.776 382.088 332.051 383.003 332.569 383.783C333.087 384.562 333.824 385.17 334.687 385.53C335.551 385.89 336.502 385.986 337.42 385.805C338.338 385.625 339.182 385.175 339.844 384.515C340.507 383.854 340.959 383.012 341.142 382.095C341.326 381.177 341.233 380.226 340.876 379.361C340.518 378.496 339.912 377.757 339.135 377.237C338.357 376.717 337.442 376.439 336.507 376.439C335.256 376.439 334.055 376.935 333.169 377.819C332.283 378.702 331.783 379.901 331.779 381.152Z" fill="#3C4D45"/>
<path opacity="0.2" d="M293.561 389.469C298.187 389.469 301.938 385.719 301.938 381.093C301.938 376.467 298.187 372.716 293.561 372.716C288.935 372.716 285.185 376.467 285.185 381.093C285.185 385.719 288.935 389.469 293.561 389.469Z" fill="#3C4D45"/>
<path opacity="0.4" d="M288.848 381.152C288.845 382.088 289.12 383.004 289.639 383.784C290.157 384.564 290.895 385.172 291.76 385.532C292.624 385.891 293.576 385.986 294.494 385.804C295.413 385.622 296.256 385.172 296.918 384.51C297.58 383.848 298.031 383.004 298.213 382.085C298.395 381.167 298.3 380.215 297.94 379.351C297.581 378.486 296.973 377.748 296.193 377.23C295.413 376.712 294.497 376.436 293.561 376.439C292.311 376.439 291.112 376.936 290.228 377.82C289.345 378.703 288.848 379.902 288.848 381.152Z" fill="#3C4D45"/>
<path d="M150.555 473.219H251.664V401.569H150.555V473.219Z" fill="#2AD482"/>
<path opacity="0.8" d="M150.555 473.219H251.664V401.569H150.555V473.219Z" fill="#FDFFFE"/>
<path opacity="0.4" d="M226.534 473.219H198.539L188.449 401.569H216.444L226.534 473.219Z" fill="#FDFFFE"/>
<path opacity="0.4" d="M191.359 473.219H185.789L175.699 401.569H181.269L191.359 473.219Z" fill="#FDFFFE"/>
<path d="M368.491 473.219H469.6V401.569H368.491V473.219Z" fill="#2AD482"/>
<path opacity="0.8" d="M368.491 473.219H469.6V401.569H368.491V473.219Z" fill="#FDFFFE"/>
<path opacity="0.4" d="M444.47 473.219H416.475L406.385 401.569H434.38L444.47 473.219Z" fill="#FDFFFE"/>
<path opacity="0.4" d="M409.31 473.219H403.725L393.635 401.569H399.205L409.31 473.219Z" fill="#FDFFFE"/>
<path d="M259.021 472.762H348.99V402.012H259.021V472.762Z" fill="#2AD482"/>
<path opacity="0.2" d="M259.021 472.762H348.99V402.012H259.021V472.762Z" fill="#FDFFFE"/>
<path d="M347.262 398.082H365.359V472.747H347.262V398.082Z" fill="#2AD482"/>
<path opacity="0.4" d="M347.262 398.082H365.359V472.747H347.262V398.082Z" fill="#FDFFFE"/>
<path d="M126.785 394.448H144.882V484.24H126.785V394.448Z" fill="#2AD482"/>
<path opacity="0.3" d="M126.785 394.448H144.882V484.24H126.785V394.448Z" fill="#FDFFFE"/>
<path d="M454.014 475.908H473.441V484.24H454.014V475.908Z" fill="#2AD482"/>
<path opacity="0.3" d="M454.014 475.908H473.441V484.24H454.014V475.908Z" fill="#FDFFFE"/>
<path d="M467.251 472.762H471.964V402.012H467.251V472.762Z" fill="#2AD482"/>
<path opacity="0.3" d="M467.251 472.762H471.964V402.012H467.251V472.762Z" fill="#FDFFFE"/>
<path d="M249.196 472.762H253.909V402.012H249.196V472.762Z" fill="#2AD482"/>
<path opacity="0.3" d="M249.196 472.762H253.909V402.012H249.196V472.762Z" fill="#FDFFFE"/>
<path d="M143.907 394.448V484.24H151.293V479.203H471.934V484.24H479.321V394.448H143.907ZM370.589 402.573H471.934V471.077H370.589V402.573ZM363.202 402.573V433.76H260.941V402.573H363.202ZM260.926 471.077V438.399H363.202V471.077H260.926ZM151.279 402.573H253.569V471.077H151.279V402.573Z" fill="#2AD482"/>
<path opacity="0.7" d="M143.907 394.448V484.24H151.293V479.203H471.934V484.24H479.321V394.448H143.907ZM370.589 402.573H471.934V471.077H370.589V402.573ZM363.202 402.573V433.76H260.941V402.573H363.202ZM260.926 471.077V438.399H363.202V471.077H260.926ZM151.279 402.573H253.569V471.077H151.279V402.573Z" fill="#FDFFFE"/>
<path d="M380.753 430.997H383.708C384.883 430.997 386.011 431.464 386.842 432.295C387.673 433.127 388.14 434.254 388.14 435.429C388.14 436.605 387.673 437.732 386.842 438.563C386.011 439.394 384.883 439.861 383.708 439.861H380.753C379.578 439.861 378.451 439.394 377.619 438.563C376.788 437.732 376.321 436.605 376.321 435.429C376.321 434.254 376.788 433.127 377.619 432.295C378.451 431.464 379.578 430.997 380.753 430.997Z" fill="#2AD482"/>
<path d="M383.752 430.997C382.875 430.997 382.018 431.257 381.29 431.744C380.561 432.231 379.993 432.923 379.657 433.733C379.322 434.543 379.234 435.434 379.405 436.294C379.576 437.154 379.998 437.943 380.618 438.563C381.238 439.183 382.027 439.605 382.887 439.776C383.747 439.947 384.638 439.859 385.448 439.524C386.258 439.188 386.95 438.62 387.437 437.892C387.924 437.163 388.184 436.306 388.184 435.429C388.184 434.254 387.717 433.127 386.886 432.295C386.055 431.464 384.927 430.997 383.752 430.997Z" fill="#2AD482"/>
<path opacity="0.6" d="M383.752 430.997C382.875 430.997 382.018 431.257 381.29 431.744C380.561 432.231 379.993 432.923 379.657 433.733C379.322 434.543 379.234 435.434 379.405 436.294C379.576 437.154 379.998 437.943 380.618 438.563C381.238 439.183 382.027 439.605 382.887 439.776C383.747 439.947 384.638 439.859 385.448 439.524C386.258 439.188 386.95 438.62 387.437 437.892C387.924 437.163 388.184 436.306 388.184 435.429C388.184 434.254 387.717 433.127 386.886 432.295C386.055 431.464 384.927 430.997 383.752 430.997Z" fill="#FDFFFE"/>
<path d="M240.421 430.997H243.376C244.551 430.997 245.679 431.464 246.51 432.295C247.341 433.127 247.808 434.254 247.808 435.429C247.808 436.605 247.341 437.732 246.51 438.563C245.679 439.394 244.551 439.861 243.376 439.861H240.421C239.246 439.861 238.119 439.394 237.287 438.563C236.456 437.732 235.989 436.605 235.989 435.429C235.989 434.254 236.456 433.127 237.287 432.295C238.119 431.464 239.246 430.997 240.421 430.997Z" fill="#2AD482"/>
<path opacity="0.6" d="M243.405 430.997C242.529 430.997 241.672 431.257 240.943 431.744C240.214 432.231 239.646 432.923 239.311 433.733C238.975 434.543 238.887 435.434 239.058 436.294C239.229 437.154 239.651 437.943 240.271 438.563C240.891 439.183 241.681 439.605 242.541 439.776C243.4 439.947 244.291 439.859 245.101 439.524C245.911 439.188 246.603 438.62 247.09 437.892C247.577 437.163 247.837 436.306 247.837 435.429C247.837 434.254 247.37 433.127 246.539 432.295C245.708 431.464 244.581 430.997 243.405 430.997Z" fill="#FDFFFE"/>
<path d="M500.122 479.277H490.386V484.462H500.122V479.277Z" fill="#50635A"/>
<path d="M512.295 479.277H496.34V484.462H512.295V479.277Z" fill="#50635A"/>
<path opacity="0.1" d="M512.295 479.277H496.34V484.462H512.295V479.277Z" fill="#FDFFFE"/>
<path d="M506.135 471.772H496.104V479.262H506.135V471.772Z" fill="#50635A"/>
<path d="M501.126 472.141H496.236C494.669 472.141 493.166 471.518 492.058 470.41C490.95 469.302 490.327 467.799 490.327 466.232V274.134C490.327 272.567 490.95 271.064 492.058 269.955C493.166 268.847 494.669 268.225 496.236 268.225H501.126V472.097V472.141Z" fill="#50635A"/>
<path opacity="0.1" d="M501.126 472.141H496.236C494.669 472.141 493.166 471.518 492.058 470.41C490.95 469.302 490.327 467.799 490.327 466.232V274.134C490.327 272.567 490.95 271.064 492.058 269.955C493.166 268.847 494.669 268.225 496.236 268.225H501.126V472.097V472.141Z" fill="#FDFFFE"/>
<path d="M506.445 268.299H502.19C498.959 268.299 496.34 270.918 496.34 274.149V466.306C496.34 469.537 498.959 472.156 502.19 472.156H506.445C509.676 472.156 512.295 469.537 512.295 466.306V274.149C512.295 270.918 509.676 268.299 506.445 268.299Z" fill="#50635A"/>
<path opacity="0.2" d="M506.445 268.299H502.19C498.959 268.299 496.34 270.918 496.34 274.149V466.306C496.34 469.537 498.959 472.156 502.19 472.156H506.445C509.676 472.156 512.295 469.537 512.295 466.306V274.149C512.295 270.918 509.676 268.299 506.445 268.299Z" fill="#FDFFFE"/>
<path opacity="0.2" d="M497.861 280.531C497.861 281.822 498.244 283.085 498.962 284.159C499.679 285.232 500.699 286.069 501.892 286.564C503.085 287.058 504.398 287.187 505.665 286.935C506.932 286.683 508.095 286.061 509.008 285.148C509.922 284.235 510.544 283.071 510.795 281.805C511.047 280.538 510.918 279.225 510.424 278.032C509.93 276.839 509.093 275.819 508.019 275.102C506.945 274.384 505.683 274.001 504.391 274.001C503.533 273.999 502.683 274.167 501.89 274.494C501.097 274.822 500.376 275.302 499.77 275.909C499.163 276.516 498.682 277.237 498.354 278.03C498.027 278.823 497.859 279.673 497.861 280.531Z" fill="#3C4D45"/>
<path opacity="0.4" d="M500.639 280.531C500.639 281.258 500.854 281.97 501.259 282.575C501.663 283.18 502.237 283.651 502.909 283.929C503.582 284.208 504.321 284.281 505.035 284.139C505.748 283.997 506.404 283.646 506.918 283.132C507.433 282.618 507.783 281.962 507.925 281.249C508.067 280.535 507.994 279.795 507.716 279.123C507.437 278.451 506.966 277.876 506.361 277.472C505.756 277.068 505.045 276.852 504.317 276.852C503.342 276.852 502.406 277.24 501.716 277.93C501.026 278.62 500.639 279.555 500.639 280.531Z" fill="#3C4D45"/>
<path opacity="0.2" d="M497.861 321.231C497.861 322.523 498.244 323.785 498.962 324.859C499.679 325.933 500.699 326.77 501.892 327.264C503.085 327.758 504.398 327.888 505.665 327.636C506.932 327.384 508.095 326.762 509.008 325.849C509.922 324.935 510.544 323.772 510.795 322.505C511.047 321.239 510.918 319.926 510.424 318.733C509.93 317.539 509.093 316.52 508.019 315.802C506.945 315.085 505.683 314.702 504.391 314.702C502.659 314.702 500.998 315.39 499.774 316.614C498.549 317.839 497.861 319.5 497.861 321.231Z" fill="#3C4D45"/>
<path opacity="0.4" d="M500.639 321.231C500.639 321.959 500.854 322.67 501.259 323.275C501.663 323.88 502.237 324.352 502.91 324.63C503.582 324.908 504.321 324.981 505.035 324.839C505.748 324.697 506.404 324.347 506.918 323.833C507.433 323.318 507.783 322.663 507.925 321.949C508.067 321.235 507.994 320.496 507.716 319.824C507.437 319.152 506.966 318.577 506.361 318.173C505.756 317.769 505.045 317.553 504.317 317.553C503.834 317.551 503.354 317.645 502.907 317.829C502.46 318.013 502.054 318.284 501.712 318.626C501.37 318.968 501.099 319.374 500.915 319.821C500.731 320.269 500.637 320.748 500.639 321.231Z" fill="#3C4D45"/>
<path opacity="0.2" d="M504.317 368.447C507.924 368.447 510.847 365.524 510.847 361.917C510.847 358.311 507.924 355.387 504.317 355.387C500.711 355.387 497.788 358.311 497.788 361.917C497.788 365.524 500.711 368.447 504.317 368.447Z" fill="#3C4D45"/>
<path opacity="0.4" d="M500.639 361.947C500.639 362.674 500.854 363.385 501.259 363.99C501.663 364.595 502.237 365.067 502.91 365.345C503.582 365.624 504.321 365.697 505.035 365.555C505.748 365.413 506.404 365.062 506.918 364.548C507.433 364.033 507.783 363.378 507.925 362.664C508.067 361.951 507.994 361.211 507.716 360.539C507.437 359.867 506.966 359.292 506.361 358.888C505.756 358.484 505.045 358.268 504.317 358.268C503.834 358.266 503.354 358.36 502.907 358.544C502.46 358.728 502.054 358.999 501.712 359.341C501.37 359.683 501.099 360.089 500.915 360.537C500.731 360.984 500.637 361.463 500.639 361.947Z" fill="#3C4D45"/>
<path d="M103.532 479.277H93.7959V484.462H103.532V479.277Z" fill="#50635A"/>
<path d="M115.705 479.277H99.7495V484.462H115.705V479.277Z" fill="#50635A"/>
<path opacity="0.1" d="M115.705 479.277H99.7495V484.462H115.705V479.277Z" fill="#FDFFFE"/>
<path d="M109.544 471.772H99.5132V479.262H109.544V471.772Z" fill="#50635A"/>
<path d="M104.536 472.141H99.6462C98.0789 472.141 96.5758 471.518 95.4676 470.41C94.3594 469.302 93.7368 467.799 93.7368 466.232L93.7368 274.134C93.7368 272.567 94.3594 271.064 95.4676 269.955C96.5758 268.847 98.0789 268.225 99.6462 268.225H104.536L104.536 472.097V472.141Z" fill="#50635A"/>
<path opacity="0.1" d="M104.536 472.141H99.6462C98.0789 472.141 96.5758 471.518 95.4676 470.41C94.3594 469.302 93.7368 467.799 93.7368 466.232L93.7368 274.134C93.7368 272.567 94.3594 271.064 95.4676 269.955C96.5758 268.847 98.0789 268.225 99.6462 268.225H104.536L104.536 472.097V472.141Z" fill="#FDFFFE"/>
<path d="M109.854 268.299H105.6C102.369 268.299 99.7495 270.918 99.7495 274.149V466.306C99.7495 469.537 102.369 472.156 105.6 472.156H109.854C113.085 472.156 115.705 469.537 115.705 466.306V274.149C115.705 270.918 113.085 268.299 109.854 268.299Z" fill="#50635A"/>
<path opacity="0.2" d="M109.854 268.299H105.6C102.369 268.299 99.7495 270.918 99.7495 274.149V466.306C99.7495 469.537 102.369 472.156 105.6 472.156H109.854C113.085 472.156 115.705 469.537 115.705 466.306V274.149C115.705 270.918 113.085 268.299 109.854 268.299Z" fill="#FDFFFE"/>
<path opacity="0.2" d="M101.197 280.531C101.197 281.822 101.58 283.085 102.298 284.159C103.015 285.232 104.035 286.069 105.228 286.564C106.421 287.058 107.734 287.187 109.001 286.935C110.268 286.683 111.431 286.061 112.344 285.148C113.258 284.235 113.879 283.071 114.131 281.805C114.383 280.538 114.254 279.225 113.76 278.032C113.266 276.839 112.429 275.819 111.355 275.102C110.281 274.384 109.019 274.001 107.727 274.001C106.869 273.999 106.019 274.167 105.226 274.494C104.433 274.822 103.712 275.302 103.105 275.909C102.499 276.516 102.018 277.237 101.69 278.03C101.363 278.823 101.195 279.673 101.197 280.531Z" fill="#3C4D45"/>
<path opacity="0.4" d="M104.049 280.531C104.049 281.258 104.265 281.97 104.669 282.575C105.073 283.18 105.647 283.651 106.32 283.929C106.992 284.208 107.731 284.281 108.445 284.139C109.159 283.997 109.814 283.646 110.329 283.132C110.843 282.618 111.193 281.962 111.335 281.249C111.477 280.535 111.404 279.795 111.126 279.123C110.848 278.451 110.376 277.876 109.771 277.472C109.166 277.068 108.455 276.852 107.727 276.852C106.753 276.856 105.82 277.245 105.131 277.934C104.442 278.623 104.053 279.556 104.049 280.531Z" fill="#3C4D45"/>
<path opacity="0.2" d="M101.197 321.231C101.203 322.522 101.591 323.781 102.312 324.851C103.033 325.921 104.055 326.753 105.249 327.243C106.442 327.733 107.754 327.858 109.019 327.603C110.284 327.347 111.445 326.723 112.355 325.809C113.265 324.894 113.884 323.731 114.134 322.465C114.383 321.199 114.252 319.888 113.757 318.696C113.262 317.505 112.425 316.487 111.352 315.77C110.279 315.054 109.017 314.672 107.727 314.672C106.867 314.672 106.016 314.842 105.221 315.172C104.427 315.502 103.706 315.986 103.099 316.595C102.493 317.205 102.012 317.928 101.686 318.723C101.359 319.519 101.193 320.371 101.197 321.231Z" fill="#3C4D45"/>
<path opacity="0.4" d="M104.049 321.231C104.034 321.962 104.237 322.68 104.632 323.295C105.027 323.909 105.597 324.392 106.267 324.682C106.938 324.972 107.68 325.055 108.398 324.922C109.117 324.788 109.779 324.444 110.301 323.933C110.823 323.421 111.181 322.766 111.329 322.051C111.477 321.335 111.408 320.592 111.132 319.915C110.856 319.239 110.385 318.66 109.778 318.252C109.172 317.845 108.458 317.627 107.727 317.627C106.764 317.627 105.84 318.004 105.152 318.678C104.464 319.352 104.068 320.269 104.049 321.231Z" fill="#3C4D45"/>
<path opacity="0.2" d="M101.197 361.947C101.194 363.239 101.575 364.503 102.291 365.579C103.006 366.654 104.025 367.494 105.218 367.99C106.411 368.486 107.724 368.618 108.992 368.368C110.26 368.117 111.424 367.497 112.339 366.584C113.254 365.671 113.877 364.508 114.13 363.241C114.383 361.974 114.255 360.66 113.761 359.466C113.267 358.272 112.431 357.251 111.356 356.533C110.282 355.815 109.019 355.432 107.727 355.432C105.998 355.432 104.339 356.118 103.115 357.339C101.891 358.56 101.201 360.217 101.197 361.947Z" fill="#3C4D45"/>
<path opacity="0.4" d="M104.049 361.947C104.049 362.674 104.265 363.385 104.669 363.99C105.073 364.595 105.647 365.067 106.32 365.345C106.992 365.624 107.731 365.697 108.445 365.555C109.159 365.413 109.814 365.062 110.329 364.548C110.843 364.033 111.193 363.378 111.335 362.664C111.477 361.951 111.404 361.211 111.126 360.539C110.848 359.867 110.376 359.292 109.771 358.888C109.166 358.484 108.455 358.268 107.727 358.268C106.752 358.268 105.816 358.656 105.126 359.346C104.436 360.035 104.049 360.971 104.049 361.947Z" fill="#3C4D45"/>
<path d="M174.547 391.154V350.291C174.547 348.308 172.94 346.701 170.957 346.701H154.367C152.384 346.701 150.777 348.308 150.777 350.291V391.154C150.777 393.136 152.384 394.744 154.367 394.744H170.957C172.94 394.744 174.547 393.136 174.547 391.154Z" fill="#50635A"/>
<path opacity="0.1" d="M174.547 391.154V350.291C174.547 348.308 172.94 346.701 170.957 346.701H154.367C152.384 346.701 150.777 348.308 150.777 350.291V391.154C150.777 393.136 152.384 394.744 154.367 394.744H170.957C172.94 394.744 174.547 393.136 174.547 391.154Z" fill="#FDFFFE"/>
<path d="M179.865 391.154V350.291C179.865 348.308 178.258 346.701 176.275 346.701H159.685C157.702 346.701 156.095 348.308 156.095 350.291V391.154C156.095 393.136 157.702 394.744 159.685 394.744H176.275C178.258 394.744 179.865 393.136 179.865 391.154Z" fill="#50635A"/>
<path opacity="0.3" d="M179.865 391.154V350.291C179.865 348.308 178.258 346.701 176.275 346.701H159.685C157.702 346.701 156.095 348.308 156.095 350.291V391.154C156.095 393.136 157.702 394.744 159.685 394.744H176.275C178.258 394.744 179.865 393.136 179.865 391.154Z" fill="#FDFFFE"/>
<path opacity="0.2" d="M167.988 389.824C172.614 389.824 176.364 386.074 176.364 381.448C176.364 376.821 172.614 373.071 167.988 373.071C163.362 373.071 159.611 376.821 159.611 381.448C159.611 386.074 163.362 389.824 167.988 389.824Z" fill="#3C4D45"/>
<path opacity="0.4" d="M167.988 386.175C170.599 386.175 172.715 384.058 172.715 381.448C172.715 378.837 170.599 376.72 167.988 376.72C165.377 376.72 163.26 378.837 163.26 381.448C163.26 384.058 165.377 386.175 167.988 386.175Z" fill="#3C4D45"/>
<path opacity="0.2" d="M167.988 368.358C172.614 368.358 176.364 364.608 176.364 359.982C176.364 355.356 172.614 351.605 167.988 351.605C163.362 351.605 159.611 355.356 159.611 359.982C159.611 364.608 163.362 368.358 167.988 368.358Z" fill="#3C4D45"/>
<path opacity="0.4" d="M167.988 364.709C168.923 364.709 169.837 364.432 170.614 363.913C171.392 363.393 171.998 362.655 172.355 361.791C172.713 360.927 172.807 359.977 172.624 359.06C172.442 358.143 171.992 357.3 171.331 356.639C170.669 355.978 169.827 355.528 168.91 355.345C167.993 355.163 167.042 355.256 166.179 355.614C165.315 355.972 164.576 356.578 164.057 357.355C163.538 358.133 163.26 359.047 163.26 359.982C163.264 361.234 163.763 362.435 164.649 363.32C165.535 364.206 166.735 364.705 167.988 364.709Z" fill="#3C4D45"/>
<path d="M451.488 391.139V350.276C451.488 348.293 449.881 346.686 447.898 346.686H431.307C429.325 346.686 427.718 348.293 427.718 350.276V391.139C427.718 393.122 429.325 394.729 431.307 394.729H447.898C449.881 394.729 451.488 393.122 451.488 391.139Z" fill="#50635A"/>
<path opacity="0.1" d="M451.488 391.139V350.276C451.488 348.293 449.881 346.686 447.898 346.686H431.307C429.325 346.686 427.718 348.293 427.718 350.276V391.139C427.718 393.122 429.325 394.729 431.307 394.729H447.898C449.881 394.729 451.488 393.122 451.488 391.139Z" fill="#FDFFFE"/>
<path d="M456.806 391.139V350.276C456.806 348.293 455.199 346.686 453.216 346.686H436.626C434.643 346.686 433.036 348.293 433.036 350.276V391.139C433.036 393.121 434.643 394.729 436.626 394.729H453.216C455.199 394.729 456.806 393.121 456.806 391.139Z" fill="#50635A"/>
<path opacity="0.3" d="M456.806 391.139V350.276C456.806 348.293 455.199 346.686 453.216 346.686H436.626C434.643 346.686 433.036 348.293 433.036 350.276V391.139C433.036 393.121 434.643 394.729 436.626 394.729H453.216C455.199 394.729 456.806 393.121 456.806 391.139Z" fill="#FDFFFE"/>
<path opacity="0.2" d="M444.914 389.824C449.54 389.824 453.29 386.074 453.29 381.448C453.29 376.821 449.54 373.071 444.914 373.071C440.287 373.071 436.537 376.821 436.537 381.448C436.537 386.074 440.287 389.824 444.914 389.824Z" fill="#3C4D45"/>
<path opacity="0.4" d="M444.914 386.175C445.849 386.178 446.765 385.903 447.544 385.385C448.324 384.868 448.932 384.13 449.292 383.267C449.652 382.403 449.748 381.452 449.567 380.534C449.386 379.616 448.937 378.773 448.277 378.11C447.616 377.447 446.774 376.996 445.856 376.812C444.939 376.628 443.988 376.721 443.123 377.079C442.258 377.436 441.519 378.042 440.999 378.82C440.479 379.597 440.201 380.512 440.201 381.448C440.201 382.699 440.697 383.899 441.581 384.785C442.464 385.671 443.663 386.171 444.914 386.175Z" fill="#3C4D45"/>
<path opacity="0.2" d="M444.914 368.358C449.54 368.358 453.29 364.608 453.29 359.982C453.29 355.356 449.54 351.605 444.914 351.605C440.287 351.605 436.537 355.356 436.537 359.982C436.537 364.608 440.287 368.358 444.914 368.358Z" fill="#3C4D45"/>
<path opacity="0.4" d="M444.914 364.709C445.849 364.712 446.765 364.437 447.544 363.92C448.324 363.402 448.932 362.665 449.292 361.801C449.652 360.938 449.748 359.987 449.567 359.069C449.386 358.151 448.937 357.307 448.277 356.644C447.616 355.982 446.774 355.53 445.856 355.346C444.939 355.163 443.988 355.255 443.123 355.613C442.258 355.97 441.519 356.576 440.999 357.354C440.479 358.132 440.201 359.046 440.201 359.982C440.201 361.233 440.697 362.433 441.581 363.319C442.464 364.206 443.663 364.705 444.914 364.709Z" fill="#3C4D45"/>
<path d="M271.431 433.597H350.63V430.657H271.431V433.597Z" fill="#50635A"/>
<path d="M267.442 431.529H279.364V415.766H267.442V431.529Z" fill="#50635A"/>
<path opacity="0.1" d="M267.442 431.529H279.364V415.766H267.442V431.529Z" fill="#FDFFFE"/>
<path d="M277.783 431.529H353.319V415.766H277.783V431.529Z" fill="#50635A"/>
<path opacity="0.3" d="M277.783 431.529H353.319V415.766H277.783V431.529Z" fill="#FDFFFE"/>
<path opacity="0.5" d="M302.351 427.127H348.71V419.297H302.351V427.127Z" fill="#50635A"/>
<path opacity="0.2" d="M295.94 424.379H301.007V422.059H295.94V424.379Z" fill="#50635A"/>
<path opacity="0.2" d="M288.818 424.379H293.886V422.059H288.818V424.379Z" fill="#FDFFFE"/>
<path opacity="0.5" d="M281.698 424.379H286.765V422.059H281.698V424.379Z" fill="#50635A"/>
<path d="M534.528 181.313C534.472 180.958 534.339 180.619 534.138 180.32C533.937 180.021 533.673 179.77 533.365 179.584C533.057 179.399 532.711 179.283 532.354 179.244C531.996 179.206 531.634 179.247 531.293 179.363C528.59 180.294 524.128 183.204 519.563 192.127C512.176 206.398 506.016 221.039 506.016 221.039L478.922 205.852L472.141 199.942L463.277 201.892C462.873 201.982 462.497 202.166 462.18 202.43C461.863 202.695 461.614 203.031 461.453 203.411C461.292 203.792 461.225 204.205 461.257 204.617C461.289 205.029 461.419 205.427 461.637 205.778L464.916 211.022C465.171 211.429 465.534 211.757 465.964 211.969C466.395 212.18 466.877 212.267 467.354 212.219L476.218 211.362C476.218 211.362 498.555 235.989 508.261 235.989C517.968 235.989 532.962 198.48 532.962 198.48C532.962 198.48 535.563 187.754 534.528 181.313Z" fill="#FFF6EE"/>
<path d="M544.471 481.33L548.578 516.742H558.816L559.333 481.33H544.471Z" fill="#FFF6EE"/>
<path d="M548.386 512.029L559.569 511.867C559.774 511.864 559.973 511.932 560.134 512.058C560.295 512.184 560.409 512.362 560.456 512.561L562.613 521.632C562.661 521.822 562.671 522.02 562.642 522.214C562.613 522.408 562.546 522.594 562.444 522.762C562.342 522.93 562.208 523.076 562.049 523.191C561.89 523.307 561.71 523.389 561.519 523.434H561.209C557.176 523.434 553.586 523.257 548.563 523.345C542.654 523.434 544.131 524.114 537.188 524.32C532.992 524.439 532.15 519.682 533.938 519.416C542.063 518.263 542.875 515.796 545.963 512.842C546.646 512.286 547.506 511.998 548.386 512.029Z" fill="#50635A"/>
<path d="M596.695 481.33L605.5 513.61L615.56 512.251L611.572 481.33H596.695Z" fill="#FFF6EE"/>
<path d="M604.894 510.67L615.989 509.281C616.192 509.256 616.398 509.301 616.573 509.408C616.747 509.515 616.88 509.679 616.949 509.872L620.096 518.647C620.166 518.833 620.198 519.03 620.19 519.227C620.183 519.425 620.136 519.619 620.052 519.799C619.968 519.978 619.848 520.138 619.701 520.27C619.554 520.402 619.382 520.504 619.195 520.568L618.899 520.642C614.881 521.07 611.306 521.307 606.312 521.942C600.403 522.681 602.028 523.198 595.129 524.158C590.963 524.734 589.604 520.095 591.347 519.652C599.295 517.613 599.827 515.072 602.589 511.778C603.196 511.138 604.016 510.744 604.894 510.67Z" fill="#50635A"/>
<path d="M524.069 264.044C530.599 373.278 529.417 388.864 546.081 501.584L560.19 500.979C561.032 456.732 562.199 436.848 560.84 423.182C559.894 413.786 556.762 407.109 556.733 396.31C556.733 389.455 558.609 384.786 560.249 369.097C562.095 351.443 563.647 328.515 561.933 310.816C561.933 310.816 575.716 292.719 572.909 265.019L524.069 264.044Z" fill="#2AD482"/>
<path d="M561.313 497.418L561.254 501.968L545.402 502.751L544.545 498.29L561.313 497.418Z" fill="#2AD482"/>
<path opacity="0.5" d="M561.313 497.418L561.254 501.968L545.402 502.751L544.545 498.29L561.313 497.418Z" fill="#FDFFFE"/>
<path opacity="0.2" d="M544.545 290.104L562.657 305.38C562.657 305.38 562.834 306.724 563.145 309.029C562.391 310.196 561.933 310.816 561.933 310.816C563.647 328.544 562.096 351.443 560.249 369.097C548.681 319.281 544.545 290.104 544.545 290.104Z" fill="#3C4D45"/>
<path d="M537.025 131.128C537.025 131.128 529.639 144.897 531.441 152.077C533.243 159.257 535.445 162.108 533.081 169.805C530.717 177.502 530.126 184.681 537.025 182.85C543.924 181.018 555.566 170.617 555.566 170.617L557.043 148.457V132.207L551.71 128.676L542.033 130.079L537.025 131.128Z" fill="#50635A"/>
<path opacity="0.2" d="M537.025 131.128C537.025 131.128 529.639 144.897 531.441 152.077C533.243 159.257 535.445 162.108 533.081 169.805C530.717 177.502 530.126 184.681 537.025 182.85C543.924 181.018 555.566 170.617 555.566 170.617L557.043 148.457V132.207L551.71 128.676L542.033 130.079L537.025 131.128Z" fill="#3C4D45"/>
<path d="M534.972 264.738L549.952 312.013L574.18 399.885L600.137 497.994L614.792 496.945C614.792 496.945 611.616 445.785 604.022 414.215C601.88 405.351 599.59 398.614 598.113 393.724C596.178 387.534 596.414 381.462 595.439 366.201C594.464 350.941 590.416 332.991 590.815 314.421C591.081 302.115 594.449 291.877 580.621 265.92L534.972 264.738Z" fill="#2AD482"/>
<path d="M582.453 182.303C577.111 199.807 574.758 218.087 575.495 236.373C575.82 245.74 581.404 266.304 581.404 266.304C581.404 266.304 560.278 276.468 523.493 264.738C523.544 251.704 521.88 238.72 518.544 226.121C516.874 219.872 515.693 212.721 520.11 200.297C522.104 194.653 521.942 184.977 530.451 179.614C530.983 179.298 531.578 179.106 532.194 179.053C538.68 178.536 576.012 175.625 582.453 182.303Z" fill="#50635A"/>
<path opacity="0.5" d="M559.909 184.755L566.188 179.23L567.119 178.314C570.895 178.494 574.641 179.088 578.287 180.087C575.229 180.796 566.173 183.219 564.711 187.474C562.967 192.556 557.324 194.402 555.979 185.996L559.909 184.755Z" fill="#3C4D45"/>
<path d="M615.723 494.774L615.826 499.206L599.723 500.683L598.364 496.177L615.723 494.774Z" fill="#2AD482"/>
<path opacity="0.5" d="M615.723 494.774L615.826 499.206L599.723 500.683L598.364 496.177L615.723 494.774Z" fill="#FDFFFE"/>
<path d="M542.181 189.35C532.608 188.626 536.272 181.963 538.783 178.595C547.348 178.004 555.938 177.861 564.518 178.166C561.12 181.86 552.271 190.103 542.181 189.35Z" fill="#FFF6EE"/>
<path d="M526.462 279.438C526.651 279.711 526.902 279.936 527.195 280.093C527.488 280.249 527.814 280.334 528.147 280.339H528.398C531.205 280.014 534.588 273.499 535.784 270.884C536.597 273.425 539.108 280.575 541.96 281.491C542.173 281.566 542.398 281.606 542.624 281.609C543.108 281.603 543.575 281.437 543.954 281.137C544.205 280.95 544.407 280.707 544.546 280.427C544.685 280.147 544.755 279.839 544.752 279.526C544.826 276.911 538.842 271.283 536.626 269.303C536.403 269.098 536.117 268.973 535.815 268.949C535.512 268.925 535.21 269.003 534.957 269.17C532.623 270.736 526.492 275.08 526.004 277.724C525.958 278.026 525.974 278.334 526.053 278.629C526.132 278.924 526.271 279.199 526.462 279.438ZM538.104 272.612C540.63 275.02 543.289 278.019 543.245 279.482C543.25 279.558 543.236 279.634 543.205 279.703C543.174 279.773 543.127 279.834 543.068 279.881C542.99 279.948 542.896 279.994 542.795 280.015C542.694 280.035 542.59 280.03 542.491 279.999C541.147 279.556 539.389 276.01 538.104 272.612ZM527.615 277.99C527.881 276.513 530.776 274.001 533.524 272.081C531.796 275.316 529.565 278.64 528.25 278.788C528.147 278.788 527.969 278.788 527.733 278.507C527.668 278.439 527.623 278.356 527.602 278.265C527.582 278.174 527.586 278.079 527.615 277.99Z" fill="#50635A"/>
<path d="M458.86 185.169L462.494 183.573L473.456 208.688L469.792 210.328C469.573 210.423 469.337 210.475 469.098 210.479C468.859 210.483 468.621 210.44 468.399 210.352C468.177 210.264 467.974 210.133 467.802 209.967C467.631 209.801 467.493 209.602 467.399 209.382L457.973 187.621C457.867 187.403 457.805 187.165 457.792 186.922C457.779 186.679 457.815 186.436 457.898 186.208C457.98 185.979 458.108 185.769 458.273 185.591C458.439 185.412 458.638 185.269 458.86 185.169Z" fill="#50635A"/>
<path d="M470.973 209.845L474.657 208.241C475.585 207.837 476.01 206.758 475.606 205.83L466.114 184.021C465.71 183.094 464.631 182.669 463.703 183.073L460.019 184.676C459.091 185.08 458.666 186.159 459.07 187.087L468.562 208.896C468.966 209.824 470.045 210.248 470.973 209.845Z" fill="#50635A"/>
<path opacity="0.2" d="M470.973 209.845L474.657 208.241C475.585 207.837 476.01 206.758 475.606 205.83L466.114 184.021C465.71 183.094 464.631 182.669 463.703 183.073L460.019 184.676C459.091 185.08 458.666 186.159 459.07 187.087L468.562 208.896C468.966 209.824 470.045 210.248 470.973 209.845Z" fill="#FDFFFE"/>
<path d="M561.726 176.985L559.54 179.659L557.93 179.895L544.855 182.406L543.215 179.895L540.349 179.038L540.216 178.61C543.017 177.983 545.494 176.358 547.185 174.04C548.875 171.721 549.665 168.866 549.405 166.008L563.307 157.144C561.374 163.57 560.835 170.334 561.726 176.985Z" fill="#FFF6EE"/>
<path opacity="0.1" d="M549.198 169.332C549.434 168.241 549.504 167.12 549.405 166.008L561.445 158.282L561.829 158.725C561.829 158.725 558.432 169.229 549.198 169.332Z" fill="#3C4D45"/>
<path d="M566.557 140.997C565.39 151.988 565.08 156.656 559.333 162.063C550.587 170.204 537.35 166.377 535.208 155.268C533.273 145.266 535.489 128.986 546.465 125.071C548.881 124.197 551.48 123.956 554.015 124.369C556.55 124.782 558.938 125.837 560.951 127.432C562.964 129.028 564.536 131.112 565.517 133.486C566.498 135.86 566.856 138.445 566.557 140.997Z" fill="#FFF6EE"/>
<path d="M542.181 144.542C541.3 146.56 540.141 148.444 538.739 150.141C539.179 150.49 539.69 150.737 540.236 150.868C540.782 150.998 541.35 151.007 541.9 150.895L542.181 144.542Z" fill="#D58745"/>
<path d="M554 139.076C554.077 139.063 554.149 139.027 554.207 138.973C554.248 138.934 554.281 138.887 554.304 138.835C554.327 138.783 554.338 138.727 554.338 138.67C554.338 138.613 554.327 138.557 554.304 138.505C554.281 138.453 554.248 138.406 554.207 138.367C553.696 137.726 553.039 137.216 552.291 136.879C551.544 136.543 550.726 136.389 549.908 136.432C549.85 136.437 549.794 136.454 549.743 136.482C549.692 136.51 549.647 136.548 549.611 136.593C549.575 136.639 549.549 136.691 549.534 136.747C549.519 136.803 549.515 136.862 549.523 136.919C549.538 137.032 549.595 137.134 549.683 137.205C549.771 137.277 549.883 137.312 549.996 137.303C550.675 137.275 551.351 137.409 551.967 137.694C552.584 137.979 553.124 138.408 553.542 138.943C553.599 139.005 553.671 139.051 553.752 139.074C553.833 139.097 553.919 139.098 554 139.076Z" fill="#3C4D45"/>
<path d="M535.001 138.382C535.076 138.368 535.147 138.338 535.208 138.293C535.729 137.863 536.346 137.563 537.006 137.419C537.667 137.275 538.352 137.291 539.005 137.466C539.115 137.5 539.234 137.492 539.338 137.443C539.442 137.393 539.523 137.307 539.566 137.2C539.596 137.088 539.584 136.969 539.533 136.866C539.481 136.763 539.393 136.682 539.286 136.639C538.493 136.424 537.66 136.401 536.856 136.571C536.053 136.74 535.301 137.097 534.662 137.614C534.613 137.645 534.571 137.686 534.539 137.734C534.507 137.782 534.485 137.836 534.475 137.893C534.465 137.951 534.468 138.009 534.482 138.065C534.496 138.121 534.522 138.174 534.558 138.219C534.606 138.29 534.674 138.344 534.753 138.375C534.832 138.407 534.918 138.414 535.001 138.397V138.382Z" fill="#3C4D45"/>
<path d="M565.892 122.161C566.372 123.196 567.131 124.078 568.083 124.707C569.035 125.336 570.144 125.687 571.285 125.721C574.166 125.721 577.386 127.095 577.696 132.886C578.287 143.597 574.047 148.073 579.469 159.138C584.891 170.204 583.355 176.394 571.344 179.895C559.333 183.396 564.519 189.276 559.097 189.394C553.675 189.512 555.33 174 557.457 169.746C559.584 165.491 563.691 159.138 562.509 151.486C561.328 143.833 558.89 138.426 560.648 134.423C560.648 134.423 559.171 130.183 555.448 131.601C551.725 133.019 540.143 135.368 536.671 132.428C533.199 129.488 535.105 119.132 546.82 117.359C559.673 115.409 564.341 118.925 565.892 122.161Z" fill="#50635A"/>
<path d="M542.21 143.301H541.664L540.571 145.754L533.775 145.296L534.558 138.219L551.769 139.076L564.548 146.507V147.482L552.685 142.858L551.577 146.507L542.698 145.901L542.21 143.301Z" fill="#2AD482"/>
<path opacity="0.8" d="M542.21 143.301H541.664L540.571 145.754L533.775 145.296L534.558 138.219L551.769 139.076L564.548 146.507V147.482L552.685 142.858L551.577 146.507L542.698 145.901L542.21 143.301Z" fill="#FDFFFE"/>
<path d="M550.927 140.583L543.91 140.302L543.629 141.676L544.131 144.793L550.041 145.296L551.296 142.282L550.927 140.583Z" fill="#2AD482"/>
<path opacity="0.5" d="M535.385 139.948L540.97 140.302L541.177 141.351L539.921 144.528L534.898 144.084L535.385 139.948Z" fill="#50635A"/>
<path d="M548.637 143.301C548.563 144.188 548.032 144.867 547.441 144.779C546.85 144.69 546.436 143.966 546.525 143.065C546.613 142.164 547.145 141.499 547.721 141.588C548.297 141.676 548.711 142.4 548.637 143.301Z" fill="#3C4D45"/>
<path d="M538.532 142.415C538.532 143.301 537.912 143.981 537.336 143.892C536.759 143.804 536.346 143.08 536.42 142.179C536.494 141.277 537.04 140.613 537.616 140.701C538.192 140.79 538.621 141.514 538.532 142.415Z" fill="#3C4D45"/>
<path d="M537.867 140.775L535.77 139.977C535.77 139.977 536.73 141.735 537.867 140.775Z" fill="#3C4D45"/>
<path d="M547.972 141.662L545.889 140.864C545.889 140.864 546.849 142.622 547.972 141.662Z" fill="#3C4D45"/>
<path d="M568.773 149.831C568.426 150.828 567.886 151.747 567.184 152.536C566.482 153.324 565.632 153.966 564.681 154.426C562.125 155.637 560.367 153.48 560.678 150.806C560.958 148.413 562.628 144.897 565.39 144.793C565.869 144.792 566.344 144.884 566.788 145.066C567.231 145.247 567.635 145.514 567.975 145.852C568.315 146.189 568.585 146.59 568.771 147.032C568.956 147.474 569.052 147.949 569.054 148.428C569.056 148.91 568.961 149.387 568.773 149.831Z" fill="#FFF6EE"/>
<path opacity="0.5" d="M573.914 187.858L576.056 191.492L578.376 198.672C576.708 207.447 575.721 216.337 575.421 225.264C571.028 213.311 569.465 200.502 570.856 187.843L573.914 187.858Z" fill="#3C4D45"/>
<path d="M531.929 207.551H530.496V188.596L542.078 185.583L542.432 186.971L531.929 189.704V207.551Z" fill="#2AD482"/>
<path d="M538.384 235.517H524.394L521.513 204.315H541.265L538.384 235.517Z" fill="#2AD482"/>
<path opacity="0.3" d="M538.384 235.517H524.394L521.513 204.315H541.265L538.384 235.517Z" fill="#FDFFFE"/>
<path d="M542.24 203.237H520.523V205.482H542.24V203.237Z" fill="#2AD482"/>
<path opacity="0.7" d="M542.24 203.237H520.523V205.482H542.24V203.237Z" fill="#FDFFFE"/>
<path d="M579.469 180.914C580.624 180.967 581.736 181.372 582.655 182.074C583.574 182.777 584.256 183.743 584.61 184.844C588.554 196.958 597.551 234.704 588.717 242.238C577.918 251.457 537.01 238.442 537.01 238.442L525.28 223.388L526.447 217.789L538.576 216.533L543.274 231.794L578.878 230.804C578.878 230.804 571.802 203.311 570.856 192.659C570.472 188.685 570.501 180.575 579.469 180.914Z" fill="#FFF6EE"/>
<path d="M543.112 155.12C542.488 155.133 541.863 155.078 541.251 154.958C541.167 154.943 541.092 154.896 541.042 154.827C540.992 154.758 540.972 154.672 540.985 154.588C541.002 154.506 541.05 154.433 541.118 154.384C541.186 154.335 541.27 154.313 541.354 154.322C542.711 154.588 544.11 154.532 545.442 154.16C546.773 153.788 547.999 153.11 549.021 152.18C549.05 152.148 549.086 152.122 549.125 152.104C549.164 152.085 549.206 152.075 549.249 152.073C549.293 152.071 549.336 152.077 549.377 152.092C549.417 152.106 549.455 152.129 549.487 152.158C549.519 152.187 549.545 152.222 549.563 152.261C549.582 152.3 549.592 152.343 549.594 152.386C549.596 152.429 549.59 152.472 549.575 152.513C549.561 152.554 549.538 152.591 549.509 152.623C547.783 154.256 545.488 155.152 543.112 155.12Z" fill="#50635A"/>
<path d="M374.607 409.148L395.556 404.331L399.796 347.055L374.223 356.569L374.607 409.148Z" fill="#2AD482"/>
<path d="M377.591 408.468L377.872 355.21L374.223 356.569L374.607 409.148L377.591 408.468Z" fill="#2AD482"/>
<path d="M383.575 407.094L385.185 352.492L381.522 353.851L380.591 407.774L383.575 407.094Z" fill="#2AD482"/>
<path d="M389.573 405.72L392.498 349.773L388.834 351.133L386.574 406.4L389.573 405.72Z" fill="#2AD482"/>
<path d="M395.556 404.331L399.796 347.055L396.147 348.414L392.557 405.026L395.556 404.331Z" fill="#2AD482"/>
<g opacity="0.6">
<path d="M377.591 408.468L377.872 355.21L374.223 356.569L374.607 409.148L377.591 408.468Z" fill="#FDFFFE"/>
<path d="M383.575 407.094L385.185 352.492L381.521 353.851L380.59 407.774L383.575 407.094Z" fill="#FDFFFE"/>
<path d="M389.573 405.72L392.498 349.773L388.834 351.133L386.574 406.4L389.573 405.72Z" fill="#FDFFFE"/>
<path d="M395.556 404.331L399.796 347.055L396.147 348.414L392.557 405.026L395.556 404.331Z" fill="#FDFFFE"/>
</g>
<path d="M353.585 404.642L374.607 409.148L374.223 356.569L348.503 347.439L353.585 404.642Z" fill="#2AD482"/>
<path opacity="0.4" d="M353.585 404.642L374.607 409.148L374.223 356.569L348.503 347.439L353.585 404.642Z" fill="#FDFFFE"/>
<path d="M348.503 347.439L374.09 337.925L399.796 347.055L374.223 356.569L348.503 347.439Z" fill="#2AD482"/>
<path opacity="0.3" d="M348.503 347.439L374.09 337.925L399.796 347.055L374.223 356.569L348.503 347.439Z" fill="#FDFFFE"/>
<path d="M371.594 408.512L370.545 355.269L374.223 356.569L374.608 409.148L371.594 408.512Z" fill="#2AD482"/>
<path d="M365.595 407.227L363.202 352.654L366.866 353.954L368.594 407.862L365.595 407.227Z" fill="#2AD482"/>
<path d="M359.583 405.927L355.845 350.039L359.524 351.354L362.597 406.577L359.583 405.927Z" fill="#2AD482"/>
<path d="M353.585 404.642L348.503 347.439L352.181 348.739L356.584 405.292L353.585 404.642Z" fill="#2AD482"/>
<path d="M359.716 337.955C361.045 338.162 362.006 339.078 361.873 340.008C361.879 340.067 361.879 340.127 361.873 340.186C362.334 340.127 362.8 340.127 363.261 340.186C363.716 340.248 364.159 340.378 364.576 340.57V340.378C364.724 339.447 365.92 338.9 367.25 339.048C368.58 339.196 369.54 340.171 369.407 341.102C369.274 342.032 368.063 342.579 366.733 342.431H366.482C366.601 342.747 366.642 343.086 366.6 343.421C366.423 344.618 365.123 345.43 363.512 345.504C363.527 345.632 363.527 345.761 363.512 345.888C363.365 346.819 362.183 347.365 360.853 347.218C359.524 347.07 358.549 346.095 358.696 345.164C358.745 344.902 358.864 344.657 359.041 344.457C359.218 344.256 359.446 344.108 359.701 344.027C359.484 343.795 359.32 343.519 359.221 343.218C359.122 342.917 359.089 342.598 359.125 342.283C359.176 341.953 359.314 341.642 359.524 341.382H359.272C357.928 341.175 356.968 340.259 357.116 339.329C357.263 338.398 358.386 337.763 359.716 337.955Z" fill="#FDFFFE"/>
<path opacity="0.1" d="M359.716 337.955C361.045 338.162 362.006 339.078 361.873 340.008C361.879 340.067 361.879 340.127 361.873 340.186C362.334 340.127 362.8 340.127 363.261 340.186C363.716 340.248 364.159 340.378 364.576 340.57V340.378C364.724 339.447 365.92 338.9 367.25 339.048C368.58 339.196 369.54 340.171 369.407 341.102C369.274 342.032 368.063 342.579 366.733 342.431H366.482C366.601 342.747 366.642 343.086 366.6 343.421C366.423 344.618 365.123 345.43 363.512 345.504C363.527 345.632 363.527 345.761 363.512 345.888C363.365 346.819 362.183 347.365 360.853 347.218C359.524 347.07 358.549 346.095 358.696 345.164C358.745 344.902 358.864 344.657 359.041 344.457C359.218 344.256 359.446 344.108 359.701 344.027C359.484 343.795 359.32 343.519 359.221 343.218C359.122 342.917 359.089 342.598 359.125 342.283C359.176 341.953 359.314 341.642 359.524 341.382H359.272C357.928 341.175 356.968 340.259 357.116 339.329C357.263 338.398 358.386 337.763 359.716 337.955Z" fill="#3C4D45"/>
<path d="M387.475 349.7C387.805 349.528 388.059 349.238 388.184 348.887C388.509 347.853 387.401 346.582 385.717 346.065C384.033 345.548 382.408 345.992 382.097 347.026C382.097 347.026 382.097 347.129 382.097 347.173C381.769 346.972 381.417 346.813 381.049 346.701C379.364 346.184 377.739 346.612 377.429 347.661C377.119 348.71 378.212 349.966 379.896 350.483C380.579 350.697 381.304 350.743 382.009 350.616C382.431 351.34 383.121 351.871 383.929 352.093C385.318 352.521 386.662 352.093 386.884 351.295C387.593 351.502 388.258 351.295 388.361 350.896C388.465 350.497 388.125 349.936 387.475 349.7Z" fill="#FDFFFE"/>
<path opacity="0.1" d="M387.475 349.7C387.805 349.528 388.059 349.238 388.184 348.887C388.509 347.853 387.401 346.582 385.717 346.065C384.033 345.548 382.408 345.992 382.097 347.026C382.097 347.026 382.097 347.129 382.097 347.173C381.769 346.972 381.417 346.813 381.049 346.701C379.364 346.184 377.739 346.612 377.429 347.661C377.119 348.71 378.212 349.966 379.896 350.483C380.579 350.697 381.304 350.743 382.009 350.616C382.431 351.34 383.121 351.871 383.929 352.093C385.318 352.521 386.662 352.093 386.884 351.295C387.593 351.502 388.258 351.295 388.361 350.896C388.465 350.497 388.125 349.936 387.475 349.7Z" fill="#3C4D45"/>
<path d="M395.512 347.173C395.842 347.002 396.095 346.711 396.221 346.361C396.531 345.312 395.438 344.056 393.754 343.539C392.07 343.022 390.444 343.451 390.134 344.499C390.134 344.499 390.134 344.588 390.134 344.632C389.802 344.442 389.451 344.288 389.085 344.174C387.401 343.657 385.776 344.086 385.451 345.12C385.126 346.154 386.249 347.425 387.933 347.942C388.61 348.162 389.33 348.213 390.031 348.089C390.455 348.812 391.144 349.342 391.951 349.567C393.355 349.995 394.699 349.567 394.906 348.769C395.615 348.99 396.28 348.769 396.383 348.385C396.487 348.001 396.147 347.454 395.512 347.173Z" fill="#FDFFFE"/>
<path d="M359.494 349.286C359.618 349.522 359.649 349.796 359.583 350.054C359.346 350.793 358.105 351.088 356.968 350.704C355.83 350.32 354.973 349.404 355.21 348.665V348.577C354.933 348.557 354.66 348.502 354.397 348.414C353.186 348.03 352.403 347.114 352.639 346.376C352.876 345.637 354.117 345.327 355.254 345.711C355.748 345.864 356.199 346.133 356.569 346.494C357.119 346.274 357.733 346.274 358.283 346.494C359.287 346.819 359.937 347.587 359.76 348.208C360.262 348.355 360.587 348.739 360.499 349.05C360.41 349.36 359.967 349.404 359.494 349.286Z" fill="#FDFFFE"/>
<path opacity="0.1" d="M359.494 349.286C359.618 349.522 359.649 349.796 359.583 350.054C359.346 350.793 358.105 351.088 356.968 350.704C355.83 350.32 354.973 349.404 355.21 348.665V348.577C354.933 348.557 354.66 348.502 354.397 348.414C353.186 348.03 352.403 347.114 352.639 346.376C352.876 345.637 354.117 345.327 355.254 345.711C355.748 345.864 356.199 346.133 356.569 346.494C357.119 346.274 357.733 346.274 358.283 346.494C359.287 346.819 359.937 347.587 359.76 348.208C360.262 348.355 360.587 348.739 360.499 349.05C360.41 349.36 359.967 349.404 359.494 349.286Z" fill="#3C4D45"/>
<path d="M379.157 351.029C379.4 350.788 379.552 350.469 379.586 350.128C379.586 349.123 378.315 348.267 376.631 348.208C374.947 348.148 373.677 348.946 373.677 349.951C373.662 349.994 373.662 350.041 373.677 350.084C373.329 349.991 372.972 349.937 372.613 349.921C370.988 349.921 369.658 350.66 369.658 351.665C369.658 352.669 370.914 353.541 372.613 353.585C373.275 353.613 373.933 353.481 374.533 353.201C375.092 353.716 375.827 353.997 376.587 353.984C377.946 353.984 379.069 353.378 379.098 352.507C379.763 352.507 380.325 352.211 380.339 351.783C380.354 351.354 379.778 351.074 379.157 351.029Z" fill="#FDFFFE"/>
<path opacity="0.1" d="M379.157 351.029C379.4 350.788 379.552 350.469 379.586 350.128C379.586 349.123 378.315 348.267 376.631 348.208C374.947 348.148 373.677 348.946 373.677 349.951C373.662 349.994 373.662 350.041 373.677 350.084C373.329 349.991 372.972 349.937 372.613 349.921C370.988 349.921 369.658 350.66 369.658 351.665C369.658 352.669 370.914 353.541 372.613 353.585C373.275 353.613 373.933 353.481 374.533 353.201C375.092 353.716 375.827 353.997 376.587 353.984C377.946 353.984 379.069 353.378 379.098 352.507C379.763 352.507 380.325 352.211 380.339 351.783C380.354 351.354 379.778 351.074 379.157 351.029Z" fill="#3C4D45"/>
<path d="M382.053 341.914C382.231 342.304 382.257 342.747 382.127 343.155C381.684 344.322 379.793 344.632 377.916 343.982C376.04 343.332 374.858 341.752 375.302 340.585C375.302 340.585 375.302 340.496 375.375 340.452C374.937 340.394 374.506 340.29 374.09 340.141C372.214 339.432 371.047 337.911 371.475 336.743C371.904 335.576 373.809 335.192 375.686 335.901C376.451 336.186 377.14 336.646 377.695 337.246C378.583 336.924 379.559 336.951 380.428 337.32C381.994 337.911 382.969 339.166 382.6 340.141C383.383 340.437 383.87 341.057 383.678 341.545C383.486 342.032 382.792 342.165 382.053 341.914Z" fill="#FDFFFE"/>
<path opacity="0.1" d="M382.053 341.914C382.231 342.304 382.257 342.747 382.127 343.155C381.684 344.322 379.793 344.632 377.916 343.982C376.04 343.332 374.858 341.752 375.302 340.585C375.302 340.585 375.302 340.496 375.375 340.452C374.937 340.394 374.506 340.29 374.09 340.141C372.214 339.432 371.047 337.911 371.475 336.743C371.904 335.576 373.809 335.192 375.686 335.901C376.451 336.186 377.14 336.646 377.695 337.246C378.583 336.924 379.559 336.951 380.428 337.32C381.994 337.911 382.969 339.166 382.6 340.141C383.383 340.437 383.87 341.057 383.678 341.545C383.486 342.032 382.792 342.165 382.053 341.914Z" fill="#3C4D45"/>
<path d="M368.595 343.022C368.293 342.62 368.156 342.118 368.211 341.619C368.432 340.141 370.53 339.255 372.879 339.609C375.228 339.964 376.986 341.441 376.764 342.904C376.764 342.978 376.764 343.022 376.764 343.081C377.285 343.023 377.81 343.023 378.33 343.081C380.694 343.436 382.423 344.913 382.201 346.376C381.979 347.838 379.896 348.739 377.533 348.385C376.569 348.249 375.652 347.884 374.859 347.321C373.912 347.911 372.778 348.122 371.682 347.912C369.718 347.617 368.285 346.435 368.462 345.179C367.487 345.031 366.763 344.411 366.852 343.805C366.94 343.199 367.679 342.933 368.595 343.022Z" fill="#FDFFFE"/>
<path d="M389.056 344.898C389.314 344.673 389.487 344.365 389.543 344.027C389.632 343.007 388.391 342.077 386.766 341.929C385.141 341.781 383.811 342.49 383.649 343.495C383.649 343.495 383.649 343.583 383.649 343.628C383.309 343.513 382.957 343.438 382.6 343.406C380.975 343.258 379.645 343.968 379.497 344.972C379.35 345.977 380.65 346.907 382.275 347.055C382.938 347.122 383.607 347.026 384.225 346.775C384.751 347.328 385.471 347.656 386.234 347.69C387.578 347.809 388.731 347.232 388.819 346.39C389.484 346.39 390.06 346.154 390.105 345.74C390.149 345.327 389.676 344.987 389.056 344.898Z" fill="#FDFFFE"/>
<path d="M361.282 347.572H361.474C361.39 347.331 361.364 347.072 361.4 346.819C361.592 345.519 363.276 344.706 365.167 344.987C365.797 345.039 366.402 345.256 366.92 345.617C367.439 345.977 367.854 346.468 368.122 347.04C368.767 346.865 369.44 346.825 370.101 346.922C371.992 347.218 373.366 348.503 373.174 349.803C372.982 351.103 371.283 351.916 369.392 351.635V351.753C369.259 352.654 368.077 353.23 366.763 353.038C365.448 352.846 364.488 351.945 364.635 351.044C364.677 350.778 364.807 350.533 365.005 350.35C364.786 350.188 364.626 349.96 364.547 349.7H364.458C364.103 349.641 363.756 349.542 363.424 349.404V349.537C363.291 350.438 362.109 351.014 360.794 350.808C359.479 350.601 358.519 349.729 358.667 348.813C358.815 347.897 359.967 347.365 361.282 347.572Z" fill="#FDFFFE"/>
<path d="M459.879 420.464C459.879 420.464 423.463 412.782 410.95 409.827C391.922 405.395 341.796 398.26 331.351 419.149C320.906 440.039 295.57 486.663 295.57 486.663L307.063 497.418C307.063 497.418 338.087 460.145 348.842 435.163C349.197 434.351 350.468 431.987 350.468 431.987C350.468 431.987 434.986 459.85 449.685 446.938C453.385 443.667 456.242 439.554 458.016 434.946C459.791 430.338 460.429 425.371 459.879 420.464Z" fill="#2AD482"/>
<path opacity="0.1" d="M459.879 420.464C459.879 420.464 423.463 412.782 410.95 409.827C391.922 405.395 341.796 398.26 331.351 419.149C320.906 440.039 295.57 486.663 295.57 486.663L307.063 497.418C307.063 497.418 338.087 460.145 348.842 435.163C349.197 434.351 350.468 431.987 350.468 431.987C350.468 431.987 434.986 459.85 449.685 446.938C453.385 443.667 456.242 439.554 458.016 434.946C459.791 430.338 460.429 425.371 459.879 420.464Z" fill="#3C4D45"/>
<path d="M306.606 496.148L297.786 507.095L291.212 500.432L298.126 489.707L306.606 496.148Z" fill="#FFEEEF"/>
<path opacity="0.2" d="M294.639 495.114L302.41 501.348L305.867 497.064L297.682 490.401L294.639 495.114Z" fill="#3C4D45"/>
<path d="M287.327 497.197C286.381 496.295 285.569 495.187 285.642 494.478C285.675 494.289 285.765 494.114 285.899 493.977C286.034 493.839 286.207 493.746 286.396 493.71C286.724 493.622 287.073 493.664 287.371 493.828C288.966 494.685 290.178 498.733 290.237 498.91C290.251 498.96 290.248 499.013 290.23 499.061C290.211 499.109 290.177 499.149 290.133 499.176C290.091 499.202 290.043 499.216 289.993 499.216C289.944 499.216 289.895 499.202 289.853 499.176C288.954 498.592 288.109 497.929 287.327 497.197ZM287.519 494.567C287.408 494.448 287.278 494.348 287.134 494.271C287.049 494.213 286.951 494.176 286.848 494.163C286.745 494.15 286.641 494.162 286.544 494.198C286.189 494.286 286.145 494.449 286.13 494.552C286.012 495.379 287.917 497.226 289.498 498.393C289.088 497.003 288.416 495.705 287.519 494.567Z" fill="#2AD482"/>
<path d="M289.823 499.162C289.817 499.148 289.813 499.133 289.813 499.117C289.813 499.102 289.817 499.087 289.823 499.073C289.291 497.817 289.04 494.419 290.015 493.725C290.222 493.533 290.621 493.429 291.168 493.858C291.365 494.008 291.53 494.196 291.652 494.412C291.774 494.628 291.851 494.867 291.877 495.114C291.777 496.605 291.208 498.027 290.252 499.176C290.224 499.211 290.187 499.237 290.145 499.252C290.104 499.268 290.059 499.272 290.015 499.265C289.977 499.264 289.94 499.255 289.907 499.237C289.873 499.219 289.845 499.193 289.823 499.162ZM290.902 494.316L290.798 494.198C290.459 493.917 290.311 494.035 290.252 494.065C289.72 494.537 289.69 497.019 290.089 498.423C290.823 497.476 291.246 496.325 291.301 495.128C291.269 494.818 291.128 494.53 290.902 494.316Z" fill="#2AD482"/>
<path d="M291.64 498.866L299.899 506.725C300.05 506.872 300.147 507.066 300.174 507.276C300.201 507.485 300.156 507.697 300.046 507.878L295.127 516.047C295.031 516.227 294.898 516.384 294.738 516.51C294.578 516.636 294.394 516.728 294.197 516.779C294 516.83 293.795 516.84 293.594 516.809C293.393 516.777 293.2 516.704 293.029 516.594L292.763 516.387C289.808 513.433 287.326 510.803 283.589 507.257C279.157 503.076 279.807 504.672 274.577 499.871C271.416 496.916 274.223 492.868 275.7 493.961C282.466 498.955 284.83 497.728 289.217 497.773C290.131 497.829 290.993 498.218 291.64 498.866Z" fill="#50635A"/>
<path d="M311.939 493.37L306.96 499.014L292.837 489.263L296.353 482.246L311.939 493.37Z" fill="#2AD482"/>
<path opacity="0.3" d="M311.939 493.37L306.96 499.014L292.837 489.263L296.353 482.246L311.939 493.37Z" fill="#FDFFFE"/>
<path d="M437.291 420.523C437.291 420.523 398.437 412.014 385.111 408.704C364.798 403.77 311.407 395.615 300.696 416.8C289.986 437.985 263.881 485.186 263.881 485.186L276.291 496.399C276.291 496.399 308.541 458.83 319.562 433.494C319.931 432.667 321.231 430.273 321.231 430.273C321.231 430.273 411.57 460.337 426.949 447.41C430.799 444.163 433.766 439.996 435.573 435.295C437.381 430.594 437.972 425.513 437.291 420.523Z" fill="#2AD482"/>
<path d="M272.834 496.665L264.369 507.095L257.883 500.181L265.048 490.312L272.834 496.665Z" fill="#FFEEEF"/>
<path opacity="0.2" d="M262.064 494.419L269.687 500.55L272.834 496.665L265.048 490.312L262.064 494.419Z" fill="#3C4D45"/>
<path d="M279.246 494.729L273.972 500.092L260.528 489.692L264.428 482.881L279.246 494.729Z" fill="#2AD482"/>
<path opacity="0.3" d="M279.246 494.729L273.972 500.092L260.528 489.692L264.428 482.881L279.246 494.729Z" fill="#FDFFFE"/>
<path d="M426.949 286.78C426.624 287.607 426.787 288.435 427.333 288.656C427.88 288.878 428.619 288.346 428.914 287.548C429.21 286.75 429.077 285.879 428.53 285.672C427.983 285.465 427.289 285.953 426.949 286.78Z" fill="#50635A"/>
<path d="M427.777 289.912L421.262 294.772C421.83 295.535 422.571 296.154 423.423 296.577C424.275 297.001 425.215 297.217 426.166 297.21L427.777 289.912Z" fill="#D4827D"/>
<path d="M451.739 329.859C451.739 329.859 444.352 326.904 448.533 312.87C448.533 312.87 442.432 307.61 436.714 310.432C430.997 313.254 436.803 325.457 429.963 327.879C423.123 330.302 451.739 329.859 451.739 329.859Z" fill="#FFEEEF"/>
<path opacity="0.1" d="M439.226 317.331C437.519 318.824 435.633 320.099 433.612 321.128C433.73 319.193 433.686 317.124 433.923 315.307L439.226 317.331Z" fill="#3C4D45"/>
<path d="M460.13 296.028C456.319 307.167 454.93 311.983 447.602 316.208C437.261 319.725 423.714 315.455 424.142 303.4C424.512 292.542 430.687 276.188 443.052 274.666C447.281 274.157 451.539 275.348 454.891 277.977C458.243 280.605 460.414 284.457 460.928 288.686C461.242 291.162 460.969 293.677 460.13 296.028Z" fill="#FFEEEF"/>
<path d="M431.647 284.416C431.572 284.401 431.502 284.367 431.443 284.318C431.383 284.269 431.337 284.206 431.307 284.136C431.095 283.599 430.757 283.121 430.323 282.741C429.889 282.36 429.371 282.089 428.811 281.949C428.69 281.927 428.583 281.86 428.511 281.761C428.44 281.661 428.409 281.538 428.427 281.417C428.448 281.298 428.516 281.192 428.616 281.122C428.716 281.053 428.839 281.026 428.958 281.048C429.672 281.21 430.336 281.542 430.894 282.015C431.452 282.488 431.888 283.089 432.164 283.766C432.189 283.823 432.201 283.885 432.202 283.947C432.202 284.009 432.191 284.071 432.167 284.129C432.144 284.186 432.11 284.239 432.066 284.283C432.022 284.327 431.97 284.363 431.913 284.387C431.829 284.42 431.737 284.43 431.647 284.416Z" fill="#50635A"/>
<path d="M455.019 330.923L454.442 328.071C454.242 327.059 453.719 326.14 452.952 325.45C452.185 324.76 451.215 324.337 450.188 324.245C443.554 323.639 429.786 322.605 427.319 324.245C425.371 325.521 423.949 327.456 423.315 329.697L455.019 330.923Z" fill="#50635A"/>
<g opacity="0.3">
<path d="M455.019 330.923L454.442 328.071C454.242 327.059 453.719 326.14 452.952 325.45C452.185 324.76 451.215 324.337 450.188 324.245C443.554 323.639 429.786 322.605 427.319 324.245C425.371 325.521 423.949 327.456 423.315 329.697L455.019 330.923Z" fill="#FDFFFE"/>
</g>
<path d="M460.662 421.72C460.662 421.72 459.037 382.142 463.617 360.189C468.196 338.236 468.315 329.342 450.587 328.485C432.859 327.628 414.436 323.61 405.498 343.14C398.836 357.677 398.008 393.931 398.023 411.482C398.019 414.098 399.053 416.609 400.897 418.464C402.741 420.32 405.246 421.368 407.862 421.38L460.662 421.72Z" fill="#50635A"/>
<path d="M254.102 496.872C253.2 495.926 252.447 494.774 252.624 494.079C252.668 493.892 252.767 493.722 252.91 493.593C253.052 493.463 253.231 493.381 253.422 493.356C253.586 493.317 253.755 493.313 253.921 493.343C254.086 493.374 254.243 493.438 254.382 493.533C255.86 494.478 256.923 498.57 256.968 498.763C256.975 498.811 256.967 498.861 256.946 498.906C256.925 498.951 256.892 498.988 256.849 499.014C256.808 499.042 256.759 499.057 256.709 499.057C256.659 499.057 256.61 499.042 256.569 499.014C255.681 498.378 254.855 497.661 254.102 496.872ZM254.441 494.257C254.335 494.139 254.21 494.039 254.072 493.961C253.99 493.895 253.894 493.85 253.791 493.83C253.688 493.809 253.582 493.814 253.481 493.843C253.126 493.917 253.067 494.065 253.053 494.183C252.89 494.995 254.692 496.945 256.199 498.201C255.852 496.782 255.235 495.443 254.382 494.257H254.441Z" fill="#2AD482"/>
<path d="M256.421 498.984C256.411 498.955 256.411 498.924 256.421 498.896C255.963 497.61 255.904 494.212 256.908 493.562C257.145 493.385 257.544 493.311 258.061 493.754C258.434 494.088 258.662 494.555 258.696 495.054C258.514 496.541 257.868 497.931 256.849 499.028C256.812 499.047 256.772 499.056 256.731 499.056C256.69 499.056 256.65 499.047 256.613 499.028C256.545 499.039 256.477 499.023 256.421 498.984ZM257.765 494.198L257.676 494.094C257.351 493.784 257.189 493.887 257.13 493.917C256.568 494.36 256.406 496.783 256.731 498.26C257.514 497.354 258.004 496.231 258.134 495.04C258.115 494.724 257.984 494.425 257.765 494.198Z" fill="#2AD482"/>
<path d="M258.253 498.792L266.097 507.139C266.242 507.292 266.33 507.49 266.346 507.699C266.362 507.909 266.306 508.118 266.186 508.291L260.808 516.18C260.701 516.353 260.559 516.502 260.392 516.618C260.224 516.733 260.035 516.813 259.835 516.852C259.635 516.89 259.43 516.888 259.231 516.843C259.033 516.799 258.845 516.714 258.681 516.594C258.596 516.533 258.516 516.464 258.445 516.387C255.667 513.329 253.318 510.478 249.787 506.755C245.636 502.323 246.153 503.948 241.204 498.822C238.25 495.734 241.204 491.819 242.682 492.912C249.152 498.275 251.546 497.182 255.978 497.492C256.871 497.629 257.681 498.092 258.253 498.792Z" fill="#50635A"/>
<path d="M429.904 303.814C430.286 303.624 430.647 303.396 430.983 303.134C431.02 303.091 431.041 303.036 431.041 302.979C431.041 302.922 431.02 302.867 430.983 302.824C430.941 302.783 430.886 302.761 430.827 302.761C430.769 302.761 430.714 302.783 430.672 302.824C429.939 303.405 429.081 303.806 428.165 303.996C427.249 304.186 426.302 304.159 425.398 303.917C425.341 303.897 425.279 303.9 425.224 303.925C425.169 303.95 425.126 303.994 425.103 304.05C425.091 304.077 425.085 304.106 425.086 304.136C425.086 304.165 425.093 304.194 425.106 304.22C425.118 304.247 425.137 304.271 425.159 304.29C425.181 304.309 425.208 304.323 425.236 304.331C426.01 304.556 426.82 304.626 427.621 304.537C428.422 304.448 429.198 304.202 429.904 303.814Z" fill="#50635A"/>
<path d="M434.794 295.984L431.721 298.037L431.145 297.417C430.727 296.962 430.453 296.394 430.358 295.784C430.263 295.174 430.352 294.549 430.613 293.989C431.307 292.512 433.39 290.532 433.464 287.977C433.464 286.632 432.637 285.953 434.794 282.732C436.951 279.512 429.963 276.188 431.765 269.288C433.568 262.389 438.369 269.288 438.369 269.288C438.369 269.288 439.95 263.054 443.687 262.552C447.425 262.049 447.602 269.037 447.602 269.037C447.602 269.037 454.915 263.128 458.15 265.876C461.386 268.624 457.397 272.361 457.397 272.361C457.397 272.361 465.877 270.027 467.738 273.765C469.6 277.502 464.267 279.585 464.267 279.585C464.267 279.585 474.49 284.328 468.122 288.228C468.122 288.228 474.12 293.31 468.122 296.619C468.122 296.619 472.111 303.385 462.937 304.538C462.937 304.538 465.892 309.56 459.982 311.023L447.632 316.149C447.632 316.149 445.623 314.495 442.062 316.149L439.211 304.124L434.794 295.984Z" fill="#50635A"/>
<path d="M436.582 292.157C435.509 292.676 434.55 293.402 433.761 294.295C432.972 295.188 432.369 296.229 431.987 297.358C430.968 300.386 433.642 302.085 436.582 301.406C439.241 300.785 442.949 298.451 442.683 295.334C442.62 294.652 442.386 293.998 442.005 293.43C441.623 292.862 441.105 292.399 440.498 292.083C439.891 291.767 439.214 291.608 438.53 291.621C437.846 291.634 437.176 291.819 436.582 292.157Z" fill="#FFEEEF"/>
<path d="M399.368 355.151L384.978 379.246L358.283 373.115L350.704 360.336C350.345 359.738 349.812 359.262 349.176 358.972C348.541 358.681 347.832 358.591 347.144 358.711L344.337 359.214C343.476 359.369 342.707 359.847 342.185 360.549C341.664 361.252 341.43 362.127 341.53 362.996L342.874 374.268C342.948 374.899 343.196 375.496 343.59 375.995C343.984 376.493 344.508 376.872 345.105 377.089L356.17 380.99C356.17 380.99 380.99 396.62 388.672 393.916C396.354 391.213 411.969 362.966 411.969 362.966L399.368 355.151Z" fill="#FFEEEF"/>
<path d="M421.586 332.474C418.041 329.859 410.979 327.215 396.472 356.111L412.412 366.187C412.412 366.187 433.124 340.998 421.586 332.474Z" fill="#50635A"/>
<path opacity="0.3" d="M421.586 332.474C418.041 329.859 410.979 327.215 396.472 356.111L412.412 366.187C412.412 366.187 433.124 340.998 421.586 332.474Z" fill="#FDFFFE"/>
<path d="M481.936 530.88H477.415C476.835 530.866 476.281 530.636 475.862 530.234C475.444 529.832 475.191 529.287 475.155 528.708L474.076 516.697H485.274L484.196 528.708C484.159 529.287 483.907 529.832 483.488 530.234C483.07 530.636 482.516 530.866 481.936 530.88Z" fill="#50635A"/>
<path d="M575.687 530.88H571.166C570.586 530.866 570.032 530.636 569.614 530.234C569.195 529.832 568.943 529.287 568.906 528.708L567.828 516.697H579.026L577.947 528.708C577.911 529.287 577.658 529.832 577.24 530.234C576.821 530.636 576.267 530.866 575.687 530.88Z" fill="#50635A"/>
<path d="M478.405 514.112V417.11C478.373 415.217 478.913 413.359 479.954 411.777C480.995 410.196 482.489 408.965 484.24 408.246C517.497 395.305 554.397 395.305 587.654 408.246C589.407 408.962 590.904 410.192 591.945 411.774C592.987 413.356 593.525 415.216 593.489 417.11V514.112C593.545 516.548 592.632 518.907 590.951 520.671C589.27 522.435 586.958 523.461 584.522 523.523H487.372C484.936 523.461 482.624 522.435 480.943 520.671C479.262 518.907 478.349 516.548 478.405 514.112Z" fill="#2AD482"/>
<g opacity="0.3">
<path d="M478.405 514.112V417.11C478.373 415.217 478.913 413.359 479.954 411.777C480.995 410.196 482.489 408.965 484.24 408.246C517.497 395.305 554.397 395.305 587.654 408.246C589.407 408.962 590.904 410.192 591.945 411.774C592.987 413.356 593.525 415.216 593.489 417.11V514.112C593.545 516.548 592.632 518.907 590.951 520.671C589.27 522.435 586.958 523.461 584.522 523.523H487.372C484.936 523.461 482.624 522.435 480.943 520.671C479.262 518.907 478.349 516.548 478.405 514.112Z" fill="#FDFFFE"/>
</g>
<path d="M459.672 514.112V417.11C459.642 415.208 460.191 413.341 461.247 411.758C462.302 410.175 463.814 408.95 465.582 408.246C498.838 395.305 535.739 395.305 568.995 408.246C570.746 408.965 572.24 410.196 573.281 411.777C574.322 413.359 574.862 415.217 574.83 417.11V514.112C574.886 516.548 573.973 518.907 572.292 520.671C570.611 522.435 568.299 523.461 565.863 523.523H468.64C466.204 523.461 463.892 522.435 462.211 520.671C460.53 518.907 459.617 516.548 459.672 514.112Z" fill="#2AD482"/>
<g opacity="0.5">
<path d="M459.672 514.112V417.11C459.642 415.208 460.191 413.341 461.247 411.758C462.302 410.175 463.814 408.95 465.582 408.246C498.838 395.305 535.739 395.305 568.995 408.246C570.746 408.965 572.24 410.196 573.281 411.777C574.322 413.359 574.862 415.217 574.83 417.11V514.112C574.886 516.548 573.973 518.907 572.292 520.671C570.611 522.435 568.299 523.461 565.863 523.523H468.64C466.204 523.461 463.892 522.435 462.211 520.671C460.53 518.907 459.617 516.548 459.672 514.112Z" fill="#FDFFFE"/>
</g>
<path d="M449.508 479.395H372.288L392.173 362.36C392.846 358.415 394.892 354.835 397.95 352.253C401.007 349.672 404.88 348.254 408.882 348.252H449.464L449.508 479.395Z" fill="#2AD482"/>
<path opacity="0.4" d="M449.508 479.395H372.288L392.173 362.36C392.846 358.415 394.892 354.835 397.95 352.253C401.007 349.672 404.88 348.254 408.882 348.252H449.464L449.508 479.395Z" fill="#FDFFFE"/>
<path d="M565.168 518.16H395.157C394.346 518.16 393.568 517.838 392.995 517.264C392.421 516.691 392.099 515.913 392.099 515.102V448.518C392.099 447.707 392.421 446.93 392.995 446.356C393.568 445.783 394.346 445.46 395.157 445.46H568.227V515.102C568.227 515.913 567.904 516.691 567.331 517.264C566.757 517.838 565.98 518.16 565.168 518.16Z" fill="#2AD482"/>
<path d="M557.737 348.252H436.596C431.15 348.252 425.88 350.182 421.721 353.697C417.562 357.213 414.782 362.087 413.875 367.457L400.579 445.49H394.773C394.044 445.49 393.345 445.779 392.83 446.295C392.314 446.81 392.025 447.509 392.025 448.238V515.427C392.025 516.156 392.314 516.855 392.83 517.37C393.345 517.885 394.044 518.175 394.773 518.175H565.405C565.766 518.175 566.123 518.104 566.456 517.966C566.79 517.828 567.093 517.625 567.348 517.37C567.603 517.115 567.805 516.812 567.943 516.478C568.082 516.145 568.153 515.788 568.153 515.427V455.521C568.154 449.932 568.624 444.353 569.556 438.842L580.444 375.243C581.019 371.932 580.863 368.535 579.987 365.291C579.111 362.047 577.537 359.033 575.373 356.462C573.21 353.89 570.511 351.823 567.464 350.405C564.418 348.987 561.098 348.252 557.737 348.252Z" fill="#2AD482"/>
<path opacity="0.2" d="M557.737 348.252H436.596C431.15 348.252 425.88 350.182 421.721 353.697C417.562 357.213 414.782 362.087 413.875 367.457L400.579 445.49H394.773C394.044 445.49 393.345 445.779 392.83 446.295C392.314 446.81 392.025 447.509 392.025 448.238V515.427C392.025 516.156 392.314 516.855 392.83 517.37C393.345 517.885 394.044 518.175 394.773 518.175H565.405C565.766 518.175 566.123 518.104 566.456 517.966C566.79 517.828 567.093 517.625 567.348 517.37C567.603 517.115 567.805 516.812 567.943 516.478C568.082 516.145 568.153 515.788 568.153 515.427V455.521C568.154 449.932 568.624 444.353 569.556 438.842L580.444 375.243C581.019 371.932 580.863 368.535 579.987 365.291C579.111 362.047 577.537 359.033 575.373 356.462C573.21 353.89 570.511 351.823 567.464 350.405C564.418 348.987 561.098 348.252 557.737 348.252Z" fill="#FDFFFE"/>
<path opacity="0.1" d="M427.156 514.112V417.11C427.192 415.216 426.654 413.356 425.612 411.774C424.571 410.192 423.075 408.962 421.321 408.246C416.889 406.518 412.309 405.041 407.744 403.814L400.653 445.475H394.847C394.118 445.475 393.419 445.765 392.904 446.28C392.389 446.795 392.099 447.494 392.099 448.223V515.412C392.099 516.141 392.389 516.84 392.904 517.355C393.419 517.87 394.118 518.16 394.847 518.16H426.285C426.858 516.887 427.155 515.508 427.156 514.112Z" fill="#3C4D45"/>
<path d="M306.355 530.88H301.834C301.254 530.866 300.7 530.636 300.281 530.234C299.863 529.832 299.61 529.287 299.574 528.708L298.495 516.697H309.693L308.615 528.708C308.578 529.287 308.326 529.832 307.907 530.234C307.489 530.636 306.935 530.866 306.355 530.88Z" fill="#50635A"/>
<path d="M400.121 530.88H395.585C395.006 530.863 394.454 530.631 394.036 530.23C393.619 529.828 393.365 529.286 393.325 528.708L392.247 516.697H403.445L402.381 528.708C402.341 529.286 402.087 529.828 401.67 530.23C401.252 530.631 400.7 530.863 400.121 530.88Z" fill="#50635A"/>
<path d="M302.853 514.112V417.11C302.817 415.216 303.356 413.356 304.397 411.774C305.439 410.192 306.935 408.962 308.689 408.246C341.923 395.319 378.795 395.319 412.028 408.246C413.782 408.962 415.278 410.192 416.32 411.774C417.361 413.356 417.9 415.216 417.864 417.11V514.112C417.919 516.548 417.006 518.907 415.325 520.671C413.644 522.435 411.332 523.461 408.896 523.523H311.791C309.359 523.457 307.052 522.429 305.377 520.665C303.701 518.901 302.794 516.544 302.853 514.112Z" fill="#2AD482"/>
<g opacity="0.3">
<path d="M302.853 514.112V417.11C302.817 415.216 303.356 413.356 304.397 411.774C305.439 410.192 306.935 408.962 308.689 408.246C341.923 395.319 378.795 395.319 412.028 408.246C413.782 408.962 415.278 410.192 416.32 411.774C417.361 413.356 417.9 415.216 417.864 417.11V514.112C417.919 516.548 417.006 518.907 415.325 520.671C413.644 522.435 411.332 523.461 408.896 523.523H311.791C309.359 523.457 307.052 522.429 305.377 520.665C303.701 518.901 302.794 516.544 302.853 514.112Z" fill="#FDFFFE"/>
</g>
<path d="M284.091 514.112V417.11C284.055 415.216 284.594 413.356 285.635 411.774C286.677 410.192 288.173 408.962 289.927 408.246C323.183 395.305 360.084 395.305 393.34 408.246C395.108 408.95 396.62 410.175 397.675 411.758C398.73 413.341 399.28 415.208 399.249 417.11V514.112C399.305 516.548 398.392 518.907 396.711 520.671C395.03 522.435 392.718 523.461 390.282 523.523H293.059C290.623 523.461 288.311 522.435 286.63 520.671C284.949 518.907 284.036 516.548 284.091 514.112Z" fill="#2AD482"/>
<g opacity="0.5">
<path d="M284.091 514.112V417.11C284.055 415.216 284.594 413.356 285.635 411.774C286.677 410.192 288.173 408.962 289.927 408.246C323.183 395.305 360.084 395.305 393.34 408.246C395.108 408.95 396.62 410.175 397.675 411.758C398.73 413.341 399.28 415.208 399.249 417.11V514.112C399.305 516.548 398.392 518.907 396.711 520.671C395.03 522.435 392.718 523.461 390.282 523.523H293.059C290.623 523.461 288.311 522.435 286.63 520.671C284.949 518.907 284.036 516.548 284.091 514.112Z" fill="#FDFFFE"/>
</g>
</g>
</svg>
