<svg width="1000" height="738" viewBox="0 0 1000 738" fill="none" xmlns="http://www.w3.org/2000/svg">
<g opacity="0.4">
<path d="M899.8 686.98H833.56V687.48H899.8V686.98Z" fill="#EDFFF6"/>
<path d="M662.44 692.42H645.06V692.92H662.44V692.42Z" fill="#EDFFF6"/>
<path d="M831.56 668.42H793.18V668.92H831.56V668.42Z" fill="#EDFFF6"/>
<path d="M191.3 671.78H104.92V672.28H191.3V671.78Z" fill="#EDFFF6"/>
<path d="M221.78 671.78H209.12V672.28H221.78V671.78Z" fill="#EDFFF6"/>
<path d="M450.3 680.22H262.94V680.72H450.3V680.22Z" fill="#EDFFF6"/>
<path d="M476.8 565.6H90.6002C87.5714 565.6 84.6667 564.397 82.525 562.255C80.3834 560.114 79.1802 557.209 79.1802 554.18V11.32C79.2065 8.30859 80.4214 5.4295 82.5602 3.30941C84.699 1.18932 87.5886 -0.000115452 90.6002 8.4051e-09H476.8C478.3 8.40511e-09 479.785 0.295384 481.17 0.869293C482.556 1.4432 483.815 2.2844 484.875 3.34484C485.936 4.40529 486.777 5.66422 487.351 7.04976C487.925 8.4353 488.22 9.9203 488.22 11.42V554.18C488.22 555.68 487.925 557.165 487.351 558.55C486.777 559.936 485.936 561.195 484.875 562.255C483.815 563.316 482.556 564.157 481.17 564.731C479.785 565.305 478.3 565.6 476.8 565.6ZM90.6002 0.400002C87.7056 0.405288 84.9312 1.55748 82.8844 3.60423C80.8377 5.65099 79.6855 8.42546 79.6802 11.32V554.18C79.6855 557.075 80.8377 559.849 82.8844 561.896C84.9312 563.943 87.7056 565.095 90.6002 565.1H476.8C479.695 565.095 482.469 563.943 484.516 561.896C486.563 559.849 487.715 557.075 487.72 554.18V11.32C487.715 8.42546 486.563 5.65099 484.516 3.60423C482.469 1.55748 479.695 0.405288 476.8 0.400002H90.6002Z" fill="#EDFFF6"/>
<path d="M909.4 565.6H523.2C520.171 565.6 517.267 564.397 515.125 562.255C512.983 560.114 511.78 557.209 511.78 554.18V11.32C511.806 8.30859 513.021 5.4295 515.16 3.30941C517.299 1.18932 520.189 -0.000115452 523.2 8.4051e-09H909.4C912.429 8.40512e-09 915.334 1.20318 917.475 3.34484C919.617 5.48651 920.82 8.39123 920.82 11.42V554.18C920.82 557.209 919.617 560.114 917.475 562.255C915.334 564.397 912.429 565.6 909.4 565.6ZM523.2 0.400002C520.306 0.405288 517.531 1.55748 515.484 3.60423C513.438 5.65099 512.285 8.42546 512.28 11.32V554.18C512.285 557.075 513.438 559.849 515.484 561.896C517.531 563.943 520.306 565.095 523.2 565.1H909.4C912.295 565.095 915.069 563.943 917.116 561.896C919.163 559.849 920.315 557.075 920.32 554.18V11.32C920.315 8.42546 919.163 5.65099 917.116 3.60423C915.069 1.55748 912.295 0.405288 909.4 0.400002H523.2Z" fill="#EDFFF6"/>
<path d="M1000 654.8H0V655.3H1000V654.8Z" fill="#EDFFF6"/>
<path d="M811.691 285.919L795.824 113.246L564.897 134.466L580.763 307.138L811.691 285.919Z" fill="#A6BEB3"/>
<path opacity="0.9" d="M783.696 127.841L579.516 146.603L592.925 292.528L797.105 273.766L783.696 127.841Z" fill="#FDFFFE"/>
<path d="M689.8 154.86L691 168.08L611.7 175.38L615.7 218.98L620 264.84L658.68 261.28L720.8 255.58L723.66 255.3L766.66 251.3L766 244L754.64 245.04C754.729 242.442 755.68 239.948 757.341 237.95C759.003 235.951 761.282 234.562 763.82 234L765.06 233.72L762.46 205.54L754.8 206.24L749.58 149.42L689.8 154.86ZM622.52 261.7L618.82 221.58L627.7 220.76C628.702 223.933 630.757 226.668 633.524 228.516C636.291 230.363 639.606 231.211 642.92 230.92L644.36 230.8L643.3 219.32L651.78 218.56L655.48 258.68L622.52 261.7ZM658.34 258.42L654.34 215.42L640.12 216.72L641.16 228.1C638.561 228.006 636.066 227.052 634.068 225.387C632.07 223.721 630.681 221.44 630.12 218.9L629.84 217.68L618.5 218.72L614.82 178L691.26 170.98L695.26 214.58L701.78 213.98L712.06 213.04L716.76 212.6L720.44 252.72L658.34 258.42ZM701.54 211.08L700.74 202.42C703.08 202.507 705.34 203.292 707.229 204.675C709.119 206.058 710.55 207.976 711.34 210.18L701.54 211.08ZM759.76 208.62L761.86 231.48C758.689 232.483 755.956 234.538 754.112 237.306C752.268 240.073 751.424 243.388 751.72 246.7L751.84 248.14L763.3 247.08L763.44 248.76L723.32 252.44L719.64 212.32L754.96 209.06L759.76 208.62ZM746.88 152.5L751.84 206.5L719.38 209.5L716.5 209.76L714.3 209.96C713.333 206.746 711.286 203.965 708.506 202.085C705.726 200.205 702.383 199.341 699.04 199.64L697.6 199.76L698.66 211.4H697.88L693.88 167.8L692.92 157.44L746.88 152.5Z" fill="#D6EBE1"/>
<path d="M366.258 299.326L400.769 125.825L168.754 79.6746L134.243 253.175L366.258 299.326Z" fill="#A6BEB3"/>
<path opacity="0.9" d="M179.526 95.7834L150.36 242.411L355.501 283.216L384.667 136.589L179.526 95.7834Z" fill="#FDFFFE"/>
<path d="M285 135.8L282.36 149.08L202.66 133.24L194 177.04L184.84 223.04L223.72 230.78L286.14 243.18L289.02 243.76L332.2 252.34L333.68 244.9L322.26 242.64C323.106 240.129 324.76 237.968 326.964 236.496C329.167 235.023 331.796 234.321 334.44 234.5H335.74L341.36 206.2L333.68 204.66L345.02 147.56L285 135.8ZM188.24 220.82L196.24 180.5L205.16 182.26C205.218 185.664 206.441 188.946 208.624 191.559C210.808 194.172 213.82 195.958 217.16 196.62L218.6 196.9L220.9 185.38L229.42 187.08L221.42 227.4L188.24 220.82ZM224.24 227.98L232.82 184.78L218.54 182L216.28 193.42C213.769 192.574 211.608 190.92 210.136 188.716C208.663 186.513 207.961 183.884 208.14 181.24V179.94L196.74 177.68L204.9 136.74L281.7 152.02L272.98 195.84L279.54 197.14L289.86 199.14L294.58 200.06L286.58 240.38L224.24 227.98ZM280.24 194.2L281.96 185.48C284.223 186.249 286.205 187.676 287.652 189.579C289.099 191.482 289.944 193.774 290.08 196.16L280.24 194.2ZM337.9 208.66L333.34 231.62C329.939 231.683 326.662 232.908 324.053 235.091C321.445 237.274 319.661 240.283 319 243.62L318.7 245.06L330.22 247.36L329.88 249.04L289.56 241.04L297.56 200.72L333.06 207.78L337.9 208.66ZM341.52 150L330.74 204.22L298.12 197.72L295.24 197.16L293.02 196.72C293.005 193.286 291.802 189.963 289.614 187.316C287.427 184.669 284.39 182.861 281.02 182.2L279.58 181.9L277.26 193.58L276.46 193.42L285.18 149.62L287.18 139.22L341.52 150Z" fill="#D6EBE1"/>
<path d="M598.24 104H578.68C573.222 104 567.987 101.832 564.128 97.9722C560.268 94.1127 558.1 88.8781 558.1 83.42V64C558.1 58.5418 560.268 53.3072 564.128 49.4477C567.987 45.5882 573.222 43.42 578.68 43.42H598.24C603.697 43.4253 608.928 45.5952 612.787 49.4536C616.645 53.3119 618.815 58.5435 618.82 64V83.56C618.778 88.9922 616.592 94.1879 612.737 98.016C608.883 101.844 603.672 103.995 598.24 104ZM578.68 49.28C576.754 49.2826 574.848 49.6661 573.071 50.4085C571.294 51.1509 569.682 52.2374 568.327 53.6057C566.971 54.9739 565.9 56.5967 565.175 58.3806C564.45 60.1645 564.084 62.0743 564.1 64V83.56C564.105 87.4252 565.643 91.1306 568.376 93.8638C571.109 96.5969 574.815 98.1347 578.68 98.14H598.24C602.105 98.1347 605.811 96.5969 608.544 93.8638C611.277 91.1306 612.815 87.4252 612.82 83.56V64C612.815 60.1348 611.277 56.4293 608.544 53.6962C605.811 50.9631 602.105 49.4253 598.24 49.42L578.68 49.28Z" fill="#BED5CA"/>
<path d="M580.32 86.4L551.8 57.88L560.3 49.4L580.32 69.44L616.62 33.14L625.1 41.62L580.32 86.4Z" fill="#D6EBE1"/>
<path d="M178.32 366H163.26C161.164 366 159.089 365.585 157.155 364.78C155.22 363.974 153.465 362.794 151.988 361.307C150.512 359.819 149.345 358.054 148.554 356.114C147.763 354.173 147.364 352.095 147.38 350V335C147.385 330.792 149.061 326.758 152.038 323.784C155.016 320.81 159.052 319.14 163.26 319.14H178.32C182.525 319.145 186.556 320.818 189.529 323.791C192.502 326.764 194.175 330.795 194.18 335V350C194.196 352.094 193.797 354.17 193.008 356.109C192.218 358.048 191.052 359.812 189.578 361.299C188.104 362.786 186.351 363.967 184.419 364.774C182.486 365.581 180.414 365.997 178.32 366ZM163.26 323.82C160.287 323.82 157.435 324.995 155.326 327.09C153.217 329.184 152.021 332.028 152 335V350C152.005 352.983 153.194 355.842 155.305 357.949C157.416 360.056 160.277 361.24 163.26 361.24H178.32C181.301 361.24 184.16 360.056 186.268 357.948C188.376 355.84 189.56 352.981 189.56 350V335C189.56 333.524 189.269 332.062 188.704 330.699C188.139 329.335 187.311 328.096 186.268 327.052C185.224 326.008 183.985 325.18 182.621 324.616C181.258 324.051 179.796 323.76 178.32 323.76L163.26 323.82Z" fill="#BED5CA"/>
<path d="M164.52 352.32L142.54 330.36L149.08 323.82L164.52 339.26L192.48 311.28L199.02 317.82L164.52 352.32Z" fill="#D6EBE1"/>
<path d="M862 488.66H846.92C842.715 488.655 838.684 486.982 835.711 484.009C832.738 481.036 831.065 477.005 831.06 472.8V457.72C831.065 453.515 832.738 449.484 835.711 446.511C838.684 443.538 842.715 441.865 846.92 441.86H862C866.205 441.865 870.236 443.538 873.209 446.511C876.182 449.484 877.855 453.515 877.86 457.72V472.8C877.855 477.005 876.182 481.036 873.209 484.009C870.236 486.982 866.205 488.655 862 488.66ZM846.92 446.48C843.939 446.48 841.08 447.664 838.972 449.772C836.864 451.88 835.68 454.739 835.68 457.72V472.8C835.68 474.276 835.971 475.738 836.536 477.101C837.101 478.465 837.928 479.704 838.972 480.748C840.016 481.792 841.255 482.62 842.619 483.184C843.982 483.749 845.444 484.04 846.92 484.04H862C863.476 484.04 864.938 483.749 866.301 483.184C867.665 482.62 868.904 481.792 869.948 480.748C870.992 479.704 871.82 478.465 872.384 477.101C872.949 475.738 873.24 474.276 873.24 472.8V457.72C873.24 454.739 872.056 451.88 869.948 449.772C867.84 447.664 864.981 446.48 862 446.48H846.92Z" fill="#BED5CA"/>
<path d="M848.2 475.04L826.22 453.08L832.76 446.54L848.2 461.98L876.16 434L882.7 440.54L848.2 475.04Z" fill="#D6EBE1"/>
<path d="M500 737.42C714.165 737.42 887.78 727.284 887.78 714.78C887.78 702.276 714.165 692.14 500 692.14C285.835 692.14 112.22 702.276 112.22 714.78C112.22 727.284 285.835 737.42 500 737.42Z" fill="#A6BEB3"/>
<path d="M209.18 366.6H225.08V372.88H222.48V401.06H211.78V372.88H209.18V366.6Z" fill="#2AD482"/>
<g opacity="0.2">
<path d="M209.18 366.6H225.08V372.88H222.48V401.06H211.78V372.88H209.18V366.6Z" fill="#3C4D45"/>
</g>
<path d="M303.18 346.52L359.64 433.38V511.32H225.96V433.38L303.18 346.52Z" fill="#2AD482"/>
<path opacity="0.5" d="M303.18 346.52L359.64 433.38V511.32H225.96V433.38L303.18 346.52Z" fill="#FDFFFE"/>
<path d="M241.18 350.06L249.78 336.88H303.18L366.1 433.38H312.68H241.18V350.06Z" fill="#2AD482"/>
<path opacity="0.2" d="M241.18 350.06L249.78 336.88H303.18L366.1 433.38H312.68H241.18V350.06Z" fill="#3C4D45"/>
<path d="M312.68 433.38L249.78 336.88L186.86 433.38H312.68Z" fill="#2AD482"/>
<path d="M249.78 346.52L306.22 433.38V511.32H193.32V433.38L249.78 346.52Z" fill="#2AD482"/>
<path opacity="0.8" d="M249.78 346.52L306.22 433.38V511.32H193.32V433.38L249.78 346.52Z" fill="#FDFFFE"/>
<path d="M275.1 396.52H263.68V426.78H275.1V396.52Z" fill="#2AD482"/>
<path d="M235.12 396.52H223.7V426.78H235.12V396.52Z" fill="#2AD482"/>
<path d="M263.66 395.08H235.12V428.2H263.66V395.08Z" fill="#2AD482"/>
<path opacity="0.4" d="M263.66 395.08H235.12V428.2H263.66V395.08Z" fill="#FDFFFE"/>
<path d="M260.1 398.66H238.68V424.64H260.1V398.66Z" fill="#50635A"/>
<path d="M232.14 511.32H266.66V455.6H232.14V511.32Z" fill="#2AD482"/>
<path opacity="0.3" d="M232.14 511.32H266.66V455.6H232.14V511.32Z" fill="#FDFFFE"/>
<path d="M234.28 443.94H264.52L271.88 457.58H226.92L234.28 443.94Z" fill="#2AD482"/>
<path d="M260.64 465.08H250.06V511.34H260.64V465.08Z" fill="#50635A"/>
<path d="M248.74 465.08H238.16V511.34H248.74V465.08Z" fill="#50635A"/>
<path d="M338.1 567.62H177.28V703.92H338.1V567.62Z" fill="#2AD482"/>
<path opacity="0.6" d="M338.1 567.62H177.28V703.92H338.1V567.62Z" fill="#FDFFFE"/>
<path d="M375.66 567.62H296.24V703.92H375.66V567.62Z" fill="#2AD482"/>
<path opacity="0.8" d="M375.66 567.62H296.24V703.92H375.66V567.62Z" fill="#FDFFFE"/>
<path d="M281.28 581.32H249.64V618.02H281.28V581.32Z" fill="#2AD482"/>
<path opacity="0.3" d="M281.28 581.32H249.64V618.02H281.28V581.32Z" fill="#FDFFFE"/>
<path d="M277.32 585.28H253.6V614.06H277.32V585.28Z" fill="#50635A"/>
<path d="M319.78 582.9H307.12V616.44H319.78V582.9Z" fill="#2AD482"/>
<path d="M364.08 582.9H351.42V616.44H364.08V582.9Z" fill="#2AD482"/>
<path d="M351.42 581.32H319.78V618.02H351.42V581.32Z" fill="#2AD482"/>
<path opacity="0.3" d="M351.42 581.32H319.78V618.02H351.42V581.32Z" fill="#FDFFFE"/>
<path d="M347.46 585.28H323.74V614.06H347.46V585.28Z" fill="#50635A"/>
<path d="M252.02 643.28H214.46V703.9H252.02V643.28Z" fill="#2AD482"/>
<path opacity="0.3" d="M252.02 643.28H214.46V703.9H252.02V643.28Z" fill="#FDFFFE"/>
<path d="M249.7 630.58H216.78L208.78 645.42H257.7L249.7 630.58Z" fill="#2AD482"/>
<path d="M232.52 653.58H221.02V703.9H232.52V653.58Z" fill="#50635A"/>
<path d="M245.46 653.58H233.96V703.9H245.46V653.58Z" fill="#50635A"/>
<path d="M356.02 568.78L324.6 510.46H190.8L159.38 568.78H356.02Z" fill="#2AD482"/>
<path opacity="0.3" d="M356.02 568.78L324.6 510.46H190.8L159.38 568.78H356.02Z" fill="#3C4D45"/>
<path d="M393.58 568.78L362.16 510.46H309.76L278.34 568.78H393.58Z" fill="#2AD482"/>
<path opacity="0.1" d="M393.58 568.78L362.16 510.46H309.76L278.34 568.78H393.58Z" fill="#3C4D45"/>
<path d="M220.78 558.8V510.46H282.62L256.58 558.8H220.78Z" fill="#2AD482"/>
<path opacity="0.8" d="M220.78 558.8V510.46H282.62L256.58 558.8H220.78Z" fill="#FDFFFE"/>
<path d="M218.96 558.8H256.52V521.24H218.96V558.8Z" fill="#2AD482"/>
<path opacity="0.6" d="M218.96 558.8H256.52V521.24H218.96V558.8Z" fill="#FDFFFE"/>
<path d="M245.66 554.26H229.82C229.13 554.26 228.469 553.986 227.981 553.498C227.494 553.011 227.22 552.35 227.22 551.66V549.76H248.26V551.66C248.26 552.35 247.986 553.011 247.498 553.498C247.011 553.986 246.349 554.26 245.66 554.26Z" fill="#2AD482"/>
<path d="M231.1 534.36C231.05 533.456 231.185 532.551 231.497 531.701C231.809 530.852 232.291 530.074 232.913 529.417C233.536 528.759 234.286 528.236 235.117 527.878C235.949 527.52 236.845 527.335 237.75 527.335C238.655 527.335 239.551 527.52 240.383 527.878C241.214 528.236 241.964 528.759 242.586 529.417C243.209 530.074 243.691 530.852 244.002 531.701C244.314 532.551 244.449 533.456 244.4 534.36V548.7H231.1V534.36Z" fill="#50635A"/>
<path d="M244.38 523.38L251.36 510.46H282.62L275.66 523.38H244.38Z" fill="#2AD482"/>
<path opacity="0.2" d="M244.38 523.38L251.36 510.46H282.62L275.66 523.38H244.38Z" fill="#3C4D45"/>
<path d="M255.22 510.46L262.2 523.38H213.28L220.26 510.46H255.22Z" fill="#2AD482"/>
<path d="M224.62 581.32H192.98V618.02H224.62V581.32Z" fill="#2AD482"/>
<path opacity="0.3" d="M224.62 581.32H192.98V618.02H224.62V581.32Z" fill="#FDFFFE"/>
<path d="M220.64 585.28H196.92V614.06H220.64V585.28Z" fill="#50635A"/>
<path d="M382 702.56H676.26C677.526 702.579 678.781 702.328 679.943 701.825C681.105 701.322 682.147 700.578 683 699.642C683.853 698.706 684.497 697.6 684.89 696.396C685.283 695.192 685.416 693.919 685.28 692.66L648.34 270.66C648.071 267.982 646.829 265.495 644.85 263.67C642.871 261.846 640.291 260.81 637.6 260.76H343.28C342.014 260.741 340.758 260.992 339.596 261.495C338.434 261.998 337.392 262.742 336.54 263.678C335.687 264.614 335.043 265.72 334.65 266.924C334.257 268.128 334.124 269.401 334.26 270.66L371.2 692.66C371.47 695.349 372.72 697.844 374.712 699.67C376.704 701.496 379.298 702.524 382 702.56Z" fill="#50635A"/>
<path d="M386.18 702.56H680.5C681.767 702.582 683.024 702.334 684.188 701.832C685.351 701.33 686.394 700.586 687.248 699.649C688.101 698.712 688.745 697.604 689.137 696.399C689.529 695.194 689.659 693.919 689.52 692.66L652.6 270.66C652.327 267.98 651.081 265.493 649.098 263.668C647.116 261.844 644.534 260.81 641.84 260.76H347.54C346.273 260.738 345.016 260.986 343.852 261.488C342.689 261.99 341.646 262.734 340.792 263.671C339.939 264.608 339.295 265.716 338.903 266.921C338.511 268.126 338.381 269.401 338.52 270.66L375.44 692.66C375.709 695.338 376.95 697.825 378.93 699.65C380.909 701.474 383.489 702.51 386.18 702.56Z" fill="#50635A"/>
<path opacity="0.5" d="M386.18 702.56H680.5C681.767 702.582 683.024 702.334 684.188 701.832C685.351 701.33 686.394 700.586 687.248 699.649C688.101 698.712 688.745 697.604 689.137 696.399C689.529 695.194 689.659 693.919 689.52 692.66L652.6 270.66C652.327 267.98 651.081 265.493 649.098 263.668C647.116 261.844 644.534 260.81 641.84 260.76H347.54C346.273 260.738 345.016 260.986 343.852 261.488C342.689 261.99 341.646 262.734 340.792 263.671C339.939 264.608 339.295 265.716 338.903 266.921C338.511 268.126 338.381 269.401 338.52 270.66L375.44 692.66C375.709 695.338 376.95 697.825 378.93 699.65C380.909 701.474 383.489 702.51 386.18 702.56Z" fill="#FDFFFE"/>
<path opacity="0.2" d="M625.22 285.14L660.52 687.24H395.24L359.94 285.14H625.22Z" fill="#3C4D45"/>
<path d="M626.84 285.16L637.02 414.82C639.686 448.433 643.686 481.9 649.02 515.22L675.02 678.14H409.68L383.68 514.82C378.346 481.553 374.38 448.127 371.78 414.54L361.62 285.16H626.84Z" fill="#FDFFFE"/>
<path d="M450.78 336.7H550.24C551 336.718 551.755 336.569 552.451 336.263C553.146 335.957 553.767 335.502 554.267 334.929C554.767 334.356 555.135 333.681 555.344 332.95C555.554 332.219 555.6 331.451 555.48 330.7L554.7 324.24C554.477 322.607 553.681 321.107 552.453 320.008C551.225 318.909 549.647 318.282 548 318.24H448.52C447.76 318.221 447.006 318.37 446.311 318.676C445.615 318.982 444.996 319.438 444.498 320.012C443.999 320.585 443.633 321.261 443.426 321.992C443.219 322.723 443.176 323.49 443.3 324.24L444.08 330.7C444.302 332.333 445.099 333.833 446.326 334.932C447.554 336.032 449.132 336.658 450.78 336.7Z" fill="#2AD482"/>
<path d="M408.78 470.38H622.32C623.079 470.399 623.834 470.25 624.529 469.944C625.224 469.638 625.843 469.182 626.342 468.608C626.841 468.035 627.207 467.359 627.414 466.628C627.621 465.897 627.664 465.13 627.54 464.38L626.76 457.92C626.537 456.287 625.741 454.787 624.513 453.688C623.286 452.589 621.707 451.962 620.06 451.92H406.52C405.76 451.902 405.005 452.051 404.309 452.357C403.613 452.663 402.993 453.118 402.493 453.691C401.993 454.264 401.625 454.94 401.415 455.67C401.205 456.401 401.159 457.169 401.28 457.92L402.08 464.38C402.303 466.013 403.099 467.513 404.326 468.612C405.554 469.711 407.133 470.338 408.78 470.38Z" fill="#2AD482"/>
<path opacity="0.5" d="M408.78 470.38H622.32C623.079 470.399 623.834 470.25 624.529 469.944C625.224 469.638 625.843 469.182 626.342 468.608C626.841 468.035 627.207 467.359 627.414 466.628C627.621 465.897 627.664 465.13 627.54 464.38L626.76 457.92C626.537 456.287 625.741 454.787 624.513 453.688C623.286 452.589 621.707 451.962 620.06 451.92H406.52C405.76 451.902 405.005 452.051 404.309 452.357C403.613 452.663 402.993 453.118 402.493 453.691C401.993 454.264 401.625 454.94 401.415 455.67C401.205 456.401 401.159 457.169 401.28 457.92L402.08 464.38C402.303 466.013 403.099 467.513 404.326 468.612C405.554 469.711 407.133 470.338 408.78 470.38Z" fill="#FDFFFE"/>
<path d="M540.38 364.22H440.92C438.92 364.22 438.6 361.04 440.64 361.04H540.1C542.1 361.04 542.44 364.22 540.38 364.22Z" fill="#50635A"/>
<path d="M398.54 373.06H541.58C543.58 373.06 543.92 376.26 541.86 376.26H398.8C396.8 376.26 396.48 373.06 398.54 373.06Z" fill="#50635A"/>
<path d="M562.32 376.78H610.86C611.62 376.798 612.375 376.649 613.071 376.343C613.767 376.037 614.387 375.582 614.887 375.009C615.387 374.436 615.755 373.76 615.965 373.03C616.174 372.299 616.22 371.531 616.1 370.78L615.3 364.32C615.081 362.686 614.286 361.183 613.058 360.083C611.829 358.983 610.248 358.358 608.6 358.32H560C559.239 358.298 558.482 358.445 557.784 358.75C557.087 359.055 556.465 359.51 555.964 360.084C555.463 360.657 555.096 361.334 554.887 362.067C554.679 362.799 554.636 363.569 554.76 364.32L555.56 370.78C555.784 372.423 556.589 373.931 557.829 375.031C559.069 376.132 560.662 376.752 562.32 376.78Z" fill="#50635A"/>
<path opacity="0.7" d="M562.32 376.78H610.86C611.62 376.798 612.375 376.649 613.071 376.343C613.767 376.037 614.387 375.582 614.887 375.009C615.387 374.436 615.755 373.76 615.965 373.03C616.174 372.299 616.22 371.531 616.1 370.78L615.3 364.32C615.081 362.686 614.286 361.183 613.058 360.083C611.829 358.983 610.248 358.358 608.6 358.32H560C559.239 358.298 558.482 358.445 557.784 358.75C557.087 359.055 556.465 359.51 555.964 360.084C555.463 360.657 555.096 361.334 554.887 362.067C554.679 362.799 554.636 363.569 554.76 364.32L555.56 370.78C555.784 372.423 556.589 373.931 557.829 375.031C559.069 376.132 560.662 376.752 562.32 376.78Z" fill="#FDFFFE"/>
<path d="M589.68 413.8H615.38C616.14 413.818 616.895 413.669 617.591 413.363C618.287 413.057 618.907 412.602 619.407 412.029C619.907 411.456 620.275 410.78 620.485 410.05C620.694 409.319 620.74 408.551 620.62 407.8L620.2 404.42C619.982 402.789 619.189 401.289 617.965 400.189C616.741 399.09 615.165 398.463 613.52 398.42H587.8C587.039 398.398 586.282 398.545 585.584 398.85C584.887 399.155 584.265 399.61 583.764 400.184C583.263 400.757 582.896 401.434 582.687 402.167C582.479 402.899 582.436 403.669 582.56 404.42L582.98 407.8C583.203 409.433 583.999 410.933 585.226 412.032C586.454 413.132 588.033 413.758 589.68 413.8Z" fill="#50635A"/>
<path d="M511.08 413.8H570.74C571.5 413.818 572.255 413.669 572.951 413.363C573.647 413.057 574.267 412.602 574.767 412.029C575.267 411.456 575.635 410.78 575.845 410.05C576.054 409.319 576.1 408.551 575.98 407.8L575.56 404.42C575.342 402.789 574.549 401.289 573.325 400.189C572.101 399.09 570.525 398.463 568.88 398.42H509.2C508.439 398.397 507.683 398.544 506.986 398.849C506.289 399.154 505.669 399.61 505.169 400.184C504.67 400.758 504.304 401.436 504.098 402.168C503.893 402.901 503.852 403.67 503.98 404.42L504.38 407.8C504.606 409.431 505.404 410.929 506.631 412.028C507.857 413.126 509.434 413.754 511.08 413.8Z" fill="#50635A"/>
<path d="M447.34 413.8H492.16C492.919 413.815 493.672 413.663 494.366 413.356C495.06 413.049 495.679 412.593 496.178 412.022C496.678 411.45 497.046 410.775 497.257 410.046C497.468 409.317 497.517 408.55 497.4 407.8L496.98 404.42C496.761 402.786 495.966 401.283 494.737 400.183C493.509 399.083 491.928 398.458 490.28 398.42H445.48C444.718 398.398 443.962 398.545 443.264 398.85C442.566 399.155 441.945 399.61 441.444 400.184C440.943 400.757 440.575 401.434 440.367 402.167C440.159 402.899 440.115 403.669 440.24 404.42L440.64 407.8C440.87 409.429 441.668 410.925 442.894 412.023C444.12 413.121 445.695 413.75 447.34 413.8Z" fill="#50635A"/>
<path d="M404.82 413.8H428.42C429.18 413.818 429.935 413.669 430.63 413.363C431.326 413.057 431.947 412.602 432.447 412.029C432.947 411.456 433.315 410.78 433.524 410.05C433.734 409.319 433.78 408.551 433.66 407.8L433.24 404.42C433.021 402.786 432.226 401.283 430.997 400.183C429.769 399.083 428.188 398.458 426.54 398.42H402.96C402.198 398.398 401.442 398.545 400.744 398.85C400.046 399.155 399.425 399.61 398.924 400.184C398.423 400.757 398.055 401.434 397.847 402.167C397.639 402.899 397.595 403.669 397.72 404.42L398.14 407.8C398.362 409.429 399.155 410.927 400.379 412.026C401.602 413.125 403.176 413.753 404.82 413.8Z" fill="#50635A"/>
<path d="M573.32 436.18H618.12C618.881 436.202 619.638 436.055 620.335 435.75C621.033 435.445 621.655 434.99 622.156 434.416C622.656 433.843 623.024 433.166 623.232 432.433C623.441 431.701 623.484 430.931 623.36 430.18L622.94 426.8C622.718 425.171 621.924 423.673 620.701 422.574C619.477 421.475 617.904 420.847 616.26 420.8H571.44C570.68 420.782 569.925 420.931 569.229 421.237C568.533 421.543 567.913 421.998 567.413 422.571C566.913 423.144 566.545 423.82 566.335 424.55C566.125 425.281 566.079 426.049 566.2 426.8L566.62 430.18C566.839 431.814 567.634 433.317 568.862 434.417C570.091 435.517 571.671 436.142 573.32 436.18Z" fill="#50635A"/>
<path d="M501.1 436.18H554.38C555.141 436.202 555.898 436.055 556.595 435.75C557.293 435.445 557.915 434.99 558.416 434.416C558.916 433.843 559.284 433.166 559.492 432.433C559.701 431.701 559.744 430.931 559.62 430.18L559.22 426.8C558.99 425.171 558.191 423.675 556.965 422.577C555.739 421.479 554.165 420.85 552.52 420.8H499.22C498.46 420.782 497.705 420.931 497.009 421.237C496.313 421.543 495.693 421.998 495.193 422.571C494.693 423.144 494.325 423.82 494.115 424.55C493.905 425.281 493.859 426.049 493.98 426.8L494.4 430.18C494.619 431.814 495.414 433.317 496.642 434.417C497.871 435.517 499.451 436.142 501.1 436.18Z" fill="#50635A"/>
<path d="M456.46 436.18H482.16C482.921 436.202 483.677 436.055 484.375 435.75C485.073 435.445 485.695 434.99 486.195 434.416C486.696 433.843 487.064 433.166 487.272 432.433C487.48 431.701 487.524 430.931 487.4 430.18L486.98 426.8C486.757 425.167 485.961 423.667 484.733 422.568C483.506 421.469 481.927 420.842 480.28 420.8H454.58C453.82 420.782 453.065 420.931 452.369 421.237C451.673 421.543 451.053 421.998 450.553 422.571C450.052 423.144 449.685 423.82 449.475 424.55C449.265 425.281 449.219 426.049 449.34 426.8L449.76 430.18C449.979 431.814 450.774 433.317 452.002 434.417C453.23 435.517 454.811 436.142 456.46 436.18Z" fill="#50635A"/>
<path d="M407.56 436.18H437.56C438.321 436.202 439.077 436.055 439.775 435.75C440.473 435.445 441.094 434.99 441.595 434.416C442.096 433.843 442.464 433.166 442.672 432.433C442.88 431.701 442.924 430.931 442.8 430.18L442.38 426.8C442.157 425.167 441.361 423.667 440.133 422.568C438.905 421.469 437.327 420.842 435.68 420.8H405.68C404.919 420.782 404.165 420.931 403.469 421.237C402.773 421.543 402.153 421.998 401.652 422.571C401.152 423.144 400.784 423.82 400.575 424.55C400.365 425.281 400.319 426.049 400.44 426.8L400.86 430.18C401.078 431.814 401.874 433.317 403.102 434.417C404.33 435.517 405.911 436.142 407.56 436.18Z" fill="#50635A"/>
<g opacity="0.7">
<path d="M589.68 413.8H615.38C616.14 413.818 616.895 413.669 617.591 413.363C618.287 413.057 618.907 412.602 619.407 412.029C619.907 411.456 620.275 410.78 620.484 410.05C620.694 409.319 620.74 408.551 620.62 407.8L620.2 404.42C619.981 402.789 619.189 401.289 617.965 400.189C616.741 399.09 615.165 398.463 613.52 398.42H587.8C587.039 398.398 586.282 398.545 585.584 398.85C584.886 399.155 584.265 399.61 583.764 400.184C583.263 400.757 582.895 401.434 582.687 402.167C582.479 402.899 582.435 403.669 582.56 404.42L582.98 407.8C583.202 409.433 583.999 410.933 585.226 412.032C586.454 413.132 588.032 413.758 589.68 413.8Z" fill="#FDFFFE"/>
<path d="M511.08 413.8H570.74C571.5 413.818 572.255 413.669 572.951 413.363C573.646 413.057 574.267 412.602 574.767 412.029C575.267 411.456 575.635 410.78 575.844 410.05C576.054 409.319 576.1 408.551 575.98 407.8L575.56 404.42C575.341 402.789 574.549 401.289 573.325 400.189C572.101 399.09 570.525 398.463 568.88 398.42H509.2C508.439 398.397 507.683 398.544 506.986 398.849C506.289 399.154 505.668 399.61 505.169 400.184C504.669 400.758 504.304 401.436 504.098 402.168C503.892 402.901 503.852 403.67 503.98 404.42L504.38 407.8C504.606 409.431 505.404 410.929 506.63 412.028C507.857 413.126 509.433 413.754 511.08 413.8Z" fill="#FDFFFE"/>
<path d="M447.34 413.8H492.16C492.919 413.815 493.672 413.663 494.366 413.356C495.06 413.049 495.679 412.593 496.178 412.022C496.678 411.45 497.046 410.775 497.257 410.046C497.468 409.317 497.517 408.55 497.4 407.8L496.98 404.42C496.761 402.786 495.966 401.283 494.737 400.183C493.509 399.083 491.928 398.458 490.28 398.42H445.48C444.718 398.398 443.962 398.545 443.264 398.85C442.566 399.155 441.945 399.61 441.444 400.184C440.943 400.757 440.575 401.434 440.367 402.167C440.159 402.899 440.115 403.669 440.24 404.42L440.64 407.8C440.87 409.429 441.668 410.925 442.894 412.023C444.12 413.121 445.695 413.75 447.34 413.8Z" fill="#FDFFFE"/>
<path d="M404.82 413.8H428.42C429.18 413.818 429.935 413.669 430.63 413.363C431.326 413.057 431.947 412.601 432.447 412.029C432.947 411.456 433.315 410.78 433.524 410.05C433.734 409.319 433.78 408.551 433.66 407.8L433.24 404.42C433.021 402.786 432.226 401.283 430.997 400.183C429.769 399.083 428.188 398.458 426.54 398.42H402.96C402.198 398.398 401.442 398.545 400.744 398.85C400.046 399.154 399.425 399.61 398.924 400.184C398.423 400.757 398.055 401.434 397.847 402.167C397.639 402.899 397.595 403.669 397.72 404.42L398.14 407.8C398.362 409.429 399.155 410.927 400.379 412.026C401.602 413.125 403.176 413.753 404.82 413.8Z" fill="#FDFFFE"/>
<path d="M573.32 436.18H618.12C618.881 436.202 619.637 436.055 620.335 435.75C621.033 435.445 621.654 434.99 622.155 434.416C622.656 433.843 623.024 433.166 623.232 432.433C623.44 431.701 623.484 430.931 623.36 430.18L622.94 426.8C622.718 425.171 621.924 423.673 620.701 422.574C619.477 421.475 617.903 420.847 616.26 420.8H571.44C570.679 420.782 569.925 420.931 569.229 421.237C568.533 421.543 567.913 421.998 567.412 422.571C566.912 423.144 566.544 423.82 566.335 424.55C566.125 425.281 566.079 426.049 566.2 426.8L566.62 430.18C566.838 431.814 567.634 433.317 568.862 434.417C570.09 435.517 571.671 436.142 573.32 436.18Z" fill="#FDFFFE"/>
<path d="M501.1 436.18H554.38C555.141 436.202 555.897 436.055 556.595 435.75C557.293 435.445 557.914 434.99 558.415 434.416C558.916 433.843 559.284 433.166 559.492 432.433C559.7 431.701 559.744 430.931 559.62 430.18L559.22 426.8C558.989 425.171 558.191 423.675 556.965 422.577C555.739 421.479 554.165 420.85 552.52 420.8H499.22C498.46 420.782 497.705 420.931 497.009 421.237C496.313 421.543 495.693 421.998 495.192 422.571C494.692 423.144 494.324 423.82 494.115 424.55C493.905 425.281 493.859 426.049 493.98 426.8L494.4 430.18C494.618 431.814 495.414 433.317 496.642 434.417C497.87 435.517 499.451 436.142 501.1 436.18Z" fill="#FDFFFE"/>
<path d="M456.459 436.18H482.159C482.921 436.202 483.677 436.055 484.375 435.75C485.073 435.445 485.694 434.99 486.195 434.416C486.696 433.843 487.064 433.166 487.272 432.433C487.48 431.701 487.524 430.931 487.399 430.18L486.979 426.8C486.757 425.167 485.96 423.667 484.733 422.568C483.505 421.469 481.927 420.842 480.279 420.8H454.579C453.819 420.782 453.065 420.931 452.369 421.237C451.673 421.543 451.053 421.998 450.552 422.571C450.052 423.144 449.684 423.82 449.475 424.55C449.265 425.281 449.219 426.049 449.339 426.8L449.759 430.18C449.978 431.814 450.773 433.317 452.002 434.417C453.23 435.517 454.811 436.142 456.459 436.18Z" fill="#FDFFFE"/>
<path d="M407.56 436.18H437.56C438.321 436.202 439.077 436.055 439.775 435.75C440.473 435.445 441.094 434.99 441.595 434.416C442.096 433.843 442.464 433.166 442.672 432.433C442.88 431.701 442.924 430.931 442.8 430.18L442.38 426.8C442.157 425.167 441.361 423.667 440.133 422.568C438.905 421.469 437.327 420.842 435.68 420.8H405.68C404.919 420.782 404.165 420.931 403.469 421.237C402.773 421.543 402.153 421.998 401.652 422.571C401.152 423.144 400.784 423.82 400.575 424.55C400.365 425.281 400.319 426.049 400.44 426.8L400.86 430.18C401.078 431.814 401.874 433.317 403.102 434.417C404.33 435.517 405.911 436.142 407.56 436.18Z" fill="#FDFFFE"/>
</g>
<path d="M492.7 661.86H423.6C421.6 661.86 421.28 658.68 423.32 658.68H492.42C494.42 658.68 494.76 661.86 492.7 661.86Z" fill="#50635A"/>
<path d="M651.66 661.86H582.56C580.56 661.86 580.24 658.68 582.28 658.68H651.38C653.38 658.68 653.72 661.86 651.66 661.86Z" fill="#50635A"/>
<path d="M639.68 564H551.48C549.48 564 549.14 560.82 551.2 560.82H639.4C641.4 560.82 641.72 564 639.68 564Z" fill="#50635A"/>
<path d="M552.7 572.98H640.9C642.9 572.98 643.22 576.16 641.18 576.16H552.98C550.98 576.16 550.64 572.98 552.7 572.98Z" fill="#50635A"/>
<path d="M554.2 585.22H642.4C644.4 585.22 644.72 588.4 642.68 588.4H554.48C552.48 588.4 552.14 585.22 554.2 585.22Z" fill="#50635A"/>
<path d="M555.7 597.46H644C646 597.46 646.32 600.64 644.26 600.64H556C554 600.64 553.66 597.46 555.72 597.46H555.7Z" fill="#50635A"/>
<path d="M557.2 609.7H645.4C647.4 609.7 647.72 612.9 645.66 612.9H557.48C555.48 612.9 555.14 609.7 557.2 609.7Z" fill="#50635A"/>
<path d="M507.8 564H438.7C436.7 564 436.38 560.82 438.42 560.82H507.52C509.52 560.82 509.86 564 507.8 564Z" fill="#50635A"/>
<path d="M440 572.98H509.1C511.1 572.98 511.44 576.16 509.38 576.16H440.2C438.2 576.16 437.86 572.98 439.92 572.98H440Z" fill="#50635A"/>
<path d="M441.42 585.22H510.52C512.52 585.22 512.84 588.4 510.8 588.4H441.7C439.7 588.4 439.36 585.22 441.42 585.22Z" fill="#50635A"/>
<path d="M442.92 597.46H512C514 597.46 514.32 600.64 512.28 600.64H443.2C441.2 600.64 440.86 597.46 442.92 597.46Z" fill="#50635A"/>
<path d="M444.42 609.7H513.52C515.52 609.7 515.84 612.9 513.8 612.9H444.7C442.7 612.9 442.36 609.7 444.42 609.7Z" fill="#50635A"/>
<path d="M405.74 500.88L407.56 515.74L409.38 530.6L411.2 545.44H638.26L636.26 529L634.44 514.14L632.62 499.3L630.8 484.44H403.72L405.74 500.88ZM446.26 492.66L447.06 499.3H407.06L405.44 486.02H445.44L446.26 492.66ZM449.66 507.52L448.86 500.88H518.48L519.3 507.52L520.1 514.14H450.48L449.66 507.52ZM520 500.88H589.62L590.44 507.52L591.24 514.14H521.7L520.88 507.52L520 500.88ZM593.06 529H523.52L522.7 522.36L521.9 515.74H591.52L592.34 522.36L593.06 529ZM521.84 529H452.3L451.48 522.36L450.66 515.74H520.3L521.1 522.36L521.84 529ZM517.4 492.66L518.2 499.3H448.66L447.84 492.66L447.04 486.02H516.66L517.4 492.66ZM588.62 492.66L589.42 499.3H519.88L519.06 492.66L518.26 486.02H587.88L588.62 492.66ZM630.94 499.3H590.94L590.12 492.66L589.32 486.02H629.32L630.94 499.3ZM632.76 514.14H592.76L591.94 507.52L591.14 500.88H631.14L632.76 514.14ZM634.58 529H594.58L593.76 522.36L592.96 515.74H632.96L634.58 529ZM595.66 537.22L594.86 530.6H634.86L636.48 543.86H596.48L595.66 537.22ZM524.44 537.22L523.62 530.6H593.26L594.06 537.22L594.88 543.86H525.34L524.44 537.22ZM453.22 537.22L452.4 530.6H522.04L522.84 537.22L523.66 543.86H454.12L453.22 537.22ZM410.9 530.6H450.9L451.7 537.22L452.52 543.86H412.52L410.9 530.6ZM409.08 515.74H449.08L449.88 522.36L450.7 529H410.7L409.08 515.74ZM407.26 500.88H447.26L448.06 507.52L448.88 514.14H408.88L407.26 500.88Z" fill="#2AD482"/>
<path opacity="0.5" d="M405.74 500.88L407.56 515.74L409.38 530.6L411.2 545.44H638.26L636.26 529L634.44 514.14L632.62 499.3L630.8 484.44H403.72L405.74 500.88ZM446.26 492.66L447.06 499.3H407.06L405.44 486.02H445.44L446.26 492.66ZM449.66 507.52L448.86 500.88H518.48L519.3 507.52L520.1 514.14H450.48L449.66 507.52ZM520 500.88H589.62L590.44 507.52L591.24 514.14H521.7L520.88 507.52L520 500.88ZM593.06 529H523.52L522.7 522.36L521.9 515.74H591.52L592.34 522.36L593.06 529ZM521.84 529H452.3L451.48 522.36L450.66 515.74H520.3L521.1 522.36L521.84 529ZM517.4 492.66L518.2 499.3H448.66L447.84 492.66L447.04 486.02H516.66L517.4 492.66ZM588.62 492.66L589.42 499.3H519.88L519.06 492.66L518.26 486.02H587.88L588.62 492.66ZM630.94 499.3H590.94L590.12 492.66L589.32 486.02H629.32L630.94 499.3ZM632.76 514.14H592.76L591.94 507.52L591.14 500.88H631.14L632.76 514.14ZM634.58 529H594.58L593.76 522.36L592.96 515.74H632.96L634.58 529ZM595.66 537.22L594.86 530.6H634.86L636.48 543.86H596.48L595.66 537.22ZM524.44 537.22L523.62 530.6H593.26L594.06 537.22L594.88 543.86H525.34L524.44 537.22ZM453.22 537.22L452.4 530.6H522.04L522.84 537.22L523.66 543.86H454.12L453.22 537.22ZM410.9 530.6H450.9L451.7 537.22L452.52 543.86H412.52L410.9 530.6ZM409.08 515.74H449.08L449.88 522.36L450.7 529H410.7L409.08 515.74ZM407.26 500.88H447.26L448.06 507.52L448.88 514.14H408.88L407.26 500.88Z" fill="#FDFFFE"/>
<path d="M419.24 574H425.82C426.102 574.002 426.381 573.944 426.64 573.83C426.898 573.716 427.129 573.548 427.318 573.339C427.507 573.129 427.649 572.882 427.736 572.613C427.822 572.344 427.851 572.061 427.82 571.78L427.02 565.2C426.935 564.597 426.64 564.043 426.186 563.637C425.732 563.23 425.149 562.998 424.54 562.98H417.94C417.658 562.978 417.378 563.036 417.12 563.15C416.862 563.264 416.631 563.432 416.442 563.641C416.253 563.851 416.111 564.098 416.024 564.367C415.938 564.636 415.909 564.919 415.94 565.2L416.74 571.78C416.829 572.385 417.128 572.939 417.586 573.345C418.043 573.751 418.629 573.983 419.24 574Z" fill="#2AD482"/>
<path d="M420.7 586H427.3C427.582 586.002 427.861 585.944 428.12 585.83C428.378 585.716 428.609 585.548 428.798 585.339C428.987 585.129 429.129 584.882 429.216 584.613C429.302 584.344 429.331 584.061 429.3 583.78L428.5 577.2C428.411 576.595 428.111 576.041 427.654 575.635C427.197 575.229 426.611 574.997 426 574.98H419.42C419.138 574.978 418.858 575.036 418.6 575.15C418.342 575.264 418.111 575.432 417.922 575.641C417.733 575.851 417.59 576.098 417.504 576.367C417.417 576.636 417.389 576.919 417.42 577.2L418.22 583.78C418.305 584.383 418.6 584.937 419.054 585.343C419.508 585.75 420.091 585.982 420.7 586Z" fill="#2AD482"/>
<path d="M422.18 598H428.76C429.04 598.001 429.318 597.944 429.574 597.831C429.831 597.718 430.061 597.553 430.25 597.345C430.438 597.138 430.581 596.893 430.669 596.627C430.757 596.361 430.788 596.079 430.76 595.8L429.94 589.2C429.854 588.599 429.558 588.047 429.104 587.644C428.65 587.241 428.067 587.013 427.46 587H420.88C420.599 586.999 420.322 587.056 420.065 587.169C419.808 587.282 419.578 587.447 419.39 587.655C419.201 587.862 419.058 588.107 418.97 588.373C418.883 588.639 418.852 588.921 418.88 589.2L419.7 595.8C419.785 596.401 420.081 596.953 420.535 597.356C420.99 597.759 421.572 597.987 422.18 598Z" fill="#2AD482"/>
<path d="M423.66 610H430.24C430.522 610.002 430.801 609.944 431.06 609.83C431.318 609.716 431.549 609.548 431.738 609.339C431.927 609.129 432.069 608.882 432.156 608.613C432.242 608.344 432.271 608.061 432.24 607.78L431.44 601.2C431.354 600.593 431.056 600.037 430.598 599.63C430.14 599.223 429.552 598.993 428.94 598.98H422.36C422.078 598.978 421.798 599.036 421.54 599.15C421.282 599.264 421.051 599.432 420.862 599.641C420.673 599.851 420.53 600.098 420.444 600.367C420.357 600.636 420.329 600.919 420.36 601.2L421.16 607.78C421.249 608.385 421.548 608.939 422.006 609.345C422.463 609.751 423.049 609.983 423.66 610Z" fill="#2AD482"/>
<path opacity="0.5" d="M420.7 586H427.3C427.582 586.002 427.861 585.944 428.12 585.83C428.378 585.716 428.609 585.548 428.798 585.339C428.987 585.129 429.129 584.882 429.216 584.613C429.302 584.344 429.331 584.061 429.3 583.78L428.5 577.2C428.411 576.595 428.111 576.041 427.654 575.635C427.197 575.229 426.611 574.997 426 574.98H419.42C419.138 574.978 418.858 575.036 418.6 575.15C418.342 575.264 418.111 575.432 417.922 575.641C417.733 575.851 417.59 576.098 417.504 576.367C417.417 576.636 417.389 576.919 417.42 577.2L418.22 583.78C418.305 584.383 418.6 584.937 419.054 585.343C419.508 585.75 420.091 585.982 420.7 586Z" fill="#FDFFFE"/>
<path opacity="0.5" d="M423.66 610H430.24C430.522 610.002 430.801 609.944 431.06 609.83C431.318 609.716 431.549 609.548 431.738 609.339C431.927 609.129 432.069 608.882 432.156 608.613C432.242 608.344 432.271 608.061 432.24 607.78L431.44 601.2C431.354 600.593 431.056 600.037 430.598 599.63C430.14 599.223 429.552 598.993 428.94 598.98H422.36C422.078 598.978 421.798 599.036 421.54 599.15C421.282 599.264 421.051 599.432 420.862 599.641C420.673 599.851 420.53 600.098 420.444 600.367C420.357 600.636 420.329 600.919 420.36 601.2L421.16 607.78C421.249 608.385 421.548 608.939 422.006 609.345C422.463 609.751 423.049 609.983 423.66 610Z" fill="#FDFFFE"/>
<path d="M452.56 253.52H478.56L474.56 243.74C473.26 240.66 476 237.74 480.08 237.74H505.4C509.4 237.74 512.74 240.72 511.98 243.74L509.58 253.52H535.58C539.449 253.583 543.159 255.064 546.009 257.681C548.859 260.299 550.649 263.871 551.04 267.72L553.04 290.54C553.154 291.584 553.044 292.639 552.718 293.637C552.392 294.635 551.858 295.553 551.151 296.328C550.443 297.104 549.579 297.72 548.615 298.136C547.651 298.552 546.61 298.758 545.56 298.74H450.5C448.271 298.698 446.134 297.84 444.494 296.329C442.854 294.818 441.825 292.759 441.6 290.54L439.6 267.72C439.401 265.912 439.589 264.082 440.153 262.352C440.716 260.622 441.642 259.033 442.869 257.689C444.095 256.345 445.594 255.278 447.265 254.56C448.936 253.841 450.741 253.486 452.56 253.52Z" fill="#2AD482"/>
<path opacity="0.2" d="M509.58 253.52H478.52L476.1 247.76H511L509.58 253.52Z" fill="#3C4D45"/>
<path d="M530.5 285.06C530.622 286.256 531.177 287.366 532.062 288.18C532.946 288.994 534.098 289.457 535.3 289.48C535.862 289.483 536.419 289.368 536.934 289.141C537.449 288.914 537.91 288.581 538.288 288.164C538.665 287.747 538.951 287.255 539.125 286.72C539.299 286.185 539.359 285.619 539.3 285.06C539.178 283.864 538.622 282.754 537.738 281.94C536.854 281.125 535.702 280.663 534.5 280.64C533.937 280.637 533.38 280.752 532.866 280.979C532.351 281.206 531.889 281.539 531.512 281.956C531.134 282.373 530.849 282.865 530.675 283.4C530.5 283.935 530.441 284.501 530.5 285.06Z" fill="#50635A"/>
<path d="M454.28 285.06C454.406 286.258 454.966 287.368 455.854 288.182C456.741 288.996 457.896 289.457 459.1 289.48C459.662 289.483 460.219 289.367 460.734 289.141C461.249 288.914 461.71 288.581 462.088 288.164C462.465 287.747 462.75 287.255 462.925 286.72C463.099 286.185 463.159 285.619 463.1 285.06C462.982 283.862 462.428 282.75 461.542 281.935C460.657 281.12 459.503 280.659 458.3 280.64C457.735 280.634 457.176 280.748 456.659 280.973C456.142 281.199 455.678 281.531 455.298 281.948C454.919 282.366 454.632 282.859 454.456 283.395C454.281 283.931 454.22 284.499 454.28 285.06Z" fill="#50635A"/>
<path d="M622.48 645.7L504.88 668.7C503.574 669.002 502.218 669.023 500.904 668.763C499.589 668.503 498.344 667.966 497.251 667.189C496.159 666.413 495.244 665.413 494.566 664.256C493.888 663.1 493.463 661.813 493.32 660.48L491.32 642.6C491.089 639.771 491.907 636.956 493.619 634.691C495.33 632.426 497.815 630.871 500.6 630.32L618.2 607.32C619.507 607.018 620.863 606.997 622.179 607.257C623.495 607.517 624.741 608.053 625.835 608.83C626.929 609.606 627.847 610.606 628.526 611.762C629.206 612.919 629.633 614.206 629.78 615.54L631.78 633.42C632.01 636.252 631.189 639.07 629.473 641.335C627.758 643.6 625.268 645.154 622.48 645.7ZM500.94 633.3C498.967 633.691 497.207 634.793 495.993 636.397C494.78 638.001 494.199 639.995 494.36 642L496.36 659.88C496.462 660.825 496.764 661.737 497.245 662.556C497.727 663.376 498.376 664.084 499.151 664.634C499.926 665.184 500.809 665.563 501.741 665.747C502.673 665.931 503.634 665.915 504.56 665.7L622.14 642.72C624.116 642.329 625.88 641.224 627.093 639.615C628.307 638.007 628.886 636.008 628.72 634L626.72 616.12C626.617 615.178 626.316 614.268 625.836 613.451C625.356 612.634 624.708 611.928 623.934 611.38C623.161 610.832 622.281 610.454 621.351 610.271C620.421 610.088 619.463 610.105 618.54 610.32L500.94 633.3Z" fill="#2AD482"/>
<path d="M517.6 650.26L511.6 651.42L510.76 654.34L507.74 654.94L512.04 641.26L514.96 640.68L522.08 652.12L518.96 652.74L517.6 650.26ZM516.42 648.26L513.86 643.84L512.36 649.06L516.42 648.26Z" fill="#2AD482"/>
<path d="M530.6 638.2C531.425 638.362 532.174 638.794 532.727 639.427C533.281 640.061 533.609 640.86 533.66 641.7C533.768 642.569 533.622 643.452 533.24 644.24C532.866 645.061 532.261 645.756 531.5 646.24C530.616 646.799 529.63 647.18 528.6 647.36L526.04 647.86L526.42 651.34L523.46 651.9L522.06 639.34L527.6 638.26C528.585 638.03 529.607 638.01 530.6 638.2ZM530.14 644.02C530.351 643.787 530.508 643.51 530.598 643.209C530.688 642.908 530.709 642.59 530.66 642.28C530.65 641.979 530.565 641.685 530.411 641.426C530.257 641.168 530.04 640.952 529.78 640.8C529.154 640.512 528.447 640.448 527.78 640.62L525.36 641.1L525.86 645.46L528.26 644.98C528.977 644.869 529.638 644.525 530.14 644V644.02Z" fill="#2AD482"/>
<path d="M543.78 635.62C544.589 635.799 545.323 636.226 545.88 636.84C546.443 637.473 546.78 638.275 546.84 639.12C546.949 639.989 546.803 640.872 546.42 641.66C546.046 642.481 545.441 643.176 544.68 643.66C543.805 644.223 542.825 644.604 541.8 644.78L539.22 645.28L539.6 648.76L536.64 649.34L535.24 636.76L540.78 635.68C541.765 635.45 542.787 635.43 543.78 635.62ZM543.32 641.44C543.531 641.207 543.688 640.93 543.778 640.629C543.868 640.328 543.889 640.01 543.84 639.7C543.83 639.399 543.745 639.105 543.591 638.846C543.437 638.588 543.22 638.372 542.96 638.22C542.331 637.941 541.628 637.878 540.96 638.04L538.54 638.52L539.04 642.88L541.44 642.4C542.156 642.299 542.818 641.961 543.32 641.44Z" fill="#2AD482"/>
<path d="M558 645.12L555.14 642.1H554.98L552.42 642.6L552.8 646.1L549.84 646.68L548.44 634.12L553.98 633.04C554.973 632.81 556.006 632.81 557 633.04C557.807 633.214 558.54 633.633 559.1 634.24C559.645 634.882 559.974 635.68 560.04 636.52C560.149 637.396 560.003 638.285 559.62 639.08C559.23 639.897 558.62 640.59 557.86 641.08L561.16 644.56L558 645.12ZM556.16 635.64C555.531 635.36 554.825 635.304 554.16 635.48L551.74 635.94L552.24 640.32L554.64 639.86C555.398 639.769 556.103 639.423 556.64 638.88C556.858 638.652 557.018 638.375 557.109 638.072C557.199 637.77 557.216 637.451 557.16 637.14C557.14 636.822 557.035 636.514 556.855 636.25C556.676 635.986 556.429 635.776 556.14 635.64H556.16Z" fill="#2AD482"/>
<path d="M565.78 642.96C564.689 642.623 563.725 641.966 563.011 641.075C562.298 640.183 561.869 639.098 561.78 637.96C561.635 636.766 561.821 635.555 562.32 634.46C562.817 633.346 563.588 632.376 564.56 631.64C565.591 630.861 566.789 630.334 568.06 630.1C569.272 629.842 570.53 629.89 571.72 630.24C572.798 630.575 573.756 631.214 574.48 632.08C575.217 632.979 575.663 634.081 575.76 635.24C575.905 636.434 575.718 637.645 575.22 638.74C574.715 639.849 573.946 640.818 572.98 641.56C571.954 642.335 570.763 642.862 569.5 643.1C568.268 643.365 566.989 643.317 565.78 642.96ZM571.18 639.7C571.736 639.248 572.169 638.664 572.44 638C572.722 637.31 572.825 636.56 572.74 635.82C572.673 635.097 572.41 634.405 571.98 633.82C571.578 633.291 571.028 632.895 570.4 632.68C569.717 632.45 568.984 632.408 568.28 632.56C567.548 632.697 566.86 633.013 566.28 633.48C565.712 633.925 565.27 634.511 565 635.18C564.724 635.871 564.628 636.621 564.72 637.36C564.781 638.081 565.037 638.773 565.46 639.36C565.869 639.89 566.425 640.287 567.06 640.5C567.704 640.714 568.394 640.756 569.06 640.62C569.835 640.504 570.566 640.187 571.18 639.7Z" fill="#2AD482"/>
<path d="M589.12 626.2L585 639.84L582.08 640.42L575.16 628.92L578.36 628.3L583.24 636.52L586.18 626.78L589.12 626.2Z" fill="#2AD482"/>
<path d="M601.22 634.28L601.48 636.62L591.58 638.62L590.18 626.04L599.84 624.16L600.1 626.5L593.38 627.8L593.68 630.54L599.68 629.38L599.94 631.64L593.94 632.8L594.26 635.7L601.22 634.28Z" fill="#2AD482"/>
<path d="M602.44 623.6L608.24 622.46C609.475 622.161 610.764 622.161 612 622.46C613.068 622.739 614.024 623.339 614.74 624.18C615.454 625.074 615.885 626.16 615.98 627.3C616.137 628.486 615.957 629.692 615.46 630.78C614.97 631.86 614.195 632.786 613.22 633.46C612.156 634.226 610.932 634.739 609.64 634.96L603.84 636.1L602.44 623.6ZM609.22 632.66C610.367 632.49 611.412 631.907 612.16 631.02C612.499 630.589 612.748 630.094 612.892 629.565C613.036 629.036 613.073 628.483 613 627.94C612.97 627.421 612.823 626.916 612.57 626.463C612.317 626.009 611.965 625.618 611.54 625.32C611.065 625.04 610.54 624.856 609.994 624.781C609.448 624.705 608.892 624.739 608.36 624.88L605.66 625.4L606.52 633.2L609.22 632.66Z" fill="#2AD482"/>
</g>
</svg>
