<svg width="42" height="42" viewBox="0 0 42 42" fill="none" xmlns="http://www.w3.org/2000/svg">
<rect x="0.5" y="0.5" width="41" height="41" rx="20.5" fill="#FDFFFE"/>
<rect x="0.5" y="0.5" width="41" height="41" rx="20.5" stroke="#2AD482"/>
<path d="M26.4998 13.5C26.4998 13.6978 26.4412 13.8911 26.3313 14.0556C26.2214 14.22 26.0652 14.3482 25.8825 14.4239C25.6998 14.4996 25.4987 14.5194 25.3047 14.4808C25.1108 14.4422 24.9326 14.347 24.7927 14.2071C24.6529 14.0673 24.5576 13.8891 24.519 13.6951C24.4805 13.5011 24.5003 13.3 24.5759 13.1173C24.6516 12.9346 24.7798 12.7784 24.9443 12.6685C25.1087 12.5587 25.302 12.5 25.4998 12.5C25.765 12.5 26.0194 12.6054 26.2069 12.7929C26.3945 12.9804 26.4998 13.2348 26.4998 13.5ZM34.4998 15C34.4999 15.0823 34.4796 15.1634 34.4408 15.236C34.402 15.3087 34.3458 15.3706 34.2773 15.4163L31.4998 17.2675V20C31.4962 23.3141 30.1781 26.4914 27.8346 28.8348C25.4912 31.1782 22.3139 32.4964 18.9998 32.5H7.99983C7.7172 32.5001 7.44031 32.4203 7.20105 32.2698C6.96179 32.1194 6.76991 31.9044 6.6475 31.6497C6.52509 31.3949 6.47714 31.1108 6.50918 30.83C6.54122 30.5492 6.65193 30.2831 6.82858 30.0625L17.4998 17.26V14.6113C17.4998 10.7088 20.6248 7.51875 24.4648 7.5H24.4998C26.0165 7.49852 27.4925 7.99019 28.7053 8.90087C29.9181 9.81155 30.802 11.0919 31.2236 12.5488L34.2773 14.5838C34.3458 14.6295 34.402 14.6914 34.4408 14.764C34.4796 14.8366 34.4999 14.9177 34.4998 15ZM33.0986 15L30.5136 13.2775C30.412 13.2084 30.3388 13.105 30.3073 12.9863C29.9723 11.7012 29.2204 10.5636 28.1694 9.75175C27.1184 8.9399 25.8278 8.49965 24.4998 8.5H24.4698C21.1786 8.51625 18.4998 11.2575 18.4998 14.6113V17.44C18.4997 17.557 18.4586 17.6702 18.3836 17.76L7.60483 30.695C7.54792 30.7689 7.51283 30.8573 7.50352 30.9501C7.49421 31.0429 7.51106 31.1365 7.55215 31.2203C7.59325 31.304 7.65695 31.3746 7.73606 31.424C7.81517 31.4735 7.90654 31.4998 7.99983 31.5H11.5986L20.6161 20.68C20.7026 20.5837 20.823 20.5247 20.9521 20.5154C21.0812 20.5061 21.2089 20.5472 21.3083 20.6301C21.4077 20.713 21.4711 20.8312 21.4851 20.9599C21.4992 21.0885 21.4628 21.2176 21.3836 21.32L12.9011 31.5H18.9998C22.0488 31.4967 24.9719 30.284 27.1279 28.1281C29.2839 25.9721 30.4965 23.049 30.4998 20V17C30.4998 16.9177 30.5201 16.8366 30.5589 16.764C30.5977 16.6914 30.6538 16.6295 30.7223 16.5838L33.0986 15Z" fill="#3C4D45"/>
</svg>
