<svg width="370" height="284" viewBox="0 0 370 284" fill="none" xmlns="http://www.w3.org/2000/svg">
<g opacity="0.3">
<path d="M369.03 249.892H0V250.077H369.03V249.892Z" fill="#EBEBEB"/>
<path d="M332.053 256.919H264.963V257.103H332.053V256.919Z" fill="#EBEBEB"/>
<path d="M244.46 254.919H226.09V255.103H244.46V254.919Z" fill="#EBEBEB"/>
<path d="M286.449 263.775H257.967V263.96H286.449V263.775Z" fill="#EBEBEB"/>
<path d="M55.4282 262.535H38.7185V262.72H55.4282V262.535Z" fill="#EBEBEB"/>
<path d="M81.8435 262.535H61.9971V262.72H81.8435V262.535Z" fill="#EBEBEB"/>
<path d="M166.174 259.421H131.603V259.605H166.174V259.421Z" fill="#EBEBEB"/>
<path d="M174.92 216.975H32.4084C31.2919 216.973 30.2219 216.528 29.4332 215.738C28.6444 214.948 28.2014 213.877 28.2014 212.76V12.4289C28.2111 11.3189 28.6584 10.2575 29.4461 9.47534C30.2338 8.69317 31.2983 8.25337 32.4084 8.25147H174.92C176.038 8.25147 177.11 8.69548 177.9 9.48582C178.691 10.2762 179.135 11.3481 179.135 12.4658V212.76C179.135 213.878 178.691 214.95 177.9 215.74C177.11 216.531 176.038 216.975 174.92 216.975ZM32.4084 8.39909C31.3409 8.40104 30.3178 8.82647 29.5636 9.58199C28.8095 10.3375 28.3859 11.3614 28.3859 12.4289V212.76C28.3859 213.828 28.8095 214.852 29.5636 215.607C30.3178 216.363 31.3409 216.788 32.4084 216.79H174.92C175.989 216.788 177.012 216.363 177.768 215.608C178.523 214.853 178.948 213.829 178.95 212.76V12.4289C178.948 11.3607 178.523 10.3369 177.768 9.58154C177.012 8.82623 175.989 8.40104 174.92 8.39909H32.4084Z" fill="#EBEBEB"/>
<path d="M334.57 216.975H192.051C190.934 216.973 189.863 216.528 189.073 215.738C188.283 214.948 187.838 213.878 187.836 212.76V12.4289C187.848 11.3182 188.297 10.2568 189.086 9.47488C189.875 8.69291 190.94 8.25335 192.051 8.25147H334.57C335.679 8.25531 336.742 8.69597 337.528 9.47793C338.314 10.2599 338.76 11.3201 338.77 12.4289V212.76C338.77 213.876 338.328 214.945 337.541 215.735C336.753 216.525 335.685 216.971 334.57 216.975ZM192.051 8.39909C190.983 8.40104 189.959 8.82623 189.203 9.58154C188.448 10.3369 188.023 11.3607 188.021 12.4289V212.76C188.023 213.829 188.448 214.853 189.203 215.608C189.959 216.363 190.983 216.788 192.051 216.79H334.57C335.638 216.788 336.662 216.363 337.417 215.608C338.173 214.853 338.598 213.829 338.6 212.76V12.4289C338.598 11.3607 338.173 10.3369 337.417 9.58154C336.662 8.82623 335.638 8.40104 334.57 8.39909H192.051Z" fill="#EBEBEB"/>
<path d="M282.913 89.8293C297.098 89.8293 308.598 78.3299 308.598 64.1448C308.598 49.9596 297.098 38.4603 282.913 38.4603C268.728 38.4603 257.229 49.9596 257.229 64.1448C257.229 78.3299 268.728 89.8293 282.913 89.8293Z" fill="#FAFAFA"/>
<path d="M44.2837 85.0466C45.1631 85.0941 46.0321 85.2604 46.8669 85.5411C47.0736 83.8288 49.1401 82.7734 52.8157 82.8915C54.8548 82.9865 56.8759 83.3184 58.8382 83.8805C57.5614 81.2899 58.8382 79.4521 62.4547 79.4521C64.8452 79.5446 67.1976 80.0801 69.3925 81.0315C69.9091 79.2971 71.8798 78.2269 75.1936 78.2269C80.4634 78.2269 87.6004 80.943 93.0473 84.744C95.6748 84.8178 100.708 86.3161 101.565 87.6962H43.3168L43.0364 87.4453C41.6193 86.043 42.1802 85.0097 44.2837 85.0466Z" fill="#E6E6E6"/>
<path d="M273.296 65.9751C274.269 66.0262 275.23 66.21 276.152 66.5213C276.374 64.6319 278.662 63.4657 282.728 63.5691C284.977 63.6772 287.206 64.0437 289.371 64.6614C287.954 61.8051 289.371 59.7754 293.371 59.7754C296.014 59.8798 298.614 60.4729 301.04 61.5246C301.615 59.6057 303.793 58.4248 307.453 58.4248C313.284 58.4248 321.174 61.4213 327.204 65.6356C330.105 65.7094 335.677 67.3701 336.622 68.861H272.189L271.879 68.5805C270.336 67.0822 270.956 65.9013 273.296 65.9751Z" fill="#F0F0F0"/>
<path d="M60.8528 48.2322C62.2811 48.3296 63.6867 48.6406 65.0229 49.1547C64.2848 45.9589 66.7352 43.9883 72.3001 44.2171C75.5634 44.4203 78.7875 45.0379 81.8949 46.0549C78.4113 41.2427 79.2527 37.8329 84.6405 37.8329C87.7034 37.8329 91.7406 38.9326 95.9623 40.7851C95.6819 37.545 97.992 35.5597 102.944 35.5597C109.085 35.5597 117.897 38.6152 126.437 43.3093C126.673 41.9439 127.965 41.1394 130.326 41.1394C133.611 41.1394 138.231 42.6819 142.8 45.1028C143.095 45.1028 143.405 45.1028 143.73 45.1028C149.545 45.5087 157.708 48.6307 162.447 52.2029H59.9376C57.4725 49.878 57.812 48.1067 60.8528 48.2322Z" fill="#F0F0F0"/>
<path d="M253.258 88.1834C253.846 88.2266 254.425 88.3533 254.977 88.5598C254.667 87.246 255.679 86.4342 257.974 86.5301C259.323 86.6066 260.658 86.8546 261.945 87.2682C260.513 85.2902 260.852 83.8805 263.074 83.8805C264.695 83.9812 266.282 84.3948 267.746 85.0983C267.628 83.7624 268.58 82.9431 270.624 82.9431C273.156 82.9431 276.787 84.1978 280.315 86.1389C280.411 85.5706 280.942 85.2385 281.917 85.2385C283.739 85.3946 285.504 85.9543 287.083 86.877C287.211 86.87 287.339 86.87 287.467 86.877C290.245 87.1972 292.898 88.2125 295.18 89.8292H252.881C251.863 88.8624 252.003 88.1391 253.258 88.1834Z" fill="#FAFAFA"/>
<path d="M286.677 16.0897C290.67 14.7907 293.061 12.5249 296.183 15.8683C291.991 13.4031 286.935 17.7651 286.935 17.7651C286.935 17.7651 280.795 15.145 277.555 18.7688C279.503 14.6357 282.47 16.0749 286.677 16.0897Z" fill="#E0E0E0"/>
<path d="M268.728 29.0205C271.267 28.2012 272.787 26.7546 274.765 28.8802C272.101 27.3156 268.861 30.0907 268.861 30.0907C268.861 30.0907 264.964 28.4226 262.905 30.7254C264.174 28.0979 266.056 29.0131 268.728 29.0205Z" fill="#E0E0E0"/>
<path d="M81.3414 23.4629C84.7513 22.6141 86.8695 20.8575 89.2756 23.8245C85.9248 21.5292 81.4669 24.88 81.4669 24.88C81.4669 24.88 76.4998 22.341 73.5918 25.1826C75.4517 21.8465 77.843 23.2119 81.3414 23.4629Z" fill="#E0E0E0"/>
<path d="M107.624 147.664H66.7135L54.0263 157.295V153.413H46.07V163.333L37.0657 170.174V171.946V249.892H59.3403H66.7135H137.279V170.174L107.624 147.664Z" fill="#F0F0F0"/>
<path d="M42.8002 189.01H75.0091L85.0024 196.597V193.541H91.2612V201.35L98.3539 206.731V208.133V249.892H80.8176H75.0091H19.4553V206.731L42.8002 189.01Z" fill="#F5F5F5"/>
<path d="M277.747 189.01H309.956L319.942 196.597V193.541H326.208V201.35L333.301 206.731V208.133V249.892H315.757H309.956H254.402V206.731L277.747 189.01Z" fill="#F5F5F5"/>
<path d="M184.515 283.223C263.549 283.223 327.618 279.483 327.618 274.868C327.618 270.254 263.549 266.513 184.515 266.513C105.482 266.513 41.4128 270.254 41.4128 274.868C41.4128 279.483 105.482 283.223 184.515 283.223Z" fill="#F5F5F5"/>
<path d="M300.39 108.694H64.2112V249.678H300.39V108.694Z" fill="#2AD482"/>
<path opacity="0.2" d="M300.39 108.694H64.2112V249.678H300.39V108.694Z" fill="black"/>
<path opacity="0.2" d="M64.2112 108.694H300.39V128.024L64.2112 132.74V108.694Z" fill="black"/>
<path d="M314.17 249.678H64.2112V274.868H314.17V249.678Z" fill="#263238"/>
<path d="M187.216 145.036H92.9883V278.965H187.216V145.036Z" fill="#2AD482"/>
<path opacity="0.2" d="M92.9883 160.129L187.216 154.882V145.036H92.9883V160.129Z" fill="black"/>
<path d="M195.217 144.18H84.9875V149.428H195.217V144.18Z" fill="white"/>
<path d="M99.7487 126.666H180.456L195.217 144.18H84.9875L99.7487 126.666Z" fill="#263238"/>
<path d="M162.284 164.558H117.92V253.383H162.284V164.558Z" fill="white"/>
<path d="M160.44 253.383H159.702V167.141H120.503V253.383H119.765V166.403H160.44V253.383Z" fill="#E0E0E0"/>
<path d="M125.404 211.779C125.405 212.195 125.283 212.603 125.053 212.95C124.823 213.296 124.495 213.567 124.11 213.728C123.726 213.888 123.303 213.931 122.894 213.85C122.486 213.77 122.11 213.57 121.815 213.276C121.521 212.982 121.32 212.608 121.238 212.199C121.156 211.791 121.197 211.368 121.356 210.983C121.515 210.598 121.785 210.269 122.131 210.038C122.477 209.806 122.884 209.683 123.3 209.683C123.857 209.683 124.391 209.903 124.785 210.296C125.179 210.689 125.402 211.222 125.404 211.779Z" fill="#2AD482"/>
<path d="M165.857 253.383H114.355V262.38H165.857V253.383Z" fill="#263238"/>
<path d="M172.499 262.38H107.712V271.377H172.499V262.38Z" fill="#263238"/>
<path d="M180.803 271.377H99.4094V280.374H180.803V271.377Z" fill="#263238"/>
<path d="M149.103 201.139C154.075 196.167 154.075 188.106 149.103 183.134C144.131 178.162 136.07 178.162 131.098 183.134C126.126 188.106 126.126 196.167 131.098 201.139C136.07 206.111 144.131 206.111 149.103 201.139Z" fill="#2AD482"/>
<path opacity="0.3" d="M145.649 180.662L139.065 204.819C139.415 204.849 139.761 204.863 140.106 204.863C140.883 204.863 141.659 204.792 142.423 204.649L148.453 182.507C147.605 181.77 146.662 181.15 145.649 180.662Z" fill="white"/>
<path opacity="0.3" d="M140.106 179.4C138.595 179.394 137.095 179.659 135.677 180.183L130.23 200.199C131.691 201.984 133.61 203.339 135.781 204.118L142.46 179.622C141.684 179.474 140.896 179.4 140.106 179.4Z" fill="white"/>
<path d="M140.062 208.945C139.801 208.943 139.551 208.838 139.367 208.653C139.183 208.467 139.08 208.217 139.08 207.956V176.219C139.082 175.959 139.186 175.711 139.37 175.527C139.553 175.344 139.802 175.239 140.062 175.238C140.321 175.239 140.57 175.344 140.754 175.527C140.937 175.711 141.041 175.959 141.043 176.219V207.956C141.043 208.217 140.94 208.467 140.756 208.653C140.572 208.838 140.323 208.943 140.062 208.945Z" fill="white"/>
<path d="M123.212 192.087C123.214 191.828 123.318 191.579 123.502 191.396C123.685 191.212 123.934 191.108 124.194 191.106H155.93C156.19 191.108 156.438 191.212 156.622 191.396C156.806 191.579 156.91 191.828 156.912 192.087C156.912 192.349 156.809 192.599 156.625 192.784C156.441 192.97 156.191 193.075 155.93 193.077H124.194C123.933 193.075 123.683 192.97 123.499 192.784C123.315 192.599 123.212 192.349 123.212 192.087Z" fill="white"/>
<path d="M276.61 151.273H205.756V235.736H276.61V151.273Z" fill="white"/>
<path d="M64.2111 151.273H62.0781V235.736H64.2111V151.273Z" fill="#2AD482"/>
<path d="M274.396 233.522V153.487H207.97V233.522H274.396Z" fill="#2AD482"/>
<path d="M244.792 234.098V152.911H237.574V234.098H244.792Z" fill="white"/>
<path opacity="0.3" d="M215.182 234.098L226.053 152.911H240.158L229.279 234.098H215.182Z" fill="white"/>
<path opacity="0.3" d="M244.01 234.098L254.889 152.911H259.701L248.822 234.098H244.01Z" fill="white"/>
<path d="M314.17 245.663H187.401V249.678H314.17V245.663Z" fill="#E0E0E0"/>
<path d="M314.17 199.165H187.401V203.181H314.17V199.165Z" fill="#E0E0E0"/>
<path d="M312.856 203.181H310.258V245.663H312.856V203.181Z" fill="#E0E0E0"/>
<path d="M283.659 203.181H281.061V245.663H283.659V203.181Z" fill="#E0E0E0"/>
<path d="M254.453 203.181H251.855V245.663H254.453V203.181Z" fill="#E0E0E0"/>
<path d="M225.256 203.181H222.658V245.663H225.256V203.181Z" fill="#E0E0E0"/>
<path d="M196.051 203.181H193.453V245.663H196.051V203.181Z" fill="#E0E0E0"/>
<path d="M303.837 107.211H60.7571V112.458H303.837V107.211Z" fill="white"/>
<path d="M82.825 76.6032L169.016 -1.14441e-05L255.206 76.6032C256.052 77.3546 256.65 78.3452 256.921 79.4438C257.192 80.5425 257.123 81.6974 256.723 82.7559C256.323 83.8143 255.611 84.7264 254.681 85.3713C253.751 86.0163 252.648 86.3638 251.516 86.3678H86.5374C85.404 86.3682 84.2973 86.024 83.3641 85.3807C82.431 84.7375 81.7155 83.8256 81.3127 82.7662C80.9099 81.7068 80.8389 80.5499 81.109 79.4492C81.3791 78.3484 81.9776 77.3559 82.825 76.6032Z" fill="#263238"/>
<path d="M208.133 13.3294H234.342C234.978 13.3294 235.588 13.5821 236.038 14.0319C236.487 14.4818 236.74 15.0919 236.74 15.7281V63.606H205.742V15.7207C205.744 15.0871 205.996 14.4799 206.444 14.0319C206.892 13.5839 207.499 13.3313 208.133 13.3294Z" fill="#263238"/>
<path d="M169.016 8.52457L89.2905 79.3857H248.741L169.016 8.52457Z" fill="#2AD482"/>
<path opacity="0.2" d="M169.016 8.52457L89.2905 79.3857L171.577 10.8052L169.016 8.52457Z" fill="black"/>
<path d="M75.5258 75.0312H289.083L303.845 107.211H60.7646L75.5258 75.0312Z" fill="#263238"/>
<path opacity="0.2" d="M188.772 51.0425C190.543 40.1347 183.136 29.8569 172.228 28.0863C161.32 26.3157 151.042 33.7229 149.272 44.6306C147.501 55.5384 154.908 65.8163 165.816 67.5869C176.724 69.3575 187.002 61.9503 188.772 51.0425Z" fill="black"/>
<path d="M169.016 65.6873C180.066 65.6873 189.025 56.7291 189.025 45.6785C189.025 34.6279 180.066 25.6697 169.016 25.6697C157.965 25.6697 149.007 34.6279 149.007 45.6785C149.007 56.7291 157.965 65.6873 169.016 65.6873Z" fill="white"/>
<path d="M169.016 62.8532C178.501 62.8532 186.191 55.1638 186.191 45.6785C186.191 36.1932 178.501 28.5039 169.016 28.5039C159.531 28.5039 151.841 36.1932 151.841 45.6785C151.841 55.1638 159.531 62.8532 169.016 62.8532Z" fill="#2AD482"/>
<path opacity="0.3" d="M176.492 30.2088L167.635 62.8015C168.1 62.8384 168.573 62.8606 169.038 62.8606C170.087 62.8583 171.135 62.762 172.167 62.5727L180.286 32.7182C179.14 31.7153 177.864 30.8713 176.492 30.2088Z" fill="white"/>
<path opacity="0.3" d="M169.016 28.5038C167.001 28.5035 165.002 28.8608 163.111 29.5593L155.731 56.5649C157.699 58.9756 160.286 60.805 163.215 61.8568L172.226 28.8064C171.168 28.6039 170.093 28.5026 169.016 28.5038Z" fill="white"/>
<path d="M169.06 26.1199H168.868C168.187 26.1199 167.635 26.6718 167.635 27.3525V63.9086C167.635 64.5893 168.187 65.1412 168.868 65.1412H169.06C169.741 65.1412 170.293 64.5893 170.293 63.9086V27.3525C170.293 26.6718 169.741 26.1199 169.06 26.1199Z" fill="white"/>
<path d="M187.932 45.745V45.5088C187.932 44.8403 187.39 44.2984 186.722 44.2984H151.191C150.523 44.2984 149.981 44.8403 149.981 45.5088V45.745C149.981 46.4135 150.523 46.9554 151.191 46.9554H186.722C187.39 46.9554 187.932 46.4135 187.932 45.745Z" fill="white"/>
</g>
</svg>
