<svg width="370" height="273" viewBox="0 0 370 273" fill="none" xmlns="http://www.w3.org/2000/svg">
<g opacity="0.3">
<path d="M332.871 253.54H308.427V253.724H332.871V253.54Z" fill="#EBEBEB"/>
<path d="M245.278 255.547H238.865V255.732H245.278V255.547Z" fill="#EBEBEB"/>
<path d="M307.689 246.69H293.525V246.875H307.689V246.69Z" fill="#EBEBEB"/>
<path d="M71.4139 247.93H39.5371V248.115H71.4139V247.93Z" fill="#EBEBEB"/>
<path d="M82.6617 247.93H77.9897V248.115H82.6617V247.93Z" fill="#EBEBEB"/>
<path d="M166.992 251.045H97.8508V251.23H166.992V251.045Z" fill="#EBEBEB"/>
<path d="M175.739 208.747H33.2341C32.1164 208.747 31.0445 208.303 30.2541 207.512C29.4638 206.722 29.0198 205.65 29.0198 204.532V4.20081C29.0295 3.08951 29.4778 2.02704 30.2671 1.24466C31.0564 0.462287 32.1228 0.0233479 33.2341 0.0233905H175.739C176.856 0.0233905 177.928 0.467398 178.719 1.25774C179.509 2.04808 179.953 3.12001 179.953 4.23771V204.532C179.953 205.65 179.509 206.722 178.719 207.512C177.928 208.303 176.856 208.747 175.739 208.747ZM33.2341 0.171003C32.1659 0.172954 31.1421 0.598148 30.3868 1.35346C29.6314 2.10877 29.2062 3.13264 29.2043 4.20081V204.532C29.2062 205.601 29.6314 206.624 30.3868 207.38C31.1421 208.135 32.1659 208.56 33.2341 208.562H175.739C176.807 208.56 177.831 208.135 178.586 207.38C179.341 206.624 179.767 205.601 179.769 204.532V4.20081C179.767 3.13264 179.341 2.10877 178.586 1.35346C177.831 0.598148 176.807 0.172954 175.739 0.171003H33.2341Z" fill="#EBEBEB"/>
<path d="M335.388 208.747H192.869C191.752 208.745 190.681 208.3 189.891 207.51C189.101 206.72 188.657 205.65 188.655 204.532V4.20081C188.666 3.09011 189.115 2.02876 189.904 1.24679C190.693 0.464831 191.758 0.0252713 192.869 0.0233905H335.388C336.497 0.0272318 337.56 0.467887 338.346 1.24985C339.132 2.0318 339.578 3.09206 339.588 4.20081V204.532C339.588 205.648 339.146 206.717 338.359 207.507C337.572 208.297 336.504 208.743 335.388 208.747ZM192.869 0.171003C191.801 0.172954 190.777 0.598148 190.022 1.35346C189.266 2.10877 188.841 3.13264 188.839 4.20081V204.532C188.841 205.601 189.266 206.624 190.022 207.38C190.777 208.135 191.801 208.56 192.869 208.562H335.388C336.457 208.56 337.481 208.135 338.236 207.38C338.991 206.624 339.416 205.601 339.418 204.532V4.20081C339.416 3.13264 338.991 2.10877 338.236 1.35346C337.481 0.598148 336.457 0.172954 335.388 0.171003H192.869Z" fill="#EBEBEB"/>
<path d="M369.848 241.664H0.818359V241.849H369.848V241.664Z" fill="#EBEBEB"/>
<path d="M313.999 44.2184H221.897V241.908H313.999V44.2184Z" fill="#EBEBEB"/>
<path d="M308.464 49.7539H227.432V236.372H308.464V49.7539Z" fill="#F5F5F5"/>
<path d="M276.653 236.372H252.297L229.432 49.7539H253.788L276.653 236.372Z" fill="#FAFAFA"/>
<path d="M265.103 49.7539L287.968 236.372H282.063L259.198 49.7539H265.103Z" fill="#FAFAFA"/>
<path d="M220.723 48.8313H315.165L317.158 44.1815H218.73L220.723 48.8313Z" fill="#F5F5F5"/>
<path d="M220.723 51.5252H315.165L317.158 46.8754H218.73L220.723 51.5252Z" fill="#F0F0F0"/>
<path d="M220.723 54.2191H315.165L317.158 49.5694H218.73L220.723 54.2191Z" fill="#E6E6E6"/>
<path d="M220.723 56.9131H315.165L317.158 52.2633H218.73L220.723 56.9131Z" fill="#E0E0E0"/>
<path d="M215.298 44.5579L320.583 44.5579V38.3582L215.298 38.3582V44.5579Z" fill="#E0E0E0"/>
<path d="M319.505 100.769C319.789 100.769 320.061 100.656 320.262 100.455C320.463 100.254 320.575 99.9822 320.575 99.6984V63.5335C320.575 63.2496 320.463 62.9774 320.262 62.7767C320.061 62.576 319.789 62.4633 319.505 62.4633C319.221 62.4633 318.949 62.576 318.749 62.7767C318.548 62.9774 318.435 63.2496 318.435 63.5335V99.6984C318.435 99.9822 318.548 100.254 318.749 100.455C318.949 100.656 319.221 100.769 319.505 100.769Z" fill="#E0E0E0"/>
<path d="M319.114 64.7955H319.889V43.318H319.114V64.7955Z" fill="#E0E0E0"/>
<path d="M189.511 240.845H191.725L191.725 119.567H189.511L189.511 240.845Z" fill="#EBEBEB"/>
<path d="M215.491 105.19C215.491 112.282 210.464 118.475 202.995 121.766H178.241C170.772 118.467 165.738 112.282 165.738 105.19C165.738 98.0968 170.772 91.9045 178.241 88.6201H202.995C210.464 91.9192 215.491 98.1042 215.491 105.19Z" fill="#F0F0F0"/>
<path d="M175 241.908H206.183C206.183 241.408 206.085 240.912 205.893 240.45C205.702 239.988 205.421 239.569 205.068 239.215C204.714 238.861 204.294 238.581 203.832 238.389C203.37 238.198 202.875 238.099 202.375 238.099H178.831C178.331 238.099 177.835 238.198 177.373 238.389C176.911 238.581 176.491 238.861 176.138 239.215C175.784 239.569 175.504 239.988 175.312 240.45C175.121 240.912 175.022 241.408 175.022 241.908H175Z" fill="#EBEBEB"/>
<path d="M197.651 89.0113C207.475 96.7093 207.475 113.685 197.651 121.368C197.09 121.811 197.88 122.593 198.434 122.158C208.685 114.105 208.685 96.2812 198.434 88.2068C197.88 87.7713 197.09 88.5463 197.651 88.9891V89.0113Z" fill="#E0E0E0"/>
<path d="M192.559 88.7677C194.699 93.8751 195.039 99.7205 195.039 105.19C195.039 110.659 194.699 116.511 192.559 121.619C192.286 122.276 193.356 122.556 193.622 121.907C195.792 116.74 196.146 110.725 196.146 105.19C196.146 99.6541 195.792 93.6389 193.622 88.4725C193.356 87.823 192.286 88.1109 192.559 88.7677Z" fill="#E0E0E0"/>
<path d="M187.607 88.4725C185.444 93.6389 185.09 99.6615 185.09 105.19C185.09 110.718 185.444 116.74 187.607 121.907C187.88 122.556 188.95 122.276 188.677 121.619C186.536 116.511 186.197 110.666 186.197 105.19C186.197 99.7132 186.536 93.8751 188.677 88.7677C188.95 88.1109 187.88 87.823 187.607 88.4725Z" fill="#E0E0E0"/>
<path d="M182.802 88.229C172.55 96.2812 172.55 114.105 182.802 122.18C183.355 122.615 184.145 121.833 183.584 121.39C173.761 113.677 173.761 96.7462 183.584 89.0334C184.145 88.5906 183.355 87.8156 182.802 88.2511V88.229Z" fill="#E0E0E0"/>
<path d="M181.776 272.154C260.809 272.154 324.878 268.413 324.878 263.799C324.878 259.184 260.809 255.444 181.776 255.444C102.742 255.444 38.6733 259.184 38.6733 263.799C38.6733 268.413 102.742 272.154 181.776 272.154Z" fill="#F5F5F5"/>
<path d="M59.251 258.95H141.921L141.921 50.6617H59.251L59.251 258.95Z" fill="#2AD482"/>
<path opacity="0.2" d="M59.251 258.95H141.921L141.921 50.6617H59.251L59.251 258.95Z" fill="black"/>
<path d="M44.0171 48.8313V260.773H59.2506V48.8313H44.0171Z" fill="#2AD482"/>
<path d="M141.19 48.8313V260.773H156.424V48.8313H141.19Z" fill="#2AD482"/>
<path opacity="0.4" d="M141.19 48.8313V260.773H156.424V48.8313H141.19Z" fill="white"/>
<path d="M95.7109 61.0019H92.1978V90.4874H95.7109V61.0019Z" fill="#2AD482"/>
<path opacity="0.1" d="M95.7109 61.0019H92.1978V90.4874H95.7109V61.0019Z" fill="white"/>
<path d="M92.1904 61.0019H88.6772V90.4874H92.1904V61.0019Z" fill="#2AD482"/>
<path opacity="0.4" d="M92.1904 61.0019H88.6772V90.4874H92.1904V61.0019Z" fill="white"/>
<path d="M102.737 63.0759H95.7109V90.4948H102.737V63.0759Z" fill="#2AD482"/>
<path opacity="0.6" d="M102.737 63.0759H95.7109V90.4948H102.737V63.0759Z" fill="white"/>
<path d="M110.789 61.0019H106.25V90.4874H110.789V61.0019Z" fill="#2AD482"/>
<path d="M106.251 61.0019H102.738V90.4874H106.251V61.0019Z" fill="#2AD482"/>
<path opacity="0.7" d="M106.251 61.0019H102.738V90.4874H106.251V61.0019Z" fill="white"/>
<path d="M137.441 61.0019H132.902V90.4874H137.441V61.0019Z" fill="#2AD482"/>
<path opacity="0.7" d="M137.441 61.0019H132.902V90.4874H137.441V61.0019Z" fill="white"/>
<path d="M132.902 61.0019H129.388V90.4874H132.902V61.0019Z" fill="#2AD482"/>
<path opacity="0.6" d="M132.902 61.0019H129.388V90.4874H132.902V61.0019Z" fill="white"/>
<path d="M122.355 61.0019H117.816V90.4874H122.355V61.0019Z" fill="#2AD482"/>
<path opacity="0.6" d="M122.355 61.0019H117.816V90.4874H122.355V61.0019Z" fill="white"/>
<path d="M117.816 61.0019H114.303V90.4874H117.816V61.0019Z" fill="#2AD482"/>
<path opacity="0.1" d="M117.816 61.0019H114.303V90.4874H117.816V61.0019Z" fill="black"/>
<path d="M144.467 61.6957H137.441V90.4874H144.467V61.6957Z" fill="#2AD482"/>
<path opacity="0.1" d="M144.467 61.6957H137.441V90.4874H144.467V61.6957Z" fill="white"/>
<path d="M147.988 61.6957H144.475V90.4874H147.988V61.6957Z" fill="#2AD482"/>
<path opacity="0.6" d="M147.988 61.6957H144.475V90.4874H147.988V61.6957Z" fill="white"/>
<path d="M127.049 61.6957H122.363V90.4874H127.049V61.6957Z" fill="#2AD482"/>
<path opacity="0.1" d="M127.049 61.6957H122.363V90.4874H127.049V61.6957Z" fill="white"/>
<path d="M129.389 61.6957H127.049V90.4874H129.389V61.6957Z" fill="#2AD482"/>
<path opacity="0.3" d="M129.389 61.6957H127.049V90.4874H129.389V61.6957Z" fill="white"/>
<path d="M117.816 63.0759H110.79V90.4948H117.816V63.0759Z" fill="#2AD482"/>
<path opacity="0.1" d="M117.816 63.0759H110.79V90.4948H117.816V63.0759Z" fill="white"/>
<path d="M78.1379 61.0019H73.5989V90.4874H78.1379V61.0019Z" fill="#2AD482"/>
<path opacity="0.3" d="M78.1379 61.0019H73.5989V90.4874H78.1379V61.0019Z" fill="white"/>
<path d="M73.5989 61.0019H70.0857V90.4874H73.5989V61.0019Z" fill="#2AD482"/>
<path opacity="0.2" d="M73.5989 61.0019H70.0857V90.4874H73.5989V61.0019Z" fill="white"/>
<path d="M85.164 61.6957H78.1377V90.4874H85.164V61.6957Z" fill="#2AD482"/>
<path opacity="0.1" d="M85.164 61.6957H78.1377V90.4874H85.164V61.6957Z" fill="white"/>
<path d="M88.6772 61.6957H85.1641V90.4874H88.6772V61.6957Z" fill="#2AD482"/>
<path opacity="0.6" d="M88.6772 61.6957H85.1641V90.4874H88.6772V61.6957Z" fill="white"/>
<path d="M67.7458 61.6957H63.0591V90.4874H67.7458V61.6957Z" fill="#2AD482"/>
<path opacity="0.1" d="M67.7458 61.6957H63.0591V90.4874H67.7458V61.6957Z" fill="white"/>
<path d="M70.0782 61.6957H67.7385V90.4874H70.0782V61.6957Z" fill="#2AD482"/>
<path opacity="0.6" d="M70.0782 61.6957H67.7385V90.4874H70.0782V61.6957Z" fill="white"/>
<path d="M114.125 132.158H117.557V102.754H114.125V132.158Z" fill="#2AD482"/>
<path opacity="0.1" d="M114.125 132.158H117.557V102.754H114.125V132.158Z" fill="white"/>
<path d="M117.558 132.158H120.99V102.754H117.558V132.158Z" fill="#2AD482"/>
<path opacity="0.4" d="M117.558 132.158H120.99V102.754H117.558V132.158Z" fill="white"/>
<path d="M107.269 132.158H114.133V104.821H107.269V132.158Z" fill="#2AD482"/>
<path opacity="0.6" d="M107.269 132.158H114.133V104.821H107.269V132.158Z" fill="white"/>
<path d="M99.4014 132.158H103.837V102.754H99.4014V132.158Z" fill="#2AD482"/>
<path d="M103.83 132.158H107.262V102.754H103.83V132.158Z" fill="#2AD482"/>
<path opacity="0.1" d="M103.83 132.158H107.262V102.754H103.83V132.158Z" fill="black"/>
<path d="M73.3775 132.158H77.8132V102.754H73.3775V132.158Z" fill="#2AD482"/>
<path opacity="0.1" d="M73.3775 132.158H77.8132V102.754H73.3775V132.158Z" fill="black"/>
<path d="M77.8129 132.158H81.2449V102.754H77.8129V132.158Z" fill="#2AD482"/>
<path opacity="0.6" d="M77.8129 132.158H81.2449V102.754H77.8129V132.158Z" fill="white"/>
<path d="M88.1016 132.158H92.5374V102.754H88.1016V132.158Z" fill="#2AD482"/>
<path opacity="0.6" d="M88.1016 132.158H92.5374V102.754H88.1016V132.158Z" fill="white"/>
<path d="M92.5373 132.158H95.9692V102.754H92.5373V132.158Z" fill="#2AD482"/>
<path opacity="0.1" d="M92.5373 132.158H95.9692V102.754H92.5373V132.158Z" fill="black"/>
<path d="M66.5135 132.151H73.3774V103.448H66.5135V132.151Z" fill="#2AD482"/>
<path opacity="0.1" d="M66.5135 132.151H73.3774V103.448H66.5135V132.151Z" fill="white"/>
<path d="M63.0888 132.151H66.5208V103.448H63.0888V132.151Z" fill="#2AD482"/>
<path opacity="0.6" d="M63.0888 132.151H66.5208V103.448H63.0888V132.151Z" fill="white"/>
<path d="M83.5256 132.151H88.1016V103.448H83.5256V132.151Z" fill="#2AD482"/>
<path opacity="0.1" d="M83.5256 132.151H88.1016V103.448H83.5256V132.151Z" fill="white"/>
<path d="M81.245 132.151H83.533V103.448H81.245V132.151Z" fill="#2AD482"/>
<path opacity="0.3" d="M81.245 132.151H83.533V103.448H81.245V132.151Z" fill="white"/>
<path d="M92.5374 132.158H99.4014V104.821H92.5374V132.158Z" fill="#2AD482"/>
<path opacity="0.1" d="M92.5374 132.158H99.4014V104.821H92.5374V132.158Z" fill="white"/>
<path d="M131.278 132.158H135.714V102.754H131.278V132.158Z" fill="#2AD482"/>
<path opacity="0.1" d="M131.278 132.158H135.714V102.754H131.278V132.158Z" fill="white"/>
<path d="M135.714 132.158H139.146V102.754H135.714V132.158Z" fill="#2AD482"/>
<path opacity="0.2" d="M135.714 132.158H139.146V102.754H135.714V132.158Z" fill="white"/>
<path d="M124.414 132.151H131.278V103.448H124.414V132.151Z" fill="#2AD482"/>
<path opacity="0.3" d="M124.414 132.151H131.278V103.448H124.414V132.151Z" fill="white"/>
<path d="M120.982 132.151H124.414V103.448H120.982V132.151Z" fill="#2AD482"/>
<path opacity="0.6" d="M120.982 132.151H124.414V103.448H120.982V132.151Z" fill="white"/>
<path d="M141.426 132.151H146.002V103.448H141.426V132.151Z" fill="#2AD482"/>
<path opacity="0.1" d="M141.426 132.151H146.002V103.448H141.426V132.151Z" fill="white"/>
<path d="M139.138 132.151H141.426V103.448H139.138V132.151Z" fill="#2AD482"/>
<path opacity="0.6" d="M139.138 132.151H141.426V103.448H139.138V132.151Z" fill="white"/>
<path d="M94.9876 186.347H91.5557V215.463H94.9876V186.347Z" fill="#2AD482"/>
<path opacity="0.1" d="M94.9876 186.347H91.5557V215.463H94.9876V186.347Z" fill="white"/>
<path d="M91.5628 186.347H88.1309V215.463H91.5628V186.347Z" fill="#2AD482"/>
<path opacity="0.4" d="M91.5628 186.347H88.1309V215.463H91.5628V186.347Z" fill="white"/>
<path d="M101.852 188.398H94.9875V215.47H101.852V188.398Z" fill="#2AD482"/>
<path opacity="0.5" d="M101.852 188.398H94.9875V215.47H101.852V188.398Z" fill="white"/>
<path d="M109.719 186.347H105.284V215.463H109.719V186.347Z" fill="#2AD482"/>
<path d="M105.284 186.347H101.852V215.463H105.284V186.347Z" fill="#2AD482"/>
<path opacity="0.6" d="M105.284 186.347H101.852V215.463H105.284V186.347Z" fill="white"/>
<path d="M135.736 186.347H131.3V215.463H135.736V186.347Z" fill="#2AD482"/>
<path opacity="0.3" d="M135.736 186.347H131.3V215.463H135.736V186.347Z" fill="white"/>
<path d="M131.3 186.347H127.868V215.463H131.3V186.347Z" fill="#2AD482"/>
<path opacity="0.6" d="M131.3 186.347H127.868V215.463H131.3V186.347Z" fill="white"/>
<path d="M121.011 186.347H116.576V215.463H121.011V186.347Z" fill="#2AD482"/>
<path opacity="0.6" d="M121.011 186.347H116.576V215.463H121.011V186.347Z" fill="white"/>
<path d="M116.576 186.347H113.144V215.463H116.576V186.347Z" fill="#2AD482"/>
<path opacity="0.1" d="M116.576 186.347H113.144V215.463H116.576V186.347Z" fill="black"/>
<path d="M142.6 187.04H135.736V215.463H142.6V187.04Z" fill="#2AD482"/>
<path opacity="0.1" d="M142.6 187.04H135.736V215.463H142.6V187.04Z" fill="white"/>
<path d="M146.032 187.04H142.6V215.463H146.032V187.04Z" fill="#2AD482"/>
<path opacity="0.6" d="M146.032 187.04H142.6V215.463H146.032V187.04Z" fill="white"/>
<path d="M125.587 187.04H121.011V215.463H125.587V187.04Z" fill="#2AD482"/>
<path opacity="0.1" d="M125.587 187.04H121.011V215.463H125.587V187.04Z" fill="white"/>
<path d="M127.875 187.04H125.587V215.463H127.875V187.04Z" fill="#2AD482"/>
<path opacity="0.3" d="M127.875 187.04H125.587V215.463H127.875V187.04Z" fill="white"/>
<path d="M116.576 188.398H109.712V215.47H116.576V188.398Z" fill="#2AD482"/>
<path opacity="0.1" d="M116.576 188.398H109.712V215.47H116.576V188.398Z" fill="white"/>
<path d="M77.8352 186.347H73.3994V215.463H77.8352V186.347Z" fill="#2AD482"/>
<path opacity="0.1" d="M77.8352 186.347H73.3994V215.463H77.8352V186.347Z" fill="black"/>
<path d="M73.4068 186.347H69.9749V215.463H73.4068V186.347Z" fill="#2AD482"/>
<path opacity="0.2" d="M73.4068 186.347H69.9749V215.463H73.4068V186.347Z" fill="white"/>
<path d="M84.6992 187.04H77.8352V215.463H84.6992V187.04Z" fill="#2AD482"/>
<path opacity="0.1" d="M84.6992 187.04H77.8352V215.463H84.6992V187.04Z" fill="white"/>
<path d="M88.131 187.04H84.699V215.463H88.131V187.04Z" fill="#2AD482"/>
<path opacity="0.6" d="M88.131 187.04H84.699V215.463H88.131V187.04Z" fill="white"/>
<path d="M67.6868 187.04H63.1108V215.463H67.6868V187.04Z" fill="#2AD482"/>
<path opacity="0.1" d="M67.6868 187.04H63.1108V215.463H67.6868V187.04Z" fill="white"/>
<path d="M69.9748 187.04H67.6868V215.463H69.9748V187.04Z" fill="#2AD482"/>
<path opacity="0.6" d="M69.9748 187.04H67.6868V215.463H69.9748V187.04Z" fill="white"/>
<path d="M115.845 173.807H119.395V143.923H115.845V173.807Z" fill="#2AD482"/>
<path opacity="0.1" d="M115.845 173.807H119.395V143.923H115.845V173.807Z" fill="white"/>
<path d="M119.395 173.807H122.946V143.923H119.395V173.807Z" fill="#2AD482"/>
<path opacity="0.4" d="M119.395 173.807H122.946V143.923H119.395V173.807Z" fill="white"/>
<path d="M108.76 173.8H115.853V146.012H108.76V173.8Z" fill="#2AD482"/>
<path opacity="0.6" d="M108.76 173.8H115.853V146.012H108.76V173.8Z" fill="white"/>
<path d="M100.626 173.807H105.209V143.923H100.626V173.807Z" fill="#2AD482"/>
<path d="M105.21 173.807H108.76V143.923H105.21V173.807Z" fill="#2AD482"/>
<path opacity="0.1" d="M105.21 173.807H108.76V143.923H105.21V173.807Z" fill="black"/>
<path d="M73.7313 173.807H78.3147V143.923H73.7313V173.807Z" fill="#2AD482"/>
<path opacity="0.1" d="M73.7313 173.807H78.3147V143.923H73.7313V173.807Z" fill="black"/>
<path d="M78.3076 173.807H81.8577V143.923H78.3076V173.807Z" fill="#2AD482"/>
<path opacity="0.6" d="M78.3076 173.807H81.8577V143.923H78.3076V173.807Z" fill="white"/>
<path d="M88.9503 173.807H93.5337V143.923H88.9503V173.807Z" fill="#2AD482"/>
<path opacity="0.6" d="M88.9503 173.807H93.5337V143.923H88.9503V173.807Z" fill="white"/>
<path d="M93.5339 173.807H97.084V143.923H93.5339V173.807Z" fill="#2AD482"/>
<path opacity="0.1" d="M93.5339 173.807H97.084V143.923H93.5339V173.807Z" fill="black"/>
<path d="M66.6387 173.807H73.7314V144.631H66.6387V173.807Z" fill="#2AD482"/>
<path opacity="0.1" d="M66.6387 173.807H73.7314V144.631H66.6387V173.807Z" fill="white"/>
<path d="M63.0813 173.807H66.6313V144.631H63.0813V173.807Z" fill="#2AD482"/>
<path opacity="0.6" d="M63.0813 173.807H66.6313V144.631H63.0813V173.807Z" fill="white"/>
<path d="M84.2268 173.807H88.9578V144.631H84.2268V173.807Z" fill="#2AD482"/>
<path opacity="0.1" d="M84.2268 173.807H88.9578V144.631H84.2268V173.807Z" fill="white"/>
<path d="M81.8577 173.807H84.2195V144.631H81.8577V173.807Z" fill="#2AD482"/>
<path opacity="0.3" d="M81.8577 173.807H84.2195V144.631H81.8577V173.807Z" fill="white"/>
<path d="M93.5337 173.8H100.626V146.012H93.5337V173.8Z" fill="#2AD482"/>
<path opacity="0.1" d="M93.5337 173.8H100.626V146.012H93.5337V173.8Z" fill="white"/>
<path d="M133.58 173.807H138.164V143.923H133.58V173.807Z" fill="#2AD482"/>
<path opacity="0.2" d="M133.58 173.807H138.164V143.923H133.58V173.807Z" fill="white"/>
<path d="M138.164 173.807H141.714V143.923H138.164V173.807Z" fill="#2AD482"/>
<path opacity="0.4" d="M138.164 173.807H141.714V143.923H138.164V173.807Z" fill="white"/>
<path d="M126.495 173.807H133.588V144.631H126.495V173.807Z" fill="#2AD482"/>
<path opacity="0.1" d="M126.495 173.807H133.588V144.631H126.495V173.807Z" fill="white"/>
<path d="M122.938 173.807H126.488V144.631H122.938V173.807Z" fill="#2AD482"/>
<path opacity="0.6" d="M122.938 173.807H126.488V144.631H122.938V173.807Z" fill="white"/>
<path d="M144.083 173.807H148.814V144.631H144.083V173.807Z" fill="#2AD482"/>
<path opacity="0.1" d="M144.083 173.807H148.814V144.631H144.083V173.807Z" fill="white"/>
<path d="M141.722 173.807H144.083V144.631H141.722V173.807Z" fill="#2AD482"/>
<path opacity="0.6" d="M141.722 173.807H144.083V144.631H141.722V173.807Z" fill="white"/>
<path d="M108.214 218.364H59.2507V258.942H108.214V218.364Z" fill="#2AD482"/>
<path opacity="0.2" d="M108.214 218.364H59.2507V258.942H108.214V218.364Z" fill="white"/>
<path d="M152.423 218.364H108.213V258.942H152.423V218.364Z" fill="#2AD482"/>
<path opacity="0.1" d="M152.423 218.364H108.213V258.942H152.423V218.364Z" fill="white"/>
<path d="M57.4275 48.8313V260.773H159.007V48.8313H57.4275ZM155.353 52.5216V90.5243H61.0809V52.4847L155.353 52.5216ZM61.0809 173.807V135.826H155.353V173.837L61.0809 173.807ZM155.353 177.497V215.463H61.0809V177.46L155.353 177.497ZM61.0809 132.136V94.1408H155.353V132.136H61.0809ZM61.0809 257.112V219.117H155.353V257.119L61.0809 257.112Z" fill="#2AD482"/>
<path opacity="0.6" d="M57.4275 48.8313V260.773H159.007V48.8313H57.4275ZM155.353 52.5216V90.5243H61.0809V52.4847L155.353 52.5216ZM61.0809 173.807V135.826H155.353V173.837L61.0809 173.807ZM155.353 177.497V215.463H61.0809V177.46L155.353 177.497ZM61.0809 132.136V94.1408H155.353V132.136H61.0809ZM61.0809 257.112V219.117H155.353V257.119L61.0809 257.112Z" fill="white"/>
<path d="M104.391 236.38H102.737C102.156 236.413 101.609 236.667 101.209 237.091C100.809 237.514 100.586 238.074 100.586 238.657C100.586 239.239 100.809 239.799 101.209 240.223C101.609 240.646 102.156 240.9 102.737 240.934H104.391C104.972 240.9 105.519 240.646 105.919 240.223C106.319 239.799 106.542 239.239 106.542 238.657C106.542 238.074 106.319 237.514 105.919 237.091C105.519 236.667 104.972 236.413 104.391 236.38Z" fill="#2AD482"/>
<path opacity="0.2" d="M104.391 236.38H102.737C102.156 236.413 101.609 236.667 101.209 237.091C100.809 237.514 100.586 238.074 100.586 238.657C100.586 239.239 100.809 239.799 101.209 240.223C101.609 240.646 102.156 240.9 102.737 240.934H104.391C104.972 240.9 105.519 240.646 105.919 240.223C106.319 239.799 106.542 239.239 106.542 238.657C106.542 238.074 106.319 237.514 105.919 237.091C105.519 236.667 104.972 236.413 104.391 236.38Z" fill="black"/>
<path d="M106.664 238.653C106.664 239.103 106.531 239.542 106.281 239.916C106.031 240.29 105.676 240.581 105.261 240.753C104.845 240.925 104.388 240.97 103.947 240.883C103.506 240.795 103.101 240.578 102.783 240.26C102.465 239.942 102.249 239.537 102.161 239.096C102.073 238.656 102.118 238.198 102.29 237.783C102.463 237.368 102.754 237.013 103.128 236.763C103.502 236.513 103.941 236.38 104.391 236.38C104.994 236.38 105.572 236.619 105.998 237.046C106.424 237.472 106.664 238.05 106.664 238.653Z" fill="#2AD482"/>
<path d="M113.971 236.38H112.317C111.736 236.413 111.189 236.667 110.789 237.091C110.389 237.514 110.167 238.074 110.167 238.657C110.167 239.239 110.389 239.799 110.789 240.223C111.189 240.646 111.736 240.9 112.317 240.934H113.971C114.552 240.9 115.099 240.646 115.499 240.223C115.899 239.799 116.122 239.239 116.122 238.657C116.122 238.074 115.899 237.514 115.499 237.091C115.099 236.667 114.552 236.413 113.971 236.38Z" fill="#2AD482"/>
<path opacity="0.2" d="M113.971 236.38H112.317C111.736 236.413 111.189 236.667 110.789 237.091C110.389 237.514 110.167 238.074 110.167 238.657C110.167 239.239 110.389 239.799 110.789 240.223C111.189 240.646 111.736 240.9 112.317 240.934H113.971C114.552 240.9 115.099 240.646 115.499 240.223C115.899 239.799 116.122 239.239 116.122 238.657C116.122 238.074 115.899 237.514 115.499 237.091C115.099 236.667 114.552 236.413 113.971 236.38Z" fill="black"/>
<path d="M116.244 238.653C116.244 239.103 116.111 239.542 115.861 239.916C115.611 240.29 115.256 240.581 114.841 240.753C114.425 240.925 113.968 240.97 113.527 240.883C113.086 240.795 112.681 240.578 112.363 240.26C112.045 239.942 111.829 239.537 111.741 239.096C111.653 238.656 111.698 238.198 111.871 237.783C112.043 237.368 112.334 237.013 112.708 236.763C113.082 236.513 113.521 236.38 113.971 236.38C114.574 236.38 115.152 236.619 115.578 237.046C116.004 237.472 116.244 238.05 116.244 238.653Z" fill="#2AD482"/>
</g>
</svg>
