<svg width="687" height="340" viewBox="0 0 687 340" fill="none" xmlns="http://www.w3.org/2000/svg">
<g opacity="0.3">
<path d="M623.114 251.772H457.633C454.674 251.772 452.266 249.364 452.266 246.405V5.36686C452.266 2.40784 454.674 -3.05176e-05 457.633 -3.05176e-05H623.114C626.073 -3.05176e-05 628.48 2.40692 628.48 5.36686V246.404C628.48 249.364 626.073 251.771 623.114 251.771V251.772ZM457.633 0.228854C454.8 0.228854 452.495 2.53418 452.495 5.36686V246.404C452.495 249.237 454.801 251.542 457.633 251.542H623.114C625.947 251.542 628.252 249.236 628.252 246.404V5.36686C628.252 2.53418 625.946 0.228854 623.114 0.228854H457.633Z" fill="#E0E0E0"/>
<path d="M432.289 251.772H266.808C263.849 251.772 261.441 249.364 261.441 246.405V5.36686C261.441 2.40784 263.848 -3.05176e-05 266.808 -3.05176e-05H432.289C435.248 -3.05176e-05 437.656 2.40692 437.656 5.36686V246.404C437.656 249.364 435.248 251.771 432.289 251.771V251.772ZM266.809 0.228854C263.977 0.228854 261.671 2.53418 261.671 5.36686V246.404C261.671 249.237 263.977 251.542 266.809 251.542H432.29C435.124 251.542 437.428 249.236 437.428 246.404V5.36686C437.428 2.53418 435.123 0.228854 432.29 0.228854H266.809Z" fill="#E0E0E0"/>
<path d="M241.588 251.772H76.1079C73.1488 251.772 70.741 249.364 70.741 246.405V5.36686C70.741 2.40784 73.1479 -3.05176e-05 76.1079 -3.05176e-05H241.588C244.547 -3.05176e-05 246.955 2.40692 246.955 5.36686V246.404C246.955 249.364 244.547 251.771 241.588 251.771V251.772ZM76.1079 0.228854C73.2752 0.228854 70.9699 2.53418 70.9699 5.36686V246.404C70.9699 249.237 73.2752 251.542 76.1079 251.542H241.588C244.422 251.542 246.726 249.236 246.726 246.404V5.36686C246.726 2.53418 244.422 0.228854 241.588 0.228854H76.1079Z" fill="#E0E0E0"/>
<path d="M686.655 316.573H0V316.683H686.655V316.573Z" fill="#E0E0E0"/>
<path d="M655.727 334.577H604.705V334.963H655.727V334.577Z" fill="#EBEBEB"/>
<path d="M472.908 338.758H459.516V339.143H472.908V338.758Z" fill="#EBEBEB"/>
<path d="M110.032 322.861H43.4956V323.246H110.032V322.861Z" fill="#EBEBEB"/>
<path d="M133.501 322.861H123.746V323.246H133.501V322.861Z" fill="#EBEBEB"/>
<path d="M309.509 329.365H165.208V329.751H309.509V329.365Z" fill="#EBEBEB"/>
<path d="M611.059 12.1915H459.879V179.48H611.059V12.1915Z" fill="#E6E6E6"/>
<path d="M604.802 18.8179H466.532V173.198H604.802V18.8179Z" fill="#F5F5F5"/>
<path d="M505.61 18.8179L466.532 165.17V85.9389L484.413 18.8179H505.61Z" fill="white"/>
<path d="M523.074 18.8179L481.861 173.197H474.089L515.302 18.8179H523.074Z" fill="white"/>
<path d="M604.802 60.9169V140.161L596.049 173.198H574.852L604.802 60.9169Z" fill="white"/>
<path d="M538.154 12.1916H532.784V179.48H538.154V12.1916Z" fill="#E6E6E6"/>
<path d="M608.158 46.1361H462.504V51.5058H608.158V46.1361Z" fill="#E6E6E6"/>
<path d="M121.607 62.4527H115.297V316.574H121.607V62.4527Z" fill="#E0E0E0"/>
<path d="M151.404 316.574H145.081L120.372 62.4527H126.694L151.404 316.574Z" fill="#E6E6E6"/>
<path d="M98.6256 238.185H80.4119V256.399H98.6256V238.185Z" fill="#E0E0E0"/>
<path d="M110.271 192.137L116.667 170.886L120.026 171.737L113.222 193.236L110.271 192.137Z" fill="#E0E0E0"/>
<path d="M96.1071 180.159L86.9316 182.369L84.2527 191.408L90.7475 198.249L99.9221 196.052L102.602 187.013L96.1071 180.159Z" fill="#E0E0E0"/>
<path d="M106.863 192.384C105.645 192.378 104.659 191.392 104.653 190.174V186.038C104.659 184.822 105.647 183.839 106.863 183.839C108.077 183.839 109.061 184.824 109.061 186.038V190.174C109.061 191.39 108.079 192.378 106.863 192.384Z" fill="#E0E0E0"/>
<path d="M116.667 189.21H78.5469V206.473H116.667V189.21Z" fill="#E6E6E6"/>
<path d="M106.949 43.1019L101.577 59.0571H111.506L106.949 43.1019Z" fill="#E0E0E0"/>
<path d="M125.682 59.0571H106.949L101.577 33.0008H120.297L125.682 59.0571Z" fill="#E6E6E6"/>
<path d="M92.3964 139.13L87.0249 155.085H96.953L92.3964 139.13Z" fill="#E0E0E0"/>
<path d="M111.129 155.085H92.3964L87.0249 129.03H105.745L111.129 155.085Z" fill="#E6E6E6"/>
<path d="M147.687 103.894H61.605V109.427H147.687V103.894Z" fill="#E0E0E0"/>
<path d="M147.687 154.721H61.605V160.253H147.687V154.721Z" fill="#E0E0E0"/>
<path d="M147.687 205.56H61.605V211.092H147.687V205.56Z" fill="#E0E0E0"/>
<path d="M147.699 205.56H89.031V211.092H147.699V205.56Z" fill="#F0F0F0"/>
<path d="M147.687 256.386H61.605V261.919H147.687V256.386Z" fill="#E0E0E0"/>
<path d="M147.699 256.386H89.031V261.919H147.699V256.386Z" fill="#F0F0F0"/>
<path d="M67.9149 62.4527H61.605V316.574H67.9149V62.4527Z" fill="#E0E0E0"/>
<path d="M97.7248 316.574H91.4021L66.6926 62.4527H73.0153L97.7248 316.574Z" fill="#E6E6E6"/>
<path d="M147.687 58.18H61.605V63.7117H147.687V58.18Z" fill="#E0E0E0"/>
<path d="M147.699 58.18H89.031V63.7117H147.699V58.18Z" fill="#F0F0F0"/>
<path d="M79.7628 49.3999C78.7612 46.9701 78.8509 44.2262 80.01 41.8668C81.9985 38.1626 82.579 37.2489 81.245 36.4826C79.9111 35.7172 79.4048 39.4709 79.4048 39.4709C78.7731 37.7753 78.7081 35.9213 79.2199 34.1855C80.097 31.481 80.6527 27.0726 79.4424 26.6039C78.232 26.1351 79.2199 32.099 78.2073 34.136C77.6754 32.7041 77.3311 31.21 77.1828 29.6902C77.0473 27.5167 77.2689 24.0596 76.3185 23.1697C75.3673 22.2807 74.763 22.8859 75.6886 27.6769C76.2499 30.5251 76.5593 33.4182 76.6152 36.3205C76.6152 36.3205 74.5534 30.0353 73.17 29.8504C71.7866 29.6654 71.7866 31.7025 72.9722 33.4686C74.1579 35.2347 76.4421 38.4079 76.8248 40.0257C76.8248 40.0257 74.5525 35.296 72.5273 36.7536C70.5021 38.2111 74.2934 41.0511 75.9853 42.0884C77.6772 43.1257 78.8628 49.5968 78.8628 49.5968L79.7646 49.399L79.7628 49.3999Z" fill="#E0E0E0"/>
<path d="M78.3923 50.8941C79.3619 48.4551 79.2401 45.7176 78.0591 43.3739C76.0211 39.6696 75.4406 38.7925 76.7004 38.0143C77.9602 37.2361 78.5773 40.9779 78.5773 40.9779C79.1852 39.2704 79.2282 37.4137 78.7008 35.6806C77.7871 32.9889 77.182 28.5925 78.3795 28.1109C79.577 27.6293 78.6761 33.5932 79.7382 35.6183C80.2536 34.1809 80.5823 32.6822 80.7141 31.1606C80.8249 28.9871 80.5658 25.53 81.5042 24.6282C82.4427 23.7264 83.0597 24.3197 82.1836 29.1354C81.659 31.9873 81.3825 34.8795 81.3559 37.779C81.3559 37.779 83.3436 31.4691 84.7269 31.2585C86.1103 31.0489 86.135 33.0988 84.9613 34.8767C83.7885 36.6547 81.5528 39.8161 81.257 41.4952C81.257 41.4952 83.4552 36.7289 85.5051 38.1489C87.555 39.5689 83.7885 42.483 82.1094 43.5332C80.4303 44.5833 79.3188 51.091 79.3188 51.091L78.3932 50.8932L78.3923 50.8941Z" fill="#EBEBEB"/>
<path d="M86.1962 48.1777H72.2178L73.354 58.18H85.0729L86.1962 48.1777Z" fill="#E0E0E0"/>
<path d="M110.888 99.4488V103.277H111.506V103.894H82.8947C81.4967 103.894 80.3633 102.76 80.3633 101.362C80.3633 99.9643 81.4967 98.8308 82.8947 98.8308H111.506V99.4479L110.888 99.4488Z" fill="#E0E0E0"/>
<path opacity="0.3" d="M110.888 99.4488V103.277H111.506V103.894H97.0583C95.6603 103.894 94.5269 102.76 94.5269 101.362C94.5269 99.9643 95.6603 98.8308 97.0583 98.8308H111.506V99.4479H110.889L110.888 99.4488Z" fill="white"/>
<path d="M110.888 99.4486V103.276H97.0582C95.9943 103.297 95.1154 102.452 95.0953 101.388V101.363C95.0879 100.313 95.9339 99.4559 96.984 99.4486H110.888Z" fill="white"/>
<path d="M113.963 94.3853V98.2132H114.58V98.8302H85.9685C84.5704 98.8302 83.437 97.6968 83.437 96.2988C83.437 94.9007 84.5704 93.7673 85.9685 93.7673H114.58V94.3844L113.963 94.3853Z" fill="#E0E0E0"/>
<path d="M113.963 94.3853V98.2132H114.58V98.8302H100.132C98.7338 98.8302 97.6003 97.6968 97.6003 96.2988C97.6003 94.9007 98.7338 93.7673 100.132 93.7673H114.58V94.3844L113.963 94.3853Z" fill="#E6E6E6"/>
<path d="M113.963 94.3856V98.2135H100.133C99.0789 98.2071 98.2256 97.3538 98.2183 96.2991C98.2119 95.249 99.0569 94.3921 100.108 94.3847C100.116 94.3847 100.124 94.3847 100.133 94.3847L113.963 94.3856Z" fill="white"/>
<path d="M110.097 89.3229V93.1507H110.715V93.7678H82.103C80.705 93.7678 79.5715 92.6344 79.5715 91.2363C79.5715 89.8383 80.705 88.7049 82.103 88.7049H110.715V89.3219H110.097V89.3229Z" fill="#E0E0E0"/>
<path d="M110.097 89.3229V93.1507H110.714V93.7678H96.3286C94.9306 93.7678 93.7971 92.6344 93.7971 91.2363C93.7971 89.8383 94.9306 88.7049 96.3286 88.7049H110.777V89.3219H110.097V89.3229Z" fill="#E6E6E6"/>
<path d="M110.098 89.323V93.1509H96.3287C95.2648 93.1784 94.3804 92.3379 94.353 91.275V91.2493C94.3383 90.1992 95.1779 89.3358 96.228 89.3212C96.2619 89.3212 96.2948 89.3212 96.3287 89.3221H110.098V89.323Z" fill="white"/>
<path d="M115.259 230.245C118.724 230.245 121.532 233.053 121.532 236.518V245.768C121.532 249.232 118.724 252.041 115.259 252.041C111.795 252.041 108.986 249.232 108.986 245.768V236.518C108.986 233.053 111.795 230.245 115.259 230.245Z" fill="#E6E6E6"/>
<path d="M116.766 246.41H113.729V256.4H116.766V246.41Z" fill="#E6E6E6"/>
<path d="M120.001 255.448H110.505V256.387H120.001V255.448Z" fill="#E6E6E6"/>
<path d="M620.291 291.277C620.275 290.784 618.616 241.801 610.649 234.054C602.899 226.521 594.005 233.774 593.631 234.085L592.832 233.128C592.933 233.043 602.97 224.849 611.517 233.16C619.842 241.256 621.471 289.201 621.536 291.238L620.291 291.277Z" fill="#E0E0E0"/>
<path d="M620.975 300.904C620.917 300.318 615.53 242.1 636.791 217.7L637.731 218.518C616.823 242.514 622.161 300.203 622.216 300.782L620.976 300.904H620.975Z" fill="#E0E0E0"/>
<path d="M620.188 294.745L618.944 294.663C618.988 294.003 623.105 228.477 607.51 214.133L608.354 213.215C624.387 227.962 620.368 292.025 620.189 294.746L620.188 294.745Z" fill="#E0E0E0"/>
<path d="M622.219 294.71L620.972 294.7C620.988 292.895 621.487 250.44 633.546 243.529C636.227 241.991 638.852 241.736 641.349 242.767C648.642 245.784 652.255 258.762 652.406 259.312L651.202 259.641C651.168 259.512 647.599 246.701 640.872 243.919C638.751 243.044 636.495 243.275 634.167 244.609C622.724 251.167 622.224 294.274 622.22 294.709L622.219 294.71Z" fill="#E0E0E0"/>
<path d="M617.523 294.74L616.278 294.669C616.297 294.334 618.098 261.119 609.133 249.417C606.962 246.583 604.604 245.23 602.113 245.405C596.24 245.815 591.314 254.41 591.266 254.497L590.18 253.884C590.393 253.507 595.482 244.621 602.024 244.162C604.951 243.954 607.68 245.47 610.124 248.661C619.369 260.73 617.603 293.359 617.523 294.742L617.523 294.74Z" fill="#E0E0E0"/>
<path d="M619.488 299.258C619.244 296.036 613.629 220.196 623.509 206.832L624.512 207.573C614.904 220.568 620.673 298.379 620.731 299.164L619.488 299.259V299.258Z" fill="#E0E0E0"/>
<path d="M644.037 250.453C644.037 250.453 638.109 252.638 639.872 257.797C641.634 262.957 660.378 271.447 660.378 271.447C660.378 271.447 668.228 264.252 661.019 252.55C653.81 240.847 644.198 246.761 644.037 250.453Z" fill="#EBEBEB"/>
<path d="M618.267 240.633C618.267 240.633 624.578 240.369 624.937 245.809C625.296 251.249 611.263 266.298 611.263 266.298C611.263 266.298 601.248 262.678 603.399 249.103C605.55 235.528 616.698 237.286 618.267 240.632V240.633Z" fill="#EBEBEB"/>
<path d="M612.923 214.593C612.923 214.593 617.132 214.14 616.793 211.578C616.454 209.014 600.433 202.417 590.981 213.085C590.981 213.085 597.034 223.481 605.782 223.617C614.531 223.754 612.923 214.593 612.923 214.593Z" fill="#EBEBEB"/>
<path d="M620.765 208.367C620.765 208.367 616.955 210.21 615.886 207.855C614.818 205.501 624.926 191.429 638.59 195.483C638.59 195.483 638.952 207.507 631.599 212.25C624.246 216.992 620.765 208.367 620.765 208.367Z" fill="#EBEBEB"/>
<path d="M600.84 248.38C600.84 248.38 603.744 246.035 600.61 244.89C597.475 243.745 582.096 244.07 581.935 259.305C581.935 259.305 599.848 262.281 602.065 256.479C604.283 250.675 600.84 248.379 600.84 248.379L600.84 248.38Z" fill="#EBEBEB"/>
<path d="M637.367 214.21C637.367 214.21 634.463 211.864 637.597 210.72C640.73 209.575 656.111 209.9 656.271 225.135C656.271 225.135 638.358 228.112 636.141 222.309C633.923 216.506 637.367 214.21 637.367 214.21Z" fill="#EBEBEB"/>
<path d="M627.897 226.483C627.897 226.483 627.642 223.632 629.944 224.75C632.245 225.867 640.263 234.517 631.951 242.725C631.951 242.725 620.763 234.44 622.78 230.125C624.797 225.81 627.897 226.484 627.897 226.484V226.483Z" fill="#EBEBEB"/>
<path d="M598.243 230.545C598.243 230.545 599.979 228.27 597.436 227.988C594.894 227.706 583.498 230.747 586.152 242.123C586.152 242.123 600.035 241.079 600.63 236.354C601.225 231.628 598.243 230.545 598.243 230.545Z" fill="#EBEBEB"/>
<path d="M633.89 316.684H605.888L598.439 282.329H640.63L633.89 316.684Z" fill="#F0F0F0"/>
<path d="M643.061 281.832H595.899V291.711H643.061V281.832Z" fill="#E6E6E6"/>
<path d="M237.346 27.4791H193.542V83.6795H237.346V27.4791Z" fill="#E6E6E6"/>
<path d="M235.196 27.4792H183.741V83.6796H235.196V27.4792Z" fill="#F0F0F0"/>
<path d="M230.229 32.4706H188.486V78.687H230.229V32.4706Z" fill="white"/>
<path d="M217.266 47.2376H202.198V63.9206H217.266V47.2376Z" fill="#F0F0F0"/>
<path d="M237.346 106.261H193.542V162.462H237.346V106.261Z" fill="#E6E6E6"/>
<path d="M235.196 106.261H183.741V162.462H235.196V106.261Z" fill="#F0F0F0"/>
<path d="M230.229 111.254H188.486V157.47H230.229V111.254Z" fill="white"/>
<path d="M217.266 126.021H202.198V142.704H217.266V126.021Z" fill="#F0F0F0"/>
<path d="M631.041 333.092C631.041 336.193 502.228 338.706 343.327 338.706C184.427 338.706 55.6135 336.193 55.6135 333.092C55.6135 329.991 184.427 327.478 343.327 327.478C502.228 327.478 631.041 329.992 631.041 333.092Z" fill="#F5F5F5"/>
<path d="M483.144 305.053H464.381L468.847 339.211H479.791L483.144 305.053Z" fill="#50635A"/>
<path d="M427.609 305.053H408.862L413.328 339.211H424.272L427.609 305.053Z" fill="#50635A"/>
<path opacity="0.2" d="M427.609 305.053H408.862L413.328 339.211H424.272L427.609 305.053Z" fill="white"/>
<path d="M498.656 159.823C502.794 160.574 505.63 165.112 504.989 169.961L491.025 303.63H227.546L241.51 169.961C242.203 164.212 246.332 159.886 251.286 159.72H497.365C497.797 159.711 498.23 159.746 498.656 159.824V159.823Z" fill="#50635A"/>
<path opacity="0.6" d="M498.656 159.823C502.794 160.574 505.63 165.112 504.989 169.961L491.025 303.63H227.546L241.51 169.961C242.203 164.212 246.332 159.886 251.286 159.72H497.365C497.797 159.711 498.23 159.746 498.656 159.824V159.823Z" fill="white"/>
<path opacity="0.2" d="M478.373 169.96C479.071 164.215 483.197 159.892 488.149 159.72H497.309C497.761 159.707 498.212 159.741 498.658 159.822C502.796 160.573 505.631 165.113 504.99 169.96L491.026 303.63H464.382L478.373 169.96Z" fill="#3C4D45"/>
<path d="M253.638 305.053H234.875L239.341 339.211H250.285L253.638 305.053Z" fill="#50635A"/>
<path d="M205.608 305.053H186.861L191.327 339.211H202.271L205.608 305.053Z" fill="#50635A"/>
<path opacity="0.2" d="M205.608 305.053H186.861L191.327 339.211H202.271L205.608 305.053Z" fill="white"/>
<path d="M183.471 302.893L184.332 315.473C184.392 316.398 185.068 317.112 185.88 317.109H485.837C486.649 317.112 491.283 317.109 491.283 311.793L492.144 302.894L183.471 302.893Z" fill="#50635A"/>
<path opacity="0.2" d="M183.016 302.893L183.847 315.473C183.905 316.398 184.557 317.112 185.342 317.109H438.539C439.321 317.111 439.969 316.395 440.02 315.473L440.864 302.893H183.016Z" fill="white"/>
<path d="M492.159 304.524C491.894 308.613 488.501 311.793 484.403 311.793H185.274C180.539 311.802 176.587 308.183 176.178 303.466L170.518 238.816C170.28 235.909 168.045 233.564 165.152 233.188L162.813 232.893C158.959 232.4 155.97 229.288 155.632 225.417L154.601 213.622C154.582 213.399 154.571 213.176 154.57 212.953C154.542 208.39 158.218 204.669 162.78 204.641H228.38C238.614 204.606 247.157 212.438 248.011 222.636L252.493 273.873H494.148L492.159 304.524Z" fill="#50635A"/>
<path opacity="0.6" d="M492.408 300.159C492.408 306.252 489.209 311.793 483.115 311.793H185.274C180.539 311.802 176.587 308.183 176.178 303.466L170.518 238.816C170.28 235.909 168.045 233.564 165.152 233.188L162.813 232.893C158.959 232.4 155.97 229.288 155.632 225.417L154.601 213.622C154.582 213.399 154.571 213.176 154.57 212.953C154.542 208.39 158.218 204.669 162.78 204.641H228.38C238.614 204.606 247.157 212.438 248.011 222.636L252.493 273.873H494.148L492.408 300.158V300.159Z" fill="white"/>
<path opacity="0.2" d="M207.129 273.873H252.542L248.059 222.636C247.207 212.438 238.662 204.606 228.428 204.641H182.966C193.2 204.606 201.744 212.438 202.597 222.636L207.128 273.873H207.129Z" fill="#3C4D45"/>
<path d="M506.207 204.726C510.75 205.151 514.088 209.178 513.663 213.721L512.632 225.516C512.292 229.392 509.295 232.506 505.434 232.992L503.111 233.287C500.239 233.659 498.014 235.98 497.762 238.865L492.102 303.516C491.686 308.229 487.738 311.844 483.006 311.843H403.828V273.923H408.965L413.448 222.687C414.3 212.488 422.845 204.656 433.079 204.692H505.418C505.681 204.692 505.945 204.703 506.207 204.727V204.726Z" fill="#50635A"/>
<path opacity="0.6" d="M506.207 204.726C510.75 205.151 514.088 209.178 513.663 213.721L512.632 225.516C512.292 229.392 509.295 232.506 505.434 232.992L503.111 233.287C500.239 233.659 498.014 235.98 497.762 238.865L492.102 303.516C491.686 308.229 487.738 311.844 483.006 311.843H403.828V273.923H408.965L413.448 222.687C414.3 212.488 422.845 204.656 433.079 204.692H505.418C505.681 204.692 505.945 204.703 506.207 204.727V204.726Z" fill="white"/>
<g opacity="0.2">
<path d="M430.853 311.793H483.022C487.754 311.794 491.703 308.179 492.118 303.466L497.778 238.815C498.031 235.931 500.256 233.61 503.128 233.237L505.45 232.942C509.311 232.456 512.309 229.342 512.648 225.466L513.679 213.671C513.699 213.449 513.71 213.225 513.71 213.002C513.738 208.44 510.062 204.718 505.5 204.69H453.315C453.527 204.692 453.739 204.702 453.95 204.72C458.505 205.108 461.883 209.116 461.494 213.671L460.464 225.466C460.124 229.342 457.126 232.456 453.266 232.942L450.943 233.237C448.071 233.614 445.843 235.931 445.577 238.815L439.933 303.466C439.51 308.169 435.576 311.778 430.853 311.793Z" fill="#3C4D45"/>
</g>
<path opacity="0.1" d="M454.003 204.725C458.556 205.14 461.91 209.168 461.494 213.721L460.464 225.516C460.124 229.392 457.126 232.506 453.266 232.992L450.943 233.287C448.071 233.664 445.843 235.98 445.577 238.865L439.933 303.516C439.51 308.225 435.565 311.836 430.837 311.843H403.828V273.923H408.965L413.448 222.687C414.3 212.488 422.845 204.656 433.079 204.692H453.249C453.501 204.692 453.753 204.703 454.003 204.726V204.725Z" fill="white"/>
<path d="M207.129 273.872L278.421 262.1L409.996 261.764L408.915 273.921C408.915 273.921 206.373 273.871 207.129 273.871V273.872Z" fill="#50635A"/>
<path opacity="0.4" d="M207.129 273.873L278.48 262.13L409.996 261.779L408.915 273.921C408.915 273.921 206.373 273.872 207.129 273.872V273.873Z" fill="white"/>
<path d="M271.216 197.318C260.061 193.587 214.466 193.463 203.197 196.83C201.021 219.225 203.899 242.097 211.558 263.255C212.714 266.45 214.167 269.836 217.098 271.556C220.123 273.332 223.912 272.866 227.375 272.306C244.626 269.521 261.734 265.844 278.605 261.295C279.936 239.757 277.422 217.986 271.217 197.319L271.216 197.318Z" fill="#3FF69E"/>
<g opacity="0.3">
<path d="M271.216 197.318C260.061 193.587 214.466 193.463 203.197 196.83C201.021 219.225 203.899 242.097 211.558 263.255C212.714 266.45 214.167 269.836 217.098 271.556C220.123 273.332 223.912 272.866 227.375 272.306C244.626 269.521 261.734 265.844 278.605 261.295C279.936 239.757 277.422 217.986 271.217 197.319L271.216 197.318Z" fill="white"/>
</g>
<path d="M218.284 268.534C218.266 268.534 218.248 268.534 218.229 268.53C217.978 268.501 217.799 268.273 217.829 268.021C220.651 244.558 216.329 220.022 205.662 198.934C205.547 198.709 205.638 198.433 205.864 198.319C206.09 198.204 206.365 198.296 206.479 198.521C217.228 219.769 221.581 244.49 218.739 268.13C218.711 268.363 218.513 268.533 218.285 268.533L218.284 268.534Z" fill="#3FF69E"/>
<path d="M173.561 273.873L175.716 303.466C176.057 308.183 179.352 311.802 183.299 311.793H440.865V273.873H173.561Z" fill="#50635A"/>
<path opacity="0.6" d="M173.561 273.873L175.716 303.466C176.057 308.183 179.352 311.802 183.299 311.793H440.865V273.873H173.561Z" fill="white"/>
<path opacity="0.1" d="M173.561 273.873L175.716 303.466C176.057 308.183 179.352 311.802 183.299 311.793H440.865V273.873H173.561Z" fill="white"/>
<path d="M560.853 203.321C576.389 203.321 588.982 202.709 588.982 201.953C588.982 201.197 576.389 200.584 560.853 200.584C545.318 200.584 532.724 201.197 532.724 201.953C532.724 202.709 545.318 203.321 560.853 203.321Z" fill="#50635A"/>
<path d="M497.616 166.772C497.616 166.772 490.793 168.887 489.014 171.852C487.235 174.818 485.455 178.648 485.455 178.648C485.455 178.648 486.106 170.295 487.337 168.271C488.569 166.245 497.615 166.773 497.615 166.773L497.616 166.772Z" fill="#3FF69E"/>
<path d="M602.686 136.692C602.686 136.692 609.446 133.744 611.281 134.569C613.116 135.393 619.627 138.146 619.627 138.146C619.627 138.146 615.18 128.562 612.271 128.46C609.362 128.358 601.742 133.743 601.742 133.743L602.292 136.494" fill="#3FF69E"/>
<path opacity="0.5" d="M602.686 136.692C602.686 136.692 609.446 133.744 611.281 134.569C613.116 135.393 619.627 138.146 619.627 138.146C619.627 138.146 615.18 128.562 612.271 128.46C609.362 128.358 601.742 133.743 601.742 133.743L602.292 136.494" fill="#3C4D45"/>
<path d="M597.49 129.04C592.641 129.991 587.872 132.197 584.757 136.035C581.719 139.777 580.12 145.094 575.713 147.046C573.096 148.205 569.822 147.957 567.689 149.866C564.577 152.65 566.026 157.64 566.109 161.814C566.21 166.818 563.967 171.524 562.625 176.345C561.283 181.167 561.417 189.258 565.775 193.426C564.85 190.826 565.557 187.756 566.784 185.206C568.192 182.277 570.226 179.64 571.245 176.554C573.144 170.806 575.755 165.993 579.733 161.43C584.6 155.847 590.511 155.571 595.206 149.841C596.854 147.829 597.495 145.206 598.57 142.839C601.338 136.743 606.911 132.473 612.272 128.462C607.333 128.274 602.341 128.089 597.491 129.041L597.49 129.04Z" fill="#3FF69E"/>
<g opacity="0.3">
<path d="M597.49 129.04C592.641 129.991 587.872 132.197 584.757 136.035C581.719 139.777 580.12 145.094 575.713 147.046C573.096 148.205 569.822 147.957 567.689 149.866C564.577 152.65 566.026 157.64 566.109 161.814C566.21 166.818 563.967 171.524 562.625 176.345C561.283 181.167 561.417 189.258 565.775 193.426C564.85 190.826 565.557 187.756 566.784 185.206C568.192 182.277 570.226 179.64 571.245 176.554C573.144 170.806 575.755 165.993 579.733 161.43C584.6 155.847 590.511 155.571 595.206 149.841C596.854 147.829 597.495 145.206 598.57 142.839C601.338 136.743 606.911 132.473 612.272 128.462C607.333 128.274 602.341 128.089 597.491 129.041L597.49 129.04Z" fill="#3C4D45"/>
</g>
<path d="M580.286 158.942C580.246 158.942 580.205 158.935 580.165 158.92C579.988 158.853 579.898 158.655 579.965 158.478C583.614 148.837 590.352 135.753 601.727 128.174C601.885 128.071 602.097 128.11 602.204 128.269C602.308 128.426 602.265 128.64 602.108 128.745C590.886 136.223 584.222 149.173 580.609 158.721C580.557 158.858 580.427 158.942 580.287 158.942H580.286Z" fill="#50635A"/>
<path opacity="0.2" d="M566.3 186.316C566.3 186.316 565.606 170.208 571.344 161.666C577.083 153.124 584.874 146.903 597.262 146.077C597.262 146.077 596.043 151.443 591.101 153.551C586.159 155.66 569.876 181.952 569.876 181.952L566.079 186.917" fill="#3C4D45"/>
<path d="M564.652 178.21C562.39 165.374 560.2 163.496 560.826 155.356C561.452 147.217 562.133 134.679 559.553 127.682C554.604 114.259 553.644 109.97 545.772 98.0231C545.04 96.9107 542.906 95.3708 542.906 95.3708C541.319 98.2154 538.129 103.986 538.527 107.219C539.125 112.074 541.142 113.266 541.466 116.508C541.858 120.433 540.417 124.277 539.116 128.001C536.428 135.697 534.234 144.027 536.26 151.924C538.548 160.842 545.848 167.739 548.591 176.527C550.487 182.603 550.07 189.152 551.263 195.405C552.456 201.659 556.053 208.239 562.24 209.737C562.24 209.737 566.912 191.046 564.652 178.21Z" fill="#3FF69E"/>
<g opacity="0.2">
<path d="M564.652 178.21C562.39 165.374 560.2 163.496 560.826 155.356C561.452 147.217 562.133 134.679 559.553 127.682C554.604 114.259 553.644 109.97 545.772 98.0231C545.04 96.9107 542.906 95.3708 542.906 95.3708C541.319 98.2154 538.129 103.986 538.527 107.219C539.125 112.074 541.142 113.266 541.466 116.508C541.858 120.433 540.417 124.277 539.116 128.001C536.428 135.697 534.234 144.027 536.26 151.924C538.548 160.842 545.848 167.739 548.591 176.527C550.487 182.603 550.07 189.152 551.263 195.405C552.456 201.659 556.053 208.239 562.24 209.737C562.24 209.737 566.912 191.046 564.652 178.21Z" fill="#3C4D45"/>
</g>
<path d="M561.876 209.417C561.723 209.417 561.584 209.315 561.544 209.16C556.501 189.721 552.195 160.306 550.027 130.476C549.25 119.774 546.384 109.306 543.614 99.1828L542.746 96.0031C542.696 95.82 542.804 95.6314 542.987 95.582C543.173 95.5307 543.359 95.6406 543.409 95.8237L544.277 99.0025C547.056 109.158 549.93 119.659 550.712 130.427C552.877 160.218 557.176 189.587 562.209 208.989C562.257 209.172 562.147 209.359 561.962 209.407C561.934 209.415 561.905 209.418 561.876 209.418V209.417Z" fill="#50635A"/>
<path opacity="0.2" d="M535.469 147.941C535.469 147.941 544.49 153.447 547.473 161.839C550.736 171.016 549.405 179.817 549.405 179.817C549.405 179.817 545.937 168.962 542.009 163.88C538.08 158.798 535.463 149.943 535.468 147.942L535.469 147.941Z" fill="#3C4D45"/>
<path d="M613.963 141.582C607.353 142.912 601.353 146.27 595.029 148.608C589.987 150.472 584.621 151.737 580.177 154.762C572.316 160.112 568.815 169.95 567.433 179.358C566.052 188.765 566.278 198.458 563.605 207.583L563.549 209.949C565.631 208.146 567.712 206.344 569.795 204.541C572.254 202.412 574.845 200.075 575.614 196.915C576.101 194.913 575.805 192.727 576.648 190.846C578.416 186.902 583.894 186.466 587.09 183.556C589.392 181.459 590.291 178.284 591.325 175.346C592.359 172.408 593.858 169.306 596.697 168.026C598.505 167.21 600.682 167.234 602.279 166.055C604.437 164.462 604.677 161.409 605.547 158.872C607.253 153.899 611.893 150.381 616.872 148.693C621.852 147.005 627.204 146.871 632.461 146.753C628.296 141.45 620.574 140.253 613.964 141.583L613.963 141.582Z" fill="#3FF69E"/>
<path d="M620.511 147.725C620.511 147.725 628.733 148.339 631.502 151.215C634.27 154.09 637.263 157.938 637.263 157.938C637.263 157.938 634.37 148.711 632.461 146.751C630.552 144.792 620.511 147.725 620.511 147.725Z" fill="#3FF69E"/>
<path d="M546.377 193.556C535.177 176.224 521.016 159.677 503.873 148.19C511.368 147.494 518.369 148.334 525.769 149.708C533.169 151.082 540.464 154.815 544.454 161.197C547.488 166.051 548.353 171.95 548.516 177.671C548.678 183.285 548.231 188.917 547.173 194.433" fill="#3FF69E"/>
<path d="M546.377 193.556C535.177 176.224 521.016 159.677 503.873 148.19C511.368 147.494 518.369 148.334 525.769 149.708C533.169 151.082 540.464 154.815 544.454 161.197C547.488 166.051 548.353 171.95 548.516 177.671C548.678 183.285 548.231 188.917 547.173 194.433" fill="#3FF69E"/>
<g opacity="0.3">
<path d="M546.377 193.556C535.177 176.224 521.016 159.677 503.873 148.19C511.368 147.494 518.369 148.334 525.769 149.708C533.169 151.082 540.464 154.815 544.454 161.197C547.488 166.051 548.353 171.95 548.516 177.671C548.678 183.285 548.231 188.917 547.173 194.433" fill="#3C4D45"/>
</g>
<path d="M475.255 148.667C475.255 148.667 490.478 141.073 497.947 145.173C505.416 149.274 502.283 149.799 512.111 150.955C521.939 152.111 534.867 149.657 542.567 158.4C542.567 158.4 539.717 148.499 526.708 147.198C513.7 145.897 511.822 146.069 506.907 143.959C501.993 141.85 501.27 136.068 491.008 137.803C480.745 139.537 475.253 148.668 475.253 148.668L475.255 148.667Z" fill="#3FF69E"/>
<path opacity="0.2" d="M520.78 161.93C520.78 161.93 531.752 160.013 539.762 166.497C547.772 172.982 549.353 182.861 548.571 183.173C547.789 183.484 520.78 161.93 520.78 161.93Z" fill="#3C4D45"/>
<path d="M501.951 160.313C507.79 160.153 513.508 161.823 519.301 162.569C523.92 163.163 528.696 163.189 533.035 164.88C540.711 167.871 545.577 175.498 548.57 183.172C551.563 190.847 553.254 199.074 557.283 206.26L557.79 208.247C555.682 207.129 553.574 206.011 551.466 204.893C548.977 203.573 546.336 202.103 545.073 199.584C544.273 197.988 544.098 196.085 543.021 194.661C540.763 191.674 536.053 192.369 532.79 190.533C530.439 189.21 529.064 186.703 527.62 184.424C526.176 182.144 524.309 179.816 521.664 179.286C519.978 178.948 518.145 179.391 516.569 178.706C514.437 177.78 513.642 175.249 512.414 173.276C510.008 169.408 505.407 167.34 500.875 166.881C496.343 166.422 491.798 167.349 487.337 168.27C489.825 162.983 496.112 160.474 501.951 160.313Z" fill="#3FF69E"/>
<path opacity="0.3" d="M497.616 166.772C497.616 166.772 490.793 168.887 489.014 171.852C487.235 174.818 485.455 178.648 485.455 178.648C485.455 178.648 486.106 170.295 487.337 168.271C488.569 166.245 497.615 166.773 497.615 166.773L497.616 166.772Z" fill="#3C4D45"/>
<path d="M564.244 207.468C564.195 207.468 564.146 207.458 564.099 207.436C563.927 207.357 563.852 207.152 563.932 206.98C563.995 206.846 570.222 193.383 571.949 183.521L572.16 182.295C573.908 172.161 576.084 159.55 590.458 154.19C597.995 151.38 604.086 148.662 608.98 146.479C613.61 144.412 616.955 142.92 619.031 142.491C623.216 141.623 626.41 142.214 626.543 142.241C626.729 142.276 626.852 142.456 626.816 142.642C626.78 142.828 626.6 142.951 626.415 142.915C626.385 142.91 623.215 142.327 619.171 143.163C617.168 143.577 613.851 145.057 609.261 147.106C604.359 149.293 598.256 152.016 590.699 154.834C576.694 160.056 574.556 172.452 572.838 182.411L572.625 183.639C570.884 193.592 564.619 207.134 564.556 207.271C564.498 207.396 564.374 207.469 564.244 207.469L564.244 207.468Z" fill="#50635A"/>
<path opacity="0.3" d="M620.511 147.725C620.511 147.725 628.733 148.339 631.502 151.215C634.27 154.09 637.263 157.938 637.263 157.938C637.263 157.938 634.37 148.711 632.461 146.751C630.552 144.792 620.511 147.725 620.511 147.725Z" fill="#3C4D45"/>
<path d="M558.434 208.59C558.328 208.59 558.224 208.541 558.155 208.448C558.09 208.357 551.569 199.299 549.323 195.368C546.99 191.286 534.683 174.155 523.811 168.344C513.062 162.599 497.74 161.222 497.586 161.209C497.397 161.192 497.257 161.026 497.273 160.837C497.29 160.649 497.46 160.505 497.644 160.524C497.799 160.538 513.259 161.925 524.134 167.738C535.137 173.619 547.565 190.91 549.918 195.027C552.146 198.927 558.647 207.956 558.713 208.046C558.824 208.201 558.789 208.414 558.635 208.526C558.574 208.569 558.504 208.59 558.434 208.59Z" fill="#50635A"/>
<path d="M560.853 203.321C545.318 203.321 532.724 202.708 532.724 201.952C532.724 201.952 535.785 231.064 560.853 231.262C585.922 231.461 588.982 201.952 588.982 201.952C588.982 202.707 576.388 203.321 560.853 203.321Z" fill="#3FF69E"/>
<path opacity="0.4" d="M560.853 203.321C545.318 203.321 532.724 202.708 532.724 201.952C532.724 201.952 535.785 231.064 560.853 231.262C585.922 231.461 588.982 201.952 588.982 201.952C588.982 202.707 576.388 203.321 560.853 203.321Z" fill="white"/>
<path d="M626.075 227.888H491.768V235.435H626.075V227.888Z" fill="#DD8A46"/>
<path d="M618.812 232.921H499.032V301.776H618.812V232.921Z" fill="#DD8A46"/>
<path d="M509.377 299.987H499.278V339.025H509.377V299.987Z" fill="#DD8A46"/>
<path d="M618.708 299.987H608.609V339.025H618.708V299.987Z" fill="#DD8A46"/>
<path d="M610.699 263.288H507.146V238.993H610.699V263.288ZM507.604 262.83H610.241V239.451H507.604V262.83Z" fill="#50635A"/>
<path d="M610.699 292.94H507.146V268.644H610.699V292.94ZM507.604 292.482H610.241V269.102H507.604V292.482Z" fill="#50635A"/>
<path d="M558.939 283.402C560.419 283.402 561.62 282.202 561.62 280.722C561.62 279.241 560.419 278.041 558.939 278.041C557.458 278.041 556.258 279.241 556.258 280.722C556.258 282.202 557.458 283.402 558.939 283.402Z" fill="#50635A"/>
<path d="M558.939 253.917C560.419 253.917 561.62 252.716 561.62 251.236C561.62 249.755 560.419 248.555 558.939 248.555C557.458 248.555 556.258 249.755 556.258 251.236C556.258 252.716 557.458 253.917 558.939 253.917Z" fill="#50635A"/>
<path d="M413.494 318.143H282.338V328.472H413.494V318.143Z" fill="#DD8A46"/>
<path d="M370.184 291.095L350.969 291.565L331.753 291.095C331.753 291.095 324.834 313.875 328.755 319.749C332.022 324.644 341.917 325.576 349.037 325.75V325.791C349.632 325.791 350.281 325.789 350.97 325.783C351.657 325.789 352.307 325.791 352.902 325.791V325.75C360.022 325.576 369.917 324.644 373.184 319.749C377.105 313.875 370.186 291.095 370.186 291.095H370.184Z" fill="#50635A"/>
<path opacity="0.3" d="M370.184 291.095L350.969 291.565L331.753 291.095C331.753 291.095 324.834 313.875 328.755 319.749C332.022 324.644 341.917 325.576 349.037 325.75V325.791C349.632 325.791 350.281 325.789 350.97 325.783C351.657 325.789 352.307 325.791 352.902 325.791V325.75C360.022 325.576 369.917 324.644 373.184 319.749C377.105 313.875 370.186 291.095 370.186 291.095H370.184Z" fill="white"/>
<path d="M369.848 291.263C369.848 292.085 361.259 292.751 350.666 292.751C340.072 292.751 331.483 292.084 331.483 291.263C331.483 290.442 340.072 289.775 350.666 289.775C361.259 289.775 369.848 290.442 369.848 291.263Z" fill="#50635A"/>
<path d="M341.013 307.956C341.092 308.07 341.336 307.757 341.296 307.616C341.29 307.597 341.279 307.648 341.216 307.587C341.124 307.498 340.885 307.439 340.77 307.38C340.252 307.109 339.759 306.788 339.275 306.46C337.865 305.504 336.533 304.413 335.339 303.196C334.177 302.011 332.993 300.609 332.544 298.974C331.971 296.882 333.422 295.452 334.91 294.167C337.76 291.706 341.969 290.473 345.317 292.725C345.685 292.972 346.028 292.378 345.664 292.131C342.519 290.017 338.452 290.733 335.502 292.833C333.669 294.139 331.407 296.03 331.755 298.529C332.028 300.488 333.419 302.197 334.749 303.573C336.161 305.032 337.777 306.333 339.491 307.422C339.963 307.722 340.531 308.142 341.09 308.267C341.524 308.363 341.907 308.039 341.607 307.609C341.356 307.25 340.76 307.592 341.014 307.956H341.013Z" fill="#50635A"/>
<path d="M353.56 291.89C352.269 284.023 360.336 278.659 366.67 276.221C373.222 273.699 380.66 273.437 387.078 276.506C390.428 278.109 393.339 280.515 395.427 283.594C395.674 283.958 396.269 283.615 396.02 283.247C387.315 270.408 367.786 271.174 357.156 281.164C354.163 283.976 352.215 287.905 352.899 292.071C352.97 292.506 353.632 292.322 353.561 291.889L353.56 291.89Z" fill="#50635A"/>
<path d="M350.293 291.726C350.499 279.83 357.091 268.445 367.304 262.343C367.683 262.117 367.338 261.523 366.957 261.75C356.536 267.977 349.816 279.588 349.606 291.726C349.599 292.168 350.286 292.168 350.293 291.726Z" fill="#50635A"/>
<path d="M348.368 254.647C352.023 255.084 356.48 255.76 358.227 259.504C359.914 263.122 358.327 267.169 356.953 270.598C356.79 271.008 357.453 271.187 357.615 270.78C359.098 267.08 360.673 262.766 358.706 258.925C356.76 255.127 352.177 254.416 348.368 253.96C347.931 253.908 347.935 254.594 348.368 254.647Z" fill="#50635A"/>
<path d="M331.65 266.68C340.596 271.739 346.873 280.977 348.23 291.172C348.288 291.603 348.976 291.61 348.917 291.172C347.526 280.73 341.172 271.277 331.997 266.087C331.611 265.869 331.265 266.462 331.65 266.68Z" fill="#50635A"/>
<path d="M348.214 291.763C343.021 285.32 335.387 281.137 327.176 280.166C326.738 280.114 326.742 280.802 327.176 280.853C335.209 281.802 342.656 285.955 347.728 292.248C348.005 292.592 348.488 292.103 348.213 291.763H348.214Z" fill="#50635A"/>
<path d="M352.015 291.924C353.737 289.324 356.772 287.992 359.838 287.958C363.015 287.922 365.943 289.331 368.214 291.5C373.538 296.587 374.492 304.233 375.108 311.19C375.146 311.627 375.834 311.63 375.794 311.19C375.127 303.656 373.994 295.179 367.684 290.125C362.903 286.296 355.089 286.041 351.422 291.576C351.177 291.946 351.772 292.29 352.015 291.923V291.924Z" fill="#50635A"/>
<path d="M331.678 298.718C326.695 305.568 318.776 310.021 310.336 310.729C309.899 310.765 309.895 311.452 310.336 311.415C319.039 310.686 327.133 306.126 332.271 299.065C332.531 298.707 331.935 298.364 331.677 298.718H331.678Z" fill="#50635A"/>
<path d="M290.246 278.821C288.702 280.061 287.178 281.673 287.134 283.654C287.083 285.878 289.014 287.752 291.144 288.393C293.273 289.033 295.958 289.564 298.159 289.25C294.335 290.764 291.134 292.842 287.839 295.304C286.925 295.987 285.964 296.827 285.85 297.963C285.677 299.681 287.477 300.895 289.089 301.516C299.312 305.453 311.987 301.556 318.233 292.556C320.59 289.159 325.415 282.889 328.798 280.513C318.302 273.991 299.882 271.083 290.246 278.821Z" fill="#3FF69E"/>
<path d="M386.774 275.722C388.612 276.145 390.707 277.815 391.074 279.802C391.441 281.79 390.625 283.822 389.493 285.496C388.36 287.17 386.908 288.608 385.762 290.272C383.342 293.786 382.418 298.443 383.891 302.448C385.363 306.453 389.436 309.52 393.696 309.278C397.956 309.036 401.823 305.084 401.478 300.831C402.917 301.881 404.479 302.842 406.226 303.196C407.973 303.55 409.945 303.204 411.198 301.937C413.453 299.656 412.433 295.794 410.858 293.001C405.751 283.949 397.799 275.685 386.775 275.723" fill="#3FF69E"/>
<path d="M374.458 304.28C370.013 306.377 366.627 310.594 365.54 315.387C364.838 318.484 365.101 321.88 366.73 324.606C368.358 327.33 371.477 329.238 374.64 328.978C377.804 328.718 380.719 326.008 380.791 322.835C382.768 323.623 384.824 324.353 386.953 324.35C389.082 324.348 391.322 323.482 392.458 321.682C394.104 319.074 392.927 315.59 391.165 313.059C387.599 307.933 381.7 304.5 375.48 303.93" fill="#3FF69E"/>
<path d="M313.367 309.437C309.534 306.075 304.4 304.235 299.304 304.399C294.208 304.563 289.203 306.728 285.594 310.33C284.258 311.663 283.041 313.44 283.384 315.295C283.708 317.044 285.381 318.288 287.118 318.667C288.855 319.046 290.659 318.734 292.41 318.422C289.665 319.982 288.996 323.97 290.476 326.759C291.957 329.547 295.042 331.185 298.151 331.734C303.714 332.716 309.785 330.447 313.161 325.918C316.536 321.389 316.931 314.775 313.929 309.99" fill="#3FF69E"/>
<path d="M339.222 306.473C333.455 307.077 329.573 310.849 327.069 316.079C324.565 321.308 324.978 327.825 328.123 332.697C330.355 336.155 334.053 338.817 338.158 339.107C342.264 339.398 346.605 336.934 347.852 333.012C351.012 336.387 356.983 336.077 360.312 332.87C363.642 329.663 364.373 324.334 362.772 319.997C361.172 315.661 357.567 312.281 353.481 310.12C349.395 307.958 344.897 305.343 339.223 306.473" fill="#3FF69E"/>
<path d="M298.545 289.652C303.644 288.071 308.543 285.93 313.587 284.195C318.408 282.537 323.426 280.993 328.574 281.047C329.016 281.051 329.016 280.364 328.574 280.36C323.498 280.307 318.544 281.779 313.784 283.402C308.608 285.168 303.589 287.368 298.363 288.989C297.942 289.12 298.122 289.784 298.545 289.652Z" fill="#50635A"/>
<path opacity="0.2" d="M305.271 286.267C300.601 282.973 295.277 280.694 289.67 279.589C289.238 279.504 289.053 280.165 289.487 280.251C295.044 281.346 300.297 283.595 304.925 286.859C305.287 287.114 305.63 286.519 305.272 286.266L305.271 286.267Z" fill="#3C4D45"/>
<path opacity="0.2" d="M315.458 282.716C312.081 279.074 307.91 276.253 303.284 274.45C302.872 274.29 302.693 274.954 303.102 275.112C307.616 276.871 311.679 279.65 314.972 283.201C315.274 283.526 315.758 283.039 315.458 282.716Z" fill="#3C4D45"/>
<path opacity="0.2" d="M304.725 287.44C301.126 293.933 294.941 298.783 287.776 300.724C287.351 300.839 287.531 301.502 287.958 301.386C295.288 299.399 301.636 294.43 305.318 287.786C305.532 287.399 304.94 287.053 304.725 287.439V287.44Z" fill="#3C4D45"/>
<path opacity="0.2" d="M314.444 283.112C311.774 290.203 307.777 296.733 302.682 302.34C302.386 302.667 302.87 303.153 303.167 302.825C308.346 297.127 312.393 290.499 315.106 283.294C315.262 282.88 314.599 282.701 314.444 283.112Z" fill="#3C4D45"/>
<path opacity="0.2" d="M320.424 281.823C320.529 283.654 320.325 285.479 319.813 287.241C319.689 287.666 320.352 287.848 320.475 287.423C321.002 285.608 321.218 283.711 321.111 281.823C321.086 281.384 320.399 281.381 320.424 281.823Z" fill="#3C4D45"/>
<path d="M292.033 318.439C298.52 314.149 306.008 311.579 313.767 311.005C314.204 310.973 314.208 310.285 313.767 310.318C305.889 310.901 298.276 313.488 291.687 317.846C291.319 318.089 291.663 318.684 292.034 318.439H292.033Z" fill="#50635A"/>
<path opacity="0.2" d="M299.285 314.039C294.817 311.595 289.672 310.584 284.613 311.181C284.179 311.232 284.175 311.918 284.613 311.867C289.556 311.284 294.57 312.243 298.939 314.632C299.327 314.845 299.673 314.251 299.285 314.039Z" fill="#3C4D45"/>
<path opacity="0.2" d="M298.852 314.82C298.959 320.102 299.018 325.702 296.081 330.326C295.843 330.701 296.437 331.045 296.674 330.673C299.676 325.946 299.648 320.222 299.538 314.82C299.529 314.379 298.842 314.377 298.852 314.82Z" fill="#3C4D45"/>
<path opacity="0.2" d="M304.556 312.717C307.73 318.023 308.189 324.712 305.725 330.389C305.552 330.79 306.143 331.14 306.319 330.736C308.882 324.829 308.458 317.904 305.15 312.37C304.923 311.991 304.329 312.336 304.556 312.717Z" fill="#3C4D45"/>
<path opacity="0.2" d="M305.609 311.549C302.29 308.532 298.124 306.612 293.68 306.027C293.243 305.97 293.247 306.657 293.68 306.714C297.931 307.274 301.952 309.152 305.124 312.034C305.45 312.331 305.937 311.846 305.609 311.549Z" fill="#3C4D45"/>
<path opacity="0.2" d="M310.761 311.679C313.318 313.943 314.413 317.597 313.503 320.892C313.385 321.319 314.048 321.501 314.165 321.074C315.137 317.557 313.981 313.615 311.247 311.194C310.917 310.902 310.43 311.386 310.762 311.679H310.761Z" fill="#3C4D45"/>
<path d="M348.093 333.072C348.3 328.269 348.666 323.367 347.57 318.639C346.367 313.45 343.255 309.292 338.945 306.232C338.584 305.976 338.241 306.571 338.598 306.825C342.943 309.911 345.954 314.149 347.033 319.398C347.957 323.892 347.601 328.526 347.405 333.073C347.386 333.515 348.073 333.514 348.092 333.073L348.093 333.072Z" fill="#50635A"/>
<path opacity="0.2" d="M346.674 322.335C339.881 324.375 334.531 330.293 333.217 337.269C333.136 337.701 333.798 337.886 333.879 337.451C335.149 330.706 340.277 324.973 346.856 322.997C347.278 322.869 347.099 322.206 346.674 322.335Z" fill="#3C4D45"/>
<path opacity="0.2" d="M347.856 323.243C353.288 323.471 358.476 325.888 362.161 329.882C362.461 330.208 362.946 329.721 362.646 329.397C358.84 325.27 353.464 322.791 347.856 322.556C347.414 322.538 347.415 323.224 347.856 323.243Z" fill="#3C4D45"/>
<path opacity="0.2" d="M346.345 314.765C349.89 313.537 353.674 313.179 357.38 313.78C357.812 313.849 357.998 313.188 357.562 313.118C353.733 312.497 349.829 312.833 346.162 314.103C345.747 314.247 345.927 314.91 346.345 314.765Z" fill="#3C4D45"/>
<path opacity="0.2" d="M345.491 314.091C341.479 314.395 337.139 315.496 333.773 317.772C330.177 320.201 327.663 324.234 326.556 328.38C326.441 328.807 327.104 328.99 327.218 328.562C328.296 324.521 330.77 320.53 334.332 318.224C337.572 316.125 341.67 315.067 345.49 314.778C345.928 314.745 345.931 314.057 345.49 314.091H345.491Z" fill="#3C4D45"/>
<path d="M401.861 301.358C403.538 295.378 402.537 288.706 398.959 283.593C395.623 278.827 390.417 276.477 385.008 274.853C384.585 274.726 384.403 275.389 384.826 275.515C390.048 277.082 395.142 279.33 398.366 283.939C401.844 288.911 402.831 295.358 401.2 301.175C401.08 301.6 401.743 301.783 401.862 301.357L401.861 301.358Z" fill="#50635A"/>
<path d="M374.949 304.282C379.84 309.254 377.538 317.253 380.862 323.005C381.083 323.387 381.677 323.042 381.455 322.658C378.086 316.828 380.433 308.878 375.436 303.796C375.125 303.48 374.64 303.966 374.95 304.281L374.949 304.282Z" fill="#50635A"/>
<path opacity="0.2" d="M368.684 326.184C370.908 322.078 374.584 318.842 378.953 317.185C379.362 317.031 379.185 316.366 378.771 316.524C374.233 318.243 370.404 321.568 368.091 325.837C367.881 326.226 368.473 326.573 368.684 326.184Z" fill="#3C4D45"/>
<path opacity="0.2" d="M379.267 317.019C383.664 317.662 387.763 319.696 390.919 322.827C391.233 323.139 391.719 322.653 391.404 322.342C388.172 319.135 383.956 317.015 379.449 316.357C379.017 316.294 378.83 316.956 379.267 317.019Z" fill="#3C4D45"/>
<path opacity="0.2" d="M378.601 311.441C382.06 310.689 385.638 310.678 389.101 311.41C389.532 311.502 389.716 310.84 389.283 310.748C385.696 309.99 382 310 378.417 310.78C377.986 310.874 378.168 311.536 378.6 311.441H378.601Z" fill="#3C4D45"/>
<path opacity="0.2" d="M365.83 319.842C368.325 315.259 373.187 312.179 378.403 311.909C378.842 311.887 378.845 311.2 378.403 311.223C372.95 311.504 367.849 314.695 365.236 319.495C365.025 319.883 365.618 320.23 365.83 319.842Z" fill="#3C4D45"/>
<path opacity="0.2" d="M370.819 307.098C372.703 306.393 374.821 306.44 376.656 307.278C377.055 307.461 377.404 306.869 377.003 306.685C375.004 305.771 372.701 305.662 370.637 306.435C370.227 306.589 370.405 307.254 370.819 307.098Z" fill="#3C4D45"/>
<path opacity="0.2" d="M377.637 306.691C377.695 306.6 377.755 306.512 377.819 306.426C377.821 306.423 377.884 306.342 377.842 306.393C377.859 306.372 377.875 306.351 377.893 306.331C377.927 306.29 377.961 306.248 377.996 306.208C378.14 306.043 378.297 305.889 378.463 305.746C378.504 305.711 378.546 305.677 378.587 305.643C378.634 305.605 378.577 305.651 378.606 305.628C378.627 305.611 378.649 305.596 378.67 305.58C378.756 305.517 378.845 305.457 378.936 305.4C379.126 305.28 379.325 305.175 379.531 305.086C379.696 305.013 379.747 304.76 379.654 304.616C379.544 304.445 379.361 304.416 379.185 304.492C378.307 304.878 377.561 305.536 377.046 306.344C376.949 306.496 377.009 306.729 377.17 306.813C377.339 306.903 377.536 306.852 377.639 306.69L377.637 306.691Z" fill="#3C4D45"/>
<path opacity="0.2" d="M401.907 293.568C395.211 295.29 389.721 300.687 387.878 307.349C387.76 307.776 388.422 307.958 388.54 307.531C390.32 301.093 395.621 295.893 402.09 294.229C402.517 294.12 402.336 293.457 401.907 293.568H401.907Z" fill="#3C4D45"/>
<path opacity="0.2" d="M402.749 294.271C406.714 294.43 410.198 297.054 411.437 300.822C411.575 301.239 412.238 301.061 412.099 300.64C410.762 296.573 407.029 293.756 402.749 293.585C402.307 293.567 402.308 294.254 402.749 294.271Z" fill="#3C4D45"/>
<path opacity="0.2" d="M383.839 297.455C386.844 291.399 392.558 286.926 399.159 285.465C399.59 285.369 399.408 284.707 398.977 284.803C392.217 286.299 386.324 290.908 383.247 297.109C383.051 297.504 383.643 297.852 383.84 297.456L383.839 297.455Z" fill="#3C4D45"/>
<path opacity="0.2" d="M400.18 285.322C401.944 285.018 403.758 285.187 405.444 285.781C405.862 285.928 406.041 285.265 405.626 285.119C403.82 284.482 401.883 284.334 399.998 284.66C399.563 284.735 399.748 285.397 400.18 285.322Z" fill="#3C4D45"/>
<path opacity="0.2" d="M392.474 278.404C391.76 279.191 391.268 280.17 391.088 281.219C391.057 281.401 391.137 281.589 391.328 281.641C391.493 281.686 391.719 281.585 391.75 281.401C391.911 280.466 392.321 279.594 392.959 278.89C393.083 278.752 393.094 278.54 392.959 278.404C392.833 278.278 392.598 278.266 392.474 278.404Z" fill="#3C4D45"/>
<path opacity="0.2" d="M393.672 278.558C394.118 278.519 394.565 278.47 395.013 278.473C395.462 278.475 395.844 278.538 396.283 278.631C396.465 278.67 396.654 278.577 396.705 278.391C396.752 278.22 396.648 278.008 396.465 277.969C395.999 277.87 395.526 277.792 395.049 277.787C394.589 277.782 394.13 277.832 393.672 277.872C393.487 277.889 393.329 278.019 393.329 278.215C393.329 278.389 393.486 278.574 393.672 278.558Z" fill="#3C4D45"/>
<path d="M364.17 263.851C364.17 257.996 368.216 251.511 373.539 249.074C374.832 248.483 376.254 248.06 377.665 248.234C379.076 248.408 380.465 249.287 380.92 250.633C381.375 251.98 380.6 253.709 379.208 253.995C381.26 254.014 383.343 254.268 385.226 255.084C387.11 255.899 388.787 257.326 389.594 259.213C390.402 261.1 390.214 263.458 388.87 265.01C387.601 266.476 385.582 267.022 383.665 267.313C377.022 268.319 370.06 267.083 364.17 263.851Z" fill="#3FF69E"/>
<path opacity="0.2" d="M375.817 255.825C379.158 258.778 384.076 259.521 388.146 257.711C388.549 257.532 388.2 256.94 387.799 257.118C384.028 258.795 379.392 258.069 376.303 255.339C375.973 255.047 375.485 255.532 375.817 255.825Z" fill="#3C4D45"/>
<path opacity="0.2" d="M370.984 258.413C375.231 263.151 381.452 265.877 387.814 265.799C388.255 265.794 388.257 265.107 387.814 265.113C381.622 265.188 375.602 262.537 371.469 257.928C371.174 257.598 370.689 258.085 370.984 258.413Z" fill="#3C4D45"/>
<path opacity="0.2" d="M367.304 261.029C367.34 263.129 368.616 265.137 370.524 266.03C370.922 266.216 371.271 265.624 370.871 265.437C369.179 264.645 368.024 262.903 367.991 261.029C367.984 260.588 367.297 260.586 367.305 261.029H367.304Z" fill="#3C4D45"/>
<path opacity="0.2" d="M371.361 257.183C370.938 254.822 371.493 252.364 372.847 250.391C373.098 250.026 372.503 249.683 372.254 250.044C370.791 252.175 370.244 254.827 370.699 257.365C370.776 257.799 371.438 257.615 371.36 257.183H371.361Z" fill="#3C4D45"/>
<path opacity="0.2" d="M376.105 254.804C376.22 252.571 377.503 250.478 379.428 249.347C379.809 249.124 379.464 248.529 379.081 248.754C376.942 250.01 375.545 252.328 375.417 254.803C375.394 255.244 376.081 255.243 376.104 254.803L376.105 254.804Z" fill="#3C4D45"/>
<path d="M379.778 253.728C373.277 255.275 367.405 259.011 363.262 264.256C362.991 264.599 363.474 265.088 363.748 264.741C367.825 259.58 373.56 255.913 379.96 254.39C380.389 254.288 380.208 253.626 379.778 253.728Z" fill="#50635A"/>
<path opacity="0.2" d="M367.43 260.127C366.655 259.109 366.571 257.677 367.255 256.59C367.491 256.214 366.897 255.869 366.662 256.243C365.861 257.516 365.921 259.272 366.837 260.474C366.949 260.621 367.132 260.699 367.306 260.597C367.451 260.512 367.543 260.276 367.43 260.127Z" fill="#3C4D45"/>
<path d="M356.609 257.259C356.84 256.104 356.218 254.903 355.302 254.164C354.386 253.426 353.219 253.073 352.066 252.833C346.497 251.673 340.479 252.851 335.76 256.027C335.329 256.317 334.895 256.637 334.642 257.091C334.389 257.545 334.367 258.168 334.724 258.545C335.046 258.884 335.561 258.936 336.028 258.934C337.645 258.928 339.259 258.523 340.688 257.768C340.141 258.138 339.579 258.521 339.212 259.071C338.845 259.62 338.716 260.383 339.076 260.938C339.425 261.476 340.144 261.676 340.778 261.576C341.41 261.475 341.974 261.127 342.501 260.761C344.496 259.374 346.248 257.61 348.437 256.555C350.625 255.5 354.86 255.573 356.61 257.259" fill="#3FF69E"/>
<path d="M357.269 257.031C355.232 254.76 351.902 254.369 349.018 254.445C345.617 254.535 342.339 255.69 339.633 257.749C339.286 258.013 339.627 258.61 339.98 258.342C342.51 256.417 345.55 255.272 348.734 255.141C351.518 255.025 354.809 255.313 356.784 257.516C357.08 257.846 357.564 257.359 357.269 257.031Z" fill="#50635A"/>
<path opacity="0.2" d="M336.654 255.909C338.57 255.345 340.609 255.428 342.477 256.134C342.891 256.29 343.069 255.627 342.659 255.472C340.685 254.726 338.494 254.651 336.471 255.247C336.048 255.371 336.228 256.034 336.653 255.909H336.654Z" fill="#3C4D45"/>
<path opacity="0.2" d="M348.665 254.435C347.967 253.307 346.69 252.596 345.361 252.608C344.92 252.612 344.918 253.298 345.361 253.295C346.444 253.284 347.499 253.856 348.072 254.781C348.305 255.157 348.899 254.812 348.665 254.435Z" fill="#3C4D45"/>
<path opacity="0.2" d="M342.872 256.412C343.42 257.592 343.326 259.016 342.662 260.127C342.435 260.507 343.028 260.853 343.255 260.474C344.053 259.139 344.118 257.47 343.465 256.066C343.387 255.898 343.144 255.855 342.995 255.942C342.823 256.043 342.794 256.244 342.872 256.412Z" fill="#3C4D45"/>
<path opacity="0.2" d="M348.04 255.121C348.054 255.175 348.066 255.229 348.077 255.284C348.082 255.308 348.087 255.33 348.09 255.354L348.096 255.39C348.099 255.417 348.099 255.406 348.092 255.358C348.11 255.397 348.104 255.471 348.107 255.513C348.11 255.565 348.111 255.616 348.111 255.668C348.111 255.716 348.11 255.764 348.108 255.812C348.105 255.856 348.111 255.939 348.092 255.979L348.098 255.935L348.09 255.982C348.087 256.006 348.082 256.03 348.077 256.053C348.066 256.108 348.054 256.162 348.04 256.216C347.994 256.39 348.098 256.597 348.28 256.638C348.459 256.679 348.653 256.584 348.702 256.398C348.827 255.92 348.827 255.415 348.702 254.936C348.656 254.762 348.455 254.639 348.28 254.696C348.101 254.754 347.991 254.932 348.04 255.118V255.121Z" fill="#3C4D45"/>
<path d="M339.315 272.368C330.976 272.366 322.492 271.788 314.686 268.856C312.456 268.019 309.926 266.393 310.161 264.023C310.316 262.466 311.729 261.269 313.239 260.863C314.75 260.456 316.35 260.671 317.899 260.89C316.361 259.602 317.241 256.826 319.051 255.96C320.861 255.094 323.022 255.604 324.878 256.367C331.42 259.053 337.336 265.578 339.315 272.368Z" fill="#3FF69E"/>
<path opacity="0.2" d="M310.847 266.243C315.652 266.65 321.043 266.788 324.812 263.257C325.135 262.954 324.649 262.47 324.326 262.772C320.705 266.165 315.448 265.946 310.848 265.557C310.407 265.519 310.409 266.207 310.847 266.243Z" fill="#3C4D45"/>
<path opacity="0.2" d="M326.587 271.652C329.127 271.241 331.31 269.462 332.302 267.102C332.374 266.93 332.224 266.726 332.062 266.68C331.864 266.623 331.711 266.75 331.64 266.92C330.739 269.066 328.689 270.62 326.405 270.991C325.97 271.061 326.154 271.723 326.587 271.652Z" fill="#3C4D45"/>
<path opacity="0.2" d="M331.971 266.974C333.331 267.063 334.68 266.346 335.392 265.19C335.624 264.813 335.03 264.467 334.798 264.843C334.207 265.804 333.092 266.36 331.97 266.287C331.785 266.276 331.627 266.454 331.627 266.631C331.627 266.827 331.784 266.962 331.97 266.974H331.971Z" fill="#3C4D45"/>
<path opacity="0.2" d="M324.821 263.043C325.81 262.686 326.66 262.012 327.204 261.109C327.8 260.119 327.968 258.921 327.726 257.797C327.632 257.365 326.97 257.548 327.064 257.98C327.465 259.831 326.421 261.736 324.639 262.381C324.227 262.53 324.404 263.194 324.821 263.043Z" fill="#3C4D45"/>
<path opacity="0.2" d="M313.377 261.488C315.368 262.25 317.618 262.121 319.526 261.182C319.923 260.987 319.575 260.394 319.179 260.588C317.429 261.45 315.376 261.52 313.558 260.825C313.145 260.667 312.966 261.331 313.376 261.487L313.377 261.488Z" fill="#3C4D45"/>
<path opacity="0.2" d="M320.793 260.71C320.193 259.415 319.307 258.254 318.219 257.331C318.078 257.211 317.872 257.192 317.734 257.331C317.611 257.453 317.592 257.696 317.734 257.816C318.783 258.707 319.62 259.807 320.201 261.056C320.279 261.224 320.521 261.266 320.671 261.179C320.843 261.079 320.872 260.878 320.794 260.71H320.793Z" fill="#3C4D45"/>
<path d="M339.627 272.139C333.61 266.506 326.306 262.39 318.369 260.166C317.942 260.047 317.761 260.709 318.187 260.828C326.012 263.02 333.21 267.07 339.142 272.625C339.464 272.927 339.951 272.441 339.627 272.139Z" fill="#50635A"/>
<path d="M155.687 145.938C155.008 144.876 146.248 142.597 138.718 153.078L139.526 161.193L135.755 156.297C135.755 156.297 133.686 157.89 134.578 161.884C135.47 165.878 136.06 169.48 136.06 169.48C136.06 169.48 132.723 159.881 131.743 160.635C130.764 161.39 120.658 175.414 118.821 178.702C116.985 181.989 112.854 198.985 115.9 201.32C118.946 203.655 125.742 205.512 133.322 202.795C140.902 200.077 148.213 186.333 148.213 186.333L138.854 179.187L150.629 183.536C150.629 183.536 164.769 160.163 155.686 145.939L155.687 145.938Z" fill="#3FF69E"/>
<path opacity="0.1" d="M155.687 145.938C140.329 171.194 120.57 189.563 115.901 201.319C118.947 203.654 125.743 205.511 133.323 202.794C140.903 200.076 148.214 186.332 148.214 186.332L138.855 179.186L150.63 183.535C150.63 183.535 164.77 160.162 155.687 145.938Z" fill="white"/>
<path d="M146.213 159.912C146.19 160.082 145.649 160.716 145.453 160.974C144.814 161.816 144.155 162.642 143.497 163.468C141.54 165.926 139.557 168.363 137.572 170.799C133.886 175.319 130.181 179.824 126.467 184.322C113.829 199.626 108.217 218.743 105.314 238.068C103.341 251.208 102.425 264.478 101.239 277.704C101.2 278.144 101.887 278.141 101.926 277.704C103.982 254.757 104.925 230.954 113.074 209.149C116.302 200.511 120.767 192.294 126.652 185.171C130.126 180.966 133.591 176.753 137.041 172.529C139.331 169.725 141.62 166.917 143.877 164.085C144.607 163.17 145.336 162.253 146.045 161.32C146.282 161.008 146.817 160.51 146.875 160.094C146.936 159.662 146.275 159.475 146.213 159.912Z" fill="#50635A"/>
<path d="M35.988 206.428C36.2673 205.398 42.7639 201.339 51.5019 207.895L52.9054 214.654L54.7108 209.744C54.7108 209.744 56.7854 210.506 57.0775 213.958C57.3696 217.409 57.8054 220.468 57.8054 220.468C57.8054 220.468 58.0681 211.87 59.0505 212.23C60.0329 212.591 71.7481 221.357 74.0644 223.546C76.3807 225.735 85.6039 236.034 82.156 241.074C80.3221 243.756 75.2693 246.955 68.4586 246.68C61.6479 246.406 52.2599 237.158 52.2599 237.158L58.0077 229.015L49.5994 235.512C49.5994 235.512 32.2563 220.217 35.988 206.428Z" fill="#3FF69E"/>
<path opacity="0.3" d="M35.988 206.428C36.2673 205.398 42.7639 201.339 51.5019 207.895L52.9054 214.654L54.7108 209.744C54.7108 209.744 56.7854 210.506 57.0775 213.958C57.3696 217.409 57.8054 220.468 57.8054 220.468C57.8054 220.468 58.0681 211.87 59.0505 212.23C60.0329 212.591 71.7481 221.357 74.0644 223.546C76.3807 225.735 85.6039 236.034 82.156 241.074C80.3221 243.756 75.2693 246.955 68.4586 246.68C61.6479 246.406 52.2599 237.158 52.2599 237.158L58.0077 229.015L49.5994 235.512C49.5994 235.512 32.2563 220.217 35.988 206.428Z" fill="#3C4D45"/>
<path d="M36.1685 177.591C36.1685 177.591 34.602 166.942 53.3953 171.013V182.915L57.7798 172.267C57.7798 172.267 68.7425 172.592 72.1876 176.501V188.867L78.7649 179.477C78.7649 179.477 91.609 190.837 90.9827 200.546C90.3565 210.255 85.2789 217.542 85.2789 217.542C86.5506 211.157 46.3145 174.45 36.1685 177.591Z" fill="#3FF69E"/>
<path d="M169.71 199.892C169.71 199.892 171.276 189.243 152.483 193.315V205.217L148.099 194.568C148.099 194.568 137.136 194.893 133.691 198.803V211.168L127.114 201.777C127.114 201.777 114.269 213.137 114.896 222.847C115.522 232.556 120.6 239.843 120.6 239.843C133.573 217.029 153.427 203.187 169.709 199.891L169.71 199.892Z" fill="#3FF69E"/>
<path opacity="0.3" d="M169.71 199.892C169.71 199.892 171.276 189.243 152.483 193.315V205.217L148.099 194.568C148.099 194.568 137.136 194.893 133.691 198.803V211.168L127.114 201.777C127.114 201.777 114.269 213.137 114.896 222.847C115.522 232.556 120.6 239.843 120.6 239.843C133.573 217.029 153.427 203.187 169.709 199.891L169.71 199.892Z" fill="#3C4D45"/>
<path d="M74.4022 95.5307C72.811 95.3907 63.7535 102.421 68.4512 118.081L77.2211 123.543H69.3914C69.3914 123.543 69.3914 126.851 74.09 129.043C78.7885 131.235 82.8599 133.428 82.8599 133.428C82.8599 133.428 70.6448 129.356 70.6448 130.922C70.6448 132.487 76.9089 153.473 78.7885 157.858C80.6681 162.243 94.534 179.529 99.2325 178.276C103.931 177.024 111.049 171.64 114.181 161.93C117.314 152.221 109.17 134.257 109.17 134.257L94.762 138.126L108.23 129.669C108.23 129.669 95.7013 97.4094 74.4031 95.5298L74.4022 95.5307Z" fill="#3FF69E"/>
<path opacity="0.3" d="M74.4022 95.5307C72.811 95.3907 63.7535 102.421 68.4512 118.081L77.2211 123.543H69.3914C69.3914 123.543 69.3914 126.851 74.09 129.043C78.7885 131.235 82.8599 133.428 82.8599 133.428C82.8599 133.428 70.6448 129.356 70.6448 130.922C70.6448 132.487 76.9089 153.473 78.7885 157.858C80.6681 162.243 94.534 179.529 99.2325 178.276C103.931 177.024 111.049 171.64 114.181 161.93C117.314 152.221 109.17 134.257 109.17 134.257L94.762 138.126L108.23 129.669C108.23 129.669 95.7013 97.4094 74.4031 95.5298L74.4022 95.5307Z" fill="#3C4D45"/>
<path d="M109.921 278.56C109.887 256.715 108.418 234.879 105.521 213.226C102.66 191.832 98.4151 170.623 92.812 149.778C89.6195 137.904 85.983 126.15 81.9207 114.545C81.776 114.13 81.1123 114.309 81.2588 114.727C88.4274 135.209 94.2585 156.153 98.698 177.395C103.16 198.746 106.222 220.389 107.851 242.142C108.758 254.26 109.216 266.409 109.234 278.561C109.234 279.003 109.922 279.003 109.921 278.561V278.56Z" fill="#50635A"/>
<path d="M36.1683 177.934C38.5396 177.952 40.8724 178.72 43.0449 179.614C46.0333 180.843 48.8669 182.453 51.5906 184.184C58.1614 188.361 64.215 193.382 69.7879 198.808C75.3104 204.187 80.5171 210.077 84.5299 216.684C86.8746 220.545 88.6892 224.739 90.3866 228.917C92.3706 233.799 94.0698 238.801 95.4129 243.899C98.4653 255.477 99.6216 267.548 98.1321 279.457C98.0771 279.895 98.7647 279.89 98.8187 279.457C100.159 268.734 99.3616 257.861 96.9657 247.341C95.7498 242.003 94.1302 236.76 92.1902 231.643C90.469 227.102 88.5857 222.532 86.242 218.273C82.5661 211.591 77.5159 205.648 72.1902 200.232C66.5853 194.532 60.4457 189.28 53.808 184.816C50.6705 182.706 47.3938 180.746 43.9175 179.243C41.4803 178.19 38.8536 177.268 36.1683 177.248C35.7261 177.244 35.7261 177.931 36.1683 177.935V177.934Z" fill="#50635A"/>
<path d="M114.522 277.704C115.206 270.257 115.889 262.796 117.22 255.43C118.454 248.597 120.217 242.105 123.787 236.096C127.061 230.586 131.256 225.662 135.64 221.01C140.052 216.327 144.914 212.029 150.278 208.464C156.209 204.523 162.771 201.512 169.802 200.224C170.236 200.144 170.052 199.482 169.62 199.562C156.881 201.895 145.803 209.72 136.849 218.771C132.29 223.378 127.949 228.351 124.412 233.795C122.658 236.494 121.122 239.338 119.919 242.326C118.609 245.581 117.804 249.004 117.101 252.433C115.392 260.765 114.613 269.247 113.836 277.705C113.796 278.144 114.483 278.141 114.523 277.705L114.522 277.704Z" fill="#50635A"/>
<path opacity="0.1" d="M36.0338 206.486C54.7841 222.961 75.3416 232.775 82.0717 241.07C80.2068 243.721 75.1997 246.932 68.4055 246.656C61.6113 246.379 52.2508 237.149 52.2508 237.149L57.9885 229.028L49.5975 235.505C49.5975 235.505 32.3048 220.24 36.0338 206.486Z" fill="white"/>
<path d="M46.6396 215.644C46.7806 215.926 47.2082 216.139 47.449 216.314C48.1191 216.799 48.8049 217.263 49.4897 217.728C51.687 219.219 53.9026 220.684 56.1191 222.146C60.3663 224.948 64.6263 227.73 68.8927 230.504C82.9197 239.625 92.2417 253.547 99.4553 268.358C104.363 278.435 108.451 288.885 112.744 299.23C112.911 299.632 113.576 299.456 113.406 299.048C106.08 281.394 99.4159 262.849 87.8032 247.447C82.8428 240.869 76.9348 234.967 70.0335 230.427C66.4437 228.066 62.8319 225.737 59.2402 223.379C56.5439 221.608 53.8495 219.834 51.1715 218.035C50.2349 217.406 49.2993 216.778 48.3755 216.131C48.0917 215.932 47.3107 215.454 47.2329 215.298C47.0351 214.902 46.4428 215.25 46.6396 215.645V215.644Z" fill="#50635A"/>
<path d="M131.399 278.947L107.137 279.762L82.8756 278.947C82.8756 278.947 74.1386 318.476 79.0899 328.669C83.2162 337.164 95.7079 338.78 104.698 339.083V339.153C105.45 339.153 106.27 339.15 107.138 339.139C108.007 339.15 108.827 339.153 109.578 339.153V339.083C118.569 338.78 131.061 337.164 135.187 328.669C140.138 318.476 131.401 278.947 131.401 278.947H131.399Z" fill="#3FF69E"/>
<path d="M106.756 280.464C120.132 280.464 130.975 279.612 130.975 278.56C130.975 277.508 120.132 276.655 106.756 276.655C93.3794 276.655 82.5359 277.508 82.5359 278.56C82.5359 279.612 93.3794 280.464 106.756 280.464Z" fill="#50635A"/>
<path opacity="0.3" d="M84.2866 283.221C84.2866 283.221 79.6485 313.424 81.5903 321.99C84.402 334.395 105.847 336.407 106.756 334.848C107.665 333.29 98.9929 324.718 99.1403 315.56C99.2877 306.403 101.583 284.584 101.583 284.584L84.2857 283.22L84.2866 283.221Z" fill="white"/>
<path opacity="0.1" d="M73.8247 95.3708C87.599 130.393 95.5843 159.216 99.176 178.117C103.889 176.827 111.152 171.613 114.236 161.835C117.319 152.057 109.017 134.06 109.017 134.06L94.5644 138.043L108.043 129.456C108.043 129.456 95.2401 97.1186 73.8247 95.3708Z" fill="white"/>
</g>
</svg>
