<svg width="370" height="275" viewBox="0 0 370 275" fill="none" xmlns="http://www.w3.org/2000/svg">
<g opacity="0.3">
<path d="M332.051 253.515H307.607V253.699H332.051V253.515Z" fill="#EDFFF6"/>
<path d="M244.459 255.522H238.045V255.707H244.459V255.522Z" fill="#EDFFF6"/>
<path d="M306.869 246.666H292.706V246.85H306.869V246.666Z" fill="#EDFFF6"/>
<path d="M70.5951 247.906H38.7185V248.09H70.5951V247.906Z" fill="#EDFFF6"/>
<path d="M81.843 247.906H77.1711V248.09H81.843V247.906Z" fill="#EDFFF6"/>
<path d="M166.173 251.02H97.0322V251.205H166.173V251.02Z" fill="#EDFFF6"/>
<path d="M175.953 208.722H33.434C32.3163 208.722 31.2444 208.278 30.4541 207.488C29.6637 206.697 29.2197 205.626 29.2197 204.508V4.17739C29.2295 3.0661 29.6778 2.00363 30.467 1.22126C31.2563 0.438894 32.3227 -4.2605e-05 33.434 3.10171e-09H175.953C176.506 3.10172e-09 177.054 0.109005 177.565 0.320793C178.077 0.532582 178.541 0.843006 178.933 1.23434C179.324 1.62567 179.634 2.09026 179.846 2.60156C180.058 3.11286 180.167 3.66087 180.167 4.2143V204.508C180.167 205.061 180.058 205.609 179.846 206.121C179.634 206.632 179.324 207.096 178.933 207.488C178.541 207.879 178.077 208.19 177.565 208.401C177.054 208.613 176.506 208.722 175.953 208.722ZM33.434 0.147612C32.3659 0.149563 31.342 0.574754 30.5867 1.33006C29.8314 2.08537 29.4062 3.10923 29.4042 4.17739V204.508C29.4062 205.576 29.8314 206.6 30.5867 207.355C31.342 208.11 32.3659 208.536 33.434 208.538H175.953C177.021 208.536 178.045 208.11 178.8 207.355C179.555 206.6 179.98 205.576 179.982 204.508V4.17739C179.98 3.10923 179.555 2.08537 178.8 1.33006C178.045 0.574754 177.021 0.149563 175.953 0.147612H33.434Z" fill="#EDFFF6"/>
<path d="M335.594 208.722H193.075C191.958 208.722 190.886 208.278 190.095 207.488C189.305 206.697 188.861 205.626 188.861 204.508V4.17739C188.871 3.0661 189.319 2.00363 190.108 1.22126C190.898 0.438894 191.964 -4.2605e-05 193.075 3.10171e-09H335.594C336.712 3.10172e-09 337.784 0.444005 338.574 1.23434C339.364 2.02467 339.808 3.0966 339.808 4.2143V204.508C339.808 205.626 339.364 206.697 338.574 207.488C337.784 208.278 336.712 208.722 335.594 208.722ZM193.075 0.147612C192.007 0.149563 190.983 0.574754 190.228 1.33006C189.473 2.08537 189.048 3.10923 189.046 4.17739V204.508C189.048 205.576 189.473 206.6 190.228 207.355C190.983 208.11 192.007 208.536 193.075 208.538H335.594C336.662 208.536 337.686 208.11 338.441 207.355C339.197 206.6 339.622 205.576 339.624 204.508V4.17739C339.622 3.10923 339.197 2.08537 338.441 1.33006C337.686 0.574754 336.662 0.149563 335.594 0.147612H193.075Z" fill="#EDFFF6"/>
<path d="M369.028 241.639H0V241.824H369.028V241.639Z" fill="#EDFFF6"/>
<path d="M151.22 207.748H62.2107V46.623L63.1185 45.7595C74.8301 34.4893 90.4619 28.2096 106.715 28.2454C122.97 28.2065 138.602 34.4867 150.312 45.7595L151.22 46.6304V207.748ZM68.1151 201.843H145.316V49.1619C134.781 39.5031 121.008 34.1448 106.715 34.1448C92.423 34.1448 78.6499 39.5031 68.1151 49.1619V201.843Z" fill="#A6BEB3"/>
<path d="M146.438 75.3112V70.8829H108.93V33.3749H104.501V70.8829H66.9934V75.3112H104.501V115.764H66.9934V120.192H104.501V160.653H66.9934V165.081H104.501V202.582H108.93V165.081H146.438V160.653H108.93V120.192H146.438V115.764H108.93V75.3112H146.438Z" fill="#D6EBE1"/>
<path d="M154.173 210.7H59.2585V45.4199L60.1221 44.5564C72.4915 32.2078 89.2556 25.2721 106.734 25.2721C124.212 25.2721 140.976 32.2078 153.346 44.5564L154.209 45.4199L154.173 210.7ZM65.163 204.796H148.268V47.8777C137.088 37.1633 122.201 31.1817 106.716 31.1817C91.2302 31.1817 76.3433 37.1633 65.163 47.8777V204.796Z" fill="#EDFFF6"/>
<path d="M308.101 207.748H219.092V46.623L220 45.7521C231.711 34.4819 247.343 28.2022 263.597 28.238C279.854 28.2015 295.489 34.4842 307.201 45.7595L308.101 46.6304V207.748ZM224.996 201.843H302.197V49.1619C291.662 39.5031 277.889 34.1448 263.597 34.1448C249.304 34.1448 235.531 39.5031 224.996 49.1619V201.843Z" fill="#A6BEB3"/>
<path d="M303.319 75.3112V70.8829H265.811V33.3749H261.382V70.8829H223.882V75.3112H261.382V115.764H223.882V120.192H261.382V160.653H223.882V165.081H261.382V202.582H265.811V165.081H303.319V160.653H265.811V120.192H303.319V115.764H265.811V75.3112H303.319Z" fill="#D6EBE1"/>
<path d="M311.054 210.7H216.14V45.4199L217.011 44.5564C229.376 32.2177 246.132 25.2881 263.6 25.2881C281.069 25.2881 297.824 32.2177 310.19 44.5564L311.054 45.4199V210.7ZM222.044 204.796H305.149V47.8777C293.969 37.1633 279.082 31.1817 263.597 31.1817C248.111 31.1817 233.224 37.1633 222.044 47.8777V204.796Z" fill="#EDFFF6"/>
<path d="M223.144 34.5484H211.283C210.848 34.5484 210.501 33.8103 210.501 32.9247V28.6661C210.501 27.7657 210.848 27.0424 211.283 27.0424H223.144C223.579 27.0424 223.926 27.7804 223.926 28.6661V32.9247C223.926 33.8177 223.579 34.5484 223.144 34.5484Z" fill="#A6BEB3"/>
<path d="M209.062 34.5484H197.201C196.773 34.5484 196.419 33.8103 196.419 32.9247V28.6661C196.419 27.7657 196.773 27.0424 197.201 27.0424H209.062C209.497 27.0424 209.844 27.7804 209.844 28.6661V32.9247C209.844 33.8177 209.497 34.5484 209.062 34.5484Z" fill="#EDFFF6"/>
<path d="M229.358 25.2563H217.49C217.062 25.2563 216.715 24.5182 216.715 23.6325V19.374C216.715 18.4735 217.062 17.7502 217.49 17.7502H229.358C229.786 17.7502 230.141 18.4883 230.141 19.374V23.6178C230.141 24.5256 229.786 25.2563 229.358 25.2563Z" fill="#BED5CA"/>
<path d="M215.305 25.2563H203.445C203.009 25.2563 202.663 24.5182 202.663 23.6325V19.374C202.663 18.4735 203.009 17.7502 203.445 17.7502H215.305C215.734 17.7502 216.088 18.4883 216.088 19.374V23.6178C216.088 24.5256 215.734 25.2563 215.305 25.2563Z" fill="#D6EBE1"/>
<path d="M167.42 38.7479H155.56C155.124 38.7479 154.778 38.0099 154.778 37.1242V32.8656C154.778 31.9652 155.124 31.2419 155.56 31.2419H167.42C167.849 31.2419 168.203 31.98 168.203 32.8656V37.1242C168.203 38.0172 167.849 38.7479 167.42 38.7479Z" fill="#EDFFF6"/>
<path d="M170.734 29.4558H158.874C158.446 29.4558 158.092 28.7177 158.092 27.8321V23.5735C158.092 22.6731 158.446 21.9498 158.874 21.9498H170.734C171.17 21.9498 171.517 22.6878 171.517 23.5735V27.8321C171.517 28.7251 171.17 29.4558 170.734 29.4558Z" fill="#BED5CA"/>
<path d="M156.689 29.4558H144.821C144.393 29.4558 144.046 28.7177 144.046 27.8321V23.5735C144.046 22.6731 144.393 21.9498 144.821 21.9498H156.689C157.117 21.9498 157.427 22.6878 157.427 23.5735V27.8321C157.464 28.7251 157.117 29.4558 156.689 29.4558Z" fill="#D6EBE1"/>
<path d="M42.1282 36.3566V31.7364C42.1282 30.7548 42.5636 29.9651 43.1024 29.9651H57.9226C58.4613 29.9651 58.8968 30.7548 58.8968 31.7364V36.3788C58.8968 37.3604 58.4613 38.1575 57.9226 38.1575H43.1024C42.5636 38.1353 42.1282 37.3382 42.1282 36.3566Z" fill="#EDFFF6"/>
<path d="M54.845 26.2084V21.566C54.845 20.5844 55.2804 19.7873 55.8192 19.7873H70.6394C71.1781 19.7873 71.6136 20.5844 71.6136 21.566V26.2084C71.6136 27.19 71.1781 27.9797 70.6394 27.9797H55.8192C55.2804 27.9797 54.845 27.19 54.845 26.2084Z" fill="#BED5CA"/>
<path d="M191.57 101.852V97.3495C191.57 96.3974 191.991 95.6299 192.507 95.6299H206.84C207.357 95.6299 207.778 96.3679 207.778 97.3495V101.852C207.778 102.796 207.357 103.564 206.84 103.564H192.507C191.991 103.549 191.57 102.782 191.57 101.852Z" fill="#D6EBE1"/>
<path d="M195.009 92.0208V87.5334C195.009 86.5813 195.43 85.8137 195.946 85.8137H210.279C210.796 85.8137 211.217 86.5518 211.217 87.5334V92.0208C211.217 92.9729 210.796 93.7331 210.279 93.7331H195.946C195.43 93.7331 195.009 92.995 195.009 92.0208Z" fill="#BED5CA"/>
<path d="M159.354 83.6069V79.1122C159.354 78.1675 159.774 77.3999 160.298 77.3999H174.631C175.148 77.3999 175.569 78.138 175.569 79.1122V83.6069C175.569 84.5517 175.148 85.3192 174.631 85.3192H160.298C159.774 85.3192 159.354 84.5517 159.354 83.6069Z" fill="#BED5CA"/>
<path d="M309.282 35.6407V30.9983C309.282 30.0241 309.725 29.227 310.256 29.227H325.077C325.615 29.227 326.051 30.0241 326.051 30.9983V35.6481C326.051 36.6223 325.615 37.4194 325.077 37.4194H310.256C309.725 37.412 309.282 36.6149 309.282 35.6407Z" fill="#EDFFF6"/>
<path d="M297.208 25.4851V20.8427C297.208 19.8611 297.65 19.0714 298.182 19.0714H313.002C313.541 19.0714 313.976 19.8611 313.976 20.8427V25.4851C313.976 26.4667 313.541 27.2564 313.002 27.2564H298.174C297.65 27.2564 297.208 26.4667 297.208 25.4851Z" fill="#D6EBE1"/>
<path d="M184.514 274.564C263.547 274.564 327.616 270.824 327.616 266.209C327.616 261.595 263.547 257.854 184.514 257.854C105.481 257.854 41.4124 261.595 41.4124 266.209C41.4124 270.824 105.481 274.564 184.514 274.564Z" fill="#D6EBE1"/>
<path d="M140.688 71.7981H64.2847V264.29H140.688V71.7981Z" fill="#2AD482"/>
<path opacity="0.2" d="M140.688 71.7981H64.2847V264.29H140.688V71.7981Z" fill="#FDFFFE"/>
<path d="M50.1877 70.1153V266.01H64.2846V70.1153H50.1877Z" fill="#2AD482"/>
<path opacity="0.5" d="M50.1877 70.1153V266.01H64.2846V70.1153H50.1877Z" fill="#FDFFFE"/>
<path d="M140.017 70.1153V266.01H154.091V70.1153H140.017Z" fill="#2AD482"/>
<path opacity="0.4" d="M140.017 70.1153V266.01H154.091V70.1153H140.017Z" fill="#FDFFFE"/>
<path d="M62.5649 70.1153V266.01H156.468V70.1153H62.5649ZM153.102 73.4882V108.612H66.0117V73.4882H153.102ZM66.0117 185.606V150.49H153.102V185.606H66.0117ZM153.139 189.001V224.118H66.0486V189.001H153.139ZM66.0486 147.117V111.993H153.102V147.117H66.0486ZM66.0486 262.608V227.484H153.102V262.608H66.0486Z" fill="#2AD482"/>
<path opacity="0.7" d="M62.5649 70.1153V266.01H156.468V70.1153H62.5649ZM153.102 73.4882V108.612H66.0117V73.4882H153.102ZM66.0117 185.606V150.49H153.102V185.606H66.0117ZM153.139 189.001V224.118H66.0486V189.001H153.139ZM66.0486 147.117V111.993H153.102V147.117H66.0486ZM66.0486 262.608V227.484H153.102V262.608H66.0486Z" fill="#FDFFFE"/>
<path d="M97.9769 81.3633H94.7295V108.62H97.9769V81.3633Z" fill="#3C4D45"/>
<path d="M94.7294 81.3633H91.4819V108.62H94.7294V81.3633Z" fill="#2AD482"/>
<path opacity="0.4" d="M94.7294 81.3633H91.4819V108.62H94.7294V81.3633Z" fill="#FDFFFE"/>
<path d="M104.472 83.2674H97.9768V108.605H104.472V83.2674Z" fill="#2AD482"/>
<path opacity="0.6" d="M104.472 83.2674H97.9768V108.605H104.472V83.2674Z" fill="#FDFFFE"/>
<path d="M111.911 81.3633H107.719V108.62H111.911V81.3633Z" fill="#2AD482"/>
<path d="M107.719 81.3633H104.472V108.62H107.719V81.3633Z" fill="#2AD482"/>
<path opacity="0.7" d="M107.719 81.3633H104.472V108.62H107.719V81.3633Z" fill="#FDFFFE"/>
<path d="M136.54 81.3633H132.348V108.62H136.54V81.3633Z" fill="#2AD482"/>
<path opacity="0.7" d="M136.54 81.3633H132.348V108.62H136.54V81.3633Z" fill="#FDFFFE"/>
<path d="M132.355 81.3633H129.108V108.62H132.355V81.3633Z" fill="#2AD482"/>
<path opacity="0.6" d="M132.355 81.3633H129.108V108.62H132.355V81.3633Z" fill="#FDFFFE"/>
<path d="M122.606 81.3633H118.414V108.62H122.606V81.3633Z" fill="#2AD482"/>
<path opacity="0.6" d="M122.606 81.3633H118.414V108.62H122.606V81.3633Z" fill="#FDFFFE"/>
<path d="M118.414 81.3633H115.166V108.62H118.414V81.3633Z" fill="#2AD482"/>
<path opacity="0.1" d="M118.414 81.3633H115.166V108.62H118.414V81.3633Z" fill="#3C4D45"/>
<path d="M143.042 82.0054H136.548V108.612H143.042V82.0054Z" fill="#2AD482"/>
<path opacity="0.1" d="M143.042 82.0054H136.548V108.612H143.042V82.0054Z" fill="#FDFFFE"/>
<path d="M146.29 82.0054H143.042V108.612H146.29V82.0054Z" fill="#2AD482"/>
<path opacity="0.6" d="M146.29 82.0054H143.042V108.612H146.29V82.0054Z" fill="#FDFFFE"/>
<path d="M126.938 82.0054H122.606V108.612H126.938V82.0054Z" fill="#3C4D45"/>
<path d="M129.108 82.0054H126.938V108.612H129.108V82.0054Z" fill="#2AD482"/>
<path opacity="0.3" d="M129.108 82.0054H126.938V108.612H129.108V82.0054Z" fill="#FDFFFE"/>
<path d="M118.414 83.2674H111.919V108.605H118.414V83.2674Z" fill="#2AD482"/>
<path opacity="0.1" d="M118.414 83.2674H111.919V108.605H118.414V83.2674Z" fill="#FDFFFE"/>
<path d="M81.7395 81.3633H77.5474V108.62H81.7395V81.3633Z" fill="#2AD482"/>
<path opacity="0.3" d="M81.7395 81.3633H77.5474V108.62H81.7395V81.3633Z" fill="#FDFFFE"/>
<path d="M77.5475 81.3633H74.3V108.62H77.5475V81.3633Z" fill="#2AD482"/>
<path opacity="0.2" d="M77.5475 81.3633H74.3V108.62H77.5475V81.3633Z" fill="#FDFFFE"/>
<path d="M88.2344 82.0054H81.7395V108.612H88.2344V82.0054Z" fill="#3C4D45"/>
<path d="M91.4821 82.0054H88.2346V108.612H91.4821V82.0054Z" fill="#2AD482"/>
<path opacity="0.6" d="M91.4821 82.0054H88.2346V108.612H91.4821V82.0054Z" fill="#FDFFFE"/>
<path d="M72.1376 82.0054H67.8052V108.612H72.1376V82.0054Z" fill="#2AD482"/>
<path opacity="0.1" d="M72.1376 82.0054H67.8052V108.612H72.1376V82.0054Z" fill="#FDFFFE"/>
<path d="M74.3 82.0054H72.1301V108.612H74.3V82.0054Z" fill="#2AD482"/>
<path opacity="0.6" d="M74.3 82.0054H72.1301V108.612H74.3V82.0054Z" fill="#FDFFFE"/>
<path d="M118.163 119.949H114.996V147.124H118.163V119.949Z" fill="#2AD482"/>
<path opacity="0.1" d="M118.163 119.949H114.996V147.124H118.163V119.949Z" fill="#FDFFFE"/>
<path d="M121.344 119.949H118.177V147.124H121.344V119.949Z" fill="#2AD482"/>
<path opacity="0.4" d="M121.344 119.949H118.177V147.124H121.344V119.949Z" fill="#FDFFFE"/>
<path d="M114.996 121.853H108.656V147.117H114.996V121.853Z" fill="#2AD482"/>
<path opacity="0.6" d="M114.996 121.853H108.656V147.117H114.996V121.853Z" fill="#FDFFFE"/>
<path d="M105.49 119.949H101.394V147.124H105.49V119.949Z" fill="#3C4D45"/>
<path d="M108.656 119.949H105.49V147.124H108.656V119.949Z" fill="#2AD482"/>
<path opacity="0.1" d="M108.656 119.949H105.49V147.124H108.656V119.949Z" fill="#3C4D45"/>
<path d="M81.4443 119.949H77.3481V147.124H81.4443V119.949Z" fill="#2AD482"/>
<path opacity="0.1" d="M81.4443 119.949H77.3481V147.124H81.4443V119.949Z" fill="#3C4D45"/>
<path d="M84.6106 119.949H81.4443V147.124H84.6106V119.949Z" fill="#2AD482"/>
<path opacity="0.6" d="M84.6106 119.949H81.4443V147.124H84.6106V119.949Z" fill="#FDFFFE"/>
<path d="M95.0542 119.949H90.958V147.124H95.0542V119.949Z" fill="#2AD482"/>
<path opacity="0.6" d="M95.0542 119.949H90.958V147.124H95.0542V119.949Z" fill="#FDFFFE"/>
<path d="M98.2205 119.949H95.0542V147.124H98.2205V119.949Z" fill="#2AD482"/>
<path opacity="0.1" d="M98.2205 119.949H95.0542V147.124H98.2205V119.949Z" fill="#3C4D45"/>
<path d="M77.3409 120.591H71.001V147.117H77.3409V120.591Z" fill="#3C4D45"/>
<path opacity="0.2" d="M77.3409 120.591H71.001V147.117H77.3409V120.591Z" fill="#FDFFFE"/>
<path d="M71.001 120.591H67.8347V147.117H71.001V120.591Z" fill="#2AD482"/>
<path opacity="0.6" d="M71.001 120.591H67.8347V147.117H71.001V120.591Z" fill="#FDFFFE"/>
<path d="M90.9505 120.591H86.7214V147.117H90.9505V120.591Z" fill="#2AD482"/>
<path opacity="0.1" d="M90.9505 120.591H86.7214V147.117H90.9505V120.591Z" fill="#FDFFFE"/>
<path d="M86.7288 120.591H84.6106V147.117H86.7288V120.591Z" fill="#2AD482"/>
<path opacity="0.3" d="M86.7288 120.591H84.6106V147.117H86.7288V120.591Z" fill="#FDFFFE"/>
<path d="M101.387 121.853H95.0469V147.117H101.387V121.853Z" fill="#2AD482"/>
<path opacity="0.1" d="M101.387 121.853H95.0469V147.117H101.387V121.853Z" fill="#FDFFFE"/>
<path d="M134.946 119.949H130.85V147.124H134.946V119.949Z" fill="#3C4D45"/>
<path d="M138.12 119.949H134.953V147.124H138.12V119.949Z" fill="#2AD482"/>
<path opacity="0.2" d="M138.12 119.949H134.953V147.124H138.12V119.949Z" fill="#FDFFFE"/>
<path d="M130.85 120.591H124.51V147.117H130.85V120.591Z" fill="#2AD482"/>
<path opacity="0.1" d="M130.85 120.591H124.51V147.117H130.85V120.591Z" fill="#FDFFFE"/>
<path d="M124.51 120.591H121.344V147.117H124.51V120.591Z" fill="#2AD482"/>
<path opacity="0.6" d="M124.51 120.591H121.344V147.117H124.51V120.591Z" fill="#FDFFFE"/>
<path d="M144.46 120.591H140.23V147.117H144.46V120.591Z" fill="#2AD482"/>
<path d="M140.231 120.591H138.112V147.117H140.231V120.591Z" fill="#2AD482"/>
<path opacity="0.6" d="M140.231 120.591H138.112V147.117H140.231V120.591Z" fill="#FDFFFE"/>
<path d="M97.3125 197.208H94.1462V224.111H97.3125V197.208Z" fill="#3C4D45"/>
<path d="M94.1389 197.208H90.9727V224.111H94.1389V197.208Z" fill="#2AD482"/>
<path opacity="0.4" d="M94.1389 197.208H90.9727V224.111H94.1389V197.208Z" fill="#FDFFFE"/>
<path d="M103.652 199.098H97.3125V224.111H103.652V199.098Z" fill="#2AD482"/>
<path opacity="0.6" d="M103.652 199.098H97.3125V224.111H103.652V199.098Z" fill="#FDFFFE"/>
<path d="M110.922 197.208H106.826V224.111H110.922V197.208Z" fill="#2AD482"/>
<path d="M106.819 197.208H103.653V224.111H106.819V197.208Z" fill="#2AD482"/>
<path opacity="0.6" d="M106.819 197.208H103.653V224.111H106.819V197.208Z" fill="#FDFFFE"/>
<path d="M134.968 197.208H130.872V224.111H134.968V197.208Z" fill="#2AD482"/>
<path opacity="0.3" d="M134.968 197.208H130.872V224.111H134.968V197.208Z" fill="#FDFFFE"/>
<path d="M130.872 197.208H127.706V224.111H130.872V197.208Z" fill="#2AD482"/>
<path opacity="0.6" d="M130.872 197.208H127.706V224.111H130.872V197.208Z" fill="#FDFFFE"/>
<path d="M121.366 197.208H117.27V224.111H121.366V197.208Z" fill="#3C4D45"/>
<path d="M117.255 197.208H114.089V224.111H117.255V197.208Z" fill="#2AD482"/>
<path opacity="0.1" d="M117.255 197.208H114.089V224.111H117.255V197.208Z" fill="#3C4D45"/>
<path d="M141.315 197.843H134.976V224.118H141.315V197.843Z" fill="#2AD482"/>
<path opacity="0.1" d="M141.315 197.843H134.976V224.118H141.315V197.843Z" fill="#FDFFFE"/>
<path d="M144.474 197.843H141.308V224.118H144.474V197.843Z" fill="#2AD482"/>
<path opacity="0.6" d="M144.474 197.843H141.308V224.118H144.474V197.843Z" fill="#FDFFFE"/>
<path d="M125.587 197.843H121.358V224.118H125.587V197.843Z" fill="#2AD482"/>
<path opacity="0.4" d="M125.587 197.843H121.358V224.118H125.587V197.843Z" fill="#FDFFFE"/>
<path d="M127.706 197.843H125.587V224.118H127.706V197.843Z" fill="#2AD482"/>
<path opacity="0.3" d="M127.706 197.843H125.587V224.118H127.706V197.843Z" fill="#FDFFFE"/>
<path d="M117.255 199.098H110.915V224.111H117.255V199.098Z" fill="#2AD482"/>
<path opacity="0.3" d="M117.255 199.098H110.915V224.111H117.255V199.098Z" fill="#FDFFFE"/>
<path d="M81.4592 197.208H77.363V224.111H81.4592V197.208Z" fill="#2AD482"/>
<path opacity="0.1" d="M81.4592 197.208H77.363V224.111H81.4592V197.208Z" fill="#3C4D45"/>
<path d="M77.3555 197.208H74.1892V224.111H77.3555V197.208Z" fill="#3C4D45"/>
<path d="M87.7991 197.843H81.4592V224.118H87.7991V197.843Z" fill="#3C4D45"/>
<path opacity="0.5" d="M87.7991 197.843H81.4592V224.118H87.7991V197.843Z" fill="#FDFFFE"/>
<path d="M90.9727 197.843H87.8064V224.118H90.9727V197.843Z" fill="#2AD482"/>
<path opacity="0.6" d="M90.9727 197.843H87.8064V224.118H90.9727V197.843Z" fill="#FDFFFE"/>
<path d="M72.0857 197.843H67.8567V224.118H72.0857V197.843Z" fill="#2AD482"/>
<path opacity="0.1" d="M72.0857 197.843H67.8567V224.118H72.0857V197.843Z" fill="#FDFFFE"/>
<path d="M74.1966 197.843H72.0784V224.118H74.1966V197.843Z" fill="#2AD482"/>
<path opacity="0.6" d="M74.1966 197.843H72.0784V224.118H74.1966V197.843Z" fill="#FDFFFE"/>
<path d="M97.283 236.045H94.1167V262.615H97.283V236.045Z" fill="#3C4D45"/>
<path opacity="0.5" d="M97.283 236.045H94.1167V262.615H97.283V236.045Z" fill="#FDFFFE"/>
<path d="M94.1243 236.045H90.958V262.615H94.1243V236.045Z" fill="#2AD482"/>
<path opacity="0.4" d="M94.1243 236.045H90.958V262.615H94.1243V236.045Z" fill="#FDFFFE"/>
<path d="M103.63 237.92H97.2905V262.622H103.63V237.92Z" fill="#2AD482"/>
<path opacity="0.6" d="M103.63 237.92H97.2905V262.622H103.63V237.92Z" fill="#FDFFFE"/>
<path d="M110.9 236.045H106.804V262.615H110.9V236.045Z" fill="#2AD482"/>
<path d="M106.804 236.045H103.638V262.615H106.804V236.045Z" fill="#2AD482"/>
<path opacity="0.1" d="M106.804 236.045H103.638V262.615H106.804V236.045Z" fill="#3C4D45"/>
<path d="M134.946 236.045H130.85V262.615H134.946V236.045Z" fill="#2AD482"/>
<path opacity="0.4" d="M134.946 236.045H130.85V262.615H134.946V236.045Z" fill="#FDFFFE"/>
<path d="M130.843 236.045H127.676V262.615H130.843V236.045Z" fill="#2AD482"/>
<path opacity="0.6" d="M130.843 236.045H127.676V262.615H130.843V236.045Z" fill="#FDFFFE"/>
<path d="M121.336 236.045H117.24V262.615H121.336V236.045Z" fill="#3C4D45"/>
<path d="M117.24 236.045H114.074V262.615H117.24V236.045Z" fill="#2AD482"/>
<path opacity="0.1" d="M117.24 236.045H114.074V262.615H117.24V236.045Z" fill="#3C4D45"/>
<path d="M141.286 236.687H134.946V262.63H141.286V236.687Z" fill="#2AD482"/>
<path opacity="0.2" d="M141.286 236.687H134.946V262.63H141.286V236.687Z" fill="#FDFFFE"/>
<path d="M144.459 236.687H141.293V262.63H144.459V236.687Z" fill="#2AD482"/>
<path opacity="0.6" d="M144.459 236.687H141.293V262.63H144.459V236.687Z" fill="#FDFFFE"/>
<path d="M125.565 236.687H121.336V262.63H125.565V236.687Z" fill="#2AD482"/>
<path opacity="0.3" d="M125.565 236.687H121.336V262.63H125.565V236.687Z" fill="#FDFFFE"/>
<path d="M127.684 236.687H125.565V262.63H127.684V236.687Z" fill="#2AD482"/>
<path opacity="0.3" d="M127.684 236.687H125.565V262.63H127.684V236.687Z" fill="#FDFFFE"/>
<path d="M117.247 237.92H110.907V262.622H117.247V237.92Z" fill="#2AD482"/>
<path opacity="0.5" d="M117.247 237.92H110.907V262.622H117.247V237.92Z" fill="#FDFFFE"/>
<path d="M81.437 236.045H77.3408V262.615H81.437V236.045Z" fill="#2AD482"/>
<path opacity="0.1" d="M81.437 236.045H77.3408V262.615H81.437V236.045Z" fill="#3C4D45"/>
<path d="M77.3408 236.045H74.1746V262.615H77.3408V236.045Z" fill="#2AD482"/>
<path opacity="0.2" d="M77.3408 236.045H74.1746V262.615H77.3408V236.045Z" fill="#FDFFFE"/>
<path d="M87.7842 236.687H81.4443V262.63H87.7842V236.687Z" fill="#3C4D45"/>
<path d="M90.9504 236.687H87.7842V262.63H90.9504V236.687Z" fill="#2AD482"/>
<path opacity="0.6" d="M90.9504 236.687H87.7842V262.63H90.9504V236.687Z" fill="#FDFFFE"/>
<path d="M72.0564 236.687H67.8274V262.63H72.0564V236.687Z" fill="#2AD482"/>
<path opacity="0.3" d="M72.0564 236.687H67.8274V262.63H72.0564V236.687Z" fill="#FDFFFE"/>
<path d="M74.1819 236.687H72.0637V262.63H74.1819V236.687Z" fill="#2AD482"/>
<path opacity="0.6" d="M74.1819 236.687H72.0637V262.63H74.1819V236.687Z" fill="#FDFFFE"/>
<path d="M119.875 157.988H116.598V185.606H119.875V157.988Z" fill="#2AD482"/>
<path opacity="0.5" d="M119.875 157.988H116.598V185.606H119.875V157.988Z" fill="#FDFFFE"/>
<path d="M123.152 157.988H119.875V185.606H123.152V157.988Z" fill="#2AD482"/>
<path opacity="0.4" d="M123.152 157.988H119.875V185.606H123.152V157.988Z" fill="#FDFFFE"/>
<path d="M116.598 159.929H110.044V185.606H116.598V159.929Z" fill="#2AD482"/>
<path opacity="0.6" d="M116.598 159.929H110.044V185.606H116.598V159.929Z" fill="#FDFFFE"/>
<path d="M106.76 157.988H102.523V185.606H106.76V157.988Z" fill="#3C4D45"/>
<path opacity="0.2" d="M106.76 157.988H102.523V185.606H106.76V157.988Z" fill="#FDFFFE"/>
<path d="M110.044 157.988H106.767V185.606H110.044V157.988Z" fill="#2AD482"/>
<path opacity="0.3" d="M110.044 157.988H106.767V185.606H110.044V157.988Z" fill="#FDFFFE"/>
<path d="M81.8946 157.988H77.6582V185.606H81.8946V157.988Z" fill="#2AD482"/>
<path opacity="0.1" d="M81.8946 157.988H77.6582V185.606H81.8946V157.988Z" fill="#3C4D45"/>
<path d="M85.1791 157.988H81.9021V185.606H85.1791V157.988Z" fill="#2AD482"/>
<path opacity="0.6" d="M85.1791 157.988H81.9021V185.606H85.1791V157.988Z" fill="#FDFFFE"/>
<path d="M95.9693 157.988H91.7329V185.606H95.9693V157.988Z" fill="#2AD482"/>
<path opacity="0.6" d="M95.9693 157.988H91.7329V185.606H95.9693V157.988Z" fill="#FDFFFE"/>
<path d="M99.2462 157.988H95.9692V185.606H99.2462V157.988Z" fill="#2AD482"/>
<path opacity="0.1" d="M99.2462 157.988H95.9692V185.606H99.2462V157.988Z" fill="#3C4D45"/>
<path d="M77.6655 158.645H71.1116V185.614H77.6655V158.645Z" fill="#3C4D45"/>
<path opacity="0.5" d="M77.6655 158.645H71.1116V185.614H77.6655V158.645Z" fill="#FDFFFE"/>
<path d="M71.1117 158.645H67.8347V185.614H71.1117V158.645Z" fill="#2AD482"/>
<path opacity="0.6" d="M71.1117 158.645H67.8347V185.614H71.1117V158.645Z" fill="#FDFFFE"/>
<path d="M91.7328 158.645H87.3635V185.614H91.7328V158.645Z" fill="#2AD482"/>
<path opacity="0.3" d="M91.7328 158.645H87.3635V185.614H91.7328V158.645Z" fill="#FDFFFE"/>
<path d="M87.3636 158.645H85.179V185.614H87.3636V158.645Z" fill="#2AD482"/>
<path opacity="0.3" d="M87.3636 158.645H85.179V185.614H87.3636V158.645Z" fill="#FDFFFE"/>
<path d="M102.523 159.929H95.9692V185.606H102.523V159.929Z" fill="#2AD482"/>
<path opacity="0.4" d="M102.523 159.929H95.9692V185.606H102.523V159.929Z" fill="#FDFFFE"/>
<path d="M137.219 157.988H132.983V185.606H137.219V157.988Z" fill="#2AD482"/>
<path opacity="0.4" d="M137.219 157.988H132.983V185.606H137.219V157.988Z" fill="#FDFFFE"/>
<path d="M140.496 157.988H137.219V185.606H140.496V157.988Z" fill="#2AD482"/>
<path opacity="0.2" d="M140.496 157.988H137.219V185.606H140.496V157.988Z" fill="#FDFFFE"/>
<path d="M132.983 158.645H126.429V185.614H132.983V158.645Z" fill="#2AD482"/>
<path opacity="0.3" d="M132.983 158.645H126.429V185.614H132.983V158.645Z" fill="#FDFFFE"/>
<path d="M126.429 158.645H123.152V185.614H126.429V158.645Z" fill="#2AD482"/>
<path opacity="0.6" d="M126.429 158.645H123.152V185.614H126.429V158.645Z" fill="#FDFFFE"/>
<path d="M147.05 158.645H142.681V185.614H147.05V158.645Z" fill="#2AD482"/>
<path opacity="0.5" d="M147.05 158.645H142.681V185.614H147.05V158.645Z" fill="#FDFFFE"/>
<path d="M142.681 158.645H140.496V185.614H142.681V158.645Z" fill="#2AD482"/>
<path opacity="0.6" d="M142.681 158.645H140.496V185.614H142.681V158.645Z" fill="#FDFFFE"/>
<path d="M162.823 182.41H120.923V265.014H162.823V182.41Z" fill="#2AD482"/>
<path opacity="0.8" d="M162.823 182.41H120.923V265.014H162.823V182.41Z" fill="#FDFFFE"/>
<path d="M210.877 182.41H162.955V265.014H210.877V182.41Z" fill="#2AD482"/>
<path opacity="0.5" d="M210.877 182.41H162.955V265.014H210.877V182.41Z" fill="#FDFFFE"/>
<path d="M159.132 204.7V189.4C158.699 189.4 158.271 189.314 157.871 189.149C157.471 188.983 157.108 188.74 156.802 188.433C156.496 188.127 156.254 187.763 156.089 187.363C155.924 186.962 155.839 186.534 155.84 186.101H127.942C127.942 186.976 127.594 187.815 126.976 188.434C126.357 189.052 125.518 189.4 124.643 189.4V204.7C125.517 204.7 126.355 205.046 126.973 205.663C127.592 206.281 127.94 207.118 127.942 207.991H155.84C155.84 207.118 156.187 206.281 156.805 205.664C157.422 205.047 158.259 204.7 159.132 204.7Z" fill="#2AD482"/>
<path opacity="0.6" d="M159.132 204.7V189.4C158.699 189.4 158.271 189.314 157.871 189.149C157.471 188.983 157.108 188.74 156.802 188.433C156.496 188.127 156.254 187.763 156.089 187.363C155.924 186.962 155.839 186.534 155.84 186.101H127.942C127.942 186.976 127.594 187.815 126.976 188.434C126.357 189.052 125.518 189.4 124.643 189.4V204.7C125.517 204.7 126.355 205.046 126.973 205.663C127.592 206.281 127.94 207.118 127.942 207.991H155.84C155.84 207.118 156.187 206.281 156.805 205.664C157.422 205.047 158.259 204.7 159.132 204.7Z" fill="#FDFFFE"/>
<path d="M126.303 204.7V189.4C127.178 189.4 128.018 189.052 128.636 188.434C129.255 187.815 129.603 186.976 129.603 186.101H127.942C127.942 186.976 127.594 187.815 126.976 188.434C126.357 189.052 125.518 189.4 124.643 189.4V204.7C125.517 204.7 126.355 205.046 126.973 205.663C127.592 206.281 127.94 207.118 127.942 207.991H129.603C129.601 207.118 129.252 206.281 128.634 205.663C128.015 205.046 127.177 204.7 126.303 204.7Z" fill="#2AD482"/>
<path opacity="0.2" d="M126.303 204.7V189.4C127.178 189.4 128.018 189.052 128.636 188.434C129.255 187.815 129.603 186.976 129.603 186.101H127.942C127.942 186.976 127.594 187.815 126.976 188.434C126.357 189.052 125.518 189.4 124.643 189.4V204.7C125.517 204.7 126.355 205.046 126.973 205.663C127.592 206.281 127.94 207.118 127.942 207.991H129.603C129.601 207.118 129.252 206.281 128.634 205.663C128.015 205.046 127.177 204.7 126.303 204.7Z" fill="#FDFFFE"/>
<path d="M138.385 197.061C138.385 197.394 138.287 197.719 138.102 197.996C137.917 198.272 137.654 198.488 137.347 198.616C137.039 198.743 136.701 198.776 136.374 198.711C136.048 198.646 135.748 198.486 135.513 198.251C135.277 198.015 135.117 197.716 135.052 197.389C134.987 197.063 135.021 196.724 135.148 196.417C135.275 196.109 135.491 195.847 135.768 195.662C136.044 195.477 136.37 195.378 136.703 195.378C137.148 195.38 137.575 195.558 137.89 195.873C138.205 196.188 138.383 196.615 138.385 197.061Z" fill="#2AD482"/>
<path d="M147.227 197.061C147.229 197.395 147.131 197.723 146.946 198.002C146.761 198.281 146.498 198.499 146.189 198.628C145.88 198.757 145.54 198.791 145.212 198.727C144.884 198.662 144.582 198.502 144.345 198.266C144.107 198.03 143.946 197.729 143.88 197.401C143.814 197.073 143.847 196.732 143.975 196.423C144.103 196.114 144.319 195.849 144.597 195.663C144.875 195.477 145.202 195.378 145.537 195.378C145.983 195.38 146.411 195.558 146.727 195.873C147.044 196.188 147.223 196.614 147.227 197.061Z" fill="#2AD482"/>
<path d="M137.005 191.88L142.784 186.101H131.226L137.005 191.88Z" fill="#3C4D45"/>
<path opacity="0.7" d="M137.005 191.88L142.784 186.101H131.226L137.005 191.88Z" fill="#FDFFFE"/>
<path d="M142.644 190.404L146.947 186.101H138.341L142.644 190.404Z" fill="#3C4D45"/>
<path opacity="0.8" d="M142.644 190.404L146.947 186.101H138.341L142.644 190.404Z" fill="#FDFFFE"/>
<path d="M144.098 202.08H138.193C137.919 202.081 137.647 202.027 137.393 201.923C137.139 201.818 136.908 201.664 136.714 201.47C136.52 201.276 136.366 201.045 136.262 200.791C136.157 200.538 136.104 200.265 136.105 199.991V196.935C136.105 196.769 136.171 196.609 136.288 196.492C136.406 196.374 136.566 196.308 136.732 196.308C136.898 196.308 137.058 196.374 137.176 196.492C137.293 196.609 137.359 196.769 137.359 196.935V200.013C137.358 200.123 137.379 200.232 137.421 200.335C137.462 200.437 137.524 200.529 137.601 200.608C137.679 200.686 137.771 200.748 137.873 200.79C137.974 200.833 138.083 200.854 138.193 200.854H144.098C144.321 200.854 144.535 200.766 144.693 200.608C144.851 200.45 144.939 200.236 144.939 200.013V196.958C144.939 196.791 145.005 196.632 145.123 196.514C145.241 196.396 145.4 196.33 145.567 196.33C145.733 196.33 145.893 196.396 146.01 196.514C146.128 196.632 146.194 196.791 146.194 196.958V200.013C146.188 200.564 145.964 201.091 145.572 201.478C145.179 201.865 144.649 202.082 144.098 202.08Z" fill="#3C4D45"/>
<path d="M159.132 231.366V216.066C158.699 216.066 158.271 215.98 157.871 215.815C157.471 215.649 157.108 215.405 156.802 215.099C156.496 214.793 156.254 214.429 156.089 214.029C155.924 213.628 155.839 213.2 155.84 212.767H127.942C127.942 213.642 127.594 214.481 126.976 215.099C126.357 215.718 125.518 216.066 124.643 216.066V231.366C125.517 231.366 126.355 231.712 126.973 232.329C127.592 232.946 127.94 233.784 127.942 234.657H155.84C155.84 233.784 156.187 232.947 156.805 232.33C157.422 231.712 158.259 231.366 159.132 231.366Z" fill="#2AD482"/>
<path opacity="0.6" d="M159.132 231.366V216.066C158.699 216.066 158.271 215.98 157.871 215.815C157.471 215.649 157.108 215.405 156.802 215.099C156.496 214.793 156.254 214.429 156.089 214.029C155.924 213.628 155.839 213.2 155.84 212.767H127.942C127.942 213.642 127.594 214.481 126.976 215.099C126.357 215.718 125.518 216.066 124.643 216.066V231.366C125.517 231.366 126.355 231.712 126.973 232.329C127.592 232.946 127.94 233.784 127.942 234.657H155.84C155.84 233.784 156.187 232.947 156.805 232.33C157.422 231.712 158.259 231.366 159.132 231.366Z" fill="#FDFFFE"/>
<path d="M126.303 231.366V216.066C127.178 216.066 128.018 215.718 128.636 215.099C129.255 214.481 129.603 213.642 129.603 212.767H127.942C127.942 213.642 127.594 214.481 126.976 215.099C126.357 215.718 125.518 216.066 124.643 216.066V231.366C125.517 231.366 126.355 231.712 126.973 232.329C127.592 232.946 127.94 233.784 127.942 234.657H129.603C129.601 233.784 129.252 232.946 128.634 232.329C128.015 231.712 127.177 231.366 126.303 231.366Z" fill="#2AD482"/>
<path opacity="0.2" d="M126.303 231.366V216.066C127.178 216.066 128.018 215.718 128.636 215.099C129.255 214.481 129.603 213.642 129.603 212.767H127.942C127.942 213.642 127.594 214.481 126.976 215.099C126.357 215.718 125.518 216.066 124.643 216.066V231.366C125.517 231.366 126.355 231.712 126.973 232.329C127.592 232.946 127.94 233.784 127.942 234.657H129.603C129.601 233.784 129.252 232.946 128.634 232.329C128.015 231.712 127.177 231.366 126.303 231.366Z" fill="#FDFFFE"/>
<path d="M138.385 223.712C138.385 224.045 138.287 224.37 138.102 224.647C137.917 224.924 137.654 225.139 137.347 225.267C137.039 225.394 136.701 225.427 136.374 225.362C136.048 225.298 135.748 225.137 135.513 224.902C135.277 224.667 135.117 224.367 135.052 224.04C134.987 223.714 135.021 223.376 135.148 223.068C135.275 222.761 135.491 222.498 135.768 222.313C136.044 222.128 136.37 222.029 136.703 222.029C137.148 222.031 137.575 222.209 137.89 222.524C138.205 222.839 138.383 223.266 138.385 223.712Z" fill="#2AD482"/>
<path d="M147.227 223.712C147.229 224.047 147.131 224.374 146.946 224.653C146.761 224.932 146.498 225.15 146.189 225.279C145.88 225.408 145.54 225.442 145.212 225.378C144.884 225.314 144.582 225.153 144.345 224.917C144.107 224.681 143.946 224.38 143.88 224.052C143.814 223.724 143.847 223.384 143.975 223.074C144.103 222.765 144.319 222.501 144.597 222.315C144.875 222.129 145.202 222.029 145.537 222.029C145.983 222.031 146.411 222.209 146.727 222.524C147.044 222.839 147.223 223.266 147.227 223.712Z" fill="#2AD482"/>
<path d="M144.098 228.746H138.193C137.919 228.747 137.647 228.693 137.393 228.589C137.139 228.484 136.908 228.33 136.714 228.136C136.52 227.942 136.366 227.711 136.262 227.457C136.157 227.204 136.104 226.931 136.105 226.657V223.631C136.107 223.465 136.173 223.307 136.291 223.189C136.408 223.072 136.566 223.005 136.732 223.004C136.898 223.005 137.056 223.072 137.174 223.189C137.291 223.307 137.358 223.465 137.359 223.631V226.686C137.358 226.797 137.379 226.906 137.421 227.008C137.462 227.11 137.524 227.203 137.601 227.281C137.679 227.359 137.771 227.421 137.873 227.464C137.974 227.506 138.083 227.528 138.193 227.528H144.098C144.321 227.528 144.535 227.439 144.693 227.281C144.851 227.124 144.939 226.91 144.939 226.686V223.631C144.941 223.465 145.008 223.307 145.125 223.189C145.242 223.072 145.401 223.005 145.567 223.004C145.732 223.005 145.891 223.072 146.008 223.189C146.125 223.307 146.192 223.465 146.194 223.631V226.686C146.186 227.237 145.962 227.761 145.569 228.147C145.177 228.532 144.648 228.748 144.098 228.746Z" fill="#3C4D45"/>
<path d="M159.132 258.032V242.732C158.699 242.732 158.271 242.646 157.871 242.48C157.471 242.315 157.108 242.071 156.802 241.765C156.496 241.459 156.254 241.095 156.089 240.695C155.924 240.294 155.839 239.866 155.84 239.433H127.942C127.942 240.308 127.594 241.147 126.976 241.765C126.357 242.384 125.518 242.732 124.643 242.732V258.032C125.517 258.032 126.355 258.378 126.973 258.995C127.592 259.612 127.94 260.45 127.942 261.323H155.84C155.84 260.45 156.187 259.613 156.805 258.996C157.422 258.378 158.259 258.032 159.132 258.032Z" fill="#2AD482"/>
<path opacity="0.6" d="M159.132 258.032V242.732C158.699 242.732 158.271 242.646 157.871 242.48C157.471 242.315 157.108 242.071 156.802 241.765C156.496 241.459 156.254 241.095 156.089 240.695C155.924 240.294 155.839 239.866 155.84 239.433H127.942C127.942 240.308 127.594 241.147 126.976 241.765C126.357 242.384 125.518 242.732 124.643 242.732V258.032C125.517 258.032 126.355 258.378 126.973 258.995C127.592 259.612 127.94 260.45 127.942 261.323H155.84C155.84 260.45 156.187 259.613 156.805 258.996C157.422 258.378 158.259 258.032 159.132 258.032Z" fill="#FDFFFE"/>
<path d="M126.303 258.032V242.732C127.178 242.732 128.018 242.384 128.636 241.765C129.255 241.147 129.603 240.308 129.603 239.433H127.942C127.942 240.308 127.594 241.147 126.976 241.765C126.357 242.384 125.518 242.732 124.643 242.732V258.032C125.517 258.032 126.355 258.378 126.973 258.995C127.592 259.612 127.94 260.45 127.942 261.323H129.603C129.601 260.45 129.252 259.612 128.634 258.995C128.015 258.378 127.177 258.032 126.303 258.032Z" fill="#2AD482"/>
<path opacity="0.2" d="M126.303 258.032V242.732C127.178 242.732 128.018 242.384 128.636 241.765C129.255 241.147 129.603 240.308 129.603 239.433H127.942C127.942 240.308 127.594 241.147 126.976 241.765C126.357 242.384 125.518 242.732 124.643 242.732V258.032C125.517 258.032 126.355 258.378 126.973 258.995C127.592 259.612 127.94 260.45 127.942 261.323H129.603C129.601 260.45 129.252 259.612 128.634 258.995C128.015 258.378 127.177 258.032 126.303 258.032Z" fill="#FDFFFE"/>
<path d="M138.385 250.378C138.385 250.711 138.287 251.036 138.102 251.313C137.917 251.59 137.654 251.805 137.347 251.933C137.039 252.06 136.701 252.093 136.374 252.028C136.048 251.964 135.748 251.803 135.513 251.568C135.277 251.333 135.117 251.033 135.052 250.706C134.987 250.38 135.021 250.042 135.148 249.734C135.275 249.427 135.491 249.164 135.768 248.979C136.044 248.794 136.37 248.695 136.703 248.695C137.148 248.697 137.575 248.875 137.89 249.19C138.205 249.505 138.383 249.932 138.385 250.378Z" fill="#2AD482"/>
<path d="M147.227 250.378C147.229 250.713 147.131 251.04 146.946 251.319C146.761 251.598 146.498 251.816 146.189 251.945C145.88 252.074 145.54 252.108 145.212 252.044C144.884 251.98 144.582 251.819 144.345 251.583C144.107 251.347 143.946 251.046 143.88 250.718C143.814 250.39 143.847 250.05 143.975 249.74C144.103 249.431 144.319 249.167 144.597 248.981C144.875 248.795 145.202 248.695 145.537 248.695C145.983 248.697 146.411 248.875 146.727 249.19C147.044 249.505 147.223 249.932 147.227 250.378Z" fill="#2AD482"/>
<path d="M144.098 255.412H138.193C137.919 255.412 137.647 255.359 137.393 255.255C137.139 255.15 136.908 254.996 136.714 254.802C136.52 254.608 136.366 254.377 136.262 254.123C136.157 253.869 136.104 253.597 136.105 253.323V250.267C136.105 250.101 136.171 249.941 136.288 249.824C136.406 249.706 136.566 249.64 136.732 249.64C136.898 249.64 137.058 249.706 137.176 249.824C137.293 249.941 137.359 250.101 137.359 250.267V253.323C137.358 253.433 137.379 253.542 137.421 253.644C137.462 253.746 137.524 253.839 137.601 253.917C137.679 253.996 137.771 254.058 137.873 254.1C137.974 254.142 138.083 254.164 138.193 254.164H144.098C144.321 254.164 144.535 254.076 144.693 253.918C144.851 253.76 144.939 253.546 144.939 253.323V250.267C144.939 250.101 145.005 249.941 145.123 249.824C145.241 249.706 145.4 249.64 145.567 249.64C145.733 249.64 145.893 249.706 146.01 249.824C146.128 249.941 146.194 250.101 146.194 250.267V253.323C146.194 253.598 146.14 253.87 146.034 254.124C145.929 254.378 145.774 254.608 145.58 254.802C145.385 254.996 145.154 255.15 144.899 255.255C144.645 255.359 144.373 255.412 144.098 255.412Z" fill="#3C4D45"/>
<path d="M134.053 245.514L143.279 239.241H130.732L134.053 245.514Z" fill="#3C4D45"/>
<path opacity="0.8" d="M134.053 245.514L143.279 239.241H130.732L134.053 245.514Z" fill="#FDFFFE"/>
<path d="M319.866 176.831H115.757V182.41H319.866V176.831Z" fill="#2AD482"/>
<path d="M260.947 176.831H115.757V182.41H260.947V176.831Z" fill="#2AD482"/>
<path opacity="0.3" d="M260.947 176.831H115.757V182.41H260.947V176.831Z" fill="#FDFFFE"/>
<path d="M260.814 182.41H218.915V265.014H260.814V182.41Z" fill="#2AD482"/>
<path opacity="0.8" d="M260.814 182.41H218.915V265.014H260.814V182.41Z" fill="#FDFFFE"/>
<path d="M314.035 182.41H260.947V265.014H314.035V182.41Z" fill="#2AD482"/>
<path opacity="0.5" d="M314.035 182.41H260.947V265.014H314.035V182.41Z" fill="#FDFFFE"/>
<path d="M257.124 204.7V189.4C256.25 189.398 255.413 189.049 254.796 188.431C254.179 187.812 253.832 186.974 253.832 186.101H225.934C225.934 186.974 225.587 187.812 224.97 188.431C224.353 189.049 223.516 189.398 222.642 189.4V204.7C223.515 204.7 224.352 205.047 224.969 205.664C225.587 206.281 225.934 207.118 225.934 207.991H253.832C253.832 207.118 254.179 206.281 254.796 205.664C255.414 205.047 256.251 204.7 257.124 204.7Z" fill="#2AD482"/>
<path opacity="0.6" d="M257.124 204.7V189.4C256.25 189.398 255.413 189.049 254.796 188.431C254.179 187.812 253.832 186.974 253.832 186.101H225.934C225.934 186.974 225.587 187.812 224.97 188.431C224.353 189.049 223.516 189.398 222.642 189.4V204.7C223.515 204.7 224.352 205.047 224.969 205.664C225.587 206.281 225.934 207.118 225.934 207.991H253.832C253.832 207.118 254.179 206.281 254.796 205.664C255.414 205.047 256.251 204.7 257.124 204.7Z" fill="#FDFFFE"/>
<path d="M224.302 204.7V189.4C225.176 189.398 226.013 189.049 226.631 188.431C227.248 187.812 227.594 186.974 227.594 186.101H225.934C225.934 186.974 225.587 187.812 224.97 188.431C224.353 189.049 223.516 189.398 222.642 189.4V204.7C223.515 204.7 224.352 205.047 224.969 205.664C225.587 206.281 225.934 207.118 225.934 207.991H227.594C227.594 207.118 227.247 206.281 226.63 205.664C226.013 205.047 225.175 204.7 224.302 204.7Z" fill="#2AD482"/>
<path opacity="0.2" d="M224.302 204.7V189.4C225.176 189.398 226.013 189.049 226.631 188.431C227.248 187.812 227.594 186.974 227.594 186.101H225.934C225.934 186.974 225.587 187.812 224.97 188.431C224.353 189.049 223.516 189.398 222.642 189.4V204.7C223.515 204.7 224.352 205.047 224.969 205.664C225.587 206.281 225.934 207.118 225.934 207.991H227.594C227.594 207.118 227.247 206.281 226.63 205.664C226.013 205.047 225.175 204.7 224.302 204.7Z" fill="#FDFFFE"/>
<path d="M236.377 197.061C236.374 197.393 236.273 197.718 236.086 197.992C235.899 198.267 235.634 198.481 235.326 198.606C235.018 198.731 234.68 198.761 234.354 198.694C234.029 198.627 233.73 198.465 233.497 198.228C233.263 197.991 233.105 197.691 233.042 197.364C232.979 197.038 233.014 196.7 233.143 196.394C233.272 196.087 233.489 195.826 233.766 195.642C234.044 195.459 234.369 195.362 234.702 195.363C235.149 195.367 235.576 195.548 235.89 195.866C236.204 196.184 236.379 196.614 236.377 197.061Z" fill="#2AD482"/>
<path d="M245.219 197.061C245.216 197.394 245.114 197.719 244.927 197.994C244.739 198.269 244.474 198.483 244.165 198.607C243.856 198.731 243.517 198.761 243.191 198.693C242.865 198.624 242.566 198.461 242.333 198.223C242.1 197.985 241.943 197.683 241.882 197.355C241.821 197.028 241.858 196.69 241.989 196.383C242.121 196.077 242.34 195.817 242.619 195.635C242.898 195.454 243.225 195.359 243.558 195.363C244.003 195.371 244.426 195.554 244.737 195.871C245.048 196.189 245.221 196.616 245.219 197.061Z" fill="#2AD482"/>
<path d="M234.997 191.88L240.776 186.101H229.218L234.997 191.88Z" fill="#3C4D45"/>
<path opacity="0.7" d="M234.997 191.88L240.776 186.101H229.218L234.997 191.88Z" fill="#FDFFFE"/>
<path d="M240.636 190.404L244.938 186.101H236.34L240.636 190.404Z" fill="#3C4D45"/>
<path opacity="0.8" d="M240.636 190.404L244.938 186.101H236.34L240.636 190.404Z" fill="#FDFFFE"/>
<path d="M242.082 202.08H236.178C235.631 202.074 235.109 201.854 234.723 201.468C234.336 201.082 234.117 200.559 234.111 200.013V196.958C234.111 196.791 234.177 196.632 234.295 196.514C234.412 196.396 234.572 196.33 234.738 196.33C234.821 196.33 234.902 196.346 234.978 196.378C235.055 196.409 235.124 196.456 235.182 196.514C235.24 196.572 235.286 196.641 235.318 196.717C235.35 196.794 235.366 196.875 235.366 196.958V200.013C235.366 200.235 235.453 200.448 235.61 200.605C235.766 200.763 235.978 200.853 236.2 200.854H242.104C242.326 200.853 242.538 200.763 242.694 200.605C242.851 200.448 242.938 200.235 242.938 200.013V196.958C242.937 196.875 242.953 196.793 242.983 196.717C243.014 196.64 243.059 196.571 243.117 196.512C243.174 196.453 243.243 196.406 243.319 196.373C243.394 196.341 243.476 196.324 243.558 196.323C243.725 196.323 243.884 196.389 244.002 196.507C244.119 196.624 244.186 196.784 244.186 196.95V200.013C244.18 200.566 243.955 201.094 243.561 201.481C243.166 201.868 242.635 202.084 242.082 202.08Z" fill="#3C4D45"/>
<path d="M257.124 231.366V216.066C256.25 216.064 255.413 215.715 254.796 215.097C254.179 214.478 253.832 213.64 253.832 212.767H225.934C225.934 213.64 225.587 214.478 224.97 215.097C224.353 215.715 223.516 216.064 222.642 216.066V231.366C223.515 231.366 224.352 231.712 224.969 232.33C225.587 232.947 225.934 233.784 225.934 234.657H253.832C253.832 233.784 254.179 232.947 254.796 232.33C255.414 231.712 256.251 231.366 257.124 231.366Z" fill="#2AD482"/>
<path opacity="0.6" d="M257.124 231.366V216.066C256.25 216.064 255.413 215.715 254.796 215.097C254.179 214.478 253.832 213.64 253.832 212.767H225.934C225.934 213.64 225.587 214.478 224.97 215.097C224.353 215.715 223.516 216.064 222.642 216.066V231.366C223.515 231.366 224.352 231.712 224.969 232.33C225.587 232.947 225.934 233.784 225.934 234.657H253.832C253.832 233.784 254.179 232.947 254.796 232.33C255.414 231.712 256.251 231.366 257.124 231.366Z" fill="#FDFFFE"/>
<path d="M224.302 231.366V216.066C225.176 216.064 226.013 215.715 226.631 215.097C227.248 214.478 227.594 213.64 227.594 212.767H225.934C225.934 213.64 225.587 214.478 224.97 215.097C224.353 215.715 223.516 216.064 222.642 216.066V231.366C223.515 231.366 224.352 231.712 224.969 232.33C225.587 232.947 225.934 233.784 225.934 234.657H227.594C227.594 233.784 227.247 232.947 226.63 232.33C226.013 231.712 225.175 231.366 224.302 231.366Z" fill="#2AD482"/>
<path opacity="0.2" d="M224.302 231.366V216.066C225.176 216.064 226.013 215.715 226.631 215.097C227.248 214.478 227.594 213.64 227.594 212.767H225.934C225.934 213.64 225.587 214.478 224.97 215.097C224.353 215.715 223.516 216.064 222.642 216.066V231.366C223.515 231.366 224.352 231.712 224.969 232.33C225.587 232.947 225.934 233.784 225.934 234.657H227.594C227.594 233.784 227.247 232.947 226.63 232.33C226.013 231.712 225.175 231.366 224.302 231.366Z" fill="#FDFFFE"/>
<path d="M236.377 223.712C236.377 224.045 236.278 224.37 236.093 224.647C235.908 224.924 235.646 225.139 235.338 225.267C235.031 225.394 234.692 225.427 234.366 225.362C234.04 225.298 233.74 225.137 233.504 224.902C233.269 224.667 233.109 224.367 233.044 224.04C232.979 223.714 233.012 223.376 233.14 223.068C233.267 222.761 233.483 222.498 233.759 222.313C234.036 222.128 234.361 222.029 234.694 222.029C235.14 222.031 235.567 222.209 235.882 222.524C236.197 222.839 236.375 223.266 236.377 223.712Z" fill="#2AD482"/>
<path d="M245.219 223.712C245.219 224.045 245.12 224.37 244.935 224.647C244.751 224.924 244.488 225.139 244.18 225.267C243.873 225.394 243.534 225.427 243.208 225.362C242.882 225.298 242.582 225.137 242.346 224.902C242.111 224.667 241.951 224.367 241.886 224.04C241.821 223.714 241.854 223.376 241.982 223.068C242.109 222.761 242.325 222.498 242.601 222.313C242.878 222.128 243.203 222.029 243.536 222.029C243.982 222.031 244.409 222.209 244.724 222.524C245.039 222.839 245.217 223.266 245.219 223.712Z" fill="#2AD482"/>
<path d="M242.082 228.746H236.178C235.624 228.746 235.093 228.526 234.701 228.134C234.309 227.742 234.089 227.211 234.089 226.657V223.631C234.091 223.465 234.158 223.307 234.275 223.189C234.392 223.072 234.551 223.005 234.716 223.004C234.882 223.005 235.041 223.072 235.158 223.189C235.275 223.307 235.342 223.465 235.344 223.631V226.686C235.344 226.908 235.431 227.121 235.588 227.279C235.744 227.436 235.956 227.526 236.178 227.528H242.082C242.304 227.526 242.516 227.436 242.672 227.279C242.829 227.121 242.916 226.908 242.916 226.686V223.631C242.918 223.465 242.985 223.307 243.102 223.189C243.219 223.072 243.378 223.005 243.544 223.004C243.709 223.005 243.868 223.072 243.985 223.189C244.102 223.307 244.169 223.465 244.171 223.631V226.686C244.163 227.235 243.94 227.759 243.549 228.144C243.158 228.53 242.631 228.746 242.082 228.746Z" fill="#3C4D45"/>
<path d="M257.124 258.032V242.732C256.25 242.73 255.413 242.381 254.796 241.763C254.179 241.144 253.832 240.306 253.832 239.433H225.934C225.934 240.306 225.587 241.144 224.97 241.763C224.353 242.381 223.516 242.73 222.642 242.732V258.032C223.515 258.032 224.352 258.378 224.969 258.996C225.587 259.613 225.934 260.45 225.934 261.323H253.832C253.832 260.45 254.179 259.613 254.796 258.996C255.414 258.378 256.251 258.032 257.124 258.032Z" fill="#2AD482"/>
<path opacity="0.6" d="M257.124 258.032V242.732C256.25 242.73 255.413 242.381 254.796 241.763C254.179 241.144 253.832 240.306 253.832 239.433H225.934C225.934 240.306 225.587 241.144 224.97 241.763C224.353 242.381 223.516 242.73 222.642 242.732V258.032C223.515 258.032 224.352 258.378 224.969 258.996C225.587 259.613 225.934 260.45 225.934 261.323H253.832C253.832 260.45 254.179 259.613 254.796 258.996C255.414 258.378 256.251 258.032 257.124 258.032Z" fill="#FDFFFE"/>
<path d="M224.302 258.032V242.732C225.176 242.73 226.013 242.381 226.631 241.763C227.248 241.144 227.594 240.306 227.594 239.433H225.934C225.934 240.306 225.587 241.144 224.97 241.763C224.353 242.381 223.516 242.73 222.642 242.732V258.032C223.515 258.032 224.352 258.378 224.969 258.996C225.587 259.613 225.934 260.45 225.934 261.323H227.594C227.594 260.45 227.247 259.613 226.63 258.996C226.013 258.378 225.175 258.032 224.302 258.032Z" fill="#2AD482"/>
<path opacity="0.2" d="M224.302 258.032V242.732C225.176 242.73 226.013 242.381 226.631 241.763C227.248 241.144 227.594 240.306 227.594 239.433H225.934C225.934 240.306 225.587 241.144 224.97 241.763C224.353 242.381 223.516 242.73 222.642 242.732V258.032C223.515 258.032 224.352 258.378 224.969 258.996C225.587 259.613 225.934 260.45 225.934 261.323H227.594C227.594 260.45 227.247 259.613 226.63 258.996C226.013 258.378 225.175 258.032 224.302 258.032Z" fill="#FDFFFE"/>
<path d="M236.377 250.378C236.383 250.712 236.289 251.041 236.107 251.322C235.926 251.602 235.665 251.823 235.357 251.954C235.05 252.086 234.71 252.123 234.382 252.061C234.053 251.999 233.751 251.84 233.513 251.605C233.275 251.37 233.112 251.07 233.045 250.742C232.979 250.415 233.011 250.074 233.139 249.765C233.267 249.456 233.483 249.192 233.762 249.007C234.04 248.822 234.367 248.723 234.702 248.725C235.141 248.728 235.562 248.903 235.874 249.212C236.187 249.52 236.367 249.939 236.377 250.378Z" fill="#2AD482"/>
<path d="M245.219 250.378C245.225 250.713 245.131 251.042 244.948 251.323C244.766 251.604 244.504 251.824 244.196 251.956C243.888 252.087 243.547 252.123 243.218 252.06C242.889 251.996 242.587 251.836 242.349 251.6C242.112 251.364 241.95 251.062 241.886 250.733C241.821 250.404 241.855 250.064 241.985 249.755C242.115 249.446 242.334 249.183 242.615 249C242.895 248.816 243.223 248.72 243.558 248.725C243.995 248.732 244.412 248.909 244.722 249.217C245.031 249.525 245.21 249.941 245.219 250.378Z" fill="#2AD482"/>
<path d="M242.082 255.412H236.178C235.624 255.412 235.093 255.191 234.701 254.8C234.309 254.408 234.089 253.877 234.089 253.323V250.267C234.089 250.101 234.155 249.941 234.273 249.824C234.39 249.706 234.55 249.64 234.716 249.64C234.799 249.64 234.88 249.656 234.957 249.688C235.033 249.719 235.102 249.765 235.16 249.824C235.218 249.882 235.265 249.951 235.296 250.027C235.328 250.103 235.344 250.185 235.344 250.267V253.323C235.344 253.545 235.431 253.758 235.588 253.915C235.744 254.073 235.956 254.162 236.178 254.164H242.082C242.304 254.162 242.516 254.073 242.672 253.915C242.829 253.758 242.916 253.545 242.916 253.323V250.267C242.916 250.101 242.982 249.941 243.1 249.824C243.218 249.706 243.377 249.64 243.544 249.64C243.626 249.64 243.708 249.656 243.784 249.688C243.86 249.719 243.929 249.765 243.987 249.824C244.045 249.882 244.092 249.951 244.123 250.027C244.155 250.103 244.171 250.185 244.171 250.267V253.323C244.171 253.597 244.117 253.869 244.012 254.122C243.907 254.376 243.753 254.606 243.559 254.8C243.365 254.994 243.135 255.148 242.882 255.253C242.628 255.357 242.357 255.412 242.082 255.412Z" fill="#3C4D45"/>
<path d="M232.045 245.514L241.27 239.241H228.723L232.045 245.514Z" fill="#3C4D45"/>
<path opacity="0.8" d="M232.045 245.514L241.27 239.241H228.723L232.045 245.514Z" fill="#FDFFFE"/>
<path d="M324.656 251.603H293.517V258.098H324.671C324.389 255.943 324.384 253.76 324.656 251.603Z" fill="#2AD482"/>
<path opacity="0.7" d="M324.656 251.603H293.517V258.098H324.671C324.389 255.943 324.384 253.76 324.656 251.603Z" fill="#FDFFFE"/>
<path d="M299.193 258.445H289.399L289.318 258.319C288.382 257.384 287.856 256.115 287.856 254.792C287.856 253.468 288.382 252.199 289.318 251.264L289.414 251.16H299.208L298.625 251.743C298.224 252.144 297.907 252.619 297.69 253.142C297.473 253.665 297.362 254.225 297.362 254.792C297.362 255.358 297.473 255.918 297.69 256.441C297.907 256.964 298.224 257.439 298.625 257.84L299.193 258.445Z" fill="#2AD482"/>
<g opacity="0.3">
<path d="M299.193 258.445H289.399L289.318 258.319C288.382 257.384 287.856 256.115 287.856 254.792C287.856 253.468 288.382 252.199 289.318 251.264L289.414 251.16H299.208L298.625 251.743C298.224 252.144 297.907 252.619 297.69 253.142C297.473 253.665 297.362 254.225 297.362 254.792C297.362 255.358 297.473 255.918 297.69 256.441C297.907 256.964 298.224 257.439 298.625 257.84L299.193 258.445Z" fill="#3C4D45"/>
</g>
<path d="M324.981 258.445H298.544C297.621 257.536 297.073 256.314 297.008 255.02C296.988 254.337 297.108 253.656 297.362 253.021C297.616 252.386 297.998 251.811 298.485 251.33L298.588 251.227H325.025C325.114 251.229 325.2 251.265 325.263 251.328C325.326 251.392 325.363 251.477 325.364 251.566C325.365 251.657 325.329 251.744 325.266 251.809C325.202 251.874 325.116 251.911 325.025 251.913H298.831C298.078 252.712 297.659 253.768 297.659 254.865C297.659 255.963 298.078 257.019 298.831 257.818H324.981C325.07 257.819 325.155 257.856 325.219 257.919C325.282 257.982 325.318 258.068 325.32 258.157C325.306 258.237 325.265 258.31 325.203 258.363C325.141 258.415 325.062 258.444 324.981 258.445Z" fill="#2AD482"/>
<path d="M322.53 238.495H294.484V244.341H322.53C322.279 242.4 322.279 240.436 322.53 238.495Z" fill="#2AD482"/>
<path opacity="0.8" d="M322.53 238.495H294.484V244.341H322.53C322.279 242.4 322.279 240.436 322.53 238.495Z" fill="#FDFFFE"/>
<path d="M299.651 244.651H290.794L290.698 244.562C289.857 243.718 289.385 242.576 289.385 241.385C289.385 240.194 289.857 239.051 290.698 238.207L290.794 238.119H299.651L299.127 238.643C298.766 239.003 298.48 239.43 298.285 239.901C298.09 240.371 297.99 240.875 297.99 241.385C297.99 241.894 298.09 242.398 298.285 242.869C298.48 243.339 298.766 243.767 299.127 244.127L299.651 244.651Z" fill="#2AD482"/>
<g opacity="0.2">
<path d="M299.651 244.651H290.794L290.698 244.562C289.857 243.718 289.385 242.576 289.385 241.385C289.385 240.194 289.857 239.051 290.698 238.207L290.794 238.119H299.651L299.127 238.643C298.766 239.003 298.48 239.43 298.285 239.901C298.09 240.371 297.99 240.875 297.99 241.385C297.99 241.894 298.09 242.398 298.285 242.869C298.48 243.339 298.766 243.767 299.127 244.127L299.651 244.651Z" fill="#FDFFFE"/>
</g>
<path d="M322.833 244.651H299.038C298.201 243.839 297.708 242.738 297.658 241.573C297.632 240.956 297.736 240.341 297.962 239.766C298.188 239.192 298.532 238.671 298.971 238.237L299.06 238.148H322.855C322.935 238.148 323.012 238.18 323.069 238.237C323.126 238.294 323.157 238.371 323.157 238.451C323.158 238.491 323.151 238.532 323.137 238.569C323.122 238.607 323.1 238.641 323.072 238.67C323.043 238.699 323.01 238.722 322.972 238.737C322.935 238.753 322.895 238.761 322.855 238.761H299.296C298.623 239.48 298.248 240.429 298.248 241.414C298.248 242.4 298.623 243.348 299.296 244.068H322.833C322.913 244.068 322.99 244.1 323.047 244.156C323.103 244.213 323.135 244.29 323.135 244.37C323.13 244.447 323.095 244.518 323.039 244.57C322.983 244.622 322.909 244.651 322.833 244.651Z" fill="#2AD482"/>
<g opacity="0.4">
<path d="M322.833 244.651H299.038C298.201 243.839 297.708 242.738 297.658 241.573C297.632 240.956 297.736 240.341 297.962 239.766C298.188 239.192 298.532 238.671 298.971 238.237L299.06 238.148H322.855C322.935 238.148 323.012 238.18 323.069 238.237C323.126 238.294 323.157 238.371 323.157 238.451C323.158 238.491 323.151 238.532 323.137 238.569C323.122 238.607 323.1 238.641 323.072 238.67C323.043 238.699 323.01 238.722 322.972 238.737C322.935 238.753 322.895 238.761 322.855 238.761H299.296C298.623 239.48 298.248 240.429 298.248 241.414C298.248 242.4 298.623 243.348 299.296 244.068H322.833C322.913 244.068 322.99 244.1 323.047 244.156C323.103 244.213 323.135 244.29 323.135 244.37C323.13 244.447 323.095 244.518 323.039 244.57C322.983 244.622 322.909 244.651 322.833 244.651Z" fill="#FDFFFE"/>
</g>
<path d="M322.53 231.964H294.484V237.809H322.53C322.279 235.869 322.279 233.904 322.53 231.964Z" fill="#2AD482"/>
<path opacity="0.8" d="M322.53 231.964H294.484V237.809H322.53C322.279 235.869 322.279 233.904 322.53 231.964Z" fill="#FDFFFE"/>
<path d="M299.651 238.119H290.794L290.698 238.023C290.281 237.606 289.95 237.111 289.725 236.567C289.499 236.022 289.383 235.439 289.383 234.849C289.383 234.26 289.499 233.676 289.725 233.132C289.95 232.587 290.281 232.092 290.698 231.676L290.794 231.58H299.651L299.127 232.111C298.766 232.471 298.48 232.898 298.285 233.369C298.09 233.839 297.99 234.344 297.99 234.853C297.99 235.362 298.09 235.867 298.285 236.337C298.48 236.808 298.766 237.235 299.127 237.595L299.651 238.119Z" fill="#2AD482"/>
<g opacity="0.4">
<path d="M299.651 238.119H290.794L290.698 238.023C290.281 237.606 289.95 237.111 289.725 236.567C289.499 236.022 289.383 235.439 289.383 234.849C289.383 234.26 289.499 233.676 289.725 233.132C289.95 232.587 290.281 232.092 290.698 231.676L290.794 231.58H299.651L299.127 232.111C298.766 232.471 298.48 232.898 298.285 233.369C298.09 233.839 297.99 234.344 297.99 234.853C297.99 235.362 298.09 235.867 298.285 236.337C298.48 236.808 298.766 237.235 299.127 237.595L299.651 238.119Z" fill="#FDFFFE"/>
</g>
<path d="M322.833 238.119H299.038C298.203 237.306 297.709 236.205 297.658 235.041C297.632 234.424 297.736 233.809 297.962 233.234C298.188 232.66 298.532 232.139 298.971 231.705L299.06 231.609H322.855C322.895 231.609 322.935 231.617 322.972 231.633C323.01 231.649 323.043 231.672 323.072 231.7C323.1 231.729 323.122 231.764 323.137 231.801C323.151 231.839 323.158 231.879 323.157 231.919C323.158 231.96 323.151 232 323.137 232.037C323.122 232.075 323.1 232.109 323.072 232.138C323.043 232.167 323.01 232.19 322.972 232.205C322.935 232.221 322.895 232.229 322.855 232.229H299.296C298.623 232.947 298.249 233.895 298.249 234.879C298.249 235.863 298.623 236.81 299.296 237.528H322.833C322.873 237.528 322.913 237.537 322.95 237.552C322.987 237.568 323.021 237.591 323.049 237.62C323.078 237.649 323.1 237.683 323.114 237.72C323.129 237.758 323.136 237.798 323.135 237.838C323.13 237.915 323.095 237.986 323.039 238.038C322.983 238.09 322.909 238.119 322.833 238.119Z" fill="#2AD482"/>
<g opacity="0.5">
<path d="M322.833 238.119H299.038C298.203 237.306 297.709 236.205 297.658 235.041C297.632 234.424 297.736 233.809 297.962 233.234C298.188 232.66 298.532 232.139 298.971 231.705L299.06 231.609H322.855C322.895 231.609 322.935 231.617 322.972 231.633C323.01 231.649 323.043 231.672 323.072 231.7C323.1 231.729 323.122 231.764 323.137 231.801C323.151 231.839 323.158 231.879 323.157 231.919C323.158 231.96 323.151 232 323.137 232.037C323.122 232.075 323.1 232.109 323.072 232.138C323.043 232.167 323.01 232.19 322.972 232.205C322.935 232.221 322.895 232.229 322.855 232.229H299.296C298.623 232.947 298.249 233.895 298.249 234.879C298.249 235.863 298.623 236.81 299.296 237.528H322.833C322.873 237.528 322.913 237.537 322.95 237.552C322.987 237.568 323.021 237.591 323.049 237.62C323.078 237.649 323.1 237.683 323.114 237.72C323.129 237.758 323.136 237.798 323.135 237.838C323.13 237.915 323.095 237.986 323.039 238.038C322.983 238.09 322.909 238.119 322.833 238.119Z" fill="#FDFFFE"/>
</g>
<path d="M322.53 258.866H294.484V264.704H322.53C322.279 262.766 322.279 260.804 322.53 258.866Z" fill="#2AD482"/>
<path opacity="0.8" d="M322.53 258.866H294.484V264.704H322.53C322.279 262.766 322.279 260.804 322.53 258.866Z" fill="#FDFFFE"/>
<path d="M299.651 265.014H290.794L290.698 264.925C289.857 264.081 289.385 262.939 289.385 261.748C289.385 260.557 289.857 259.414 290.698 258.57L290.794 258.482H299.651L299.127 259.006C298.766 259.366 298.48 259.793 298.285 260.264C298.09 260.734 297.99 261.238 297.99 261.748C297.99 262.257 298.09 262.761 298.285 263.232C298.48 263.702 298.766 264.13 299.127 264.49L299.651 265.014Z" fill="#3C4D45"/>
<path d="M322.833 265.014H299.038C298.202 264.198 297.709 263.095 297.658 261.929C297.635 261.312 297.74 260.697 297.966 260.123C298.192 259.549 298.534 259.028 298.971 258.593L299.06 258.504H322.855C322.895 258.504 322.935 258.512 322.972 258.528C323.01 258.543 323.043 258.566 323.072 258.595C323.1 258.624 323.122 258.658 323.137 258.696C323.151 258.733 323.158 258.774 323.157 258.814C323.157 258.894 323.126 258.971 323.069 259.028C323.012 259.085 322.935 259.117 322.855 259.117H299.296C298.623 259.836 298.248 260.784 298.248 261.77C298.248 262.755 298.623 263.704 299.296 264.423H322.833C322.872 264.423 322.912 264.431 322.949 264.446C322.985 264.461 323.019 264.484 323.047 264.512C323.075 264.54 323.097 264.573 323.112 264.61C323.128 264.647 323.135 264.686 323.135 264.726C323.132 264.803 323.098 264.877 323.042 264.93C322.985 264.984 322.91 265.014 322.833 265.014Z" fill="#2AD482"/>
<path d="M322.53 245.034H294.484V250.872H322.53C322.279 248.935 322.279 246.972 322.53 245.034Z" fill="#2AD482"/>
<path opacity="0.7" d="M322.53 245.034H294.484V250.872H322.53C322.279 248.935 322.279 246.972 322.53 245.034Z" fill="#FDFFFE"/>
<path d="M299.651 251.182H290.794L290.698 251.094C289.857 250.25 289.385 249.108 289.385 247.917C289.385 246.726 289.857 245.583 290.698 244.739L290.794 244.651H299.651L299.127 245.175C298.766 245.535 298.48 245.962 298.285 246.432C298.09 246.903 297.99 247.407 297.99 247.917C297.99 248.426 298.09 248.93 298.285 249.401C298.48 249.871 298.766 250.299 299.127 250.658L299.651 251.182Z" fill="#2AD482"/>
<path d="M322.833 251.182H299.038C298.202 250.367 297.709 249.264 297.658 248.097C297.635 247.481 297.74 246.866 297.966 246.292C298.192 245.718 298.534 245.197 298.971 244.761L299.06 244.673H322.855C322.895 244.673 322.935 244.681 322.972 244.697C323.01 244.712 323.043 244.735 323.072 244.764C323.1 244.793 323.122 244.827 323.137 244.865C323.151 244.902 323.158 244.942 323.157 244.983C323.157 245.063 323.126 245.14 323.069 245.197C323.012 245.254 322.935 245.285 322.855 245.285H299.296C298.623 246.005 298.248 246.953 298.248 247.939C298.248 248.924 298.623 249.873 299.296 250.592H322.833C322.913 250.592 322.99 250.624 323.047 250.681C323.103 250.737 323.135 250.814 323.135 250.895C323.132 250.972 323.098 251.046 323.042 251.099C322.985 251.153 322.91 251.183 322.833 251.182Z" fill="#2AD482"/>
<g opacity="0.3">
<path d="M322.833 251.182H299.038C298.202 250.367 297.709 249.264 297.658 248.097C297.635 247.481 297.74 246.866 297.966 246.292C298.192 245.718 298.534 245.197 298.971 244.761L299.06 244.673H322.855C322.895 244.673 322.935 244.681 322.972 244.697C323.01 244.712 323.043 244.735 323.072 244.764C323.1 244.793 323.122 244.827 323.137 244.865C323.151 244.902 323.158 244.942 323.157 244.983C323.157 245.063 323.126 245.14 323.069 245.197C323.012 245.254 322.935 245.285 322.855 245.285H299.296C298.623 246.005 298.248 246.953 298.248 247.939C298.248 248.924 298.623 249.873 299.296 250.592H322.833C322.913 250.592 322.99 250.624 323.047 250.681C323.103 250.737 323.135 250.814 323.135 250.895C323.132 250.972 323.098 251.046 323.042 251.099C322.985 251.153 322.91 251.183 322.833 251.182Z" fill="#FDFFFE"/>
</g>
<path d="M267.914 176.55H296.248V170.646H267.914C268.165 172.606 268.165 174.59 267.914 176.55Z" fill="#2AD482"/>
<path opacity="0.7" d="M267.914 176.55H296.248V170.646H267.914C268.165 172.606 268.165 174.59 267.914 176.55Z" fill="#FDFFFE"/>
<path d="M291.111 170.328H300.02L300.108 170.417C300.958 171.269 301.436 172.424 301.436 173.628C301.436 174.831 300.958 175.986 300.108 176.838L300.02 176.934H291.111L291.643 176.403C292.008 176.039 292.297 175.607 292.495 175.132C292.692 174.656 292.794 174.146 292.794 173.631C292.794 173.116 292.692 172.606 292.495 172.131C292.297 171.655 292.008 171.223 291.643 170.86L291.111 170.328Z" fill="#2AD482"/>
<g opacity="0.3">
<path d="M291.111 170.328H300.02L300.108 170.417C300.958 171.269 301.436 172.424 301.436 173.628C301.436 174.831 300.958 175.986 300.108 176.838L300.02 176.934H291.111L291.643 176.403C292.008 176.039 292.297 175.607 292.495 175.132C292.692 174.656 292.794 174.146 292.794 173.631C292.794 173.116 292.692 172.606 292.495 172.131C292.297 171.655 292.008 171.223 291.643 170.86L291.111 170.328Z" fill="#3C4D45"/>
</g>
<path d="M267.656 170.328H291.702C292.54 171.156 293.038 172.267 293.097 173.443C293.12 174.067 293.014 174.688 292.786 175.269C292.557 175.849 292.211 176.376 291.768 176.816L291.672 176.912H267.656C267.574 176.912 267.495 176.879 267.437 176.821C267.379 176.763 267.346 176.684 267.346 176.602C267.346 176.561 267.354 176.521 267.37 176.483C267.385 176.446 267.408 176.412 267.437 176.383C267.466 176.354 267.5 176.331 267.537 176.316C267.575 176.3 267.615 176.292 267.656 176.292H291.443C292.126 175.565 292.506 174.606 292.506 173.609C292.506 172.612 292.126 171.653 291.443 170.926H267.656C267.574 170.926 267.495 170.894 267.437 170.836C267.379 170.777 267.346 170.699 267.346 170.616C267.352 170.538 267.387 170.465 267.444 170.411C267.502 170.358 267.577 170.328 267.656 170.328Z" fill="#2AD482"/>
<path d="M268.697 158.092H294.196V152.778H268.689C268.917 154.541 268.919 156.327 268.697 158.092Z" fill="#2AD482"/>
<path opacity="0.8" d="M268.697 158.092H294.196V152.778H268.689C268.917 154.541 268.919 156.327 268.697 158.092Z" fill="#FDFFFE"/>
<path d="M289.547 152.497H297.562L297.643 152.578C298.409 153.345 298.839 154.384 298.839 155.468C298.839 156.551 298.409 157.591 297.643 158.357L297.562 158.438H289.547L290.056 157.944C290.383 157.616 290.643 157.227 290.821 156.799C290.998 156.371 291.089 155.913 291.089 155.449C291.089 154.986 290.998 154.527 290.821 154.099C290.643 153.671 290.383 153.282 290.056 152.955L289.547 152.497Z" fill="#2AD482"/>
<g opacity="0.2">
<path d="M289.547 152.497H297.562L297.643 152.578C298.409 153.345 298.839 154.384 298.839 155.468C298.839 156.551 298.409 157.591 297.643 158.357L297.562 158.438H289.547L290.056 157.944C290.383 157.616 290.643 157.227 290.821 156.799C290.998 156.371 291.089 155.913 291.089 155.449C291.089 154.986 290.998 154.527 290.821 154.099C290.643 153.671 290.383 153.282 290.056 152.955L289.547 152.497Z" fill="#FDFFFE"/>
</g>
<path d="M268.431 152.497H290.056C290.814 153.239 291.262 154.242 291.311 155.302C291.334 155.863 291.24 156.423 291.034 156.945C290.828 157.467 290.515 157.941 290.115 158.335L290.034 158.416H268.431C268.358 158.414 268.288 158.384 268.237 158.332C268.186 158.279 268.158 158.209 268.158 158.136C268.16 158.064 268.189 157.996 268.24 157.945C268.291 157.894 268.359 157.865 268.431 157.863H289.834C290.451 157.21 290.795 156.347 290.795 155.449C290.795 154.552 290.451 153.688 289.834 153.036H268.431C268.358 153.034 268.288 153.004 268.237 152.951C268.186 152.899 268.158 152.829 268.158 152.755C268.163 152.686 268.194 152.621 268.245 152.574C268.295 152.526 268.361 152.499 268.431 152.497Z" fill="#2AD482"/>
<g opacity="0.4">
<path d="M268.431 152.497H290.056C290.814 153.239 291.262 154.242 291.311 155.302C291.334 155.863 291.24 156.423 291.034 156.945C290.828 157.467 290.515 157.941 290.115 158.335L290.034 158.416H268.431C268.358 158.414 268.288 158.384 268.237 158.332C268.186 158.279 268.158 158.209 268.158 158.136C268.16 158.064 268.189 157.996 268.24 157.945C268.291 157.894 268.359 157.865 268.431 157.863H289.834C290.451 157.21 290.795 156.347 290.795 155.449C290.795 154.552 290.451 153.688 289.834 153.036H268.431C268.358 153.034 268.288 153.004 268.237 152.951C268.186 152.899 268.158 152.829 268.158 152.755C268.163 152.686 268.194 152.621 268.245 152.574C268.295 152.526 268.361 152.499 268.431 152.497Z" fill="#FDFFFE"/>
</g>
<path d="M268.697 164.04H294.196V158.719H268.689C268.917 160.485 268.919 162.273 268.697 164.04Z" fill="#2AD482"/>
<path opacity="0.8" d="M268.697 164.04H294.196V158.719H268.689C268.917 160.485 268.919 162.273 268.697 164.04Z" fill="#FDFFFE"/>
<path d="M289.547 158.438H297.562L297.643 158.52C298.409 159.288 298.84 160.328 298.84 161.413C298.84 162.498 298.409 163.538 297.643 164.306L297.562 164.387H289.547L290.026 163.907C290.354 163.58 290.614 163.191 290.791 162.763C290.968 162.335 291.06 161.876 291.06 161.413C291.06 160.949 290.968 160.491 290.791 160.063C290.614 159.635 290.354 159.246 290.026 158.918L289.547 158.438Z" fill="#3C4D45"/>
<path d="M268.431 158.438H290.056C290.814 159.181 291.262 160.183 291.311 161.243C291.334 161.805 291.239 162.366 291.033 162.89C290.828 163.413 290.515 163.888 290.115 164.284L290.034 164.365H268.431C268.358 164.363 268.288 164.333 268.237 164.28C268.186 164.228 268.158 164.158 268.158 164.085C268.158 164.011 268.186 163.941 268.237 163.889C268.288 163.836 268.358 163.806 268.431 163.804H289.834C290.451 163.152 290.795 162.288 290.795 161.391C290.795 160.493 290.451 159.629 289.834 158.977H268.431C268.358 158.975 268.288 158.945 268.237 158.892C268.186 158.84 268.158 158.77 268.158 158.697C268.163 158.627 268.194 158.563 268.245 158.515C268.295 158.467 268.361 158.44 268.431 158.438Z" fill="#2AD482"/>
<path d="M267.796 169.982H293.296V164.668H267.789C268.02 166.431 268.022 168.217 267.796 169.982Z" fill="#2AD482"/>
<path opacity="0.7" d="M267.796 169.982H293.296V164.668H267.789C268.02 166.431 268.022 168.217 267.796 169.982Z" fill="#FDFFFE"/>
<path d="M288.654 164.387H296.698L296.787 164.468C297.553 165.235 297.983 166.274 297.983 167.358C297.983 168.441 297.553 169.481 296.787 170.247L296.698 170.328H288.654L289.126 169.849C289.454 169.521 289.713 169.132 289.891 168.704C290.068 168.276 290.159 167.817 290.159 167.354C290.159 166.891 290.068 166.432 289.891 166.004C289.713 165.576 289.454 165.187 289.126 164.859L288.654 164.387Z" fill="#2AD482"/>
<path d="M267.538 164.387H289.185C289.942 165.13 290.391 166.132 290.44 167.192C290.46 167.752 290.364 168.311 290.159 168.833C289.953 169.355 289.641 169.829 289.244 170.225L289.163 170.306H267.538C267.463 170.306 267.392 170.277 267.339 170.224C267.287 170.172 267.257 170.1 267.257 170.026C267.257 169.951 267.287 169.88 267.339 169.828C267.392 169.775 267.463 169.745 267.538 169.745H288.941C289.553 169.092 289.893 168.23 289.893 167.336C289.893 166.441 289.553 165.579 288.941 164.926H267.538C267.463 164.926 267.392 164.896 267.339 164.844C267.287 164.791 267.257 164.72 267.257 164.645C267.263 164.575 267.295 164.509 267.347 164.461C267.399 164.413 267.467 164.387 267.538 164.387Z" fill="#2AD482"/>
<g opacity="0.3">
<path d="M267.538 164.387H289.185C289.942 165.13 290.391 166.132 290.44 167.192C290.46 167.752 290.364 168.311 290.159 168.833C289.953 169.355 289.641 169.829 289.244 170.225L289.163 170.306H267.538C267.463 170.306 267.392 170.277 267.339 170.224C267.287 170.172 267.257 170.1 267.257 170.026C267.257 169.951 267.287 169.88 267.339 169.828C267.392 169.775 267.463 169.745 267.538 169.745H288.941C289.553 169.092 289.893 168.23 289.893 167.336C289.893 166.441 289.553 165.579 288.941 164.926H267.538C267.463 164.926 267.392 164.896 267.339 164.844C267.287 164.791 267.257 164.72 267.257 164.645C267.263 164.575 267.295 164.509 267.347 164.461C267.399 164.413 267.467 164.387 267.538 164.387Z" fill="#FDFFFE"/>
</g>
<path d="M264.054 160.689V164.778C264.15 164.791 264.237 164.839 264.3 164.911C264.364 164.984 264.399 165.077 264.399 165.173C264.399 165.27 264.364 165.363 264.3 165.435C264.237 165.508 264.15 165.555 264.054 165.568H259.375V159.9H264.054C264.15 159.913 264.237 159.96 264.3 160.033C264.364 160.105 264.399 160.198 264.399 160.295C264.399 160.391 264.364 160.484 264.3 160.557C264.237 160.629 264.15 160.676 264.054 160.689Z" fill="#2AD482"/>
<path opacity="0.3" d="M264.054 160.689V164.778C264.15 164.791 264.237 164.839 264.3 164.911C264.364 164.984 264.399 165.077 264.399 165.173C264.399 165.27 264.364 165.363 264.3 165.435C264.237 165.508 264.15 165.555 264.054 165.568H259.375V159.9H264.054C264.15 159.913 264.237 159.96 264.3 160.033C264.364 160.105 264.399 160.198 264.399 160.295C264.399 160.391 264.364 160.484 264.3 160.557C264.237 160.629 264.15 160.676 264.054 160.689Z" fill="#FDFFFE"/>
<path d="M264.054 160.697H260.416V164.778H264.054V160.697Z" fill="#2AD482"/>
<path opacity="0.6" d="M264.054 160.697H260.416V164.778H264.054V160.697Z" fill="#FDFFFE"/>
<path d="M261.183 160.298H241.116C240.245 160.298 239.543 161.405 239.543 162.734C239.543 164.062 240.245 165.169 241.116 165.169H261.183V160.298Z" fill="#2AD482"/>
<path opacity="0.9" d="M261.183 160.298H241.116C240.245 160.298 239.543 161.405 239.543 162.734C239.543 164.062 240.245 165.169 241.116 165.169H261.183V160.298Z" fill="#FDFFFE"/>
<path d="M261.183 165.568C257.058 165.568 245.455 165.642 241.33 165.568C238.503 165.516 238.377 160.099 241.123 159.907C243.057 159.774 245.042 159.907 246.976 159.907H261.183C261.287 159.907 261.386 159.948 261.46 160.022C261.533 160.095 261.574 160.195 261.574 160.298C261.574 160.402 261.533 160.502 261.46 160.575C261.386 160.648 261.287 160.689 261.183 160.689H241.994C241.093 160.689 240.444 160.689 240.097 161.767C239.787 162.69 239.89 164.579 241.13 164.778C241.27 164.793 241.411 164.793 241.551 164.778H261.198C261.293 164.791 261.381 164.839 261.444 164.911C261.508 164.984 261.542 165.077 261.542 165.173C261.542 165.27 261.508 165.363 261.444 165.435C261.381 165.508 261.293 165.555 261.198 165.568H261.183Z" fill="#2AD482"/>
<g opacity="0.2">
<path d="M261.183 165.568C257.058 165.568 245.455 165.642 241.33 165.568C238.503 165.516 238.377 160.099 241.123 159.907C243.057 159.774 245.042 159.907 246.976 159.907H261.183C261.287 159.907 261.386 159.948 261.46 160.022C261.533 160.095 261.574 160.195 261.574 160.298C261.574 160.402 261.533 160.502 261.46 160.575C261.386 160.648 261.287 160.689 261.183 160.689H241.994C241.093 160.689 240.444 160.689 240.097 161.767C239.787 162.69 239.89 164.579 241.13 164.778C241.27 164.793 241.411 164.793 241.551 164.778H261.198C261.293 164.791 261.381 164.839 261.444 164.911C261.508 164.984 261.542 165.077 261.542 165.173C261.542 165.27 261.508 165.363 261.444 165.435C261.381 165.508 261.293 165.555 261.198 165.568H261.183Z" fill="#FDFFFE"/>
</g>
<path d="M263.353 166.21V170.004C263.401 170.008 263.448 170.022 263.49 170.046C263.532 170.069 263.57 170.1 263.599 170.138C263.629 170.176 263.651 170.22 263.663 170.267C263.675 170.313 263.678 170.362 263.67 170.41C263.661 170.491 263.625 170.566 263.567 170.624C263.509 170.681 263.434 170.718 263.353 170.727H259.058V165.472H263.39C263.488 165.472 263.582 165.511 263.651 165.58C263.72 165.649 263.759 165.743 263.759 165.841C263.759 165.939 263.72 166.033 263.651 166.102C263.582 166.171 263.488 166.21 263.39 166.21H263.353Z" fill="#2AD482"/>
<path opacity="0.3" d="M263.353 166.21V170.004C263.401 170.008 263.448 170.022 263.49 170.046C263.532 170.069 263.57 170.1 263.599 170.138C263.629 170.176 263.651 170.22 263.663 170.267C263.675 170.313 263.678 170.362 263.67 170.41C263.661 170.491 263.625 170.566 263.567 170.624C263.509 170.681 263.434 170.718 263.353 170.727H259.058V165.472H263.39C263.488 165.472 263.582 165.511 263.651 165.58C263.72 165.649 263.759 165.743 263.759 165.841C263.759 165.939 263.72 166.033 263.651 166.102C263.582 166.171 263.488 166.21 263.39 166.21H263.353Z" fill="#FDFFFE"/>
<path d="M263.36 166.218H259.988V170.004H263.36V166.218Z" fill="#2AD482"/>
<path opacity="0.6" d="M263.36 166.218H259.988V170.004H263.36V166.218Z" fill="#FDFFFE"/>
<path d="M260.696 165.848H242.082C241.278 165.848 240.606 166.86 240.606 168.107C240.606 169.354 241.256 170.365 242.082 170.365H260.667L260.696 165.848Z" fill="#2AD482"/>
<path opacity="0.9" d="M260.696 165.848H242.082C241.278 165.848 240.606 166.86 240.606 168.107C240.606 169.354 241.256 170.365 242.082 170.365H260.667L260.696 165.848Z" fill="#FDFFFE"/>
<path d="M260.696 170.727C256.873 170.727 246.134 170.793 242.311 170.727C239.691 170.675 239.543 165.664 242.119 165.487C243.905 165.369 245.75 165.487 247.544 165.487H260.696C260.794 165.487 260.888 165.526 260.957 165.595C261.026 165.664 261.065 165.758 261.065 165.856C261.065 165.954 261.026 166.048 260.957 166.117C260.888 166.186 260.794 166.225 260.696 166.225H242.916C242.075 166.225 241.477 166.225 241.152 167.221C240.872 168.077 240.961 169.827 242.112 170.018C242.242 170.026 242.373 170.026 242.503 170.018H260.696C260.744 170.024 260.79 170.039 260.832 170.062C260.873 170.086 260.91 170.117 260.94 170.155C260.969 170.193 260.991 170.236 261.004 170.282C261.016 170.329 261.02 170.377 261.013 170.424C261.002 170.504 260.964 170.578 260.907 170.636C260.85 170.693 260.776 170.73 260.696 170.742V170.727Z" fill="#2AD482"/>
<path d="M265.516 171.517V176.026C265.62 176.04 265.717 176.091 265.786 176.171C265.856 176.25 265.894 176.352 265.894 176.458C265.894 176.564 265.856 176.666 265.786 176.745C265.717 176.825 265.62 176.876 265.516 176.89H260.349V170.661H265.516C265.572 170.667 265.626 170.685 265.676 170.712C265.726 170.74 265.769 170.777 265.804 170.822C265.839 170.866 265.865 170.918 265.88 170.972C265.895 171.027 265.899 171.084 265.892 171.14C265.882 171.237 265.839 171.327 265.771 171.396C265.702 171.464 265.612 171.507 265.516 171.517Z" fill="#2AD482"/>
<path opacity="0.3" d="M265.516 171.517V176.026C265.62 176.04 265.717 176.091 265.786 176.171C265.856 176.25 265.894 176.352 265.894 176.458C265.894 176.564 265.856 176.666 265.786 176.745C265.717 176.825 265.62 176.876 265.516 176.89H260.349V170.661H265.516C265.572 170.667 265.626 170.685 265.676 170.712C265.726 170.74 265.769 170.777 265.804 170.822C265.839 170.866 265.865 170.918 265.88 170.972C265.895 171.027 265.899 171.084 265.892 171.14C265.882 171.237 265.839 171.327 265.771 171.396C265.702 171.464 265.612 171.507 265.516 171.517Z" fill="#FDFFFE"/>
<path d="M265.515 171.532H261.508V176.034H265.515V171.532Z" fill="#2AD482"/>
<path opacity="0.6" d="M265.515 171.532H261.508V176.034H265.515V171.532Z" fill="#FDFFFE"/>
<path d="M262.349 171.089H240.208C239.255 171.089 238.48 172.292 238.48 173.775C238.48 175.259 239.255 176.462 240.208 176.462H262.349V171.089Z" fill="#2AD482"/>
<path opacity="0.9" d="M262.349 171.089H240.208C239.255 171.089 238.48 172.292 238.48 173.775C238.48 175.259 239.255 176.462 240.208 176.462H262.349V171.089Z" fill="#FDFFFE"/>
<path d="M262.349 176.897C257.803 176.897 245.02 176.978 240.473 176.897C237.359 176.838 237.189 170.867 240.245 170.661C242.378 170.513 244.57 170.661 246.695 170.661H262.349C262.454 170.674 262.55 170.726 262.62 170.805C262.69 170.885 262.728 170.987 262.728 171.092C262.728 171.198 262.69 171.3 262.62 171.38C262.55 171.459 262.454 171.51 262.349 171.524H241.189C240.193 171.524 239.484 171.524 239.093 172.712C238.761 173.731 238.864 175.805 240.23 176.034H262.371C262.476 176.047 262.572 176.099 262.642 176.178C262.712 176.258 262.75 176.36 262.75 176.465C262.75 176.571 262.712 176.673 262.642 176.753C262.572 176.832 262.476 176.883 262.371 176.897H262.349Z" fill="#2AD482"/>
<g opacity="0.2">
<path d="M262.349 176.897C257.803 176.897 245.02 176.978 240.473 176.897C237.359 176.838 237.189 170.867 240.245 170.661C242.378 170.513 244.57 170.661 246.695 170.661H262.349C262.454 170.674 262.55 170.726 262.62 170.805C262.69 170.885 262.728 170.987 262.728 171.092C262.728 171.198 262.69 171.3 262.62 171.38C262.55 171.459 262.454 171.51 262.349 171.524H241.189C240.193 171.524 239.484 171.524 239.093 172.712C238.761 173.731 238.864 175.805 240.23 176.034H262.371C262.476 176.047 262.572 176.099 262.642 176.178C262.712 176.258 262.75 176.36 262.75 176.465C262.75 176.571 262.712 176.673 262.642 176.753C262.572 176.832 262.476 176.883 262.371 176.897H262.349Z" fill="#3C4D45"/>
</g>
<path d="M230.2 163.56C229.247 157.11 231.041 152.076 239.196 145.626H210.08C201.917 152.076 200.124 157.11 201.083 163.56H230.2Z" fill="#2AD482"/>
<g opacity="0.7">
<path d="M230.2 163.56C229.247 157.11 231.041 152.076 239.196 145.626H210.08C201.917 152.076 200.124 157.11 201.083 163.56H230.2Z" fill="#FDFFFE"/>
</g>
<path d="M228.199 161.686L211.874 172.262V177.008H231.742V161.686H228.199Z" fill="#2AD482"/>
<path opacity="0.2" d="M228.199 161.686L211.874 172.262V177.008H231.742V161.686H228.199Z" fill="#3C4D45"/>
<path d="M211.874 172.262H182.639V177.015H211.874V172.262Z" fill="#2AD482"/>
<path opacity="0.1" d="M211.874 172.262H182.639V177.015H211.874V172.262Z" fill="#FDFFFE"/>
<path d="M182.639 172.262L198.965 161.686H228.199L211.874 172.262H182.639Z" fill="#2AD482"/>
<path opacity="0.5" d="M182.639 172.262L198.965 161.686H228.199L211.874 172.262H182.639Z" fill="#FDFFFE"/>
<path d="M201.201 162.638C201.201 162.343 200.515 162.107 199.666 162.107C198.817 162.107 198.124 162.343 198.124 162.638V163.546C198.124 163.834 198.817 164.07 199.666 164.07C200.515 164.07 201.201 163.834 201.201 163.546V162.638Z" fill="#3C4D45"/>
<path d="M199.666 163.169C200.514 163.169 201.201 162.931 201.201 162.638C201.201 162.344 200.514 162.107 199.666 162.107C198.818 162.107 198.131 162.344 198.131 162.638C198.131 162.931 198.818 163.169 199.666 163.169Z" fill="#2AD482"/>
<path d="M205.822 162.638C205.822 162.343 205.128 162.107 204.279 162.107C203.43 162.107 202.744 162.343 202.744 162.638V163.546C202.744 163.834 203.43 164.07 204.279 164.07C205.128 164.07 205.822 163.834 205.822 163.546V162.638Z" fill="#3C4D45"/>
<path d="M204.279 163.169C205.127 163.169 205.814 162.931 205.814 162.638C205.814 162.344 205.127 162.107 204.279 162.107C203.431 162.107 202.744 162.344 202.744 162.638C202.744 162.931 203.431 163.169 204.279 163.169Z" fill="#2AD482"/>
<path d="M210.434 162.638C210.434 162.343 209.748 162.107 208.899 162.107C208.05 162.107 207.357 162.343 207.357 162.638V163.546C207.357 163.834 208.05 164.07 208.899 164.07C209.748 164.07 210.434 163.834 210.434 163.546V162.638Z" fill="#3C4D45"/>
<path d="M210.434 162.638C210.434 162.926 209.748 163.169 208.899 163.169C208.05 163.169 207.357 162.926 207.357 162.638C207.357 162.35 208.05 162.107 208.899 162.107C209.748 162.107 210.434 162.372 210.434 162.638Z" fill="#2AD482"/>
<path d="M215.055 162.638C215.055 162.343 214.361 162.107 213.512 162.107C212.663 162.107 211.977 162.343 211.977 162.638V163.546C211.977 163.834 212.663 164.07 213.512 164.07C214.361 164.07 215.055 163.834 215.055 163.546V162.638Z" fill="#3C4D45"/>
<path d="M213.512 163.169C214.36 163.169 215.047 162.931 215.047 162.638C215.047 162.344 214.36 162.107 213.512 162.107C212.664 162.107 211.977 162.344 211.977 162.638C211.977 162.931 212.664 163.169 213.512 163.169Z" fill="#2AD482"/>
<path d="M219.667 162.638C219.667 162.343 218.981 162.107 218.132 162.107C217.283 162.107 216.59 162.343 216.59 162.638V163.546C216.59 163.834 217.283 164.07 218.132 164.07C218.981 164.07 219.667 163.834 219.667 163.546V162.638Z" fill="#3C4D45"/>
<path d="M218.132 163.169C218.98 163.169 219.667 162.931 219.667 162.638C219.667 162.344 218.98 162.107 218.132 162.107C217.284 162.107 216.597 162.344 216.597 162.638C216.597 162.931 217.284 163.169 218.132 163.169Z" fill="#2AD482"/>
<path d="M224.288 162.638C224.288 162.343 223.594 162.107 222.745 162.107C221.896 162.107 221.21 162.343 221.21 162.638V163.546C221.21 163.834 221.896 164.07 222.745 164.07C223.594 164.07 224.288 163.834 224.288 163.546V162.638Z" fill="#3C4D45"/>
<path d="M222.745 163.169C223.593 163.169 224.28 162.931 224.28 162.638C224.28 162.344 223.593 162.107 222.745 162.107C221.897 162.107 221.21 162.344 221.21 162.638C221.21 162.931 221.897 163.169 222.745 163.169Z" fill="#2AD482"/>
<path d="M196.588 165.539C196.588 165.243 195.902 165.007 195.046 165.007C194.19 165.007 193.511 165.243 193.511 165.539V166.446C193.511 166.734 194.197 166.97 195.046 166.97C195.895 166.97 196.588 166.734 196.588 166.446V165.539Z" fill="#3C4D45"/>
<path d="M196.588 165.539C196.588 165.826 195.902 166.063 195.046 166.063C194.19 166.063 193.511 165.826 193.511 165.539C193.511 165.251 194.197 165.007 195.046 165.007C195.895 165.007 196.588 165.243 196.588 165.539Z" fill="#2AD482"/>
<path d="M201.201 165.539C201.201 165.243 200.515 165.007 199.666 165.007C198.817 165.007 198.124 165.243 198.124 165.539V166.446C198.124 166.734 198.817 166.97 199.666 166.97C200.515 166.97 201.201 166.734 201.201 166.446V165.539Z" fill="#3C4D45"/>
<path d="M201.201 165.539C201.201 165.826 200.515 166.063 199.666 166.063C198.817 166.063 198.124 165.826 198.124 165.539C198.124 165.251 198.817 165.007 199.666 165.007C200.515 165.007 201.201 165.243 201.201 165.539Z" fill="#2AD482"/>
<path d="M205.822 165.539C205.822 165.243 205.128 165.007 204.279 165.007C203.43 165.007 202.744 165.243 202.744 165.539V166.446C202.744 166.734 203.43 166.97 204.279 166.97C205.128 166.97 205.822 166.734 205.822 166.446V165.539Z" fill="#3C4D45"/>
<path d="M205.822 165.539C205.822 165.826 205.128 166.063 204.279 166.063C203.43 166.063 202.744 165.826 202.744 165.539C202.744 165.251 203.43 165.007 204.279 165.007C205.128 165.007 205.822 165.243 205.822 165.539Z" fill="#2AD482"/>
<path d="M210.434 165.539C210.434 165.243 209.748 165.007 208.899 165.007C208.05 165.007 207.357 165.243 207.357 165.539V166.446C207.357 166.734 208.05 166.97 208.899 166.97C209.748 166.97 210.434 166.734 210.434 166.446V165.539Z" fill="#3C4D45"/>
<path d="M210.434 165.539C210.434 165.826 209.748 166.063 208.899 166.063C208.05 166.063 207.357 165.826 207.357 165.539C207.357 165.251 208.05 165.007 208.899 165.007C209.748 165.007 210.434 165.243 210.434 165.539Z" fill="#2AD482"/>
<path d="M215.055 165.539C215.055 165.243 214.361 165.007 213.512 165.007C212.663 165.007 211.977 165.243 211.977 165.539V166.446C211.977 166.734 212.663 166.97 213.512 166.97C214.361 166.97 215.055 166.734 215.055 166.446V165.539Z" fill="#3C4D45"/>
<path d="M215.055 165.539C215.055 165.826 214.361 166.063 213.512 166.063C212.663 166.063 211.977 165.826 211.977 165.539C211.977 165.251 212.663 165.007 213.512 165.007C214.361 165.007 215.055 165.243 215.055 165.539Z" fill="#2AD482"/>
<path d="M219.667 165.539C219.667 165.243 218.981 165.007 218.132 165.007C217.283 165.007 216.59 165.243 216.59 165.539V166.446C216.59 166.734 217.283 166.97 218.132 166.97C218.981 166.97 219.667 166.734 219.667 166.446V165.539Z" fill="#3C4D45"/>
<path d="M219.667 165.539C219.667 165.826 218.981 166.063 218.132 166.063C217.283 166.063 216.59 165.826 216.59 165.539C216.59 165.251 217.283 165.007 218.132 165.007C218.981 165.007 219.667 165.243 219.667 165.539Z" fill="#2AD482"/>
<path d="M191.739 168.439C191.739 168.144 191.046 167.908 190.197 167.908C189.348 167.908 188.662 168.144 188.662 168.439V169.339C188.662 169.635 189.348 169.871 190.197 169.871C191.046 169.871 191.739 169.635 191.739 169.339V168.439Z" fill="#3C4D45"/>
<path d="M191.739 168.439C191.739 168.727 191.046 168.963 190.197 168.963C189.348 168.963 188.662 168.727 188.662 168.439C188.662 168.151 189.348 167.908 190.197 167.908C191.046 167.908 191.739 168.144 191.739 168.439Z" fill="#2AD482"/>
<path d="M196.323 168.439C196.323 168.144 195.636 167.908 194.788 167.908C193.939 167.908 193.245 168.144 193.245 168.439V169.339C193.245 169.635 193.932 169.871 194.788 169.871C195.644 169.871 196.323 169.635 196.323 169.339V168.439Z" fill="#3C4D45"/>
<path d="M196.323 168.439C196.323 168.727 195.636 168.963 194.788 168.963C193.939 168.963 193.245 168.727 193.245 168.439C193.245 168.151 193.932 167.908 194.788 167.908C195.644 167.908 196.323 168.144 196.323 168.439Z" fill="#2AD482"/>
<path d="M200.965 168.439C200.965 168.144 200.279 167.908 199.43 167.908C198.581 167.908 197.895 168.144 197.895 168.439V169.339C197.895 169.635 198.581 169.871 199.43 169.871C200.279 169.871 200.965 169.635 200.965 169.339V168.439Z" fill="#3C4D45"/>
<path d="M200.965 168.439C200.965 168.727 200.279 168.963 199.43 168.963C198.581 168.963 197.895 168.727 197.895 168.439C197.895 168.151 198.581 167.908 199.43 167.908C200.279 167.908 200.965 168.144 200.965 168.439Z" fill="#2AD482"/>
<path d="M205.585 168.439C205.585 168.144 204.899 167.908 204.043 167.908C203.187 167.908 202.508 168.144 202.508 168.439V169.339C202.508 169.635 203.194 169.871 204.043 169.871C204.891 169.871 205.585 169.635 205.585 169.339V168.439Z" fill="#3C4D45"/>
<path d="M205.585 168.439C205.585 168.727 204.899 168.963 204.043 168.963C203.187 168.963 202.508 168.727 202.508 168.439C202.508 168.151 203.194 167.908 204.043 167.908C204.891 167.908 205.585 168.144 205.585 168.439Z" fill="#2AD482"/>
<path d="M210.198 168.439C210.198 168.144 209.512 167.908 208.663 167.908C207.814 167.908 207.12 168.144 207.12 168.439V169.339C207.12 169.635 207.814 169.871 208.663 169.871C209.512 169.871 210.198 169.635 210.198 169.339V168.439Z" fill="#3C4D45"/>
<path d="M210.198 168.439C210.198 168.727 209.512 168.963 208.663 168.963C207.814 168.963 207.12 168.727 207.12 168.439C207.12 168.151 207.814 167.908 208.663 167.908C209.512 167.908 210.198 168.144 210.198 168.439Z" fill="#2AD482"/>
<path d="M214.818 168.439C214.818 168.144 214.132 167.908 213.276 167.908C212.42 167.908 211.741 168.144 211.741 168.439V169.339C211.741 169.635 212.427 169.871 213.276 169.871C214.125 169.871 214.818 169.635 214.818 169.339V168.439Z" fill="#3C4D45"/>
<path d="M214.818 168.439C214.818 168.727 214.132 168.963 213.276 168.963C212.42 168.963 211.741 168.727 211.741 168.439C211.741 168.151 212.427 167.908 213.276 167.908C214.125 167.908 214.818 168.144 214.818 168.439Z" fill="#2AD482"/>
<path d="M231.432 166.417C232.325 166.417 233.181 166.062 233.812 165.431C234.443 164.8 234.797 163.944 234.797 163.051C234.797 162.159 234.443 161.303 233.812 160.671C233.181 160.04 232.325 159.686 231.432 159.686H230.03C229.137 159.686 228.281 160.04 227.65 160.671C227.019 161.303 226.664 162.159 226.664 163.051C226.664 163.944 227.019 164.8 227.65 165.431C228.281 166.062 229.137 166.417 230.03 166.417H231.432Z" fill="#3C4D45"/>
<path d="M234.797 163.051C234.797 163.717 234.6 164.368 234.23 164.921C233.86 165.475 233.335 165.906 232.72 166.161C232.105 166.415 231.428 166.482 230.775 166.352C230.123 166.222 229.523 165.902 229.052 165.431C228.581 164.96 228.261 164.361 228.131 163.708C228.001 163.055 228.068 162.378 228.323 161.763C228.577 161.148 229.009 160.623 229.562 160.253C230.116 159.883 230.766 159.686 231.432 159.686C232.325 159.686 233.181 160.04 233.812 160.671C234.443 161.303 234.797 162.159 234.797 163.051Z" fill="#3C4D45"/>
<path opacity="0.5" d="M234.797 163.051C234.797 163.717 234.6 164.368 234.23 164.921C233.86 165.475 233.335 165.906 232.72 166.161C232.105 166.415 231.428 166.482 230.775 166.352C230.123 166.222 229.523 165.902 229.052 165.431C228.581 164.96 228.261 164.361 228.131 163.708C228.001 163.055 228.068 162.378 228.323 161.763C228.577 161.148 229.009 160.623 229.562 160.253C230.116 159.883 230.766 159.686 231.432 159.686C232.325 159.686 233.181 160.04 233.812 160.671C234.443 161.303 234.797 162.159 234.797 163.051Z" fill="#FDFFFE"/>
</g>
</svg>
