<svg width="1000" height="746" viewBox="0 0 1000 746" fill="none" xmlns="http://www.w3.org/2000/svg">
<g opacity="0.4">
<path d="M1000 654.8H0V655.3H1000V654.8Z" fill="#FDFFFE"/>
<path d="M474 565.6H87.8199C84.7946 565.595 81.895 564.389 79.7577 562.248C77.6203 560.107 76.4199 557.205 76.4199 554.18V11.32C76.4463 8.31205 77.6583 5.43596 79.7928 3.31644C81.9273 1.19692 84.8119 0.00515278 87.8199 0H474C477.029 0 479.933 1.20318 482.075 3.34484C484.217 5.48651 485.42 8.39123 485.42 11.42V554.18C485.42 557.209 484.217 560.114 482.075 562.255C479.933 564.397 477.029 565.6 474 565.6ZM87.8199 0.400002C84.9272 0.4053 82.1548 1.55813 80.1112 3.60545C78.0677 5.65278 76.9199 8.4273 76.9199 11.32V554.18C76.9199 557.073 78.0677 559.847 80.1112 561.895C82.1548 563.942 84.9272 565.095 87.8199 565.1H474C476.894 565.095 479.669 563.943 481.716 561.896C483.762 559.849 484.915 557.075 484.92 554.18V11.32C484.915 8.42546 483.762 5.65099 481.716 3.60423C479.669 1.55748 476.894 0.405288 474 0.400002H87.8199Z" fill="#FDFFFE"/>
<path d="M906.62 565.6H520.42C517.393 565.595 514.491 564.39 512.351 562.249C510.21 560.109 509.005 557.207 509 554.18V11.32C509.032 8.31023 510.248 5.43415 512.386 3.31519C514.523 1.19622 517.41 0.00509658 520.42 0H906.62C909.625 0.010409 912.504 1.2045 914.634 3.32346C916.764 5.44241 917.974 8.3155 918 11.32V554.18C918 557.202 916.802 560.101 914.669 562.241C912.536 564.382 909.642 565.589 906.62 565.6ZM520.42 0.400002C517.525 0.405288 514.751 1.55748 512.704 3.60423C510.657 5.65099 509.505 8.42546 509.5 11.32V554.18C509.505 557.075 510.657 559.849 512.704 561.896C514.751 563.943 517.525 565.095 520.42 565.1H906.62C909.515 565.095 912.289 563.943 914.336 561.896C916.383 559.849 917.535 557.075 917.54 554.18V11.32C917.535 8.42546 916.383 5.65099 914.336 3.60423C912.289 1.55748 909.515 0.405288 906.62 0.400002H520.42Z" fill="#FDFFFE"/>
<path d="M154.56 673.84H102.56V674.34H154.56V673.84Z" fill="#FDFFFE"/>
<path d="M380.36 668.42H290.3V668.92H380.36V668.42Z" fill="#FDFFFE"/>
<path d="M278.14 692.42H156.56V692.92H278.14V692.42Z" fill="#FDFFFE"/>
<path d="M897.44 689.06H858.98V689.56H897.44V689.06Z" fill="#FDFFFE"/>
<path d="M841.16 689.06H730.58V689.56H841.16V689.06Z" fill="#FDFFFE"/>
<path d="M663.04 680.62H514.1V681.12H663.04V680.62Z" fill="#FDFFFE"/>
<path d="M529.74 439.02H445.64V654.8H529.74V439.02Z" fill="#D6EBE1"/>
<path d="M144.72 654.8H445.64V439.02H144.72V654.8Z" fill="#EDFFF6"/>
<path d="M163.16 633.78H213.38V589.84H163.16V633.78Z" fill="#FDFFFE"/>
<path d="M163.16 573.72H213.38V529.78H163.16V573.72Z" fill="#FDFFFE"/>
<g style="mix-blend-mode:multiply" opacity="0.7">
<path d="M529.72 466.88H143.82V475.54H529.72V466.88Z" fill="#D6EBE1"/>
</g>
<path d="M534.38 434.84H445.64V469.78H534.38V434.84Z" fill="#D6EBE1"/>
<path d="M140.04 469.78L445.62 469.78V434.84L140.04 434.84V469.78Z" fill="#EDFFF6"/>
<path d="M497.86 368.88H432.5V435.38H497.86V368.88Z" fill="#D6EBE1"/>
<path d="M204.9 435.36H432.48V368.86H204.9V435.36Z" fill="#EDFFF6"/>
<g style="mix-blend-mode:multiply" opacity="0.7">
<path d="M497.86 378.9H204.24V384.28H497.86V378.9Z" fill="#D6EBE1"/>
</g>
<path d="M501.46 365.62H432.5V381.16H501.46V365.62Z" fill="#D6EBE1"/>
<path d="M201.32 381.16H432.5V365.62H201.32V381.16Z" fill="#EDFFF6"/>
<path d="M574.82 654.8H638.8V331.04H574.82V654.8Z" fill="#D6EBE1"/>
<path d="M588.52 654.8H574.82V631.84H602.88L588.52 654.8Z" fill="#D6EBE1"/>
<path d="M788.26 654.8H852.24V331.04H788.26V654.8Z" fill="#D6EBE1"/>
<path d="M574.82 650.16H800.2V331.04H574.82V650.16Z" fill="#D6EBE1"/>
<path d="M585.46 432.72H789.58V345.2H585.46V432.72Z" fill="#D6EBE1"/>
<path d="M700.92 387.08C700.92 389.734 700.133 392.329 698.658 394.536C697.184 396.743 695.088 398.463 692.636 399.479C690.183 400.494 687.485 400.76 684.882 400.242C682.279 399.724 679.887 398.446 678.011 396.569C676.134 394.693 674.856 392.301 674.338 389.698C673.82 387.095 674.086 384.397 675.102 381.944C676.117 379.492 677.837 377.396 680.044 375.922C682.251 374.447 684.846 373.66 687.5 373.66C689.263 373.657 691.009 374.003 692.639 374.676C694.268 375.35 695.749 376.338 696.995 377.585C698.242 378.831 699.23 380.312 699.904 381.941C700.577 383.571 700.923 385.317 700.92 387.08Z" fill="#EDFFF6"/>
<path d="M786.5 654.8H800.2V631.84H772.14L786.5 654.8Z" fill="#D6EBE1"/>
<path d="M789.56 446.84H585.44V636.02H789.56V446.84Z" fill="#D6EBE1"/>
<path d="M761.38 488.46C768.792 488.46 774.8 482.452 774.8 475.04C774.8 467.628 768.792 461.62 761.38 461.62C753.968 461.62 747.96 467.628 747.96 475.04C747.96 482.452 753.968 488.46 761.38 488.46Z" fill="#EDFFF6"/>
<path d="M830.5 295.02V33.06L172.42 33.06V295.02L830.5 295.02Z" fill="#D6EBE1"/>
<path d="M827.6 295V33.04L169.52 33.04V295L827.6 295Z" fill="#D6EBE1"/>
<path d="M810.86 49.8H186.26V278.26H810.86V49.8Z" fill="#FDFFFE"/>
<path d="M259.08 145L237.12 183.06H281.06L259.08 145Z" fill="#D6EBE1"/>
<path d="M373.1 146.08H337.22V181.96H373.1V146.08Z" fill="#D6EBE1"/>
<path d="M451.24 141.08L427.1 158.6L436.32 186.98H466.14L475.36 158.6L451.24 141.08Z" fill="#D6EBE1"/>
<path d="M560 142.06H534.62L521.92 164.02L534.62 186H560L572.68 164.02L560 142.06Z" fill="#D6EBE1"/>
<path d="M643.38 139.9L623.54 149.46L618.64 170.94L632.36 188.14H654.38L668.12 170.94L663.22 149.46L643.38 139.9Z" fill="#D6EBE1"/>
<path d="M749.16 140.58H729.74L716 154.32V173.74L729.74 187.48H749.16L762.88 173.74V154.32L749.16 140.58Z" fill="#D6EBE1"/>
<path d="M500 745.12C714.165 745.12 887.78 734.984 887.78 722.48C887.78 709.976 714.165 699.84 500 699.84C285.835 699.84 112.22 709.976 112.22 722.48C112.22 734.984 285.835 745.12 500 745.12Z" fill="#EDFFF6"/>
<path d="M478.82 149.02H808.12C809.767 148.999 811.401 149.32 812.917 149.964C814.433 150.608 815.799 151.56 816.927 152.76C818.056 153.96 818.922 155.382 819.472 156.934C820.021 158.487 820.242 160.137 820.12 161.78L793.26 594.44C793.001 597.878 791.467 601.095 788.958 603.459C786.449 605.823 783.147 607.165 779.7 607.22H450.38C448.736 607.223 447.11 606.889 445.6 606.238C444.091 605.587 442.732 604.632 441.607 603.434C440.482 602.236 439.615 600.819 439.06 599.272C438.505 597.725 438.273 596.08 438.38 594.44L465.22 161.78C465.489 158.341 467.033 155.126 469.548 152.766C472.064 150.405 475.371 149.069 478.82 149.02Z" fill="#2AD482"/>
<path opacity="0.4" d="M478.82 149.02H808.12C809.767 148.999 811.401 149.32 812.917 149.964C814.433 150.608 815.799 151.56 816.927 152.76C818.056 153.96 818.922 155.382 819.472 156.934C820.021 158.487 820.242 160.137 820.12 161.78L793.26 594.44C793.001 597.878 791.467 601.095 788.958 603.459C786.449 605.823 783.147 607.165 779.7 607.22H450.38C448.736 607.223 447.11 606.889 445.6 606.238C444.091 605.587 442.732 604.632 441.607 603.434C440.482 602.236 439.615 600.819 439.06 599.272C438.505 597.725 438.273 596.08 438.38 594.44L465.22 161.78C465.489 158.341 467.033 155.126 469.548 152.766C472.064 150.405 475.371 149.069 478.82 149.02Z" fill="#3C4D45"/>
<path d="M471.26 149.02H800.56C802.207 148.999 803.841 149.32 805.357 149.964C806.873 150.608 808.238 151.56 809.367 152.76C810.495 153.96 811.362 155.382 811.912 156.934C812.461 158.487 812.682 160.137 812.56 161.78L785.7 594.44C785.441 597.881 783.903 601.101 781.39 603.466C778.877 605.831 775.571 607.17 772.12 607.22H442.82C441.176 607.223 439.549 606.889 438.04 606.238C436.531 605.587 435.172 604.632 434.047 603.434C432.921 602.236 432.055 600.819 431.5 599.272C430.944 597.725 430.713 596.08 430.82 594.44L457.66 161.78C457.924 158.339 459.467 155.122 461.983 152.76C464.5 150.399 467.809 149.065 471.26 149.02Z" fill="#2AD482"/>
<path opacity="0.4" d="M448.68 583.86L769.22 587.7L795.22 168.66H474.44L448.68 583.86Z" fill="#3C4D45"/>
<path d="M439.32 579.62H764C781.88 415.8 787.38 327.36 789.82 163.62H465.14C462.7 327.36 457.22 415.8 439.32 579.62Z" fill="#FDFFFE"/>
<path opacity="0.3" d="M750.98 277.5H695.08C694.517 277.507 693.958 277.395 693.441 277.171C692.924 276.946 692.46 276.616 692.08 276.2C691.695 275.789 691.397 275.304 691.204 274.775C691.012 274.245 690.929 273.682 690.96 273.12L694.42 217.24C694.486 216.191 694.949 215.207 695.714 214.486C696.479 213.766 697.489 213.363 698.54 213.36H754.54C755.103 213.362 755.659 213.478 756.176 213.702C756.692 213.926 757.157 214.253 757.543 214.663C757.928 215.073 758.226 215.558 758.418 216.087C758.61 216.616 758.693 217.178 758.66 217.74L755.18 273.64C755.162 274.171 755.039 274.692 754.817 275.175C754.596 275.657 754.28 276.091 753.889 276.45C753.498 276.81 753.04 277.087 752.54 277.268C752.041 277.448 751.51 277.527 750.98 277.5ZM699.48 269.26H747.1L750 221.62H702.42L699.48 269.26Z" fill="#2AD482"/>
<path opacity="0.3" d="M745.68 362.64H689.8C689.238 362.638 688.682 362.522 688.166 362.299C687.651 362.075 687.186 361.749 686.8 361.34C686.412 360.931 686.112 360.447 685.919 359.917C685.726 359.387 685.645 358.823 685.68 358.26L689.14 302.36C689.206 301.313 689.669 300.331 690.435 299.613C691.201 298.896 692.211 298.498 693.26 298.5H749.16C749.723 298.493 750.282 298.605 750.799 298.829C751.316 299.054 751.78 299.384 752.16 299.8C752.546 300.211 752.844 300.696 753.036 301.225C753.229 301.754 753.312 302.318 753.28 302.88L749.8 358.76C749.739 359.811 749.278 360.798 748.512 361.519C747.746 362.241 746.732 362.642 745.68 362.64ZM694.18 354.38H741.8L744.76 306.74H697.14L694.18 354.38Z" fill="#2AD482"/>
<path opacity="0.3" d="M740.4 447.76H684.52C683.954 447.762 683.394 447.648 682.875 447.424C682.355 447.201 681.887 446.872 681.5 446.46C681.11 446.053 680.811 445.568 680.621 445.038C680.431 444.507 680.356 443.942 680.4 443.38L683.86 387.5C683.926 386.451 684.389 385.467 685.154 384.746C685.919 384.026 686.929 383.623 687.98 383.62H743.88C744.442 383.622 744.998 383.738 745.514 383.961C746.03 384.185 746.495 384.511 746.88 384.92C747.263 385.333 747.559 385.818 747.751 386.347C747.944 386.876 748.028 387.438 748 388L744.52 444C744.43 445.029 743.956 445.987 743.193 446.683C742.43 447.38 741.433 447.764 740.4 447.76ZM688.9 439.52H736.52L739.48 391.88H691.86L688.9 439.52Z" fill="#2AD482"/>
<path opacity="0.3" d="M735.12 532.9H679.24C678.675 532.898 678.117 532.781 677.598 532.558C677.079 532.334 676.61 532.009 676.22 531.6C675.83 531.193 675.531 530.708 675.341 530.178C675.151 529.647 675.076 529.082 675.12 528.52L678.58 472.62C678.651 471.575 679.116 470.595 679.88 469.879C680.645 469.162 681.652 468.763 682.7 468.76H738.6C739.163 468.753 739.722 468.865 740.239 469.089C740.756 469.313 741.22 469.644 741.6 470.06C741.986 470.471 742.284 470.956 742.476 471.485C742.669 472.014 742.752 472.578 742.72 473.14L739.24 529.02C739.174 530.069 738.712 531.053 737.947 531.774C737.182 532.494 736.171 532.897 735.12 532.9ZM683.62 524.64H731.24L734.2 477H686.58L683.62 524.64Z" fill="#2AD482"/>
<path opacity="0.3" d="M519.76 238.12H646.34C648.224 238.091 650.03 237.359 651.402 236.067C652.775 234.776 653.616 233.019 653.76 231.14C653.827 230.242 653.706 229.34 653.405 228.491C653.105 227.642 652.631 226.864 652.014 226.208C651.397 225.552 650.651 225.031 649.822 224.678C648.993 224.326 648.101 224.149 647.2 224.16H520.64C518.753 224.18 516.943 224.909 515.568 226.202C514.193 227.495 513.355 229.258 513.22 231.14C513.153 232.036 513.274 232.937 513.573 233.785C513.872 234.632 514.344 235.409 514.959 236.065C515.574 236.72 516.318 237.242 517.144 237.596C517.97 237.949 518.861 238.128 519.76 238.12Z" fill="#2AD482"/>
<path opacity="0.3" d="M542 266.72H644.5C646.384 266.691 648.19 265.959 649.562 264.667C650.935 263.376 651.776 261.619 651.92 259.74C651.989 258.842 651.871 257.939 651.573 257.089C651.275 256.239 650.804 255.46 650.189 254.802C649.574 254.144 648.829 253.621 648.001 253.266C647.173 252.911 646.281 252.732 645.38 252.74H542.92C541.033 252.77 539.225 253.505 537.852 254.8C536.479 256.095 535.64 257.858 535.5 259.74C535.434 260.633 535.553 261.53 535.85 262.375C536.147 263.22 536.615 263.994 537.226 264.65C537.836 265.305 538.575 265.827 539.397 266.184C540.218 266.54 541.105 266.722 542 266.72Z" fill="#2AD482"/>
<path opacity="0.3" d="M513.58 337.88H640.16C641.059 337.872 641.95 338.051 642.776 338.404C643.603 338.758 644.347 339.28 644.961 339.935C645.576 340.591 646.048 341.368 646.347 342.215C646.646 343.063 646.767 343.964 646.7 344.86C646.556 346.739 645.715 348.496 644.342 349.787C642.97 351.079 641.164 351.811 639.28 351.84H512.7C511.801 351.848 510.91 351.669 510.084 351.316C509.258 350.962 508.514 350.441 507.899 349.785C507.284 349.129 506.813 348.352 506.513 347.505C506.214 346.657 506.094 345.756 506.16 344.86C506.304 342.981 507.145 341.224 508.518 339.933C509.891 338.641 511.696 337.909 513.58 337.88Z" fill="#2AD482"/>
<path opacity="0.3" d="M539.42 309.28H642C642.901 309.269 643.794 309.446 644.622 309.798C645.451 310.151 646.197 310.672 646.814 311.328C647.431 311.984 647.905 312.762 648.205 313.611C648.506 314.46 648.627 315.362 648.56 316.26C648.42 318.143 647.582 319.905 646.209 321.2C644.835 322.495 643.027 323.23 641.14 323.26H538.56C537.658 323.271 536.763 323.094 535.933 322.74C535.102 322.386 534.355 321.864 533.738 321.205C533.121 320.547 532.648 319.767 532.348 318.916C532.049 318.064 531.931 317.16 532 316.26C532.144 314.381 532.985 312.624 534.358 311.333C535.73 310.041 537.536 309.309 539.42 309.28Z" fill="#2AD482"/>
<path opacity="0.3" d="M509.2 408.38H635.78C637.664 408.351 639.47 407.619 640.842 406.327C642.215 405.036 643.056 403.279 643.2 401.4C643.267 400.502 643.146 399.6 642.845 398.751C642.545 397.902 642.071 397.124 641.454 396.468C640.838 395.812 640.091 395.291 639.262 394.938C638.434 394.586 637.541 394.409 636.64 394.42H510C508.116 394.449 506.311 395.181 504.938 396.473C503.565 397.764 502.724 399.521 502.58 401.4C502.513 402.303 502.635 403.211 502.94 404.064C503.244 404.917 503.723 405.697 504.346 406.354C504.969 407.012 505.723 407.531 506.559 407.88C507.395 408.229 508.295 408.399 509.2 408.38Z" fill="#2AD482"/>
<path opacity="0.3" d="M583.08 436.98H634C635.884 436.951 637.69 436.219 639.062 434.927C640.435 433.636 641.276 431.879 641.42 430C641.486 429.101 641.366 428.198 641.065 427.348C640.765 426.498 640.292 425.719 639.675 425.061C639.059 424.404 638.312 423.881 637.484 423.526C636.655 423.171 635.761 422.992 634.86 423H584C582.114 423.034 580.308 423.771 578.936 425.065C577.564 426.36 576.724 428.119 576.58 430C576.514 430.893 576.633 431.79 576.93 432.635C577.227 433.48 577.695 434.254 578.305 434.91C578.916 435.565 579.655 436.087 580.476 436.444C581.298 436.8 582.184 436.982 583.08 436.98Z" fill="#2AD482"/>
<path opacity="0.3" d="M531.5 436.98H558.36C560.244 436.951 562.05 436.219 563.422 434.927C564.795 433.636 565.636 431.879 565.78 430C565.847 429.101 565.726 428.198 565.425 427.348C565.125 426.498 564.652 425.719 564.035 425.061C563.419 424.404 562.673 423.881 561.844 423.526C561.015 423.171 560.122 422.992 559.22 423H532.36C530.474 423.034 528.669 423.771 527.296 425.065C525.924 426.36 525.084 428.119 524.94 430C524.874 430.898 524.994 431.8 525.295 432.649C525.595 433.498 526.069 434.276 526.686 434.932C527.303 435.588 528.049 436.109 528.878 436.462C529.707 436.814 530.6 436.991 531.5 436.98Z" fill="#2AD482"/>
<path opacity="0.3" d="M504 493.52H630.58C632.464 493.491 634.27 492.759 635.642 491.467C637.015 490.176 637.856 488.419 638 486.54C638.067 485.641 637.946 484.738 637.646 483.888C637.345 483.038 636.872 482.259 636.255 481.601C635.639 480.944 634.893 480.421 634.064 480.066C633.235 479.711 632.342 479.532 631.44 479.54H504.78C502.893 479.57 501.085 480.305 499.712 481.6C498.339 482.895 497.5 484.657 497.36 486.54C497.293 487.445 497.416 488.354 497.721 489.209C498.026 490.063 498.507 490.844 499.133 491.502C499.758 492.159 500.515 492.679 501.353 493.026C502.191 493.374 503.093 493.542 504 493.52Z" fill="#2AD482"/>
<path opacity="0.3" d="M526.22 522.12H628.72C630.606 522.086 632.412 521.349 633.784 520.055C635.156 518.76 635.996 517.001 636.14 515.12C636.207 514.222 636.086 513.32 635.785 512.471C635.485 511.622 635.011 510.844 634.394 510.188C633.778 509.532 633.031 509.011 632.202 508.658C631.374 508.306 630.481 508.129 629.58 508.14H527.08C525.196 508.169 523.39 508.901 522.018 510.193C520.645 511.484 519.804 513.241 519.66 515.12C519.594 516.019 519.714 516.922 520.015 517.772C520.315 518.622 520.788 519.401 521.405 520.059C522.021 520.716 522.768 521.239 523.596 521.594C524.425 521.949 525.319 522.128 526.22 522.12Z" fill="#2AD482"/>
<path d="M720.22 262.2C719.391 262.206 718.58 261.955 717.9 261.48L696.36 246.78C695.538 246.13 694.993 245.192 694.835 244.156C694.677 243.12 694.918 242.062 695.509 241.197C696.101 240.331 696.998 239.722 698.021 239.493C699.044 239.263 700.116 239.43 701.02 239.96L719.42 252.54C726.14 244.44 745.3 222.54 761.24 215.36C761.735 215.139 762.269 215.018 762.811 215.004C763.353 214.99 763.892 215.082 764.398 215.276C764.904 215.47 765.367 215.762 765.76 216.135C766.154 216.508 766.469 216.955 766.69 217.45C766.911 217.945 767.032 218.479 767.046 219.021C767.06 219.562 766.968 220.102 766.774 220.608C766.58 221.114 766.288 221.577 765.915 221.97C765.542 222.363 765.095 222.679 764.6 222.9C747.2 230.64 723.7 260.34 723.48 260.64C723.089 261.128 722.593 261.522 722.028 261.793C721.464 262.063 720.846 262.202 720.22 262.2Z" fill="#2AD482"/>
<path d="M710.2 345.68C709.13 345.683 708.099 345.275 707.32 344.54L688.58 326.54C687.784 325.779 687.324 324.733 687.299 323.632C687.275 322.531 687.689 321.466 688.45 320.67C689.211 319.874 690.257 319.414 691.358 319.389C692.459 319.365 693.524 319.779 694.32 320.54L710.32 335.92C718.22 328.86 740.32 310.06 757.04 305.5C757.565 305.357 758.114 305.319 758.654 305.387C759.194 305.456 759.715 305.631 760.188 305.901C760.66 306.171 761.075 306.532 761.408 306.962C761.742 307.393 761.987 307.885 762.13 308.41C762.273 308.935 762.311 309.484 762.243 310.024C762.174 310.564 762 311.085 761.729 311.558C761.459 312.03 761.098 312.445 760.668 312.778C760.237 313.112 759.745 313.357 759.22 313.5C740.98 318.48 713.36 344.36 713.08 344.62C712.693 344.978 712.24 345.255 711.746 345.437C711.252 345.619 710.726 345.702 710.2 345.68Z" fill="#2AD482"/>
<path opacity="0.4" d="M675.14 173.46H681.14C682.747 173.476 684.342 173.175 685.833 172.574C687.324 171.974 688.683 171.085 689.83 169.96C690.978 168.835 691.893 167.494 692.522 166.015C693.152 164.536 693.484 162.947 693.5 161.34V150.18C693.5 150.018 693.468 149.858 693.405 149.708C693.343 149.559 693.251 149.424 693.136 149.31C693.02 149.197 692.883 149.107 692.733 149.047C692.583 148.987 692.422 148.957 692.26 148.96H675.3C674.936 148.965 674.588 149.112 674.33 149.37C674.072 149.628 673.925 149.976 673.92 150.34L674 172.24C673.999 172.55 674.117 172.849 674.329 173.076C674.54 173.302 674.83 173.44 675.14 173.46Z" fill="#3C4D45"/>
<path d="M583.1 128.78H685.22C686.679 128.738 688.129 129.021 689.465 129.608C690.801 130.194 691.991 131.07 692.947 132.172C693.904 133.275 694.604 134.575 694.997 135.981C695.39 137.386 695.466 138.862 695.22 140.3L692.16 163.04C691.663 166.183 690.084 169.054 687.696 171.157C685.308 173.26 682.261 174.464 679.08 174.56H576.92C575.461 174.602 574.011 174.319 572.675 173.732C571.339 173.146 570.149 172.27 569.193 171.168C568.236 170.065 567.536 168.765 567.143 167.359C566.75 165.954 566.674 164.479 566.92 163.04L570 140.3C570.498 137.154 572.079 134.28 574.472 132.177C576.864 130.073 579.916 128.871 583.1 128.78Z" fill="#2AD482"/>
<path opacity="0.6" d="M583.1 128.78H685.22C686.679 128.738 688.129 129.021 689.465 129.608C690.801 130.194 691.991 131.07 692.947 132.172C693.904 133.275 694.604 134.575 694.997 135.981C695.39 137.386 695.466 138.862 695.22 140.3L692.16 163.04C691.663 166.183 690.084 169.054 687.696 171.157C685.308 173.26 682.261 174.464 679.08 174.56H576.92C575.461 174.602 574.011 174.319 572.675 173.732C571.339 173.146 570.149 172.27 569.193 171.168C568.236 170.065 567.536 168.765 567.143 167.359C566.75 165.954 566.674 164.479 566.92 163.04L570 140.3C570.498 137.154 572.079 134.28 574.472 132.177C576.864 130.073 579.916 128.871 583.1 128.78Z" fill="#FDFFFE"/>
<path opacity="0.5" d="M682.58 139.78H636.58C636.153 139.814 635.724 139.76 635.32 139.62C634.915 139.481 634.544 139.259 634.229 138.968C633.914 138.678 633.663 138.326 633.492 137.934C633.32 137.542 633.231 137.118 633.231 136.69C633.231 136.262 633.32 135.839 633.492 135.446C633.663 135.054 633.914 134.702 634.229 134.412C634.544 134.121 634.915 133.899 635.32 133.76C635.724 133.62 636.153 133.566 636.58 133.6H682.58C683.357 133.663 684.081 134.015 684.609 134.588C685.138 135.16 685.431 135.911 685.431 136.69C685.431 137.469 685.138 138.22 684.609 138.792C684.081 139.365 683.357 139.717 682.58 139.78Z" fill="#FDFFFE"/>
<path opacity="0.5" d="M621.28 139.78H616.44C616.013 139.814 615.584 139.76 615.18 139.62C614.775 139.481 614.404 139.259 614.089 138.968C613.775 138.678 613.523 138.326 613.352 137.934C613.18 137.542 613.091 137.118 613.091 136.69C613.091 136.262 613.18 135.839 613.352 135.446C613.523 135.054 613.775 134.702 614.089 134.412C614.404 134.121 614.775 133.899 615.18 133.76C615.584 133.62 616.013 133.566 616.44 133.6H621.28C621.707 133.566 622.136 133.62 622.541 133.76C622.945 133.899 623.317 134.121 623.631 134.412C623.946 134.702 624.197 135.054 624.369 135.446C624.54 135.839 624.629 136.262 624.629 136.69C624.629 137.118 624.54 137.542 624.369 137.934C624.197 138.326 623.946 138.678 623.631 138.968C623.317 139.259 622.945 139.481 622.541 139.62C622.136 139.76 621.707 139.814 621.28 139.78Z" fill="#FDFFFE"/>
</g>
</svg>
